G04 (created by PCBNEW (2013-jul-07)-stable) date Thu Nov 12 15:47:10 2015*
%MOIN*%
G04 Gerber Fmt 3.4, Leading zero omitted, Abs format*
%FSLAX34Y34*%
G01*
G70*
G90*
G04 APERTURE LIST*
%ADD10C,0.00590551*%
%ADD11C,0.011811*%
%ADD12C,0.015*%
%ADD13C,0.008*%
%ADD14C,0.01*%
%ADD15C,0.012*%
%ADD16C,0.006*%
%ADD17C,0.005*%
%ADD18C,0.01125*%
%ADD19C,0.0075*%
G04 APERTURE END LIST*
G54D10*
G54D11*
X34687Y-12439D02*
X34350Y-12439D01*
X34518Y-12439D02*
X34518Y-11848D01*
X34462Y-11932D01*
X34406Y-11989D01*
X34350Y-12017D01*
X35053Y-11848D02*
X35109Y-11848D01*
X35165Y-11876D01*
X35193Y-11904D01*
X35221Y-11960D01*
X35249Y-12073D01*
X35249Y-12214D01*
X35221Y-12326D01*
X35193Y-12382D01*
X35165Y-12410D01*
X35109Y-12439D01*
X35053Y-12439D01*
X34996Y-12410D01*
X34968Y-12382D01*
X34940Y-12326D01*
X34912Y-12214D01*
X34912Y-12073D01*
X34940Y-11960D01*
X34968Y-11904D01*
X34996Y-11876D01*
X35053Y-11848D01*
X36368Y-18639D02*
X36031Y-18639D01*
X36200Y-18639D02*
X36200Y-18048D01*
X36143Y-18132D01*
X36087Y-18189D01*
X36031Y-18217D01*
G54D12*
X28625Y-11825D02*
X28625Y-26825D01*
X28625Y-26825D02*
X26625Y-26825D01*
X26625Y-26825D02*
X26625Y-11825D01*
X26625Y-11825D02*
X28625Y-11825D01*
X28125Y-11825D02*
X28125Y-12325D01*
X28125Y-12325D02*
X27125Y-12325D01*
X27125Y-12325D02*
X27125Y-11825D01*
G54D11*
X12725Y-10875D02*
X14725Y-10875D01*
X12725Y-19875D02*
X14725Y-19875D01*
X14725Y-10875D02*
X14725Y-19875D01*
X13725Y-10875D02*
X13725Y-11375D01*
X13725Y-11375D02*
X12725Y-11375D01*
X12725Y-11375D02*
X12725Y-10875D01*
G54D12*
X12225Y-10875D02*
X12225Y-10875D01*
X12725Y-19875D02*
X10725Y-19875D01*
X10725Y-19875D02*
X10725Y-10875D01*
X10725Y-10875D02*
X12725Y-10875D01*
X7372Y-7042D02*
G75*
G03X7372Y-7042I-900J0D01*
G74*
G01*
X40837Y-7042D02*
G75*
G03X40837Y-7042I-900J0D01*
G74*
G01*
X40837Y-33026D02*
G75*
G03X40837Y-33026I-900J0D01*
G74*
G01*
X7372Y-33026D02*
G75*
G03X7372Y-33026I-900J0D01*
G74*
G01*
G54D13*
X22851Y-19999D02*
G75*
G03X22849Y-21399I107J-700D01*
G74*
G01*
X24648Y-21400D02*
G75*
G03X24650Y-20000I-107J700D01*
G74*
G01*
X22858Y-21400D02*
G75*
G03X24655Y-21399I891J8075D01*
G74*
G01*
X24638Y-19998D02*
G75*
G03X22847Y-20000I-888J-8051D01*
G74*
G01*
G54D14*
X8100Y-9620D02*
X9100Y-9620D01*
X9109Y-9620D02*
X8910Y-9620D01*
X8091Y-9620D02*
X8270Y-9620D01*
X9113Y-9613D02*
G75*
G03X9400Y-9000I-513J613D01*
G74*
G01*
X9399Y-9000D02*
G75*
G03X8976Y-8295I-799J0D01*
G74*
G01*
X7801Y-9001D02*
G75*
G03X8084Y-9610I798J1D01*
G74*
G01*
X8202Y-8305D02*
G75*
G03X7800Y-9000I397J-694D01*
G74*
G01*
X8979Y-8295D02*
G75*
G03X8600Y-8200I-379J-704D01*
G74*
G01*
X8600Y-8200D02*
G75*
G03X8181Y-8318I0J-799D01*
G74*
G01*
X33020Y-25300D02*
X33020Y-24300D01*
X33020Y-24291D02*
X33020Y-24490D01*
X33020Y-25309D02*
X33020Y-25130D01*
X33013Y-24286D02*
G75*
G03X32400Y-24000I-613J-513D01*
G74*
G01*
X32400Y-24001D02*
G75*
G03X31695Y-24423I0J-799D01*
G74*
G01*
X32401Y-25598D02*
G75*
G03X33010Y-25315I-1J798D01*
G74*
G01*
X31705Y-25197D02*
G75*
G03X32400Y-25600I694J397D01*
G74*
G01*
X31695Y-24420D02*
G75*
G03X31600Y-24800I704J-379D01*
G74*
G01*
X31600Y-24800D02*
G75*
G03X31718Y-25218I799J0D01*
G74*
G01*
G54D15*
X34625Y-40175D02*
X37625Y-40175D01*
X37625Y-40175D02*
X37625Y-32775D01*
X37625Y-32775D02*
X34625Y-32775D01*
X34625Y-32775D02*
X34625Y-40175D01*
X24625Y-40175D02*
X27625Y-40175D01*
X27625Y-40175D02*
X27625Y-32775D01*
X27625Y-32775D02*
X24625Y-32775D01*
X24625Y-32775D02*
X24625Y-40175D01*
X19625Y-40175D02*
X22625Y-40175D01*
X22625Y-40175D02*
X22625Y-32775D01*
X22625Y-32775D02*
X19625Y-32775D01*
X19625Y-32775D02*
X19625Y-40175D01*
X14625Y-40175D02*
X17625Y-40175D01*
X17625Y-40175D02*
X17625Y-32775D01*
X17625Y-32775D02*
X14625Y-32775D01*
X14625Y-32775D02*
X14625Y-40175D01*
X9625Y-40175D02*
X12625Y-40175D01*
X12625Y-40175D02*
X12625Y-32775D01*
X12625Y-32775D02*
X9625Y-32775D01*
X9625Y-32775D02*
X9625Y-40175D01*
X29625Y-40175D02*
X32625Y-40175D01*
X32625Y-40175D02*
X32625Y-32775D01*
X32625Y-32775D02*
X29625Y-32775D01*
X29625Y-32775D02*
X29625Y-40175D01*
G54D13*
X30600Y-21700D02*
X30600Y-21900D01*
X30600Y-24700D02*
X30600Y-24500D01*
X30600Y-24500D02*
X31000Y-24500D01*
X31000Y-24500D02*
X31000Y-21900D01*
X31000Y-21900D02*
X30200Y-21900D01*
X30200Y-21900D02*
X30200Y-24500D01*
X30200Y-24500D02*
X30600Y-24500D01*
X30800Y-21900D02*
X31000Y-22100D01*
X13600Y-8500D02*
X13400Y-8500D01*
X10600Y-8500D02*
X10800Y-8500D01*
X10800Y-8500D02*
X10800Y-8900D01*
X10800Y-8900D02*
X13400Y-8900D01*
X13400Y-8900D02*
X13400Y-8100D01*
X13400Y-8100D02*
X10800Y-8100D01*
X10800Y-8100D02*
X10800Y-8500D01*
X13400Y-8700D02*
X13200Y-8900D01*
X9375Y-25575D02*
X9375Y-25775D01*
X9375Y-28575D02*
X9375Y-28375D01*
X9375Y-28375D02*
X9775Y-28375D01*
X9775Y-28375D02*
X9775Y-25775D01*
X9775Y-25775D02*
X8975Y-25775D01*
X8975Y-25775D02*
X8975Y-28375D01*
X8975Y-28375D02*
X9375Y-28375D01*
X9575Y-25775D02*
X9775Y-25975D01*
X36100Y-28600D02*
X35900Y-28600D01*
X33100Y-28600D02*
X33300Y-28600D01*
X33300Y-28600D02*
X33300Y-29000D01*
X33300Y-29000D02*
X35900Y-29000D01*
X35900Y-29000D02*
X35900Y-28200D01*
X35900Y-28200D02*
X33300Y-28200D01*
X33300Y-28200D02*
X33300Y-28600D01*
X35900Y-28800D02*
X35700Y-29000D01*
X35500Y-22400D02*
X35300Y-22400D01*
X32500Y-22400D02*
X32700Y-22400D01*
X32700Y-22400D02*
X32700Y-22800D01*
X32700Y-22800D02*
X35300Y-22800D01*
X35300Y-22800D02*
X35300Y-22000D01*
X35300Y-22000D02*
X32700Y-22000D01*
X32700Y-22000D02*
X32700Y-22400D01*
X35300Y-22600D02*
X35100Y-22800D01*
X31800Y-18500D02*
X31800Y-18700D01*
X31800Y-21500D02*
X31800Y-21300D01*
X31800Y-21300D02*
X32200Y-21300D01*
X32200Y-21300D02*
X32200Y-18700D01*
X32200Y-18700D02*
X31400Y-18700D01*
X31400Y-18700D02*
X31400Y-21300D01*
X31400Y-21300D02*
X31800Y-21300D01*
X32000Y-18700D02*
X32200Y-18900D01*
X21900Y-12400D02*
X22100Y-12400D01*
X24900Y-12400D02*
X24700Y-12400D01*
X24700Y-12400D02*
X24700Y-12000D01*
X24700Y-12000D02*
X22100Y-12000D01*
X22100Y-12000D02*
X22100Y-12800D01*
X22100Y-12800D02*
X24700Y-12800D01*
X24700Y-12800D02*
X24700Y-12400D01*
X22100Y-12200D02*
X22300Y-12000D01*
X15200Y-10000D02*
X15000Y-10000D01*
X12200Y-10000D02*
X12400Y-10000D01*
X12400Y-10000D02*
X12400Y-10400D01*
X12400Y-10400D02*
X15000Y-10400D01*
X15000Y-10400D02*
X15000Y-9600D01*
X15000Y-9600D02*
X12400Y-9600D01*
X12400Y-9600D02*
X12400Y-10000D01*
X15000Y-10200D02*
X14800Y-10400D01*
G54D15*
X34600Y-17700D02*
X34600Y-12700D01*
X34600Y-12700D02*
X36600Y-12700D01*
X36600Y-12700D02*
X36600Y-17700D01*
X36600Y-17700D02*
X34600Y-17700D01*
G54D12*
X15630Y-35685D02*
X15630Y-34685D01*
X15630Y-34685D02*
X11630Y-34685D01*
X11630Y-34685D02*
X11630Y-35685D01*
X11630Y-35685D02*
X15630Y-35685D01*
X8225Y-17375D02*
X9225Y-17375D01*
X9225Y-17375D02*
X9225Y-13375D01*
X9225Y-13375D02*
X8225Y-13375D01*
X8225Y-13375D02*
X8225Y-17375D01*
X25610Y-35685D02*
X25610Y-34685D01*
X25610Y-34685D02*
X21610Y-34685D01*
X21610Y-34685D02*
X21610Y-35685D01*
X21610Y-35685D02*
X25610Y-35685D01*
G54D16*
X38700Y-28600D02*
X39700Y-28600D01*
X39700Y-28600D02*
X39700Y-30600D01*
X39700Y-30600D02*
X38700Y-30600D01*
X38700Y-30600D02*
X38700Y-28600D01*
X39625Y-26575D02*
X38625Y-26575D01*
X38625Y-26575D02*
X38625Y-24575D01*
X38625Y-24575D02*
X39625Y-24575D01*
X39625Y-24575D02*
X39625Y-26575D01*
X39700Y-24000D02*
X38700Y-24000D01*
X38700Y-24000D02*
X38700Y-22000D01*
X38700Y-22000D02*
X39700Y-22000D01*
X39700Y-22000D02*
X39700Y-24000D01*
X29600Y-9500D02*
X29600Y-10500D01*
X29600Y-10500D02*
X27600Y-10500D01*
X27600Y-10500D02*
X27600Y-9500D01*
X27600Y-9500D02*
X29600Y-9500D01*
X20200Y-23000D02*
X20200Y-24000D01*
X20200Y-24000D02*
X18200Y-24000D01*
X18200Y-24000D02*
X18200Y-23000D01*
X18200Y-23000D02*
X20200Y-23000D01*
X8100Y-10500D02*
X9100Y-10500D01*
X9100Y-10500D02*
X9100Y-12500D01*
X9100Y-12500D02*
X8100Y-12500D01*
X8100Y-12500D02*
X8100Y-10500D01*
G54D15*
X25000Y-9450D02*
X25000Y-10450D01*
X25000Y-10450D02*
X19000Y-10450D01*
X19000Y-10450D02*
X19000Y-9450D01*
X19000Y-9450D02*
X25000Y-9450D01*
X24000Y-9450D02*
X24000Y-10450D01*
X37800Y-13300D02*
X37800Y-13600D01*
X37800Y-13600D02*
X37400Y-13600D01*
X37400Y-13600D02*
X37400Y-16000D01*
X37400Y-16000D02*
X37800Y-16000D01*
X37800Y-16000D02*
X37800Y-16300D01*
X37800Y-16000D02*
X38200Y-16000D01*
X38200Y-16000D02*
X38200Y-13600D01*
X38200Y-13600D02*
X37800Y-13600D01*
X37400Y-13800D02*
X38200Y-13800D01*
X38200Y-13900D02*
X37400Y-13900D01*
X25500Y-11200D02*
X25200Y-11200D01*
X25200Y-11200D02*
X25200Y-10800D01*
X25200Y-10800D02*
X22800Y-10800D01*
X22800Y-10800D02*
X22800Y-11200D01*
X22800Y-11200D02*
X22500Y-11200D01*
X22800Y-11200D02*
X22800Y-11600D01*
X22800Y-11600D02*
X25200Y-11600D01*
X25200Y-11600D02*
X25200Y-11200D01*
X25000Y-10800D02*
X25000Y-11600D01*
X24900Y-11600D02*
X24900Y-10800D01*
G54D17*
X38401Y-23000D02*
G75*
G03X38401Y-23000I-1001J0D01*
G74*
G01*
X38401Y-25600D02*
G75*
G03X38401Y-25600I-1001J0D01*
G74*
G01*
G54D12*
X17875Y-30075D02*
G75*
G03X17875Y-30075I-1750J0D01*
G74*
G01*
X27875Y-30075D02*
G75*
G03X27875Y-30075I-1750J0D01*
G74*
G01*
X32875Y-30075D02*
G75*
G03X32875Y-30075I-1750J0D01*
G74*
G01*
X11550Y-22200D02*
G75*
G03X11550Y-22200I-1750J0D01*
G74*
G01*
G54D15*
X8225Y-19355D02*
X8225Y-17375D01*
X8225Y-17375D02*
X9225Y-17375D01*
X9225Y-17375D02*
X9225Y-19375D01*
X9225Y-19375D02*
X8225Y-19375D01*
X8475Y-19375D02*
X8225Y-19125D01*
X29900Y-20180D02*
X29900Y-18200D01*
X29900Y-18200D02*
X30900Y-18200D01*
X30900Y-18200D02*
X30900Y-20200D01*
X30900Y-20200D02*
X29900Y-20200D01*
X30150Y-20200D02*
X29900Y-19950D01*
X24980Y-18950D02*
X23000Y-18950D01*
X23000Y-18950D02*
X23000Y-17950D01*
X23000Y-17950D02*
X25000Y-17950D01*
X25000Y-17950D02*
X25000Y-18950D01*
X25000Y-18700D02*
X24750Y-18950D01*
X13705Y-21375D02*
X11725Y-21375D01*
X11725Y-21375D02*
X11725Y-20375D01*
X11725Y-20375D02*
X13725Y-20375D01*
X13725Y-20375D02*
X13725Y-21375D01*
X13725Y-21125D02*
X13475Y-21375D01*
X22500Y-16920D02*
X22500Y-18900D01*
X22500Y-18900D02*
X21500Y-18900D01*
X21500Y-18900D02*
X21500Y-16900D01*
X21500Y-16900D02*
X22500Y-16900D01*
X22250Y-16900D02*
X22500Y-17150D01*
X25420Y-8500D02*
X27400Y-8500D01*
X27400Y-8500D02*
X27400Y-9500D01*
X27400Y-9500D02*
X25400Y-9500D01*
X25400Y-9500D02*
X25400Y-8500D01*
X25400Y-8750D02*
X25650Y-8500D01*
G54D14*
X23125Y-32695D02*
X24125Y-32695D01*
X24134Y-32695D02*
X23935Y-32695D01*
X23116Y-32695D02*
X23295Y-32695D01*
X24138Y-32688D02*
G75*
G03X24425Y-32075I-513J613D01*
G74*
G01*
X24424Y-32075D02*
G75*
G03X24001Y-31370I-799J0D01*
G74*
G01*
X22826Y-32076D02*
G75*
G03X23109Y-32685I798J1D01*
G74*
G01*
X23227Y-31380D02*
G75*
G03X22825Y-32075I397J-694D01*
G74*
G01*
X24004Y-31370D02*
G75*
G03X23625Y-31275I-379J-704D01*
G74*
G01*
X23625Y-31275D02*
G75*
G03X23206Y-31393I0J-799D01*
G74*
G01*
X13125Y-32695D02*
X14125Y-32695D01*
X14134Y-32695D02*
X13935Y-32695D01*
X13116Y-32695D02*
X13295Y-32695D01*
X14138Y-32688D02*
G75*
G03X14425Y-32075I-513J613D01*
G74*
G01*
X14424Y-32075D02*
G75*
G03X14001Y-31370I-799J0D01*
G74*
G01*
X12826Y-32076D02*
G75*
G03X13109Y-32685I798J1D01*
G74*
G01*
X13227Y-31380D02*
G75*
G03X12825Y-32075I397J-694D01*
G74*
G01*
X14004Y-31370D02*
G75*
G03X13625Y-31275I-379J-704D01*
G74*
G01*
X13625Y-31275D02*
G75*
G03X13206Y-31393I0J-799D01*
G74*
G01*
G54D13*
X23625Y-27575D02*
X23625Y-27775D01*
X23625Y-30575D02*
X23625Y-30375D01*
X23625Y-30375D02*
X24025Y-30375D01*
X24025Y-30375D02*
X24025Y-27775D01*
X24025Y-27775D02*
X23225Y-27775D01*
X23225Y-27775D02*
X23225Y-30375D01*
X23225Y-30375D02*
X23625Y-30375D01*
X23825Y-27775D02*
X24025Y-27975D01*
X13625Y-27575D02*
X13625Y-27775D01*
X13625Y-30575D02*
X13625Y-30375D01*
X13625Y-30375D02*
X14025Y-30375D01*
X14025Y-30375D02*
X14025Y-27775D01*
X14025Y-27775D02*
X13225Y-27775D01*
X13225Y-27775D02*
X13225Y-30375D01*
X13225Y-30375D02*
X13625Y-30375D01*
X13825Y-27775D02*
X14025Y-27975D01*
X30900Y-17600D02*
X31100Y-17600D01*
X33900Y-17600D02*
X33700Y-17600D01*
X33700Y-17600D02*
X33700Y-17200D01*
X33700Y-17200D02*
X31100Y-17200D01*
X31100Y-17200D02*
X31100Y-18000D01*
X31100Y-18000D02*
X33700Y-18000D01*
X33700Y-18000D02*
X33700Y-17600D01*
X31100Y-17400D02*
X31300Y-17200D01*
X31800Y-16700D02*
X31800Y-16500D01*
X31800Y-13700D02*
X31800Y-13900D01*
X31800Y-13900D02*
X31400Y-13900D01*
X31400Y-13900D02*
X31400Y-16500D01*
X31400Y-16500D02*
X32200Y-16500D01*
X32200Y-16500D02*
X32200Y-13900D01*
X32200Y-13900D02*
X31800Y-13900D01*
X31600Y-16500D02*
X31400Y-16300D01*
G54D15*
X5720Y-12800D02*
X7700Y-12800D01*
X7700Y-12800D02*
X7700Y-13800D01*
X7700Y-13800D02*
X5700Y-13800D01*
X5700Y-13800D02*
X5700Y-12800D01*
X5700Y-13050D02*
X5950Y-12800D01*
X5720Y-14200D02*
X7700Y-14200D01*
X7700Y-14200D02*
X7700Y-15200D01*
X7700Y-15200D02*
X5700Y-15200D01*
X5700Y-15200D02*
X5700Y-14200D01*
X5700Y-14450D02*
X5950Y-14200D01*
X7680Y-16600D02*
X5700Y-16600D01*
X5700Y-16600D02*
X5700Y-15600D01*
X5700Y-15600D02*
X7700Y-15600D01*
X7700Y-15600D02*
X7700Y-16600D01*
X7700Y-16350D02*
X7450Y-16600D01*
X7680Y-18000D02*
X5700Y-18000D01*
X5700Y-18000D02*
X5700Y-17000D01*
X5700Y-17000D02*
X7700Y-17000D01*
X7700Y-17000D02*
X7700Y-18000D01*
X7700Y-17750D02*
X7450Y-18000D01*
G54D13*
X19169Y-28838D02*
X19369Y-28838D01*
X22169Y-28838D02*
X21969Y-28838D01*
X21969Y-28838D02*
X21969Y-28438D01*
X21969Y-28438D02*
X19369Y-28438D01*
X19369Y-28438D02*
X19369Y-29238D01*
X19369Y-29238D02*
X21969Y-29238D01*
X21969Y-29238D02*
X21969Y-28838D01*
X19369Y-28638D02*
X19569Y-28438D01*
X8933Y-29921D02*
X9133Y-29921D01*
X11933Y-29921D02*
X11733Y-29921D01*
X11733Y-29921D02*
X11733Y-29521D01*
X11733Y-29521D02*
X9133Y-29521D01*
X9133Y-29521D02*
X9133Y-30321D01*
X9133Y-30321D02*
X11733Y-30321D01*
X11733Y-30321D02*
X11733Y-29921D01*
X9133Y-29721D02*
X9333Y-29521D01*
X33858Y-9720D02*
X33858Y-9920D01*
X33858Y-12720D02*
X33858Y-12520D01*
X33858Y-12520D02*
X34258Y-12520D01*
X34258Y-12520D02*
X34258Y-9920D01*
X34258Y-9920D02*
X33458Y-9920D01*
X33458Y-9920D02*
X33458Y-12520D01*
X33458Y-12520D02*
X33858Y-12520D01*
X34058Y-9920D02*
X34258Y-10120D01*
X39098Y-12007D02*
X38898Y-12007D01*
X36098Y-12007D02*
X36298Y-12007D01*
X36298Y-12007D02*
X36298Y-12407D01*
X36298Y-12407D02*
X38898Y-12407D01*
X38898Y-12407D02*
X38898Y-11607D01*
X38898Y-11607D02*
X36298Y-11607D01*
X36298Y-11607D02*
X36298Y-12007D01*
X38898Y-12207D02*
X38698Y-12407D01*
G54D12*
X12433Y-32049D02*
X12433Y-32299D01*
X12433Y-32299D02*
X8433Y-32299D01*
X8433Y-32299D02*
X8433Y-32049D01*
X12433Y-30549D02*
X12433Y-32049D01*
X12433Y-32049D02*
X8433Y-32049D01*
X8433Y-32049D02*
X8433Y-30549D01*
X8433Y-30549D02*
X12433Y-30549D01*
X22669Y-31064D02*
X22669Y-31314D01*
X22669Y-31314D02*
X18669Y-31314D01*
X18669Y-31314D02*
X18669Y-31064D01*
X22669Y-29564D02*
X22669Y-31064D01*
X22669Y-31064D02*
X18669Y-31064D01*
X18669Y-31064D02*
X18669Y-29564D01*
X18669Y-29564D02*
X22669Y-29564D01*
G54D18*
X27867Y-15264D02*
X27267Y-15264D01*
X27810Y-14792D02*
X27839Y-14814D01*
X27867Y-14878D01*
X27867Y-14921D01*
X27839Y-14985D01*
X27782Y-15028D01*
X27725Y-15049D01*
X27610Y-15071D01*
X27525Y-15071D01*
X27410Y-15049D01*
X27353Y-15028D01*
X27296Y-14985D01*
X27267Y-14921D01*
X27267Y-14878D01*
X27296Y-14814D01*
X27325Y-14792D01*
X27867Y-14364D02*
X27867Y-14621D01*
X27867Y-14492D02*
X27267Y-14492D01*
X27353Y-14535D01*
X27410Y-14578D01*
X27439Y-14621D01*
G54D15*
G54D18*
X27696Y-25628D02*
X27696Y-25414D01*
X27867Y-25671D02*
X27267Y-25521D01*
X27867Y-25371D01*
X27267Y-25285D02*
X27267Y-25028D01*
X27867Y-25157D02*
X27267Y-25157D01*
X27867Y-24878D02*
X27267Y-24878D01*
X27696Y-24728D01*
X27267Y-24578D01*
X27867Y-24578D01*
X27553Y-24364D02*
X27553Y-24214D01*
X27867Y-24149D02*
X27867Y-24364D01*
X27267Y-24364D01*
X27267Y-24149D01*
X27296Y-23721D02*
X27267Y-23764D01*
X27267Y-23828D01*
X27296Y-23892D01*
X27353Y-23935D01*
X27410Y-23957D01*
X27525Y-23978D01*
X27610Y-23978D01*
X27725Y-23957D01*
X27782Y-23935D01*
X27839Y-23892D01*
X27867Y-23828D01*
X27867Y-23785D01*
X27839Y-23721D01*
X27810Y-23699D01*
X27610Y-23699D01*
X27610Y-23785D01*
X27696Y-23528D02*
X27696Y-23314D01*
X27867Y-23571D02*
X27267Y-23421D01*
X27867Y-23271D01*
X27267Y-23164D02*
X27267Y-22885D01*
X27496Y-23035D01*
X27496Y-22971D01*
X27525Y-22928D01*
X27553Y-22907D01*
X27610Y-22885D01*
X27753Y-22885D01*
X27810Y-22907D01*
X27839Y-22928D01*
X27867Y-22971D01*
X27867Y-23100D01*
X27839Y-23142D01*
X27810Y-23164D01*
X27325Y-22714D02*
X27296Y-22692D01*
X27267Y-22650D01*
X27267Y-22542D01*
X27296Y-22500D01*
X27325Y-22478D01*
X27382Y-22457D01*
X27439Y-22457D01*
X27525Y-22478D01*
X27867Y-22735D01*
X27867Y-22457D01*
X27525Y-22200D02*
X27496Y-22242D01*
X27467Y-22264D01*
X27410Y-22285D01*
X27382Y-22285D01*
X27325Y-22264D01*
X27296Y-22242D01*
X27267Y-22200D01*
X27267Y-22114D01*
X27296Y-22071D01*
X27325Y-22050D01*
X27382Y-22028D01*
X27410Y-22028D01*
X27467Y-22050D01*
X27496Y-22071D01*
X27525Y-22114D01*
X27525Y-22200D01*
X27553Y-22242D01*
X27582Y-22264D01*
X27639Y-22285D01*
X27753Y-22285D01*
X27810Y-22264D01*
X27839Y-22242D01*
X27867Y-22200D01*
X27867Y-22114D01*
X27839Y-22071D01*
X27810Y-22050D01*
X27753Y-22028D01*
X27639Y-22028D01*
X27582Y-22050D01*
X27553Y-22071D01*
X27525Y-22114D01*
X27639Y-21835D02*
X27639Y-21492D01*
X27867Y-21278D02*
X27267Y-21278D01*
X27267Y-21107D01*
X27296Y-21064D01*
X27325Y-21042D01*
X27382Y-21021D01*
X27467Y-21021D01*
X27525Y-21042D01*
X27553Y-21064D01*
X27582Y-21107D01*
X27582Y-21278D01*
G54D15*
G54D18*
X13367Y-13217D02*
X13853Y-13217D01*
X13910Y-13196D01*
X13939Y-13175D01*
X13967Y-13132D01*
X13967Y-13046D01*
X13939Y-13003D01*
X13910Y-12982D01*
X13853Y-12960D01*
X13367Y-12960D01*
X13967Y-12510D02*
X13967Y-12767D01*
X13967Y-12639D02*
X13367Y-12639D01*
X13453Y-12682D01*
X13510Y-12725D01*
X13539Y-12767D01*
G54D15*
G54D18*
X11467Y-18785D02*
X10867Y-18785D01*
X10867Y-18614D01*
X10896Y-18571D01*
X10925Y-18550D01*
X10982Y-18528D01*
X11067Y-18528D01*
X11125Y-18550D01*
X11153Y-18571D01*
X11182Y-18614D01*
X11182Y-18785D01*
X10867Y-18250D02*
X10867Y-18164D01*
X10896Y-18121D01*
X10953Y-18078D01*
X11067Y-18057D01*
X11267Y-18057D01*
X11382Y-18078D01*
X11439Y-18121D01*
X11467Y-18164D01*
X11467Y-18250D01*
X11439Y-18292D01*
X11382Y-18335D01*
X11267Y-18357D01*
X11067Y-18357D01*
X10953Y-18335D01*
X10896Y-18292D01*
X10867Y-18250D01*
X11467Y-17649D02*
X11467Y-17864D01*
X10867Y-17864D01*
X10867Y-17414D02*
X10867Y-17328D01*
X10896Y-17285D01*
X10953Y-17242D01*
X11067Y-17221D01*
X11267Y-17221D01*
X11382Y-17242D01*
X11439Y-17285D01*
X11467Y-17328D01*
X11467Y-17414D01*
X11439Y-17457D01*
X11382Y-17499D01*
X11267Y-17521D01*
X11067Y-17521D01*
X10953Y-17499D01*
X10896Y-17457D01*
X10867Y-17414D01*
X11467Y-16814D02*
X11467Y-17028D01*
X10867Y-17028D01*
X10867Y-16664D02*
X11353Y-16664D01*
X11410Y-16642D01*
X11439Y-16621D01*
X11467Y-16578D01*
X11467Y-16492D01*
X11439Y-16449D01*
X11410Y-16428D01*
X11353Y-16407D01*
X10867Y-16407D01*
X11525Y-16299D02*
X11525Y-15957D01*
X11296Y-15871D02*
X11296Y-15657D01*
X11467Y-15914D02*
X10867Y-15764D01*
X11467Y-15614D01*
X11067Y-15271D02*
X11467Y-15271D01*
X10839Y-15378D02*
X11267Y-15485D01*
X11267Y-15207D01*
X11467Y-15014D02*
X11467Y-14928D01*
X11439Y-14885D01*
X11410Y-14864D01*
X11325Y-14821D01*
X11210Y-14799D01*
X10982Y-14799D01*
X10925Y-14821D01*
X10896Y-14842D01*
X10867Y-14885D01*
X10867Y-14971D01*
X10896Y-15014D01*
X10925Y-15035D01*
X10982Y-15057D01*
X11125Y-15057D01*
X11182Y-15035D01*
X11210Y-15014D01*
X11239Y-14971D01*
X11239Y-14885D01*
X11210Y-14842D01*
X11182Y-14821D01*
X11125Y-14799D01*
X11125Y-14542D02*
X11096Y-14585D01*
X11067Y-14607D01*
X11010Y-14628D01*
X10982Y-14628D01*
X10925Y-14607D01*
X10896Y-14585D01*
X10867Y-14542D01*
X10867Y-14457D01*
X10896Y-14414D01*
X10925Y-14392D01*
X10982Y-14371D01*
X11010Y-14371D01*
X11067Y-14392D01*
X11096Y-14414D01*
X11125Y-14457D01*
X11125Y-14542D01*
X11153Y-14585D01*
X11182Y-14607D01*
X11239Y-14628D01*
X11353Y-14628D01*
X11410Y-14607D01*
X11439Y-14585D01*
X11467Y-14542D01*
X11467Y-14457D01*
X11439Y-14414D01*
X11410Y-14392D01*
X11353Y-14371D01*
X11239Y-14371D01*
X11182Y-14392D01*
X11153Y-14414D01*
X11125Y-14457D01*
X11125Y-14114D02*
X11096Y-14157D01*
X11067Y-14178D01*
X11010Y-14200D01*
X10982Y-14200D01*
X10925Y-14178D01*
X10896Y-14157D01*
X10867Y-14114D01*
X10867Y-14028D01*
X10896Y-13985D01*
X10925Y-13964D01*
X10982Y-13942D01*
X11010Y-13942D01*
X11067Y-13964D01*
X11096Y-13985D01*
X11125Y-14028D01*
X11125Y-14114D01*
X11153Y-14157D01*
X11182Y-14178D01*
X11239Y-14200D01*
X11353Y-14200D01*
X11410Y-14178D01*
X11439Y-14157D01*
X11467Y-14114D01*
X11467Y-14028D01*
X11439Y-13985D01*
X11410Y-13964D01*
X11353Y-13942D01*
X11239Y-13942D01*
X11182Y-13964D01*
X11153Y-13985D01*
X11125Y-14028D01*
G54D14*
X6177Y-8404D02*
X6177Y-8004D01*
X6329Y-8004D01*
X6367Y-8023D01*
X6386Y-8042D01*
X6405Y-8080D01*
X6405Y-8137D01*
X6386Y-8175D01*
X6367Y-8194D01*
X6329Y-8213D01*
X6177Y-8213D01*
X6539Y-8004D02*
X6786Y-8004D01*
X6653Y-8156D01*
X6710Y-8156D01*
X6748Y-8175D01*
X6767Y-8194D01*
X6786Y-8232D01*
X6786Y-8328D01*
X6767Y-8366D01*
X6748Y-8385D01*
X6710Y-8404D01*
X6596Y-8404D01*
X6558Y-8385D01*
X6539Y-8366D01*
X39641Y-8404D02*
X39641Y-8004D01*
X39794Y-8004D01*
X39832Y-8023D01*
X39851Y-8042D01*
X39870Y-8080D01*
X39870Y-8137D01*
X39851Y-8175D01*
X39832Y-8194D01*
X39794Y-8213D01*
X39641Y-8213D01*
X40213Y-8137D02*
X40213Y-8404D01*
X40117Y-7985D02*
X40022Y-8271D01*
X40270Y-8271D01*
X39641Y-34388D02*
X39641Y-33988D01*
X39794Y-33988D01*
X39832Y-34007D01*
X39851Y-34026D01*
X39870Y-34064D01*
X39870Y-34122D01*
X39851Y-34160D01*
X39832Y-34179D01*
X39794Y-34198D01*
X39641Y-34198D01*
X40232Y-33988D02*
X40041Y-33988D01*
X40022Y-34179D01*
X40041Y-34160D01*
X40079Y-34141D01*
X40175Y-34141D01*
X40213Y-34160D01*
X40232Y-34179D01*
X40251Y-34217D01*
X40251Y-34312D01*
X40232Y-34350D01*
X40213Y-34369D01*
X40175Y-34388D01*
X40079Y-34388D01*
X40041Y-34369D01*
X40022Y-34350D01*
X6177Y-34388D02*
X6177Y-33988D01*
X6329Y-33988D01*
X6367Y-34007D01*
X6386Y-34026D01*
X6405Y-34064D01*
X6405Y-34122D01*
X6386Y-34160D01*
X6367Y-34179D01*
X6329Y-34198D01*
X6177Y-34198D01*
X6748Y-33988D02*
X6672Y-33988D01*
X6634Y-34007D01*
X6615Y-34026D01*
X6577Y-34083D01*
X6558Y-34160D01*
X6558Y-34312D01*
X6577Y-34350D01*
X6596Y-34369D01*
X6634Y-34388D01*
X6710Y-34388D01*
X6748Y-34369D01*
X6767Y-34350D01*
X6786Y-34312D01*
X6786Y-34217D01*
X6767Y-34179D01*
X6748Y-34160D01*
X6710Y-34141D01*
X6634Y-34141D01*
X6596Y-34160D01*
X6577Y-34179D01*
X6558Y-34217D01*
G54D10*
X23464Y-20657D02*
X23464Y-20942D01*
X23264Y-20342D02*
X23464Y-20657D01*
X23664Y-20342D01*
X24178Y-20942D02*
X23835Y-20942D01*
X24007Y-20942D02*
X24007Y-20342D01*
X23950Y-20428D01*
X23892Y-20485D01*
X23835Y-20514D01*
X22735Y-20942D02*
X22392Y-20942D01*
X22564Y-20942D02*
X22564Y-20342D01*
X22507Y-20428D01*
X22450Y-20485D01*
X22392Y-20514D01*
X22964Y-20400D02*
X22992Y-20371D01*
X23050Y-20342D01*
X23192Y-20342D01*
X23250Y-20371D01*
X23278Y-20400D01*
X23307Y-20457D01*
X23307Y-20514D01*
X23278Y-20600D01*
X22935Y-20942D01*
X23307Y-20942D01*
X23564Y-20942D02*
X23564Y-20342D01*
X23764Y-20771D01*
X23964Y-20342D01*
X23964Y-20942D01*
X24250Y-20942D02*
X24250Y-20342D01*
X24250Y-20628D02*
X24592Y-20628D01*
X24592Y-20942D02*
X24592Y-20342D01*
X24821Y-20542D02*
X25135Y-20542D01*
X24821Y-20942D01*
X25135Y-20942D01*
G54D14*
X35902Y-34966D02*
X36259Y-34966D01*
X36330Y-34990D01*
X36378Y-35038D01*
X36402Y-35109D01*
X36402Y-35157D01*
X36069Y-34514D02*
X36402Y-34514D01*
X35878Y-34633D02*
X36235Y-34752D01*
X36235Y-34442D01*
X37726Y-34580D02*
X37702Y-34628D01*
X37702Y-34700D01*
X37726Y-34771D01*
X37773Y-34819D01*
X37821Y-34842D01*
X37916Y-34866D01*
X37988Y-34866D01*
X38083Y-34842D01*
X38130Y-34819D01*
X38178Y-34771D01*
X38202Y-34700D01*
X38202Y-34652D01*
X38178Y-34580D01*
X38154Y-34557D01*
X37988Y-34557D01*
X37988Y-34652D01*
X38202Y-34342D02*
X37702Y-34342D01*
X38202Y-34057D01*
X37702Y-34057D01*
X38202Y-33819D02*
X37702Y-33819D01*
X37702Y-33700D01*
X37726Y-33628D01*
X37773Y-33580D01*
X37821Y-33557D01*
X37916Y-33533D01*
X37988Y-33533D01*
X38083Y-33557D01*
X38130Y-33580D01*
X38178Y-33628D01*
X38202Y-33700D01*
X38202Y-33819D01*
X25902Y-34766D02*
X26259Y-34766D01*
X26330Y-34790D01*
X26378Y-34838D01*
X26402Y-34909D01*
X26402Y-34957D01*
X25902Y-34576D02*
X25902Y-34266D01*
X26092Y-34433D01*
X26092Y-34361D01*
X26116Y-34314D01*
X26140Y-34290D01*
X26188Y-34266D01*
X26307Y-34266D01*
X26354Y-34290D01*
X26378Y-34314D01*
X26402Y-34361D01*
X26402Y-34504D01*
X26378Y-34552D01*
X26354Y-34576D01*
X27902Y-34938D02*
X28402Y-34771D01*
X27902Y-34604D01*
X28450Y-34557D02*
X28450Y-34176D01*
X28402Y-34057D02*
X27902Y-34057D01*
X28402Y-33819D02*
X27902Y-33819D01*
X28402Y-33533D01*
X27902Y-33533D01*
X20902Y-34766D02*
X21259Y-34766D01*
X21330Y-34790D01*
X21378Y-34838D01*
X21402Y-34909D01*
X21402Y-34957D01*
X21402Y-34504D02*
X21402Y-34409D01*
X21378Y-34361D01*
X21354Y-34338D01*
X21283Y-34290D01*
X21188Y-34266D01*
X20997Y-34266D01*
X20950Y-34290D01*
X20926Y-34314D01*
X20902Y-34361D01*
X20902Y-34457D01*
X20926Y-34504D01*
X20950Y-34528D01*
X20997Y-34552D01*
X21116Y-34552D01*
X21164Y-34528D01*
X21188Y-34504D01*
X21211Y-34457D01*
X21211Y-34361D01*
X21188Y-34314D01*
X21164Y-34290D01*
X21116Y-34266D01*
X19402Y-35983D02*
X18902Y-35983D01*
X18902Y-35792D01*
X18926Y-35745D01*
X18950Y-35721D01*
X18997Y-35697D01*
X19069Y-35697D01*
X19116Y-35721D01*
X19140Y-35745D01*
X19164Y-35792D01*
X19164Y-35983D01*
X18902Y-35530D02*
X19402Y-35411D01*
X19045Y-35316D01*
X19402Y-35221D01*
X18902Y-35102D01*
X19402Y-34626D02*
X19164Y-34792D01*
X19402Y-34911D02*
X18902Y-34911D01*
X18902Y-34721D01*
X18926Y-34673D01*
X18950Y-34650D01*
X18997Y-34626D01*
X19069Y-34626D01*
X19116Y-34650D01*
X19140Y-34673D01*
X19164Y-34721D01*
X19164Y-34911D01*
X19450Y-34530D02*
X19450Y-34150D01*
X19402Y-34030D02*
X18902Y-34030D01*
X18902Y-33911D01*
X18926Y-33840D01*
X18973Y-33792D01*
X19021Y-33769D01*
X19116Y-33745D01*
X19188Y-33745D01*
X19283Y-33769D01*
X19330Y-33792D01*
X19378Y-33840D01*
X19402Y-33911D01*
X19402Y-34030D01*
X19402Y-33269D02*
X19402Y-33554D01*
X19402Y-33411D02*
X18902Y-33411D01*
X18973Y-33459D01*
X19021Y-33507D01*
X19045Y-33554D01*
X18902Y-32959D02*
X18902Y-32911D01*
X18926Y-32864D01*
X18950Y-32840D01*
X18997Y-32816D01*
X19092Y-32792D01*
X19211Y-32792D01*
X19307Y-32816D01*
X19354Y-32840D01*
X19378Y-32864D01*
X19402Y-32911D01*
X19402Y-32959D01*
X19378Y-33007D01*
X19354Y-33030D01*
X19307Y-33054D01*
X19211Y-33078D01*
X19092Y-33078D01*
X18997Y-33054D01*
X18950Y-33030D01*
X18926Y-33007D01*
X18902Y-32959D01*
X15902Y-34966D02*
X16259Y-34966D01*
X16330Y-34990D01*
X16378Y-35038D01*
X16402Y-35109D01*
X16402Y-35157D01*
X16116Y-34657D02*
X16092Y-34704D01*
X16069Y-34728D01*
X16021Y-34752D01*
X15997Y-34752D01*
X15950Y-34728D01*
X15926Y-34704D01*
X15902Y-34657D01*
X15902Y-34561D01*
X15926Y-34514D01*
X15950Y-34490D01*
X15997Y-34466D01*
X16021Y-34466D01*
X16069Y-34490D01*
X16092Y-34514D01*
X16116Y-34561D01*
X16116Y-34657D01*
X16140Y-34704D01*
X16164Y-34728D01*
X16211Y-34752D01*
X16307Y-34752D01*
X16354Y-34728D01*
X16378Y-34704D01*
X16402Y-34657D01*
X16402Y-34561D01*
X16378Y-34514D01*
X16354Y-34490D01*
X16307Y-34466D01*
X16211Y-34466D01*
X16164Y-34490D01*
X16140Y-34514D01*
X16116Y-34561D01*
X17902Y-35138D02*
X18402Y-34971D01*
X17902Y-34804D01*
X18450Y-34757D02*
X18450Y-34376D01*
X18402Y-34257D02*
X17902Y-34257D01*
X18402Y-34019D02*
X17902Y-34019D01*
X18402Y-33733D01*
X17902Y-33733D01*
X10902Y-35204D02*
X11259Y-35204D01*
X11330Y-35228D01*
X11378Y-35276D01*
X11402Y-35347D01*
X11402Y-35395D01*
X11402Y-34704D02*
X11402Y-34990D01*
X11402Y-34847D02*
X10902Y-34847D01*
X10973Y-34895D01*
X11021Y-34942D01*
X11045Y-34990D01*
X10950Y-34514D02*
X10926Y-34490D01*
X10902Y-34442D01*
X10902Y-34323D01*
X10926Y-34276D01*
X10950Y-34252D01*
X10997Y-34228D01*
X11045Y-34228D01*
X11116Y-34252D01*
X11402Y-34538D01*
X11402Y-34228D01*
X9402Y-35745D02*
X8902Y-35745D01*
X8902Y-35554D01*
X8926Y-35507D01*
X8950Y-35483D01*
X8997Y-35459D01*
X9069Y-35459D01*
X9116Y-35483D01*
X9140Y-35507D01*
X9164Y-35554D01*
X9164Y-35745D01*
X8902Y-35292D02*
X9402Y-35173D01*
X9045Y-35078D01*
X9402Y-34983D01*
X8902Y-34864D01*
X9402Y-34388D02*
X9164Y-34554D01*
X9402Y-34673D02*
X8902Y-34673D01*
X8902Y-34483D01*
X8926Y-34435D01*
X8950Y-34411D01*
X8997Y-34388D01*
X9069Y-34388D01*
X9116Y-34411D01*
X9140Y-34435D01*
X9164Y-34483D01*
X9164Y-34673D01*
X9450Y-34292D02*
X9450Y-33911D01*
X9402Y-33792D02*
X8902Y-33792D01*
X8902Y-33673D01*
X8926Y-33602D01*
X8973Y-33554D01*
X9021Y-33530D01*
X9116Y-33507D01*
X9188Y-33507D01*
X9283Y-33530D01*
X9330Y-33554D01*
X9378Y-33602D01*
X9402Y-33673D01*
X9402Y-33792D01*
X9402Y-33269D02*
X9402Y-33173D01*
X9378Y-33126D01*
X9354Y-33102D01*
X9283Y-33054D01*
X9188Y-33030D01*
X8997Y-33030D01*
X8950Y-33054D01*
X8926Y-33078D01*
X8902Y-33126D01*
X8902Y-33221D01*
X8926Y-33269D01*
X8950Y-33292D01*
X8997Y-33316D01*
X9116Y-33316D01*
X9164Y-33292D01*
X9188Y-33269D01*
X9211Y-33221D01*
X9211Y-33126D01*
X9188Y-33078D01*
X9164Y-33054D01*
X9116Y-33030D01*
X30902Y-35004D02*
X31259Y-35004D01*
X31330Y-35028D01*
X31378Y-35076D01*
X31402Y-35147D01*
X31402Y-35195D01*
X31402Y-34504D02*
X31402Y-34790D01*
X31402Y-34647D02*
X30902Y-34647D01*
X30973Y-34695D01*
X31021Y-34742D01*
X31045Y-34790D01*
X31402Y-34028D02*
X31402Y-34314D01*
X31402Y-34171D02*
X30902Y-34171D01*
X30973Y-34219D01*
X31021Y-34266D01*
X31045Y-34314D01*
X32902Y-34938D02*
X33402Y-34771D01*
X32902Y-34604D01*
X33450Y-34557D02*
X33450Y-34176D01*
X33402Y-34057D02*
X32902Y-34057D01*
X33402Y-33819D02*
X32902Y-33819D01*
X33402Y-33533D01*
X32902Y-33533D01*
G54D13*
X30772Y-23307D02*
X30772Y-23592D01*
X30772Y-23450D02*
X30222Y-23450D01*
X30301Y-23497D01*
X30353Y-23545D01*
X30379Y-23592D01*
X30772Y-23092D02*
X30222Y-23092D01*
X30772Y-22807D02*
X30458Y-23021D01*
X30222Y-22807D02*
X30536Y-23092D01*
X11469Y-8122D02*
X11373Y-8122D01*
X11326Y-8148D01*
X11302Y-8175D01*
X11254Y-8253D01*
X11230Y-8358D01*
X11230Y-8567D01*
X11254Y-8620D01*
X11278Y-8646D01*
X11326Y-8672D01*
X11421Y-8672D01*
X11469Y-8646D01*
X11492Y-8620D01*
X11516Y-8567D01*
X11516Y-8436D01*
X11492Y-8384D01*
X11469Y-8358D01*
X11421Y-8332D01*
X11326Y-8332D01*
X11278Y-8358D01*
X11254Y-8384D01*
X11230Y-8436D01*
X11802Y-8358D02*
X11754Y-8332D01*
X11730Y-8305D01*
X11707Y-8253D01*
X11707Y-8227D01*
X11730Y-8175D01*
X11754Y-8148D01*
X11802Y-8122D01*
X11897Y-8122D01*
X11945Y-8148D01*
X11969Y-8175D01*
X11992Y-8227D01*
X11992Y-8253D01*
X11969Y-8305D01*
X11945Y-8332D01*
X11897Y-8358D01*
X11802Y-8358D01*
X11754Y-8384D01*
X11730Y-8410D01*
X11707Y-8463D01*
X11707Y-8567D01*
X11730Y-8620D01*
X11754Y-8646D01*
X11802Y-8672D01*
X11897Y-8672D01*
X11945Y-8646D01*
X11969Y-8620D01*
X11992Y-8567D01*
X11992Y-8463D01*
X11969Y-8410D01*
X11945Y-8384D01*
X11897Y-8358D01*
X12302Y-8122D02*
X12350Y-8122D01*
X12397Y-8148D01*
X12421Y-8175D01*
X12445Y-8227D01*
X12469Y-8332D01*
X12469Y-8463D01*
X12445Y-8567D01*
X12421Y-8620D01*
X12397Y-8646D01*
X12350Y-8672D01*
X12302Y-8672D01*
X12254Y-8646D01*
X12230Y-8620D01*
X12207Y-8567D01*
X12183Y-8463D01*
X12183Y-8332D01*
X12207Y-8227D01*
X12230Y-8175D01*
X12254Y-8148D01*
X12302Y-8122D01*
X12969Y-8672D02*
X12802Y-8410D01*
X12683Y-8672D02*
X12683Y-8122D01*
X12873Y-8122D01*
X12921Y-8148D01*
X12945Y-8175D01*
X12969Y-8227D01*
X12969Y-8305D01*
X12945Y-8358D01*
X12921Y-8384D01*
X12873Y-8410D01*
X12683Y-8410D01*
X9050Y-27944D02*
X9023Y-27920D01*
X8997Y-27872D01*
X8997Y-27753D01*
X9023Y-27705D01*
X9050Y-27682D01*
X9102Y-27658D01*
X9154Y-27658D01*
X9233Y-27682D01*
X9547Y-27967D01*
X9547Y-27658D01*
X9050Y-27467D02*
X9023Y-27444D01*
X8997Y-27396D01*
X8997Y-27277D01*
X9023Y-27229D01*
X9050Y-27205D01*
X9102Y-27182D01*
X9154Y-27182D01*
X9233Y-27205D01*
X9547Y-27491D01*
X9547Y-27182D01*
X8997Y-26872D02*
X8997Y-26825D01*
X9023Y-26777D01*
X9050Y-26753D01*
X9102Y-26729D01*
X9207Y-26705D01*
X9338Y-26705D01*
X9442Y-26729D01*
X9495Y-26753D01*
X9521Y-26777D01*
X9547Y-26825D01*
X9547Y-26872D01*
X9521Y-26920D01*
X9495Y-26944D01*
X9442Y-26967D01*
X9338Y-26991D01*
X9207Y-26991D01*
X9102Y-26967D01*
X9050Y-26944D01*
X9023Y-26920D01*
X8997Y-26872D01*
X9547Y-26205D02*
X9285Y-26372D01*
X9547Y-26491D02*
X8997Y-26491D01*
X8997Y-26301D01*
X9023Y-26253D01*
X9050Y-26229D01*
X9102Y-26205D01*
X9180Y-26205D01*
X9233Y-26229D01*
X9259Y-26253D01*
X9285Y-26301D01*
X9285Y-26491D01*
X33730Y-28275D02*
X33754Y-28248D01*
X33802Y-28222D01*
X33921Y-28222D01*
X33969Y-28248D01*
X33992Y-28275D01*
X34016Y-28327D01*
X34016Y-28379D01*
X33992Y-28458D01*
X33707Y-28772D01*
X34016Y-28772D01*
X34207Y-28275D02*
X34230Y-28248D01*
X34278Y-28222D01*
X34397Y-28222D01*
X34445Y-28248D01*
X34469Y-28275D01*
X34492Y-28327D01*
X34492Y-28379D01*
X34469Y-28458D01*
X34183Y-28772D01*
X34492Y-28772D01*
X34802Y-28222D02*
X34850Y-28222D01*
X34897Y-28248D01*
X34921Y-28275D01*
X34945Y-28327D01*
X34969Y-28432D01*
X34969Y-28563D01*
X34945Y-28667D01*
X34921Y-28720D01*
X34897Y-28746D01*
X34850Y-28772D01*
X34802Y-28772D01*
X34754Y-28746D01*
X34730Y-28720D01*
X34707Y-28667D01*
X34683Y-28563D01*
X34683Y-28432D01*
X34707Y-28327D01*
X34730Y-28275D01*
X34754Y-28248D01*
X34802Y-28222D01*
X35469Y-28772D02*
X35302Y-28510D01*
X35183Y-28772D02*
X35183Y-28222D01*
X35373Y-28222D01*
X35421Y-28248D01*
X35445Y-28275D01*
X35469Y-28327D01*
X35469Y-28405D01*
X35445Y-28458D01*
X35421Y-28484D01*
X35373Y-28510D01*
X35183Y-28510D01*
X33607Y-22205D02*
X33607Y-22572D01*
X33488Y-21996D02*
X33369Y-22389D01*
X33678Y-22389D01*
X33869Y-22572D02*
X33869Y-22022D01*
X34154Y-22572D02*
X33940Y-22258D01*
X34154Y-22022D02*
X33869Y-22336D01*
X34321Y-22022D02*
X34654Y-22022D01*
X34440Y-22572D01*
X31605Y-20392D02*
X31972Y-20392D01*
X31396Y-20511D02*
X31789Y-20630D01*
X31789Y-20321D01*
X31972Y-20130D02*
X31422Y-20130D01*
X31972Y-19845D02*
X31658Y-20059D01*
X31422Y-19845D02*
X31736Y-20130D01*
X31422Y-19678D02*
X31422Y-19345D01*
X31972Y-19559D01*
X23054Y-12672D02*
X22769Y-12672D01*
X22911Y-12672D02*
X22911Y-12122D01*
X22864Y-12201D01*
X22816Y-12253D01*
X22769Y-12279D01*
X23364Y-12122D02*
X23411Y-12122D01*
X23459Y-12148D01*
X23483Y-12175D01*
X23507Y-12227D01*
X23530Y-12332D01*
X23530Y-12463D01*
X23507Y-12567D01*
X23483Y-12620D01*
X23459Y-12646D01*
X23411Y-12672D01*
X23364Y-12672D01*
X23316Y-12646D01*
X23292Y-12620D01*
X23269Y-12567D01*
X23245Y-12463D01*
X23245Y-12332D01*
X23269Y-12227D01*
X23292Y-12175D01*
X23316Y-12148D01*
X23364Y-12122D01*
X23745Y-12672D02*
X23745Y-12122D01*
X24030Y-12672D02*
X23816Y-12358D01*
X24030Y-12122D02*
X23745Y-12436D01*
X13116Y-10172D02*
X12830Y-10172D01*
X12973Y-10172D02*
X12973Y-9622D01*
X12926Y-9701D01*
X12878Y-9753D01*
X12830Y-9779D01*
X13426Y-9622D02*
X13473Y-9622D01*
X13521Y-9648D01*
X13545Y-9675D01*
X13569Y-9727D01*
X13592Y-9832D01*
X13592Y-9963D01*
X13569Y-10067D01*
X13545Y-10120D01*
X13521Y-10146D01*
X13473Y-10172D01*
X13426Y-10172D01*
X13378Y-10146D01*
X13354Y-10120D01*
X13330Y-10067D01*
X13307Y-9963D01*
X13307Y-9832D01*
X13330Y-9727D01*
X13354Y-9675D01*
X13378Y-9648D01*
X13426Y-9622D01*
X13902Y-9622D02*
X13950Y-9622D01*
X13997Y-9648D01*
X14021Y-9675D01*
X14045Y-9727D01*
X14069Y-9832D01*
X14069Y-9963D01*
X14045Y-10067D01*
X14021Y-10120D01*
X13997Y-10146D01*
X13950Y-10172D01*
X13902Y-10172D01*
X13854Y-10146D01*
X13830Y-10120D01*
X13807Y-10067D01*
X13783Y-9963D01*
X13783Y-9832D01*
X13807Y-9727D01*
X13830Y-9675D01*
X13854Y-9648D01*
X13902Y-9622D01*
X14569Y-10172D02*
X14402Y-9910D01*
X14283Y-10172D02*
X14283Y-9622D01*
X14473Y-9622D01*
X14521Y-9648D01*
X14545Y-9675D01*
X14569Y-9727D01*
X14569Y-9805D01*
X14545Y-9858D01*
X14521Y-9884D01*
X14473Y-9910D01*
X14283Y-9910D01*
X37161Y-15495D02*
X36761Y-15495D01*
X36761Y-15342D01*
X36780Y-15304D01*
X36800Y-15285D01*
X36838Y-15266D01*
X36895Y-15266D01*
X36933Y-15285D01*
X36952Y-15304D01*
X36971Y-15342D01*
X36971Y-15495D01*
X37161Y-14885D02*
X37161Y-15114D01*
X37161Y-14999D02*
X36761Y-14999D01*
X36819Y-15038D01*
X36857Y-15076D01*
X36876Y-15114D01*
G54D15*
X12185Y-34442D02*
X12185Y-33842D01*
X12414Y-33842D01*
X12471Y-33871D01*
X12500Y-33900D01*
X12528Y-33957D01*
X12528Y-34042D01*
X12500Y-34100D01*
X12471Y-34128D01*
X12414Y-34157D01*
X12185Y-34157D01*
X12728Y-33842D02*
X12871Y-34442D01*
X12985Y-34014D01*
X13100Y-34442D01*
X13242Y-33842D01*
X13814Y-34442D02*
X13614Y-34157D01*
X13471Y-34442D02*
X13471Y-33842D01*
X13700Y-33842D01*
X13757Y-33871D01*
X13785Y-33900D01*
X13814Y-33957D01*
X13814Y-34042D01*
X13785Y-34100D01*
X13757Y-34128D01*
X13700Y-34157D01*
X13471Y-34157D01*
X13928Y-34500D02*
X14385Y-34500D01*
X14528Y-34442D02*
X14528Y-33842D01*
X14671Y-33842D01*
X14757Y-33871D01*
X14814Y-33928D01*
X14842Y-33985D01*
X14871Y-34100D01*
X14871Y-34185D01*
X14842Y-34300D01*
X14814Y-34357D01*
X14757Y-34414D01*
X14671Y-34442D01*
X14528Y-34442D01*
X15157Y-34442D02*
X15271Y-34442D01*
X15328Y-34414D01*
X15357Y-34385D01*
X15414Y-34300D01*
X15442Y-34185D01*
X15442Y-33957D01*
X15414Y-33900D01*
X15385Y-33871D01*
X15328Y-33842D01*
X15214Y-33842D01*
X15157Y-33871D01*
X15128Y-33900D01*
X15100Y-33957D01*
X15100Y-34100D01*
X15128Y-34157D01*
X15157Y-34185D01*
X15214Y-34214D01*
X15328Y-34214D01*
X15385Y-34185D01*
X15414Y-34157D01*
X15442Y-34100D01*
X9939Y-16717D02*
X9967Y-16632D01*
X9967Y-16489D01*
X9939Y-16432D01*
X9910Y-16403D01*
X9853Y-16375D01*
X9796Y-16375D01*
X9739Y-16403D01*
X9710Y-16432D01*
X9682Y-16489D01*
X9653Y-16603D01*
X9625Y-16660D01*
X9596Y-16689D01*
X9539Y-16717D01*
X9482Y-16717D01*
X9425Y-16689D01*
X9396Y-16660D01*
X9367Y-16603D01*
X9367Y-16460D01*
X9396Y-16375D01*
X9367Y-16203D02*
X9367Y-15860D01*
X9967Y-16032D02*
X9367Y-16032D01*
X9653Y-15660D02*
X9653Y-15460D01*
X9967Y-15375D02*
X9967Y-15660D01*
X9367Y-15660D01*
X9367Y-15375D01*
X9967Y-15117D02*
X9367Y-15117D01*
X9367Y-14889D01*
X9396Y-14832D01*
X9425Y-14803D01*
X9482Y-14775D01*
X9567Y-14775D01*
X9625Y-14803D01*
X9653Y-14832D01*
X9682Y-14889D01*
X9682Y-15117D01*
X9967Y-14517D02*
X9367Y-14517D01*
X9367Y-14289D01*
X9396Y-14232D01*
X9425Y-14203D01*
X9482Y-14175D01*
X9567Y-14175D01*
X9625Y-14203D01*
X9653Y-14232D01*
X9682Y-14289D01*
X9682Y-14517D01*
X9653Y-13917D02*
X9653Y-13717D01*
X9967Y-13632D02*
X9967Y-13917D01*
X9367Y-13917D01*
X9367Y-13632D01*
X9967Y-13032D02*
X9682Y-13232D01*
X9967Y-13375D02*
X9367Y-13375D01*
X9367Y-13146D01*
X9396Y-13089D01*
X9425Y-13060D01*
X9482Y-13032D01*
X9567Y-13032D01*
X9625Y-13060D01*
X9653Y-13089D01*
X9682Y-13146D01*
X9682Y-13375D01*
X21700Y-34442D02*
X21700Y-33842D01*
X21928Y-33842D01*
X21985Y-33871D01*
X22014Y-33900D01*
X22042Y-33957D01*
X22042Y-34042D01*
X22014Y-34100D01*
X21985Y-34128D01*
X21928Y-34157D01*
X21700Y-34157D01*
X22242Y-33842D02*
X22385Y-34442D01*
X22500Y-34014D01*
X22614Y-34442D01*
X22757Y-33842D01*
X23328Y-34442D02*
X23128Y-34157D01*
X22985Y-34442D02*
X22985Y-33842D01*
X23214Y-33842D01*
X23271Y-33871D01*
X23300Y-33900D01*
X23328Y-33957D01*
X23328Y-34042D01*
X23300Y-34100D01*
X23271Y-34128D01*
X23214Y-34157D01*
X22985Y-34157D01*
X23442Y-34500D02*
X23900Y-34500D01*
X24042Y-34442D02*
X24042Y-33842D01*
X24185Y-33842D01*
X24271Y-33871D01*
X24328Y-33928D01*
X24357Y-33985D01*
X24385Y-34100D01*
X24385Y-34185D01*
X24357Y-34300D01*
X24328Y-34357D01*
X24271Y-34414D01*
X24185Y-34442D01*
X24042Y-34442D01*
X24957Y-34442D02*
X24614Y-34442D01*
X24785Y-34442D02*
X24785Y-33842D01*
X24728Y-33928D01*
X24671Y-33985D01*
X24614Y-34014D01*
X25328Y-33842D02*
X25385Y-33842D01*
X25442Y-33871D01*
X25471Y-33900D01*
X25500Y-33957D01*
X25528Y-34071D01*
X25528Y-34214D01*
X25500Y-34328D01*
X25471Y-34385D01*
X25442Y-34414D01*
X25385Y-34442D01*
X25328Y-34442D01*
X25271Y-34414D01*
X25242Y-34385D01*
X25214Y-34328D01*
X25185Y-34214D01*
X25185Y-34071D01*
X25214Y-33957D01*
X25242Y-33900D01*
X25271Y-33871D01*
X25328Y-33842D01*
G54D16*
X39421Y-30899D02*
X39635Y-30899D01*
X39678Y-30914D01*
X39707Y-30942D01*
X39721Y-30985D01*
X39721Y-31014D01*
X39421Y-30628D02*
X39421Y-30685D01*
X39435Y-30714D01*
X39450Y-30728D01*
X39492Y-30757D01*
X39550Y-30771D01*
X39664Y-30771D01*
X39692Y-30757D01*
X39707Y-30742D01*
X39721Y-30714D01*
X39721Y-30657D01*
X39707Y-30628D01*
X39692Y-30614D01*
X39664Y-30600D01*
X39592Y-30600D01*
X39564Y-30614D01*
X39550Y-30628D01*
X39535Y-30657D01*
X39535Y-30714D01*
X39550Y-30742D01*
X39564Y-30757D01*
X39592Y-30771D01*
X39021Y-27242D02*
X39235Y-27242D01*
X39278Y-27257D01*
X39307Y-27285D01*
X39321Y-27328D01*
X39321Y-27357D01*
X39321Y-26942D02*
X39321Y-27114D01*
X39321Y-27028D02*
X39021Y-27028D01*
X39064Y-27057D01*
X39092Y-27085D01*
X39107Y-27114D01*
X39021Y-26671D02*
X39021Y-26814D01*
X39164Y-26828D01*
X39150Y-26814D01*
X39135Y-26785D01*
X39135Y-26714D01*
X39150Y-26685D01*
X39164Y-26671D01*
X39192Y-26657D01*
X39264Y-26657D01*
X39292Y-26671D01*
X39307Y-26685D01*
X39321Y-26714D01*
X39321Y-26785D01*
X39307Y-26814D01*
X39292Y-26828D01*
X39021Y-21842D02*
X39235Y-21842D01*
X39278Y-21857D01*
X39307Y-21885D01*
X39321Y-21928D01*
X39321Y-21957D01*
X39321Y-21542D02*
X39321Y-21714D01*
X39321Y-21628D02*
X39021Y-21628D01*
X39064Y-21657D01*
X39092Y-21685D01*
X39107Y-21714D01*
X39121Y-21285D02*
X39321Y-21285D01*
X39007Y-21357D02*
X39221Y-21428D01*
X39221Y-21242D01*
X29300Y-9021D02*
X29300Y-9235D01*
X29285Y-9278D01*
X29257Y-9307D01*
X29214Y-9321D01*
X29185Y-9321D01*
X29600Y-9321D02*
X29428Y-9321D01*
X29514Y-9321D02*
X29514Y-9021D01*
X29485Y-9064D01*
X29457Y-9092D01*
X29428Y-9107D01*
X19100Y-24071D02*
X19100Y-24285D01*
X19085Y-24328D01*
X19057Y-24357D01*
X19014Y-24371D01*
X18985Y-24371D01*
X19214Y-24071D02*
X19414Y-24071D01*
X19285Y-24371D01*
X9171Y-11599D02*
X9385Y-11599D01*
X9428Y-11614D01*
X9457Y-11642D01*
X9471Y-11685D01*
X9471Y-11714D01*
X9171Y-11314D02*
X9171Y-11457D01*
X9314Y-11471D01*
X9300Y-11457D01*
X9285Y-11428D01*
X9285Y-11357D01*
X9300Y-11328D01*
X9314Y-11314D01*
X9342Y-11300D01*
X9414Y-11300D01*
X9442Y-11314D01*
X9457Y-11328D01*
X9471Y-11357D01*
X9471Y-11428D01*
X9457Y-11457D01*
X9442Y-11471D01*
G54D13*
X19104Y-9361D02*
X19104Y-8961D01*
X19257Y-8961D01*
X19295Y-8980D01*
X19314Y-9000D01*
X19333Y-9038D01*
X19333Y-9095D01*
X19314Y-9133D01*
X19295Y-9152D01*
X19257Y-9171D01*
X19104Y-9171D01*
X19485Y-9000D02*
X19504Y-8980D01*
X19542Y-8961D01*
X19638Y-8961D01*
X19676Y-8980D01*
X19695Y-9000D01*
X19714Y-9038D01*
X19714Y-9076D01*
X19695Y-9133D01*
X19466Y-9361D01*
X19714Y-9361D01*
X38761Y-15095D02*
X38361Y-15095D01*
X38361Y-14999D01*
X38380Y-14942D01*
X38419Y-14904D01*
X38457Y-14885D01*
X38533Y-14866D01*
X38590Y-14866D01*
X38666Y-14885D01*
X38704Y-14904D01*
X38742Y-14942D01*
X38761Y-14999D01*
X38761Y-15095D01*
X38761Y-14485D02*
X38761Y-14714D01*
X38761Y-14599D02*
X38361Y-14599D01*
X38419Y-14638D01*
X38457Y-14676D01*
X38476Y-14714D01*
X21504Y-11361D02*
X21504Y-10961D01*
X21600Y-10961D01*
X21657Y-10980D01*
X21695Y-11019D01*
X21714Y-11057D01*
X21733Y-11133D01*
X21733Y-11190D01*
X21714Y-11266D01*
X21695Y-11304D01*
X21657Y-11342D01*
X21600Y-11361D01*
X21504Y-11361D01*
X21885Y-11000D02*
X21904Y-10980D01*
X21942Y-10961D01*
X22038Y-10961D01*
X22076Y-10980D01*
X22095Y-11000D01*
X22114Y-11038D01*
X22114Y-11076D01*
X22095Y-11133D01*
X21866Y-11361D01*
X22114Y-11361D01*
G54D17*
X36892Y-21792D02*
X36907Y-21807D01*
X36921Y-21850D01*
X36921Y-21878D01*
X36907Y-21921D01*
X36878Y-21950D01*
X36850Y-21964D01*
X36792Y-21978D01*
X36750Y-21978D01*
X36692Y-21964D01*
X36664Y-21950D01*
X36635Y-21921D01*
X36621Y-21878D01*
X36621Y-21850D01*
X36635Y-21807D01*
X36650Y-21792D01*
X36921Y-21507D02*
X36921Y-21678D01*
X36921Y-21592D02*
X36621Y-21592D01*
X36664Y-21621D01*
X36692Y-21650D01*
X36707Y-21678D01*
X36921Y-21221D02*
X36921Y-21392D01*
X36921Y-21307D02*
X36621Y-21307D01*
X36664Y-21335D01*
X36692Y-21364D01*
X36707Y-21392D01*
X37021Y-23267D02*
X37021Y-23410D01*
X37021Y-23339D02*
X36721Y-23339D01*
X36764Y-23363D01*
X36792Y-23386D01*
X36807Y-23410D01*
X36721Y-23113D02*
X36721Y-23089D01*
X36735Y-23065D01*
X36750Y-23053D01*
X36778Y-23041D01*
X36835Y-23029D01*
X36907Y-23029D01*
X36964Y-23041D01*
X36992Y-23053D01*
X37007Y-23065D01*
X37021Y-23089D01*
X37021Y-23113D01*
X37007Y-23136D01*
X36992Y-23148D01*
X36964Y-23160D01*
X36907Y-23172D01*
X36835Y-23172D01*
X36778Y-23160D01*
X36750Y-23148D01*
X36735Y-23136D01*
X36721Y-23113D01*
X36821Y-22815D02*
X37021Y-22815D01*
X36821Y-22922D02*
X36978Y-22922D01*
X37007Y-22910D01*
X37021Y-22886D01*
X37021Y-22851D01*
X37007Y-22827D01*
X36992Y-22815D01*
X36864Y-22613D02*
X36864Y-22696D01*
X37021Y-22696D02*
X36721Y-22696D01*
X36721Y-22577D01*
G54D19*
X37407Y-22214D02*
X37407Y-21985D01*
X37521Y-22100D02*
X37292Y-22100D01*
G54D13*
G54D17*
X36292Y-25792D02*
X36307Y-25807D01*
X36321Y-25850D01*
X36321Y-25878D01*
X36307Y-25921D01*
X36278Y-25950D01*
X36250Y-25964D01*
X36192Y-25978D01*
X36150Y-25978D01*
X36092Y-25964D01*
X36064Y-25950D01*
X36035Y-25921D01*
X36021Y-25878D01*
X36021Y-25850D01*
X36035Y-25807D01*
X36050Y-25792D01*
X36321Y-25507D02*
X36321Y-25678D01*
X36321Y-25592D02*
X36021Y-25592D01*
X36064Y-25621D01*
X36092Y-25650D01*
X36107Y-25678D01*
X36050Y-25392D02*
X36035Y-25378D01*
X36021Y-25350D01*
X36021Y-25278D01*
X36035Y-25250D01*
X36050Y-25235D01*
X36078Y-25221D01*
X36107Y-25221D01*
X36150Y-25235D01*
X36321Y-25407D01*
X36321Y-25221D01*
X37021Y-25867D02*
X37021Y-26010D01*
X37021Y-25939D02*
X36721Y-25939D01*
X36764Y-25963D01*
X36792Y-25986D01*
X36807Y-26010D01*
X36721Y-25713D02*
X36721Y-25689D01*
X36735Y-25665D01*
X36750Y-25653D01*
X36778Y-25641D01*
X36835Y-25629D01*
X36907Y-25629D01*
X36964Y-25641D01*
X36992Y-25653D01*
X37007Y-25665D01*
X37021Y-25689D01*
X37021Y-25713D01*
X37007Y-25736D01*
X36992Y-25748D01*
X36964Y-25760D01*
X36907Y-25772D01*
X36835Y-25772D01*
X36778Y-25760D01*
X36750Y-25748D01*
X36735Y-25736D01*
X36721Y-25713D01*
X36821Y-25415D02*
X37021Y-25415D01*
X36821Y-25522D02*
X36978Y-25522D01*
X37007Y-25510D01*
X37021Y-25486D01*
X37021Y-25451D01*
X37007Y-25427D01*
X36992Y-25415D01*
X36864Y-25213D02*
X36864Y-25296D01*
X37021Y-25296D02*
X36721Y-25296D01*
X36721Y-25177D01*
G54D19*
X37407Y-24814D02*
X37407Y-24585D01*
X37521Y-24700D02*
X37292Y-24700D01*
G54D13*
X17523Y-32257D02*
X17542Y-32276D01*
X17561Y-32333D01*
X17561Y-32371D01*
X17542Y-32428D01*
X17504Y-32466D01*
X17466Y-32485D01*
X17390Y-32504D01*
X17333Y-32504D01*
X17257Y-32485D01*
X17219Y-32466D01*
X17180Y-32428D01*
X17161Y-32371D01*
X17161Y-32333D01*
X17180Y-32276D01*
X17200Y-32257D01*
X17561Y-31876D02*
X17561Y-32104D01*
X17561Y-31990D02*
X17161Y-31990D01*
X17219Y-32028D01*
X17257Y-32066D01*
X17276Y-32104D01*
X17161Y-31628D02*
X17161Y-31590D01*
X17180Y-31552D01*
X17200Y-31533D01*
X17238Y-31514D01*
X17314Y-31495D01*
X17409Y-31495D01*
X17485Y-31514D01*
X17523Y-31533D01*
X17542Y-31552D01*
X17561Y-31590D01*
X17561Y-31628D01*
X17542Y-31666D01*
X17523Y-31685D01*
X17485Y-31704D01*
X17409Y-31723D01*
X17314Y-31723D01*
X17238Y-31704D01*
X17200Y-31685D01*
X17180Y-31666D01*
X17161Y-31628D01*
X15386Y-30694D02*
X15386Y-30922D01*
X15386Y-30808D02*
X14986Y-30808D01*
X15044Y-30846D01*
X15082Y-30884D01*
X15101Y-30922D01*
X14986Y-30446D02*
X14986Y-30408D01*
X15005Y-30370D01*
X15025Y-30351D01*
X15063Y-30332D01*
X15139Y-30313D01*
X15234Y-30313D01*
X15310Y-30332D01*
X15348Y-30351D01*
X15367Y-30370D01*
X15386Y-30408D01*
X15386Y-30446D01*
X15367Y-30484D01*
X15348Y-30503D01*
X15310Y-30522D01*
X15234Y-30541D01*
X15139Y-30541D01*
X15063Y-30522D01*
X15025Y-30503D01*
X15005Y-30484D01*
X14986Y-30446D01*
X14986Y-30065D02*
X14986Y-30027D01*
X15005Y-29989D01*
X15025Y-29970D01*
X15063Y-29951D01*
X15139Y-29932D01*
X15234Y-29932D01*
X15310Y-29951D01*
X15348Y-29970D01*
X15367Y-29989D01*
X15386Y-30027D01*
X15386Y-30065D01*
X15367Y-30103D01*
X15348Y-30122D01*
X15310Y-30141D01*
X15234Y-30160D01*
X15139Y-30160D01*
X15063Y-30141D01*
X15025Y-30122D01*
X15005Y-30103D01*
X14986Y-30065D01*
X15120Y-29589D02*
X15386Y-29589D01*
X15120Y-29760D02*
X15329Y-29760D01*
X15367Y-29741D01*
X15386Y-29703D01*
X15386Y-29646D01*
X15367Y-29608D01*
X15348Y-29589D01*
X15177Y-29265D02*
X15177Y-29398D01*
X15386Y-29398D02*
X14986Y-29398D01*
X14986Y-29208D01*
G54D15*
X16089Y-31653D02*
X16089Y-31196D01*
X16317Y-31424D02*
X15860Y-31424D01*
G54D13*
X28123Y-31466D02*
X28142Y-31485D01*
X28161Y-31542D01*
X28161Y-31580D01*
X28142Y-31638D01*
X28104Y-31676D01*
X28066Y-31695D01*
X27990Y-31714D01*
X27933Y-31714D01*
X27857Y-31695D01*
X27819Y-31676D01*
X27780Y-31638D01*
X27761Y-31580D01*
X27761Y-31542D01*
X27780Y-31485D01*
X27800Y-31466D01*
X27761Y-31123D02*
X27761Y-31199D01*
X27780Y-31238D01*
X27800Y-31257D01*
X27857Y-31295D01*
X27933Y-31314D01*
X28085Y-31314D01*
X28123Y-31295D01*
X28142Y-31276D01*
X28161Y-31238D01*
X28161Y-31161D01*
X28142Y-31123D01*
X28123Y-31104D01*
X28085Y-31085D01*
X27990Y-31085D01*
X27952Y-31104D01*
X27933Y-31123D01*
X27914Y-31161D01*
X27914Y-31238D01*
X27933Y-31276D01*
X27952Y-31295D01*
X27990Y-31314D01*
X25386Y-30694D02*
X25386Y-30922D01*
X25386Y-30808D02*
X24986Y-30808D01*
X25044Y-30846D01*
X25082Y-30884D01*
X25101Y-30922D01*
X24986Y-30446D02*
X24986Y-30408D01*
X25005Y-30370D01*
X25025Y-30351D01*
X25063Y-30332D01*
X25139Y-30313D01*
X25234Y-30313D01*
X25310Y-30332D01*
X25348Y-30351D01*
X25367Y-30370D01*
X25386Y-30408D01*
X25386Y-30446D01*
X25367Y-30484D01*
X25348Y-30503D01*
X25310Y-30522D01*
X25234Y-30541D01*
X25139Y-30541D01*
X25063Y-30522D01*
X25025Y-30503D01*
X25005Y-30484D01*
X24986Y-30446D01*
X24986Y-30065D02*
X24986Y-30027D01*
X25005Y-29989D01*
X25025Y-29970D01*
X25063Y-29951D01*
X25139Y-29932D01*
X25234Y-29932D01*
X25310Y-29951D01*
X25348Y-29970D01*
X25367Y-29989D01*
X25386Y-30027D01*
X25386Y-30065D01*
X25367Y-30103D01*
X25348Y-30122D01*
X25310Y-30141D01*
X25234Y-30160D01*
X25139Y-30160D01*
X25063Y-30141D01*
X25025Y-30122D01*
X25005Y-30103D01*
X24986Y-30065D01*
X25120Y-29589D02*
X25386Y-29589D01*
X25120Y-29760D02*
X25329Y-29760D01*
X25367Y-29741D01*
X25386Y-29703D01*
X25386Y-29646D01*
X25367Y-29608D01*
X25348Y-29589D01*
X25177Y-29265D02*
X25177Y-29398D01*
X25386Y-29398D02*
X24986Y-29398D01*
X24986Y-29208D01*
G54D15*
X26089Y-31653D02*
X26089Y-31196D01*
X26317Y-31424D02*
X25860Y-31424D01*
G54D13*
X33123Y-31466D02*
X33142Y-31485D01*
X33161Y-31542D01*
X33161Y-31580D01*
X33142Y-31638D01*
X33104Y-31676D01*
X33066Y-31695D01*
X32990Y-31714D01*
X32933Y-31714D01*
X32857Y-31695D01*
X32819Y-31676D01*
X32780Y-31638D01*
X32761Y-31580D01*
X32761Y-31542D01*
X32780Y-31485D01*
X32800Y-31466D01*
X32761Y-31104D02*
X32761Y-31295D01*
X32952Y-31314D01*
X32933Y-31295D01*
X32914Y-31257D01*
X32914Y-31161D01*
X32933Y-31123D01*
X32952Y-31104D01*
X32990Y-31085D01*
X33085Y-31085D01*
X33123Y-31104D01*
X33142Y-31123D01*
X33161Y-31161D01*
X33161Y-31257D01*
X33142Y-31295D01*
X33123Y-31314D01*
X30286Y-30694D02*
X30286Y-30922D01*
X30286Y-30808D02*
X29886Y-30808D01*
X29944Y-30846D01*
X29982Y-30884D01*
X30001Y-30922D01*
X29886Y-30446D02*
X29886Y-30408D01*
X29905Y-30370D01*
X29925Y-30351D01*
X29963Y-30332D01*
X30039Y-30313D01*
X30134Y-30313D01*
X30210Y-30332D01*
X30248Y-30351D01*
X30267Y-30370D01*
X30286Y-30408D01*
X30286Y-30446D01*
X30267Y-30484D01*
X30248Y-30503D01*
X30210Y-30522D01*
X30134Y-30541D01*
X30039Y-30541D01*
X29963Y-30522D01*
X29925Y-30503D01*
X29905Y-30484D01*
X29886Y-30446D01*
X29886Y-30065D02*
X29886Y-30027D01*
X29905Y-29989D01*
X29925Y-29970D01*
X29963Y-29951D01*
X30039Y-29932D01*
X30134Y-29932D01*
X30210Y-29951D01*
X30248Y-29970D01*
X30267Y-29989D01*
X30286Y-30027D01*
X30286Y-30065D01*
X30267Y-30103D01*
X30248Y-30122D01*
X30210Y-30141D01*
X30134Y-30160D01*
X30039Y-30160D01*
X29963Y-30141D01*
X29925Y-30122D01*
X29905Y-30103D01*
X29886Y-30065D01*
X30020Y-29589D02*
X30286Y-29589D01*
X30020Y-29760D02*
X30229Y-29760D01*
X30267Y-29741D01*
X30286Y-29703D01*
X30286Y-29646D01*
X30267Y-29608D01*
X30248Y-29589D01*
X30077Y-29265D02*
X30077Y-29398D01*
X30286Y-29398D02*
X29886Y-29398D01*
X29886Y-29208D01*
G54D15*
X31089Y-31653D02*
X31089Y-31196D01*
X31317Y-31424D02*
X30860Y-31424D01*
G54D13*
X11723Y-23466D02*
X11742Y-23485D01*
X11761Y-23542D01*
X11761Y-23580D01*
X11742Y-23638D01*
X11704Y-23676D01*
X11666Y-23695D01*
X11590Y-23714D01*
X11533Y-23714D01*
X11457Y-23695D01*
X11419Y-23676D01*
X11380Y-23638D01*
X11361Y-23580D01*
X11361Y-23542D01*
X11380Y-23485D01*
X11400Y-23466D01*
X11761Y-23085D02*
X11761Y-23314D01*
X11761Y-23199D02*
X11361Y-23199D01*
X11419Y-23238D01*
X11457Y-23276D01*
X11476Y-23314D01*
X9061Y-22819D02*
X9061Y-23047D01*
X9061Y-22933D02*
X8661Y-22933D01*
X8719Y-22971D01*
X8757Y-23009D01*
X8776Y-23047D01*
X8661Y-22571D02*
X8661Y-22533D01*
X8680Y-22495D01*
X8700Y-22476D01*
X8738Y-22457D01*
X8814Y-22438D01*
X8909Y-22438D01*
X8985Y-22457D01*
X9023Y-22476D01*
X9042Y-22495D01*
X9061Y-22533D01*
X9061Y-22571D01*
X9042Y-22609D01*
X9023Y-22628D01*
X8985Y-22647D01*
X8909Y-22666D01*
X8814Y-22666D01*
X8738Y-22647D01*
X8700Y-22628D01*
X8680Y-22609D01*
X8661Y-22571D01*
X8661Y-22190D02*
X8661Y-22152D01*
X8680Y-22114D01*
X8700Y-22095D01*
X8738Y-22076D01*
X8814Y-22057D01*
X8909Y-22057D01*
X8985Y-22076D01*
X9023Y-22095D01*
X9042Y-22114D01*
X9061Y-22152D01*
X9061Y-22190D01*
X9042Y-22228D01*
X9023Y-22247D01*
X8985Y-22266D01*
X8909Y-22285D01*
X8814Y-22285D01*
X8738Y-22266D01*
X8700Y-22247D01*
X8680Y-22228D01*
X8661Y-22190D01*
X8795Y-21714D02*
X9061Y-21714D01*
X8795Y-21885D02*
X9004Y-21885D01*
X9042Y-21866D01*
X9061Y-21828D01*
X9061Y-21771D01*
X9042Y-21733D01*
X9023Y-21714D01*
X8852Y-21390D02*
X8852Y-21523D01*
X9061Y-21523D02*
X8661Y-21523D01*
X8661Y-21333D01*
G54D15*
X9764Y-23778D02*
X9764Y-23321D01*
X9992Y-23549D02*
X9535Y-23549D01*
G54D13*
X8123Y-19066D02*
X8142Y-19085D01*
X8161Y-19142D01*
X8161Y-19180D01*
X8142Y-19238D01*
X8104Y-19276D01*
X8066Y-19295D01*
X7990Y-19314D01*
X7933Y-19314D01*
X7857Y-19295D01*
X7819Y-19276D01*
X7780Y-19238D01*
X7761Y-19180D01*
X7761Y-19142D01*
X7780Y-19085D01*
X7800Y-19066D01*
X7933Y-18838D02*
X7914Y-18876D01*
X7895Y-18895D01*
X7857Y-18914D01*
X7838Y-18914D01*
X7800Y-18895D01*
X7780Y-18876D01*
X7761Y-18838D01*
X7761Y-18761D01*
X7780Y-18723D01*
X7800Y-18704D01*
X7838Y-18685D01*
X7857Y-18685D01*
X7895Y-18704D01*
X7914Y-18723D01*
X7933Y-18761D01*
X7933Y-18838D01*
X7952Y-18876D01*
X7971Y-18895D01*
X8009Y-18914D01*
X8085Y-18914D01*
X8123Y-18895D01*
X8142Y-18876D01*
X8161Y-18838D01*
X8161Y-18761D01*
X8142Y-18723D01*
X8123Y-18704D01*
X8085Y-18685D01*
X8009Y-18685D01*
X7971Y-18704D01*
X7952Y-18723D01*
X7933Y-18761D01*
X30323Y-17866D02*
X30342Y-17885D01*
X30361Y-17942D01*
X30361Y-17980D01*
X30342Y-18038D01*
X30304Y-18076D01*
X30266Y-18095D01*
X30190Y-18114D01*
X30133Y-18114D01*
X30057Y-18095D01*
X30019Y-18076D01*
X29980Y-18038D01*
X29961Y-17980D01*
X29961Y-17942D01*
X29980Y-17885D01*
X30000Y-17866D01*
X29961Y-17733D02*
X29961Y-17485D01*
X30114Y-17619D01*
X30114Y-17561D01*
X30133Y-17523D01*
X30152Y-17504D01*
X30190Y-17485D01*
X30285Y-17485D01*
X30323Y-17504D01*
X30342Y-17523D01*
X30361Y-17561D01*
X30361Y-17676D01*
X30342Y-17714D01*
X30323Y-17733D01*
X24333Y-17723D02*
X24314Y-17742D01*
X24257Y-17761D01*
X24219Y-17761D01*
X24161Y-17742D01*
X24123Y-17704D01*
X24104Y-17666D01*
X24085Y-17590D01*
X24085Y-17533D01*
X24104Y-17457D01*
X24123Y-17419D01*
X24161Y-17380D01*
X24219Y-17361D01*
X24257Y-17361D01*
X24314Y-17380D01*
X24333Y-17400D01*
X24523Y-17761D02*
X24600Y-17761D01*
X24638Y-17742D01*
X24657Y-17723D01*
X24695Y-17666D01*
X24714Y-17590D01*
X24714Y-17438D01*
X24695Y-17400D01*
X24676Y-17380D01*
X24638Y-17361D01*
X24561Y-17361D01*
X24523Y-17380D01*
X24504Y-17400D01*
X24485Y-17438D01*
X24485Y-17533D01*
X24504Y-17571D01*
X24523Y-17590D01*
X24561Y-17609D01*
X24638Y-17609D01*
X24676Y-17590D01*
X24695Y-17571D01*
X24714Y-17533D01*
X14333Y-21123D02*
X14314Y-21142D01*
X14257Y-21161D01*
X14219Y-21161D01*
X14161Y-21142D01*
X14123Y-21104D01*
X14104Y-21066D01*
X14085Y-20990D01*
X14085Y-20933D01*
X14104Y-20857D01*
X14123Y-20819D01*
X14161Y-20780D01*
X14219Y-20761D01*
X14257Y-20761D01*
X14314Y-20780D01*
X14333Y-20800D01*
X14485Y-20800D02*
X14504Y-20780D01*
X14542Y-20761D01*
X14638Y-20761D01*
X14676Y-20780D01*
X14695Y-20800D01*
X14714Y-20838D01*
X14714Y-20876D01*
X14695Y-20933D01*
X14466Y-21161D01*
X14714Y-21161D01*
X23123Y-17266D02*
X23142Y-17285D01*
X23161Y-17342D01*
X23161Y-17380D01*
X23142Y-17438D01*
X23104Y-17476D01*
X23066Y-17495D01*
X22990Y-17514D01*
X22933Y-17514D01*
X22857Y-17495D01*
X22819Y-17476D01*
X22780Y-17438D01*
X22761Y-17380D01*
X22761Y-17342D01*
X22780Y-17285D01*
X22800Y-17266D01*
X22761Y-17133D02*
X22761Y-16866D01*
X23161Y-17038D01*
X24933Y-9123D02*
X24914Y-9142D01*
X24857Y-9161D01*
X24819Y-9161D01*
X24761Y-9142D01*
X24723Y-9104D01*
X24704Y-9066D01*
X24685Y-8990D01*
X24685Y-8933D01*
X24704Y-8857D01*
X24723Y-8819D01*
X24761Y-8780D01*
X24819Y-8761D01*
X24857Y-8761D01*
X24914Y-8780D01*
X24933Y-8800D01*
X25276Y-8895D02*
X25276Y-9161D01*
X25180Y-8742D02*
X25085Y-9028D01*
X25333Y-9028D01*
X23797Y-29182D02*
X23797Y-29467D01*
X23797Y-29325D02*
X23247Y-29325D01*
X23326Y-29372D01*
X23378Y-29420D01*
X23404Y-29467D01*
X23797Y-28967D02*
X23247Y-28967D01*
X23797Y-28682D02*
X23483Y-28896D01*
X23247Y-28682D02*
X23561Y-28967D01*
X13797Y-29182D02*
X13797Y-29467D01*
X13797Y-29325D02*
X13247Y-29325D01*
X13326Y-29372D01*
X13378Y-29420D01*
X13404Y-29467D01*
X13797Y-28967D02*
X13247Y-28967D01*
X13797Y-28682D02*
X13483Y-28896D01*
X13247Y-28682D02*
X13561Y-28967D01*
X32054Y-17872D02*
X31769Y-17872D01*
X31911Y-17872D02*
X31911Y-17322D01*
X31864Y-17401D01*
X31816Y-17453D01*
X31769Y-17479D01*
X32364Y-17322D02*
X32411Y-17322D01*
X32459Y-17348D01*
X32483Y-17375D01*
X32507Y-17427D01*
X32530Y-17532D01*
X32530Y-17663D01*
X32507Y-17767D01*
X32483Y-17820D01*
X32459Y-17846D01*
X32411Y-17872D01*
X32364Y-17872D01*
X32316Y-17846D01*
X32292Y-17820D01*
X32269Y-17767D01*
X32245Y-17663D01*
X32245Y-17532D01*
X32269Y-17427D01*
X32292Y-17375D01*
X32316Y-17348D01*
X32364Y-17322D01*
X32745Y-17872D02*
X32745Y-17322D01*
X33030Y-17872D02*
X32816Y-17558D01*
X33030Y-17322D02*
X32745Y-17636D01*
X32072Y-15545D02*
X32072Y-15830D01*
X32072Y-15688D02*
X31522Y-15688D01*
X31601Y-15735D01*
X31653Y-15783D01*
X31679Y-15830D01*
X31522Y-15235D02*
X31522Y-15188D01*
X31548Y-15140D01*
X31575Y-15116D01*
X31627Y-15092D01*
X31732Y-15069D01*
X31863Y-15069D01*
X31967Y-15092D01*
X32020Y-15116D01*
X32046Y-15140D01*
X32072Y-15188D01*
X32072Y-15235D01*
X32046Y-15283D01*
X32020Y-15307D01*
X31967Y-15330D01*
X31863Y-15354D01*
X31732Y-15354D01*
X31627Y-15330D01*
X31575Y-15307D01*
X31548Y-15283D01*
X31522Y-15235D01*
X32072Y-14854D02*
X31522Y-14854D01*
X32072Y-14569D02*
X31758Y-14783D01*
X31522Y-14569D02*
X31836Y-14854D01*
X6542Y-12523D02*
X6523Y-12542D01*
X6466Y-12561D01*
X6428Y-12561D01*
X6371Y-12542D01*
X6333Y-12504D01*
X6314Y-12466D01*
X6295Y-12390D01*
X6295Y-12333D01*
X6314Y-12257D01*
X6333Y-12219D01*
X6371Y-12180D01*
X6428Y-12161D01*
X6466Y-12161D01*
X6523Y-12180D01*
X6542Y-12200D01*
X6923Y-12561D02*
X6695Y-12561D01*
X6809Y-12561D02*
X6809Y-12161D01*
X6771Y-12219D01*
X6733Y-12257D01*
X6695Y-12276D01*
X7285Y-12161D02*
X7095Y-12161D01*
X7076Y-12352D01*
X7095Y-12333D01*
X7133Y-12314D01*
X7228Y-12314D01*
X7266Y-12333D01*
X7285Y-12352D01*
X7304Y-12390D01*
X7304Y-12485D01*
X7285Y-12523D01*
X7266Y-12542D01*
X7228Y-12561D01*
X7133Y-12561D01*
X7095Y-12542D01*
X7076Y-12523D01*
X6542Y-13923D02*
X6523Y-13942D01*
X6466Y-13961D01*
X6428Y-13961D01*
X6371Y-13942D01*
X6333Y-13904D01*
X6314Y-13866D01*
X6295Y-13790D01*
X6295Y-13733D01*
X6314Y-13657D01*
X6333Y-13619D01*
X6371Y-13580D01*
X6428Y-13561D01*
X6466Y-13561D01*
X6523Y-13580D01*
X6542Y-13600D01*
X6923Y-13961D02*
X6695Y-13961D01*
X6809Y-13961D02*
X6809Y-13561D01*
X6771Y-13619D01*
X6733Y-13657D01*
X6695Y-13676D01*
X7057Y-13561D02*
X7304Y-13561D01*
X7171Y-13714D01*
X7228Y-13714D01*
X7266Y-13733D01*
X7285Y-13752D01*
X7304Y-13790D01*
X7304Y-13885D01*
X7285Y-13923D01*
X7266Y-13942D01*
X7228Y-13961D01*
X7114Y-13961D01*
X7076Y-13942D01*
X7057Y-13923D01*
X6342Y-17123D02*
X6323Y-17142D01*
X6266Y-17161D01*
X6228Y-17161D01*
X6171Y-17142D01*
X6133Y-17104D01*
X6114Y-17066D01*
X6095Y-16990D01*
X6095Y-16933D01*
X6114Y-16857D01*
X6133Y-16819D01*
X6171Y-16780D01*
X6228Y-16761D01*
X6266Y-16761D01*
X6323Y-16780D01*
X6342Y-16800D01*
X6723Y-17161D02*
X6495Y-17161D01*
X6609Y-17161D02*
X6609Y-16761D01*
X6571Y-16819D01*
X6533Y-16857D01*
X6495Y-16876D01*
X7066Y-16895D02*
X7066Y-17161D01*
X6971Y-16742D02*
X6876Y-17028D01*
X7123Y-17028D01*
X6342Y-18523D02*
X6323Y-18542D01*
X6266Y-18561D01*
X6228Y-18561D01*
X6171Y-18542D01*
X6133Y-18504D01*
X6114Y-18466D01*
X6095Y-18390D01*
X6095Y-18333D01*
X6114Y-18257D01*
X6133Y-18219D01*
X6171Y-18180D01*
X6228Y-18161D01*
X6266Y-18161D01*
X6323Y-18180D01*
X6342Y-18200D01*
X6723Y-18561D02*
X6495Y-18561D01*
X6609Y-18561D02*
X6609Y-18161D01*
X6571Y-18219D01*
X6533Y-18257D01*
X6495Y-18276D01*
X7066Y-18161D02*
X6990Y-18161D01*
X6952Y-18180D01*
X6933Y-18200D01*
X6895Y-18257D01*
X6876Y-18333D01*
X6876Y-18485D01*
X6895Y-18523D01*
X6914Y-18542D01*
X6952Y-18561D01*
X7028Y-18561D01*
X7066Y-18542D01*
X7085Y-18523D01*
X7104Y-18485D01*
X7104Y-18390D01*
X7085Y-18352D01*
X7066Y-18333D01*
X7028Y-18314D01*
X6952Y-18314D01*
X6914Y-18333D01*
X6895Y-18352D01*
X6876Y-18390D01*
X20288Y-29111D02*
X20002Y-29111D01*
X20145Y-29111D02*
X20145Y-28561D01*
X20097Y-28639D01*
X20050Y-28692D01*
X20002Y-28718D01*
X20502Y-29111D02*
X20502Y-28561D01*
X20669Y-28954D01*
X20835Y-28561D01*
X20835Y-29111D01*
X21050Y-28613D02*
X21074Y-28587D01*
X21121Y-28561D01*
X21240Y-28561D01*
X21288Y-28587D01*
X21312Y-28613D01*
X21335Y-28665D01*
X21335Y-28718D01*
X21312Y-28796D01*
X21026Y-29111D01*
X21335Y-29111D01*
X10052Y-30193D02*
X9766Y-30193D01*
X9909Y-30193D02*
X9909Y-29643D01*
X9861Y-29722D01*
X9814Y-29774D01*
X9766Y-29801D01*
X10266Y-30193D02*
X10266Y-29643D01*
X10433Y-30036D01*
X10599Y-29643D01*
X10599Y-30193D01*
X10814Y-29696D02*
X10837Y-29670D01*
X10885Y-29643D01*
X11004Y-29643D01*
X11052Y-29670D01*
X11075Y-29696D01*
X11099Y-29748D01*
X11099Y-29801D01*
X11075Y-29879D01*
X10790Y-30193D01*
X11099Y-30193D01*
X33664Y-11613D02*
X34030Y-11613D01*
X33454Y-11732D02*
X33847Y-11851D01*
X33847Y-11541D01*
X34030Y-11351D02*
X33480Y-11351D01*
X34030Y-11065D02*
X33716Y-11279D01*
X33480Y-11065D02*
X33795Y-11351D01*
X33480Y-10899D02*
X33480Y-10565D01*
X34030Y-10779D01*
X37205Y-11813D02*
X37205Y-12180D01*
X37086Y-11604D02*
X36967Y-11997D01*
X37276Y-11997D01*
X37467Y-12180D02*
X37467Y-11630D01*
X37753Y-12180D02*
X37538Y-11866D01*
X37753Y-11630D02*
X37467Y-11944D01*
X37919Y-11630D02*
X38253Y-11630D01*
X38038Y-12180D01*
X10619Y-33124D02*
X10581Y-33095D01*
X10543Y-33038D01*
X10486Y-32952D01*
X10448Y-32924D01*
X10410Y-32924D01*
X10429Y-33067D02*
X10391Y-33038D01*
X10353Y-32981D01*
X10334Y-32867D01*
X10334Y-32667D01*
X10353Y-32552D01*
X10391Y-32495D01*
X10429Y-32467D01*
X10505Y-32467D01*
X10543Y-32495D01*
X10581Y-32552D01*
X10600Y-32667D01*
X10600Y-32867D01*
X10581Y-32981D01*
X10543Y-33038D01*
X10505Y-33067D01*
X10429Y-33067D01*
X10753Y-32524D02*
X10772Y-32495D01*
X10810Y-32467D01*
X10905Y-32467D01*
X10943Y-32495D01*
X10962Y-32524D01*
X10981Y-32581D01*
X10981Y-32638D01*
X10962Y-32724D01*
X10734Y-33067D01*
X10981Y-33067D01*
X13175Y-32882D02*
X12575Y-32882D01*
X13175Y-32463D02*
X12890Y-32596D01*
X13175Y-32692D02*
X12575Y-32692D01*
X12575Y-32539D01*
X12604Y-32501D01*
X12633Y-32482D01*
X12690Y-32463D01*
X12775Y-32463D01*
X12833Y-32482D01*
X12861Y-32501D01*
X12890Y-32539D01*
X12890Y-32692D01*
X12861Y-32158D02*
X12861Y-32292D01*
X13175Y-32292D02*
X12575Y-32292D01*
X12575Y-32101D01*
X12861Y-31815D02*
X12890Y-31758D01*
X12918Y-31739D01*
X12975Y-31720D01*
X13061Y-31720D01*
X13118Y-31739D01*
X13147Y-31758D01*
X13175Y-31796D01*
X13175Y-31949D01*
X12575Y-31949D01*
X12575Y-31815D01*
X12604Y-31777D01*
X12633Y-31758D01*
X12690Y-31739D01*
X12747Y-31739D01*
X12804Y-31758D01*
X12833Y-31777D01*
X12861Y-31815D01*
X12861Y-31949D01*
X12775Y-31377D02*
X13175Y-31377D01*
X12547Y-31473D02*
X12975Y-31568D01*
X12975Y-31320D01*
X12575Y-31092D02*
X12575Y-31053D01*
X12604Y-31015D01*
X12633Y-30996D01*
X12690Y-30977D01*
X12804Y-30958D01*
X12947Y-30958D01*
X13061Y-30977D01*
X13118Y-30996D01*
X13147Y-31015D01*
X13175Y-31053D01*
X13175Y-31092D01*
X13147Y-31130D01*
X13118Y-31149D01*
X13061Y-31168D01*
X12947Y-31187D01*
X12804Y-31187D01*
X12690Y-31168D01*
X12633Y-31149D01*
X12604Y-31130D01*
X12575Y-31092D01*
X13175Y-30577D02*
X13175Y-30806D01*
X13175Y-30692D02*
X12575Y-30692D01*
X12661Y-30730D01*
X12718Y-30768D01*
X12747Y-30806D01*
X13175Y-30387D02*
X13175Y-30311D01*
X13147Y-30273D01*
X13118Y-30253D01*
X13033Y-30215D01*
X12918Y-30196D01*
X12690Y-30196D01*
X12633Y-30215D01*
X12604Y-30234D01*
X12575Y-30273D01*
X12575Y-30349D01*
X12604Y-30387D01*
X12633Y-30406D01*
X12690Y-30425D01*
X12833Y-30425D01*
X12890Y-30406D01*
X12918Y-30387D01*
X12947Y-30349D01*
X12947Y-30273D01*
X12918Y-30234D01*
X12890Y-30215D01*
X12833Y-30196D01*
X20856Y-32139D02*
X20818Y-32111D01*
X20780Y-32054D01*
X20722Y-31968D01*
X20684Y-31939D01*
X20646Y-31939D01*
X20665Y-32082D02*
X20627Y-32054D01*
X20589Y-31997D01*
X20570Y-31882D01*
X20570Y-31682D01*
X20589Y-31568D01*
X20627Y-31511D01*
X20665Y-31482D01*
X20741Y-31482D01*
X20780Y-31511D01*
X20818Y-31568D01*
X20837Y-31682D01*
X20837Y-31882D01*
X20818Y-31997D01*
X20780Y-32054D01*
X20741Y-32082D01*
X20665Y-32082D01*
X21218Y-32082D02*
X20989Y-32082D01*
X21103Y-32082D02*
X21103Y-31482D01*
X21065Y-31568D01*
X21027Y-31625D01*
X20989Y-31654D01*
X23412Y-31898D02*
X22812Y-31898D01*
X23412Y-31479D02*
X23126Y-31612D01*
X23412Y-31707D02*
X22812Y-31707D01*
X22812Y-31555D01*
X22840Y-31517D01*
X22869Y-31498D01*
X22926Y-31479D01*
X23012Y-31479D01*
X23069Y-31498D01*
X23097Y-31517D01*
X23126Y-31555D01*
X23126Y-31707D01*
X23097Y-31174D02*
X23097Y-31307D01*
X23412Y-31307D02*
X22812Y-31307D01*
X22812Y-31117D01*
X23097Y-30831D02*
X23126Y-30774D01*
X23155Y-30755D01*
X23212Y-30736D01*
X23297Y-30736D01*
X23355Y-30755D01*
X23383Y-30774D01*
X23412Y-30812D01*
X23412Y-30964D01*
X22812Y-30964D01*
X22812Y-30831D01*
X22840Y-30793D01*
X22869Y-30774D01*
X22926Y-30755D01*
X22983Y-30755D01*
X23040Y-30774D01*
X23069Y-30793D01*
X23097Y-30831D01*
X23097Y-30964D01*
X23012Y-30393D02*
X23412Y-30393D01*
X22783Y-30488D02*
X23212Y-30584D01*
X23212Y-30336D01*
X22812Y-30107D02*
X22812Y-30069D01*
X22840Y-30031D01*
X22869Y-30012D01*
X22926Y-29993D01*
X23040Y-29974D01*
X23183Y-29974D01*
X23297Y-29993D01*
X23355Y-30012D01*
X23383Y-30031D01*
X23412Y-30069D01*
X23412Y-30107D01*
X23383Y-30145D01*
X23355Y-30164D01*
X23297Y-30184D01*
X23183Y-30203D01*
X23040Y-30203D01*
X22926Y-30184D01*
X22869Y-30164D01*
X22840Y-30145D01*
X22812Y-30107D01*
X23412Y-29593D02*
X23412Y-29822D01*
X23412Y-29707D02*
X22812Y-29707D01*
X22897Y-29745D01*
X22955Y-29784D01*
X22983Y-29822D01*
X23412Y-29403D02*
X23412Y-29326D01*
X23383Y-29288D01*
X23355Y-29269D01*
X23269Y-29231D01*
X23155Y-29212D01*
X22926Y-29212D01*
X22869Y-29231D01*
X22840Y-29250D01*
X22812Y-29288D01*
X22812Y-29364D01*
X22840Y-29403D01*
X22869Y-29422D01*
X22926Y-29441D01*
X23069Y-29441D01*
X23126Y-29422D01*
X23155Y-29403D01*
X23183Y-29364D01*
X23183Y-29288D01*
X23155Y-29250D01*
X23126Y-29231D01*
X23069Y-29212D01*
M02*
