  0
SECTION
  2
HEADER
  9
$ACADVER
  1
AC1014
  9
$HANDSEED
  5
FFFF
  9
$MEASUREMENT
 70
     1
  0
ENDSEC
  0
SECTION
  2
TABLES
  0
TABLE
  2
VPORT
  5
8
330
0
100
AcDbSymbolTable
 70
     4
  0
VPORT
  5
2E
330
8
100
AcDbSymbolTableRecord
100
AcDbViewportTableRecord
  2
*ACTIVE
 70
     0
 10
0.0
 20
0.0
 11
1.0
 21
1.0
 12
210.0
 22
148.5
 13
0.0
 23
0.0
 14
10.0
 24
10.0
 15
10.0
 25
10.0
 16
0.0
 26
0.0
 36
1.0
 17
0.0
 27
0.0
 37
0.0
 40
341.0
 41
1.24
 42
50.0
 43
0.0
 44
0.0
 50
0.0
 51
0.0
 71
     0
 72
   100
 73
     1
 74
     3
 75
     0
 76
     0
 77
     0
 78
     0
  0
ENDTAB
  0
TABLE
  2
LTYPE
  5
5
330
0
100
AcDbSymbolTable
 70
     1
  0
LTYPE
  5
14
330
5
100
AcDbSymbolTableRecord
100
AcDbLinetypeTableRecord
  2
BYBLOCK
 70
     0
  3

 72
    65
 73
     0
 40
0.0
  0
LTYPE
  5
15
330
5
100
AcDbSymbolTableRecord
100
AcDbLinetypeTableRecord
  2
BYLAYER
 70
     0
  3

 72
    65
 73
     0
 40
0.0
  0
LTYPE
  5
16
330
5
100
AcDbSymbolTableRecord
100
AcDbLinetypeTableRecord
  2
CONTINUOUS
 70
     0
  3
Solid line
 72
    65
 73
     0
 40
0.0
  0
ENDTAB
  0
TABLE
  2
LAYER
  5
2
100
AcDbSymbolTable
 70
1
  0
LAYER
  5
50
100
AcDbSymbolTableRecord
100
AcDbLayerTableRecord
  2
0
 70
0
  6
CONTINUOUS
  0
ENDTAB
  0
TABLE
  2
STYLE
  5
3
330
0
100
AcDbSymbolTable
 70
     1
  0
STYLE
  5
11
330
3
100
AcDbSymbolTableRecord
100
AcDbTextStyleTableRecord
  2
STANDARD
 70
     0
 40
0.0
 41
1.0
 50
0.0
 71
     0
 42
2.5
  3
txt
  4

  0
ENDTAB
  0
TABLE
  2
VIEW
  5
6
330
0
100
AcDbSymbolTable
 70
     0
  0
ENDTAB
  0
TABLE
  2
UCS
  5
7
330
0
100
AcDbSymbolTable
 70
     0
  0
ENDTAB
  0
TABLE
  2
APPID
  5
9
330
0
100
AcDbSymbolTable
 70
     2
  0
APPID
  5
12
330
9
100
AcDbSymbolTableRecord
100
AcDbRegAppTableRecord
  2
ACAD
 70
     0
  0
ENDTAB
  0
TABLE
  2
DIMSTYLE
  5
A
330
0
100
AcDbSymbolTable
 70
     1
  0
DIMSTYLE
105
27
330
A
100
AcDbSymbolTableRecord
100
AcDbDimStyleTableRecord
  2
ISO-25
 70
     0
  3

  4

  5

  6

  7

 40
1.0
 41
2.5
 42
0.625
 43
3.75
 44
1.25
 45
0.0
 46
0.0
 47
0.0
 48
0.0
140
2.5
141
2.5
142
0.0
143
0.03937007874016
144
1.0
145
0.0
146
1.0
147
0.625
 71
     0
 72
     0
 73
     0
 74
     0
 75
     0
 76
     0
 77
     1
 78
     8
170
     0
171
     3
172
     1
173
     0
174
     0
175
     0
176
     0
177
     0
178
     0
270
     2
271
     2
272
     2
273
     2
274
     3
340
11
275
     0
280
     0
281
     0
282
     0
283
     0
284
     8
285
     0
286
     0
287
     3
288
     0
  0
ENDTAB
  0
TABLE
  2
BLOCK_RECORD
  5
1
330
0
100
AcDbSymbolTable
 70
     1
  0
BLOCK_RECORD
  5
1F
330
1
100
AcDbSymbolTableRecord
100
AcDbBlockTableRecord
  2
*MODEL_SPACE
  0
BLOCK_RECORD
  5
1B
330
1
100
AcDbSymbolTableRecord
100
AcDbBlockTableRecord
  2
*PAPER_SPACE
  0
ENDTAB
  0
ENDSEC
  0
SECTION
  2
BLOCKS
  0
BLOCK
  5
20
330
1F
100
AcDbEntity
  8
0
100
AcDbBlockBegin
  2
*MODEL_SPACE
 70
     0
 10
0.0
 20
0.0
 30
0.0
  3
*MODEL_SPACE
  1

  0
ENDBLK
  5
21
330
1F
100
AcDbEntity
  8
0
100
AcDbBlockEnd
  0
BLOCK
  5
1C
330
1B
100
AcDbEntity
 67
     1
  8
0
100
AcDbBlockBegin
  2
*PAPER_SPACE
  1

  0
ENDBLK
  5
1D
330
1B
100
AcDbEntity
 67
     1
  8
0
100
AcDbBlockEnd
  0
ENDSEC
  0
SECTION
  2
ENTITIES
  0
LWPOLYLINE
  5
100
100
AcDbEntity
  8
0
 62
7
100
AcDbPolyline
 90
5
 70
0
 10
3200.000000
 20
-2358.104567
 30
0.0
 10
129080.000000
 20
-2358.104567
 30
0.0
 10
129080.000000
 20
-89502.104567
 30
0.0
 10
3200.000000
 20
-89502.104567
 30
0.0
 10
3200.000000
 20
-2358.104567
 30
0.0
  0
LWPOLYLINE
  5
101
100
AcDbEntity
  8
0
 62
7
100
AcDbPolyline
 90
5
 70
0
 10
3760.000000
 20
-2918.104567
 30
0.0
 10
128520.000000
 20
-2918.104567
 30
0.0
 10
128520.000000
 20
-88942.104567
 30
0.0
 10
3760.000000
 20
-88942.104567
 30
0.0
 10
3760.000000
 20
-2918.104567
 30
0.0
  0
LWPOLYLINE
  5
102
100
AcDbEntity
  8
0
 62
7
100
AcDbPolyline
 90
2
 70
0
 10
21176.000000
 20
-2358.104567
 30
0.0
 10
21176.000000
 20
-2918.104567
 30
0.0
  0
LWPOLYLINE
  5
103
100
AcDbEntity
  8
0
 62
7
100
AcDbPolyline
 90
2
 70
0
 10
12305.600000
 20
-2799.704567
 30
0.0
 10
12077.600000
 20
-2799.704567
 30
0.0
  0
LWPOLYLINE
  5
104
100
AcDbEntity
  8
0
 62
7
100
AcDbPolyline
 90
5
 70
0
 10
12192.000000
 20
-2799.704567
 30
0.0
 10
12192.000000
 20
-2399.704567
 30
0.0
 10
12153.600000
 20
-2456.504567
 30
0.0
 10
12115.200000
 20
-2494.904567
 30
0.0
 10
12077.600000
 20
-2514.104567
 30
0.0
  0
LWPOLYLINE
  5
105
100
AcDbEntity
  8
0
 62
7
100
AcDbPolyline
 90
2
 70
0
 10
21176.000000
 20
-89502.104567
 30
0.0
 10
21176.000000
 20
-88942.104567
 30
0.0
  0
LWPOLYLINE
  5
106
100
AcDbEntity
  8
0
 62
7
100
AcDbPolyline
 90
2
 70
0
 10
12305.600000
 20
-89383.704567
 30
0.0
 10
12077.600000
 20
-89383.704567
 30
0.0
  0
LWPOLYLINE
  5
107
100
AcDbEntity
  8
0
 62
7
100
AcDbPolyline
 90
5
 70
0
 10
12192.000000
 20
-89383.704567
 30
0.0
 10
12192.000000
 20
-88983.704567
 30
0.0
 10
12153.600000
 20
-89040.504567
 30
0.0
 10
12115.200000
 20
-89078.904567
 30
0.0
 10
12077.600000
 20
-89098.104567
 30
0.0
  0
LWPOLYLINE
  5
108
100
AcDbEntity
  8
0
 62
7
100
AcDbPolyline
 90
2
 70
0
 10
39152.000000
 20
-2358.104567
 30
0.0
 10
39152.000000
 20
-2918.104567
 30
0.0
  0
LWPOLYLINE
  5
109
100
AcDbEntity
  8
0
 62
7
100
AcDbPolyline
 90
11
 70
0
 10
30053.600000
 20
-2438.104567
 30
0.0
 10
30072.000000
 20
-2418.904567
 30
0.0
 10
30110.400000
 20
-2399.704567
 30
0.0
 10
30205.600000
 20
-2399.704567
 30
0.0
 10
30244.000000
 20
-2418.904567
 30
0.0
 10
30263.200000
 20
-2438.104567
 30
0.0
 10
30281.600000
 20
-2475.704567
 30
0.0
 10
30281.600000
 20
-2514.104567
 30
0.0
 10
30263.200000
 20
-2570.904567
 30
0.0
 10
30034.400000
 20
-2799.704567
 30
0.0
 10
30281.600000
 20
-2799.704567
 30
0.0
  0
LWPOLYLINE
  5
10a
100
AcDbEntity
  8
0
 62
7
100
AcDbPolyline
 90
2
 70
0
 10
39152.000000
 20
-89502.104567
 30
0.0
 10
39152.000000
 20
-88942.104567
 30
0.0
  0
LWPOLYLINE
  5
10b
100
AcDbEntity
  8
0
 62
7
100
AcDbPolyline
 90
11
 70
0
 10
30053.600000
 20
-89022.104567
 30
0.0
 10
30072.000000
 20
-89002.904567
 30
0.0
 10
30110.400000
 20
-88983.704567
 30
0.0
 10
30205.600000
 20
-88983.704567
 30
0.0
 10
30244.000000
 20
-89002.904567
 30
0.0
 10
30263.200000
 20
-89022.104567
 30
0.0
 10
30281.600000
 20
-89059.704567
 30
0.0
 10
30281.600000
 20
-89098.104567
 30
0.0
 10
30263.200000
 20
-89154.904567
 30
0.0
 10
30034.400000
 20
-89383.704567
 30
0.0
 10
30281.600000
 20
-89383.704567
 30
0.0
  0
LWPOLYLINE
  5
10c
100
AcDbEntity
  8
0
 62
7
100
AcDbPolyline
 90
2
 70
0
 10
57128.000000
 20
-2358.104567
 30
0.0
 10
57128.000000
 20
-2918.104567
 30
0.0
  0
LWPOLYLINE
  5
10d
100
AcDbEntity
  8
0
 62
7
100
AcDbPolyline
 90
14
 70
0
 10
48010.400000
 20
-2399.704567
 30
0.0
 10
48257.600000
 20
-2399.704567
 30
0.0
 10
48124.800000
 20
-2551.704567
 30
0.0
 10
48181.600000
 20
-2551.704567
 30
0.0
 10
48220.000000
 20
-2570.904567
 30
0.0
 10
48239.200000
 20
-2590.104567
 30
0.0
 10
48257.600000
 20
-2628.504567
 30
0.0
 10
48257.600000
 20
-2723.704567
 30
0.0
 10
48239.200000
 20
-2761.304567
 30
0.0
 10
48220.000000
 20
-2780.504567
 30
0.0
 10
48181.600000
 20
-2799.704567
 30
0.0
 10
48067.200000
 20
-2799.704567
 30
0.0
 10
48029.600000
 20
-2780.504567
 30
0.0
 10
48010.400000
 20
-2761.304567
 30
0.0
  0
LWPOLYLINE
  5
10e
100
AcDbEntity
  8
0
 62
7
100
AcDbPolyline
 90
2
 70
0
 10
57128.000000
 20
-89502.104567
 30
0.0
 10
57128.000000
 20
-88942.104567
 30
0.0
  0
LWPOLYLINE
  5
10f
100
AcDbEntity
  8
0
 62
7
100
AcDbPolyline
 90
14
 70
0
 10
48010.400000
 20
-88983.704567
 30
0.0
 10
48257.600000
 20
-88983.704567
 30
0.0
 10
48124.800000
 20
-89135.704567
 30
0.0
 10
48181.600000
 20
-89135.704567
 30
0.0
 10
48220.000000
 20
-89154.904567
 30
0.0
 10
48239.200000
 20
-89174.104567
 30
0.0
 10
48257.600000
 20
-89212.504567
 30
0.0
 10
48257.600000
 20
-89307.704567
 30
0.0
 10
48239.200000
 20
-89345.304567
 30
0.0
 10
48220.000000
 20
-89364.504567
 30
0.0
 10
48181.600000
 20
-89383.704567
 30
0.0
 10
48067.200000
 20
-89383.704567
 30
0.0
 10
48029.600000
 20
-89364.504567
 30
0.0
 10
48010.400000
 20
-89345.304567
 30
0.0
  0
LWPOLYLINE
  5
110
100
AcDbEntity
  8
0
 62
7
100
AcDbPolyline
 90
2
 70
0
 10
75104.000000
 20
-2358.104567
 30
0.0
 10
75104.000000
 20
-2918.104567
 30
0.0
  0
LWPOLYLINE
  5
111
100
AcDbEntity
  8
0
 62
7
100
AcDbPolyline
 90
2
 70
0
 10
66196.000000
 20
-2533.304567
 30
0.0
 10
66196.000000
 20
-2799.704567
 30
0.0
  0
LWPOLYLINE
  5
112
100
AcDbEntity
  8
0
 62
7
100
AcDbPolyline
 90
3
 70
0
 10
66100.800000
 20
-2380.504567
 30
0.0
 10
66005.600000
 20
-2666.104567
 30
0.0
 10
66252.800000
 20
-2666.104567
 30
0.0
  0
LWPOLYLINE
  5
113
100
AcDbEntity
  8
0
 62
7
100
AcDbPolyline
 90
2
 70
0
 10
75104.000000
 20
-89502.104567
 30
0.0
 10
75104.000000
 20
-88942.104567
 30
0.0
  0
LWPOLYLINE
  5
114
100
AcDbEntity
  8
0
 62
7
100
AcDbPolyline
 90
2
 70
0
 10
66196.000000
 20
-89117.304567
 30
0.0
 10
66196.000000
 20
-89383.704567
 30
0.0
  0
LWPOLYLINE
  5
115
100
AcDbEntity
  8
0
 62
7
100
AcDbPolyline
 90
3
 70
0
 10
66100.800000
 20
-88964.504567
 30
0.0
 10
66005.600000
 20
-89250.104567
 30
0.0
 10
66252.800000
 20
-89250.104567
 30
0.0
  0
LWPOLYLINE
  5
116
100
AcDbEntity
  8
0
 62
7
100
AcDbPolyline
 90
2
 70
0
 10
93080.000000
 20
-2358.104567
 30
0.0
 10
93080.000000
 20
-2918.104567
 30
0.0
  0
LWPOLYLINE
  5
117
100
AcDbEntity
  8
0
 62
7
100
AcDbPolyline
 90
16
 70
0
 10
84191.200000
 20
-2399.704567
 30
0.0
 10
84000.000000
 20
-2399.704567
 30
0.0
 10
83981.600000
 20
-2590.104567
 30
0.0
 10
84000.000000
 20
-2570.904567
 30
0.0
 10
84038.400000
 20
-2551.704567
 30
0.0
 10
84133.600000
 20
-2551.704567
 30
0.0
 10
84172.000000
 20
-2570.904567
 30
0.0
 10
84191.200000
 20
-2590.104567
 30
0.0
 10
84209.600000
 20
-2628.504567
 30
0.0
 10
84209.600000
 20
-2723.704567
 30
0.0
 10
84191.200000
 20
-2761.304567
 30
0.0
 10
84172.000000
 20
-2780.504567
 30
0.0
 10
84133.600000
 20
-2799.704567
 30
0.0
 10
84038.400000
 20
-2799.704567
 30
0.0
 10
84000.000000
 20
-2780.504567
 30
0.0
 10
83981.600000
 20
-2761.304567
 30
0.0
  0
LWPOLYLINE
  5
118
100
AcDbEntity
  8
0
 62
7
100
AcDbPolyline
 90
2
 70
0
 10
93080.000000
 20
-89502.104567
 30
0.0
 10
93080.000000
 20
-88942.104567
 30
0.0
  0
LWPOLYLINE
  5
119
100
AcDbEntity
  8
0
 62
7
100
AcDbPolyline
 90
16
 70
0
 10
84191.200000
 20
-88983.704567
 30
0.0
 10
84000.000000
 20
-88983.704567
 30
0.0
 10
83981.600000
 20
-89174.104567
 30
0.0
 10
84000.000000
 20
-89154.904567
 30
0.0
 10
84038.400000
 20
-89135.704567
 30
0.0
 10
84133.600000
 20
-89135.704567
 30
0.0
 10
84172.000000
 20
-89154.904567
 30
0.0
 10
84191.200000
 20
-89174.104567
 30
0.0
 10
84209.600000
 20
-89212.504567
 30
0.0
 10
84209.600000
 20
-89307.704567
 30
0.0
 10
84191.200000
 20
-89345.304567
 30
0.0
 10
84172.000000
 20
-89364.504567
 30
0.0
 10
84133.600000
 20
-89383.704567
 30
0.0
 10
84038.400000
 20
-89383.704567
 30
0.0
 10
84000.000000
 20
-89364.504567
 30
0.0
 10
83981.600000
 20
-89345.304567
 30
0.0
  0
LWPOLYLINE
  5
11a
100
AcDbEntity
  8
0
 62
7
100
AcDbPolyline
 90
2
 70
0
 10
111056.000000
 20
-2358.104567
 30
0.0
 10
111056.000000
 20
-2918.104567
 30
0.0
  0
LWPOLYLINE
  5
11b
100
AcDbEntity
  8
0
 62
7
100
AcDbPolyline
 90
22
 70
0
 10
102148.000000
 20
-2399.704567
 30
0.0
 10
102072.000000
 20
-2399.704567
 30
0.0
 10
102033.600000
 20
-2418.904567
 30
0.0
 10
102014.400000
 20
-2438.104567
 30
0.0
 10
101976.000000
 20
-2494.904567
 30
0.0
 10
101957.600000
 20
-2570.904567
 30
0.0
 10
101957.600000
 20
-2723.704567
 30
0.0
 10
101976.000000
 20
-2761.304567
 30
0.0
 10
101995.200000
 20
-2780.504567
 30
0.0
 10
102033.600000
 20
-2799.704567
 30
0.0
 10
102109.600000
 20
-2799.704567
 30
0.0
 10
102148.000000
 20
-2780.504567
 30
0.0
 10
102167.200000
 20
-2761.304567
 30
0.0
 10
102185.600000
 20
-2723.704567
 30
0.0
 10
102185.600000
 20
-2628.504567
 30
0.0
 10
102167.200000
 20
-2590.104567
 30
0.0
 10
102148.000000
 20
-2570.904567
 30
0.0
 10
102109.600000
 20
-2551.704567
 30
0.0
 10
102033.600000
 20
-2551.704567
 30
0.0
 10
101995.200000
 20
-2570.904567
 30
0.0
 10
101976.000000
 20
-2590.104567
 30
0.0
 10
101957.600000
 20
-2628.504567
 30
0.0
  0
LWPOLYLINE
  5
11c
100
AcDbEntity
  8
0
 62
7
100
AcDbPolyline
 90
2
 70
0
 10
111056.000000
 20
-89502.104567
 30
0.0
 10
111056.000000
 20
-88942.104567
 30
0.0
  0
LWPOLYLINE
  5
11d
100
AcDbEntity
  8
0
 62
7
100
AcDbPolyline
 90
22
 70
0
 10
102148.000000
 20
-88983.704567
 30
0.0
 10
102072.000000
 20
-88983.704567
 30
0.0
 10
102033.600000
 20
-89002.904567
 30
0.0
 10
102014.400000
 20
-89022.104567
 30
0.0
 10
101976.000000
 20
-89078.904567
 30
0.0
 10
101957.600000
 20
-89154.904567
 30
0.0
 10
101957.600000
 20
-89307.704567
 30
0.0
 10
101976.000000
 20
-89345.304567
 30
0.0
 10
101995.200000
 20
-89364.504567
 30
0.0
 10
102033.600000
 20
-89383.704567
 30
0.0
 10
102109.600000
 20
-89383.704567
 30
0.0
 10
102148.000000
 20
-89364.504567
 30
0.0
 10
102167.200000
 20
-89345.304567
 30
0.0
 10
102185.600000
 20
-89307.704567
 30
0.0
 10
102185.600000
 20
-89212.504567
 30
0.0
 10
102167.200000
 20
-89174.104567
 30
0.0
 10
102148.000000
 20
-89154.904567
 30
0.0
 10
102109.600000
 20
-89135.704567
 30
0.0
 10
102033.600000
 20
-89135.704567
 30
0.0
 10
101995.200000
 20
-89154.904567
 30
0.0
 10
101976.000000
 20
-89174.104567
 30
0.0
 10
101957.600000
 20
-89212.504567
 30
0.0
  0
LWPOLYLINE
  5
11e
100
AcDbEntity
  8
0
 62
7
100
AcDbPolyline
 90
3
 70
0
 10
119914.400000
 20
-2399.704567
 30
0.0
 10
120180.800000
 20
-2399.704567
 30
0.0
 10
120009.600000
 20
-2799.704567
 30
0.0
  0
LWPOLYLINE
  5
11f
100
AcDbEntity
  8
0
 62
7
100
AcDbPolyline
 90
3
 70
0
 10
119914.400000
 20
-88983.704567
 30
0.0
 10
120180.800000
 20
-88983.704567
 30
0.0
 10
120009.600000
 20
-89383.704567
 30
0.0
  0
LWPOLYLINE
  5
120
100
AcDbEntity
  8
0
 62
7
100
AcDbPolyline
 90
2
 70
0
 10
3200.000000
 20
-19782.104567
 30
0.0
 10
3760.000000
 20
-19782.104567
 30
0.0
  0
LWPOLYLINE
  5
121
100
AcDbEntity
  8
0
 62
7
100
AcDbPolyline
 90
2
 70
0
 10
3384.000000
 20
-11117.304567
 30
0.0
 10
3575.200000
 20
-11117.304567
 30
0.0
  0
LWPOLYLINE
  5
122
100
AcDbEntity
  8
0
 62
7
100
AcDbPolyline
 90
3
 70
0
 10
3346.400000
 20
-11231.704567
 30
0.0
 10
3480.000000
 20
-10831.704567
 30
0.0
 10
3612.800000
 20
-11231.704567
 30
0.0
  0
LWPOLYLINE
  5
123
100
AcDbEntity
  8
0
 62
7
100
AcDbPolyline
 90
2
 70
0
 10
129080.000000
 20
-19782.104567
 30
0.0
 10
128520.000000
 20
-19782.104567
 30
0.0
  0
LWPOLYLINE
  5
124
100
AcDbEntity
  8
0
 62
7
100
AcDbPolyline
 90
2
 70
0
 10
128704.000000
 20
-11117.304567
 30
0.0
 10
128895.200000
 20
-11117.304567
 30
0.0
  0
LWPOLYLINE
  5
125
100
AcDbEntity
  8
0
 62
7
100
AcDbPolyline
 90
3
 70
0
 10
128666.400000
 20
-11231.704567
 30
0.0
 10
128800.000000
 20
-10831.704567
 30
0.0
 10
128932.800000
 20
-11231.704567
 30
0.0
  0
LWPOLYLINE
  5
126
100
AcDbEntity
  8
0
 62
7
100
AcDbPolyline
 90
2
 70
0
 10
3200.000000
 20
-37206.104567
 30
0.0
 10
3760.000000
 20
-37206.104567
 30
0.0
  0
LWPOLYLINE
  5
127
100
AcDbEntity
  8
0
 62
7
100
AcDbPolyline
 90
19
 70
0
 10
3508.000000
 20
-28446.104567
 30
0.0
 10
3565.600000
 20
-28465.304567
 30
0.0
 10
3584.000000
 20
-28484.504567
 30
0.0
 10
3603.200000
 20
-28522.104567
 30
0.0
 10
3603.200000
 20
-28579.704567
 30
0.0
 10
3584.000000
 20
-28617.304567
 30
0.0
 10
3565.600000
 20
-28636.504567
 30
0.0
 10
3527.200000
 20
-28655.704567
 30
0.0
 10
3375.200000
 20
-28655.704567
 30
0.0
 10
3375.200000
 20
-28255.704567
 30
0.0
 10
3508.000000
 20
-28255.704567
 30
0.0
 10
3546.400000
 20
-28274.904567
 30
0.0
 10
3565.600000
 20
-28294.104567
 30
0.0
 10
3584.000000
 20
-28331.704567
 30
0.0
 10
3584.000000
 20
-28370.104567
 30
0.0
 10
3565.600000
 20
-28407.704567
 30
0.0
 10
3546.400000
 20
-28426.904567
 30
0.0
 10
3508.000000
 20
-28446.104567
 30
0.0
 10
3375.200000
 20
-28446.104567
 30
0.0
  0
LWPOLYLINE
  5
128
100
AcDbEntity
  8
0
 62
7
100
AcDbPolyline
 90
2
 70
0
 10
129080.000000
 20
-37206.104567
 30
0.0
 10
128520.000000
 20
-37206.104567
 30
0.0
  0
LWPOLYLINE
  5
129
100
AcDbEntity
  8
0
 62
7
100
AcDbPolyline
 90
19
 70
0
 10
128828.000000
 20
-28446.104567
 30
0.0
 10
128885.600000
 20
-28465.304567
 30
0.0
 10
128904.000000
 20
-28484.504567
 30
0.0
 10
128923.200000
 20
-28522.104567
 30
0.0
 10
128923.200000
 20
-28579.704567
 30
0.0
 10
128904.000000
 20
-28617.304567
 30
0.0
 10
128885.600000
 20
-28636.504567
 30
0.0
 10
128847.200000
 20
-28655.704567
 30
0.0
 10
128695.200000
 20
-28655.704567
 30
0.0
 10
128695.200000
 20
-28255.704567
 30
0.0
 10
128828.000000
 20
-28255.704567
 30
0.0
 10
128866.400000
 20
-28274.904567
 30
0.0
 10
128885.600000
 20
-28294.104567
 30
0.0
 10
128904.000000
 20
-28331.704567
 30
0.0
 10
128904.000000
 20
-28370.104567
 30
0.0
 10
128885.600000
 20
-28407.704567
 30
0.0
 10
128866.400000
 20
-28426.904567
 30
0.0
 10
128828.000000
 20
-28446.104567
 30
0.0
 10
128695.200000
 20
-28446.104567
 30
0.0
  0
LWPOLYLINE
  5
12a
100
AcDbEntity
  8
0
 62
7
100
AcDbPolyline
 90
2
 70
0
 10
3200.000000
 20
-54630.104567
 30
0.0
 10
3760.000000
 20
-54630.104567
 30
0.0
  0
LWPOLYLINE
  5
12b
100
AcDbEntity
  8
0
 62
7
100
AcDbPolyline
 90
16
 70
0
 10
3603.200000
 20
-46041.304567
 30
0.0
 10
3584.000000
 20
-46060.504567
 30
0.0
 10
3527.200000
 20
-46079.704567
 30
0.0
 10
3488.800000
 20
-46079.704567
 30
0.0
 10
3432.000000
 20
-46060.504567
 30
0.0
 10
3393.600000
 20
-46022.104567
 30
0.0
 10
3375.200000
 20
-45984.504567
 30
0.0
 10
3356.000000
 20
-45908.504567
 30
0.0
 10
3356.000000
 20
-45850.904567
 30
0.0
 10
3375.200000
 20
-45774.904567
 30
0.0
 10
3393.600000
 20
-45736.504567
 30
0.0
 10
3432.000000
 20
-45698.904567
 30
0.0
 10
3488.800000
 20
-45679.704567
 30
0.0
 10
3527.200000
 20
-45679.704567
 30
0.0
 10
3584.000000
 20
-45698.904567
 30
0.0
 10
3603.200000
 20
-45718.104567
 30
0.0
  0
LWPOLYLINE
  5
12c
100
AcDbEntity
  8
0
 62
7
100
AcDbPolyline
 90
2
 70
0
 10
129080.000000
 20
-54630.104567
 30
0.0
 10
128520.000000
 20
-54630.104567
 30
0.0
  0
LWPOLYLINE
  5
12d
100
AcDbEntity
  8
0
 62
7
100
AcDbPolyline
 90
16
 70
0
 10
128923.200000
 20
-46041.304567
 30
0.0
 10
128904.000000
 20
-46060.504567
 30
0.0
 10
128847.200000
 20
-46079.704567
 30
0.0
 10
128808.800000
 20
-46079.704567
 30
0.0
 10
128752.000000
 20
-46060.504567
 30
0.0
 10
128713.600000
 20
-46022.104567
 30
0.0
 10
128695.200000
 20
-45984.504567
 30
0.0
 10
128676.000000
 20
-45908.504567
 30
0.0
 10
128676.000000
 20
-45850.904567
 30
0.0
 10
128695.200000
 20
-45774.904567
 30
0.0
 10
128713.600000
 20
-45736.504567
 30
0.0
 10
128752.000000
 20
-45698.904567
 30
0.0
 10
128808.800000
 20
-45679.704567
 30
0.0
 10
128847.200000
 20
-45679.704567
 30
0.0
 10
128904.000000
 20
-45698.904567
 30
0.0
 10
128923.200000
 20
-45718.104567
 30
0.0
  0
LWPOLYLINE
  5
12e
100
AcDbEntity
  8
0
 62
7
100
AcDbPolyline
 90
2
 70
0
 10
3200.000000
 20
-72054.104567
 30
0.0
 10
3760.000000
 20
-72054.104567
 30
0.0
  0
LWPOLYLINE
  5
12f
100
AcDbEntity
  8
0
 62
7
100
AcDbPolyline
 90
13
 70
0
 10
3375.200000
 20
-63503.704567
 30
0.0
 10
3375.200000
 20
-63103.704567
 30
0.0
 10
3470.400000
 20
-63103.704567
 30
0.0
 10
3527.200000
 20
-63122.904567
 30
0.0
 10
3565.600000
 20
-63160.504567
 30
0.0
 10
3584.000000
 20
-63198.904567
 30
0.0
 10
3603.200000
 20
-63274.904567
 30
0.0
 10
3603.200000
 20
-63332.504567
 30
0.0
 10
3584.000000
 20
-63408.504567
 30
0.0
 10
3565.600000
 20
-63446.104567
 30
0.0
 10
3527.200000
 20
-63484.504567
 30
0.0
 10
3470.400000
 20
-63503.704567
 30
0.0
 10
3375.200000
 20
-63503.704567
 30
0.0
  0
LWPOLYLINE
  5
130
100
AcDbEntity
  8
0
 62
7
100
AcDbPolyline
 90
2
 70
0
 10
129080.000000
 20
-72054.104567
 30
0.0
 10
128520.000000
 20
-72054.104567
 30
0.0
  0
LWPOLYLINE
  5
131
100
AcDbEntity
  8
0
 62
7
100
AcDbPolyline
 90
13
 70
0
 10
128695.200000
 20
-63503.704567
 30
0.0
 10
128695.200000
 20
-63103.704567
 30
0.0
 10
128790.400000
 20
-63103.704567
 30
0.0
 10
128847.200000
 20
-63122.904567
 30
0.0
 10
128885.600000
 20
-63160.504567
 30
0.0
 10
128904.000000
 20
-63198.904567
 30
0.0
 10
128923.200000
 20
-63274.904567
 30
0.0
 10
128923.200000
 20
-63332.504567
 30
0.0
 10
128904.000000
 20
-63408.504567
 30
0.0
 10
128885.600000
 20
-63446.104567
 30
0.0
 10
128847.200000
 20
-63484.504567
 30
0.0
 10
128790.400000
 20
-63503.704567
 30
0.0
 10
128695.200000
 20
-63503.704567
 30
0.0
  0
LWPOLYLINE
  5
132
100
AcDbEntity
  8
0
 62
7
100
AcDbPolyline
 90
2
 70
0
 10
3393.600000
 20
-80718.104567
 30
0.0
 10
3527.200000
 20
-80718.104567
 30
0.0
  0
LWPOLYLINE
  5
133
100
AcDbEntity
  8
0
 62
7
100
AcDbPolyline
 90
4
 70
0
 10
3584.000000
 20
-80927.704567
 30
0.0
 10
3393.600000
 20
-80927.704567
 30
0.0
 10
3393.600000
 20
-80527.704567
 30
0.0
 10
3584.000000
 20
-80527.704567
 30
0.0
  0
LWPOLYLINE
  5
134
100
AcDbEntity
  8
0
 62
7
100
AcDbPolyline
 90
2
 70
0
 10
128713.600000
 20
-80718.104567
 30
0.0
 10
128847.200000
 20
-80718.104567
 30
0.0
  0
LWPOLYLINE
  5
135
100
AcDbEntity
  8
0
 62
7
100
AcDbPolyline
 90
4
 70
0
 10
128904.000000
 20
-80927.704567
 30
0.0
 10
128713.600000
 20
-80927.704567
 30
0.0
 10
128713.600000
 20
-80527.704567
 30
0.0
 10
128904.000000
 20
-80527.704567
 30
0.0
  0
LWPOLYLINE
  5
136
100
AcDbEntity
  8
0
 62
7
100
AcDbPolyline
 90
13
 70
0
 10
102240.000000
 20
-87695.704567
 30
0.0
 10
102300.000000
 20
-87215.704567
 30
0.0
 10
102413.600000
 20
-87215.704567
 30
0.0
 10
102480.000000
 20
-87238.904567
 30
0.0
 10
102520.000000
 20
-87284.504567
 30
0.0
 10
102536.800000
 20
-87330.104567
 30
0.0
 10
102548.000000
 20
-87422.104567
 30
0.0
 10
102540.000000
 20
-87490.104567
 30
0.0
 10
102505.600000
 20
-87582.104567
 30
0.0
 10
102476.800000
 20
-87627.704567
 30
0.0
 10
102425.600000
 20
-87673.304567
 30
0.0
 10
102353.600000
 20
-87695.704567
 30
0.0
 10
102240.000000
 20
-87695.704567
 30
0.0
  0
LWPOLYLINE
  5
137
100
AcDbEntity
  8
0
 62
7
100
AcDbPolyline
 90
6
 70
0
 10
102925.600000
 20
-87695.704567
 30
0.0
 10
102956.800000
 20
-87444.504567
 30
0.0
 10
102940.000000
 20
-87398.904567
 30
0.0
 10
102896.800000
 20
-87375.704567
 30
0.0
 10
102805.600000
 20
-87375.704567
 30
0.0
 10
102756.800000
 20
-87398.904567
 30
0.0
  0
LWPOLYLINE
  5
138
100
AcDbEntity
  8
0
 62
7
100
AcDbPolyline
 90
10
 70
0
 10
102928.000000
 20
-87673.304567
 30
0.0
 10
102880.000000
 20
-87695.704567
 30
0.0
 10
102765.600000
 20
-87695.704567
 30
0.0
 10
102722.400000
 20
-87673.304567
 30
0.0
 10
102705.600000
 20
-87627.704567
 30
0.0
 10
102711.200000
 20
-87582.104567
 30
0.0
 10
102740.000000
 20
-87535.704567
 30
0.0
 10
102788.000000
 20
-87513.304567
 30
0.0
 10
102902.400000
 20
-87513.304567
 30
0.0
 10
102951.200000
 20
-87490.104567
 30
0.0
  0
LWPOLYLINE
  5
139
100
AcDbEntity
  8
0
 62
7
100
AcDbPolyline
 90
2
 70
0
 10
103125.600000
 20
-87375.704567
 30
0.0
 10
103308.000000
 20
-87375.704567
 30
0.0
  0
LWPOLYLINE
  5
13a
100
AcDbEntity
  8
0
 62
7
100
AcDbPolyline
 90
5
 70
0
 10
103213.600000
 20
-87215.704567
 30
0.0
 10
103162.400000
 20
-87627.704567
 30
0.0
 10
103180.000000
 20
-87673.304567
 30
0.0
 10
103222.400000
 20
-87695.704567
 30
0.0
 10
103268.000000
 20
-87695.704567
 30
0.0
  0
LWPOLYLINE
  5
13b
100
AcDbEntity
  8
0
 62
7
100
AcDbPolyline
 90
13
 70
0
 10
103613.600000
 20
-87673.304567
 30
0.0
 10
103565.600000
 20
-87695.704567
 30
0.0
 10
103473.600000
 20
-87695.704567
 30
0.0
 10
103431.200000
 20
-87673.304567
 30
0.0
 10
103413.600000
 20
-87627.704567
 30
0.0
 10
103436.800000
 20
-87444.504567
 30
0.0
 10
103465.600000
 20
-87398.904567
 30
0.0
 10
103513.600000
 20
-87375.704567
 30
0.0
 10
103605.600000
 20
-87375.704567
 30
0.0
 10
103648.000000
 20
-87398.904567
 30
0.0
 10
103665.600000
 20
-87444.504567
 30
0.0
 10
103660.000000
 20
-87490.104567
 30
0.0
 10
103425.600000
 20
-87535.704567
 30
0.0
  0
LWPOLYLINE
  5
13c
100
AcDbEntity
  8
0
 62
7
100
AcDbPolyline
 90
6
 70
0
 10
103845.600000
 20
-87650.104567
 30
0.0
 10
103865.600000
 20
-87673.304567
 30
0.0
 10
103840.000000
 20
-87695.704567
 30
0.0
 10
103820.000000
 20
-87673.304567
 30
0.0
 10
103845.600000
 20
-87650.104567
 30
0.0
 10
103840.000000
 20
-87695.704567
 30
0.0
  0
LWPOLYLINE
  5
13d
100
AcDbEntity
  8
0
 62
7
100
AcDbPolyline
 90
6
 70
0
 10
103876.800000
 20
-87398.904567
 30
0.0
 10
103896.800000
 20
-87422.104567
 30
0.0
 10
103871.200000
 20
-87444.504567
 30
0.0
 10
103851.200000
 20
-87422.104567
 30
0.0
 10
103876.800000
 20
-87398.904567
 30
0.0
 10
103871.200000
 20
-87444.504567
 30
0.0
  0
LWPOLYLINE
  5
13e
100
AcDbEntity
  8
0
 62
7
100
AcDbPolyline
 90
2
 70
0
 10
95513.600000
 20
-88655.704567
 30
0.0
 10
95513.600000
 20
-88175.704567
 30
0.0
  0
LWPOLYLINE
  5
13f
100
AcDbEntity
  8
0
 62
7
100
AcDbPolyline
 90
2
 70
0
 10
95788.000000
 20
-88655.704567
 30
0.0
 10
95582.400000
 20
-88382.104567
 30
0.0
  0
LWPOLYLINE
  5
140
100
AcDbEntity
  8
0
 62
7
100
AcDbPolyline
 90
2
 70
0
 10
95788.000000
 20
-88175.704567
 30
0.0
 10
95513.600000
 20
-88450.104567
 30
0.0
  0
LWPOLYLINE
  5
141
100
AcDbEntity
  8
0
 62
7
100
AcDbPolyline
 90
2
 70
0
 10
95993.600000
 20
-88655.704567
 30
0.0
 10
95993.600000
 20
-88335.704567
 30
0.0
  0
LWPOLYLINE
  5
142
100
AcDbEntity
  8
0
 62
7
100
AcDbPolyline
 90
6
 70
0
 10
95993.600000
 20
-88175.704567
 30
0.0
 10
95971.200000
 20
-88198.904567
 30
0.0
 10
95993.600000
 20
-88222.104567
 30
0.0
 10
96016.800000
 20
-88198.904567
 30
0.0
 10
95993.600000
 20
-88175.704567
 30
0.0
 10
95993.600000
 20
-88222.104567
 30
0.0
  0
LWPOLYLINE
  5
143
100
AcDbEntity
  8
0
 62
7
100
AcDbPolyline
 90
16
 70
0
 10
96496.800000
 20
-88610.104567
 30
0.0
 10
96473.600000
 20
-88633.304567
 30
0.0
 10
96405.600000
 20
-88655.704567
 30
0.0
 10
96360.000000
 20
-88655.704567
 30
0.0
 10
96291.200000
 20
-88633.304567
 30
0.0
 10
96245.600000
 20
-88587.704567
 30
0.0
 10
96222.400000
 20
-88542.104567
 30
0.0
 10
96200.000000
 20
-88450.104567
 30
0.0
 10
96200.000000
 20
-88382.104567
 30
0.0
 10
96222.400000
 20
-88290.104567
 30
0.0
 10
96245.600000
 20
-88244.504567
 30
0.0
 10
96291.200000
 20
-88198.904567
 30
0.0
 10
96360.000000
 20
-88175.704567
 30
0.0
 10
96405.600000
 20
-88175.704567
 30
0.0
 10
96473.600000
 20
-88198.904567
 30
0.0
 10
96496.800000
 20
-88222.104567
 30
0.0
  0
LWPOLYLINE
  5
144
100
AcDbEntity
  8
0
 62
7
100
AcDbPolyline
 90
6
 70
0
 10
96908.000000
 20
-88655.704567
 30
0.0
 10
96908.000000
 20
-88404.504567
 30
0.0
 10
96885.600000
 20
-88358.904567
 30
0.0
 10
96840.000000
 20
-88335.704567
 30
0.0
 10
96748.000000
 20
-88335.704567
 30
0.0
 10
96702.400000
 20
-88358.904567
 30
0.0
  0
LWPOLYLINE
  5
145
100
AcDbEntity
  8
0
 62
7
100
AcDbPolyline
 90
10
 70
0
 10
96908.000000
 20
-88633.304567
 30
0.0
 10
96862.400000
 20
-88655.704567
 30
0.0
 10
96748.000000
 20
-88655.704567
 30
0.0
 10
96702.400000
 20
-88633.304567
 30
0.0
 10
96680.000000
 20
-88587.704567
 30
0.0
 10
96680.000000
 20
-88542.104567
 30
0.0
 10
96702.400000
 20
-88495.704567
 30
0.0
 10
96748.000000
 20
-88473.304567
 30
0.0
 10
96862.400000
 20
-88473.304567
 30
0.0
 10
96908.000000
 20
-88450.104567
 30
0.0
  0
LWPOLYLINE
  5
146
100
AcDbEntity
  8
0
 62
7
100
AcDbPolyline
 90
2
 70
0
 10
97342.400000
 20
-88655.704567
 30
0.0
 10
97342.400000
 20
-88175.704567
 30
0.0
  0
LWPOLYLINE
  5
147
100
AcDbEntity
  8
0
 62
7
100
AcDbPolyline
 90
12
 70
0
 10
97342.400000
 20
-88633.304567
 30
0.0
 10
97296.800000
 20
-88655.704567
 30
0.0
 10
97205.600000
 20
-88655.704567
 30
0.0
 10
97160.000000
 20
-88633.304567
 30
0.0
 10
97136.800000
 20
-88610.104567
 30
0.0
 10
97113.600000
 20
-88564.504567
 30
0.0
 10
97113.600000
 20
-88427.704567
 30
0.0
 10
97136.800000
 20
-88382.104567
 30
0.0
 10
97160.000000
 20
-88358.904567
 30
0.0
 10
97205.600000
 20
-88335.704567
 30
0.0
 10
97296.800000
 20
-88335.704567
 30
0.0
 10
97342.400000
 20
-88358.904567
 30
0.0
  0
LWPOLYLINE
  5
148
100
AcDbEntity
  8
0
 62
7
100
AcDbPolyline
 90
2
 70
0
 10
97936.800000
 20
-88404.504567
 30
0.0
 10
98096.800000
 20
-88404.504567
 30
0.0
  0
LWPOLYLINE
  5
149
100
AcDbEntity
  8
0
 62
7
100
AcDbPolyline
 90
4
 70
0
 10
98165.600000
 20
-88655.704567
 30
0.0
 10
97936.800000
 20
-88655.704567
 30
0.0
 10
97936.800000
 20
-88175.704567
 30
0.0
 10
98165.600000
 20
-88175.704567
 30
0.0
  0
LWPOLYLINE
  5
14a
100
AcDbEntity
  8
0
 62
7
100
AcDbPolyline
 90
6
 70
0
 10
98371.200000
 20
-88610.104567
 30
0.0
 10
98393.600000
 20
-88633.304567
 30
0.0
 10
98371.200000
 20
-88655.704567
 30
0.0
 10
98348.000000
 20
-88633.304567
 30
0.0
 10
98371.200000
 20
-88610.104567
 30
0.0
 10
98371.200000
 20
-88655.704567
 30
0.0
  0
LWPOLYLINE
  5
14b
100
AcDbEntity
  8
0
 62
7
100
AcDbPolyline
 90
13
 70
0
 10
98599.200000
 20
-88655.704567
 30
0.0
 10
98599.200000
 20
-88175.704567
 30
0.0
 10
98713.600000
 20
-88175.704567
 30
0.0
 10
98782.400000
 20
-88198.904567
 30
0.0
 10
98828.000000
 20
-88244.504567
 30
0.0
 10
98851.200000
 20
-88290.104567
 30
0.0
 10
98873.600000
 20
-88382.104567
 30
0.0
 10
98873.600000
 20
-88450.104567
 30
0.0
 10
98851.200000
 20
-88542.104567
 30
0.0
 10
98828.000000
 20
-88587.704567
 30
0.0
 10
98782.400000
 20
-88633.304567
 30
0.0
 10
98713.600000
 20
-88655.704567
 30
0.0
 10
98599.200000
 20
-88655.704567
 30
0.0
  0
LWPOLYLINE
  5
14c
100
AcDbEntity
  8
0
 62
7
100
AcDbPolyline
 90
6
 70
0
 10
99079.200000
 20
-88610.104567
 30
0.0
 10
99102.400000
 20
-88633.304567
 30
0.0
 10
99079.200000
 20
-88655.704567
 30
0.0
 10
99056.800000
 20
-88633.304567
 30
0.0
 10
99079.200000
 20
-88610.104567
 30
0.0
 10
99079.200000
 20
-88655.704567
 30
0.0
  0
LWPOLYLINE
  5
14d
100
AcDbEntity
  8
0
 62
7
100
AcDbPolyline
 90
2
 70
0
 10
99285.600000
 20
-88518.904567
 30
0.0
 10
99513.600000
 20
-88518.904567
 30
0.0
  0
LWPOLYLINE
  5
14e
100
AcDbEntity
  8
0
 62
7
100
AcDbPolyline
 90
3
 70
0
 10
99239.200000
 20
-88655.704567
 30
0.0
 10
99399.200000
 20
-88175.704567
 30
0.0
 10
99559.200000
 20
-88655.704567
 30
0.0
  0
LWPOLYLINE
  5
14f
100
AcDbEntity
  8
0
 62
7
100
AcDbPolyline
 90
6
 70
0
 10
99719.200000
 20
-88610.104567
 30
0.0
 10
99742.400000
 20
-88633.304567
 30
0.0
 10
99719.200000
 20
-88655.704567
 30
0.0
 10
99696.800000
 20
-88633.304567
 30
0.0
 10
99719.200000
 20
-88610.104567
 30
0.0
 10
99719.200000
 20
-88655.704567
 30
0.0
  0
LWPOLYLINE
  5
150
100
AcDbEntity
  8
0
 62
7
100
AcDbPolyline
 90
2
 70
0
 10
122353.600000
 20
-87695.704567
 30
0.0
 10
122222.400000
 20
-87467.704567
 30
0.0
  0
LWPOLYLINE
  5
151
100
AcDbEntity
  8
0
 62
7
100
AcDbPolyline
 90
11
 70
0
 10
122080.000000
 20
-87695.704567
 30
0.0
 10
122140.000000
 20
-87215.704567
 30
0.0
 10
122322.400000
 20
-87215.704567
 30
0.0
 10
122365.600000
 20
-87238.904567
 30
0.0
 10
122385.600000
 20
-87262.104567
 30
0.0
 10
122402.400000
 20
-87307.704567
 30
0.0
 10
122393.600000
 20
-87375.704567
 30
0.0
 10
122365.600000
 20
-87422.104567
 30
0.0
 10
122340.000000
 20
-87444.504567
 30
0.0
 10
122291.200000
 20
-87467.704567
 30
0.0
 10
122108.000000
 20
-87467.704567
 30
0.0
  0
LWPOLYLINE
  5
152
100
AcDbEntity
  8
0
 62
7
100
AcDbPolyline
 90
13
 70
0
 10
122745.600000
 20
-87673.304567
 30
0.0
 10
122696.800000
 20
-87695.704567
 30
0.0
 10
122605.600000
 20
-87695.704567
 30
0.0
 10
122562.400000
 20
-87673.304567
 30
0.0
 10
122545.600000
 20
-87627.704567
 30
0.0
 10
122568.000000
 20
-87444.504567
 30
0.0
 10
122596.800000
 20
-87398.904567
 30
0.0
 10
122645.600000
 20
-87375.704567
 30
0.0
 10
122736.800000
 20
-87375.704567
 30
0.0
 10
122780.000000
 20
-87398.904567
 30
0.0
 10
122796.800000
 20
-87444.504567
 30
0.0
 10
122791.200000
 20
-87490.104567
 30
0.0
 10
122556.800000
 20
-87535.704567
 30
0.0
  0
LWPOLYLINE
  5
153
100
AcDbEntity
  8
0
 62
7
100
AcDbPolyline
 90
3
 70
0
 10
122965.600000
 20
-87375.704567
 30
0.0
 10
123040.000000
 20
-87695.704567
 30
0.0
 10
123193.600000
 20
-87375.704567
 30
0.0
  0
LWPOLYLINE
  5
154
100
AcDbEntity
  8
0
 62
7
100
AcDbPolyline
 90
6
 70
0
 10
123342.400000
 20
-87650.104567
 30
0.0
 10
123362.400000
 20
-87673.304567
 30
0.0
 10
123336.800000
 20
-87695.704567
 30
0.0
 10
123316.800000
 20
-87673.304567
 30
0.0
 10
123342.400000
 20
-87650.104567
 30
0.0
 10
123336.800000
 20
-87695.704567
 30
0.0
  0
LWPOLYLINE
  5
155
100
AcDbEntity
  8
0
 62
7
100
AcDbPolyline
 90
6
 70
0
 10
123373.600000
 20
-87398.904567
 30
0.0
 10
123393.600000
 20
-87422.104567
 30
0.0
 10
123368.000000
 20
-87444.504567
 30
0.0
 10
123348.000000
 20
-87422.104567
 30
0.0
 10
123373.600000
 20
-87398.904567
 30
0.0
 10
123368.000000
 20
-87444.504567
 30
0.0
  0
LWPOLYLINE
  5
156
100
AcDbEntity
  8
0
 62
7
100
AcDbPolyline
 90
20
 70
0
 10
95491.200000
 20
-87673.304567
 30
0.0
 10
95560.000000
 20
-87695.704567
 30
0.0
 10
95673.600000
 20
-87695.704567
 30
0.0
 10
95720.000000
 20
-87673.304567
 30
0.0
 10
95742.400000
 20
-87650.104567
 30
0.0
 10
95765.600000
 20
-87604.504567
 30
0.0
 10
95765.600000
 20
-87558.904567
 30
0.0
 10
95742.400000
 20
-87513.304567
 30
0.0
 10
95720.000000
 20
-87490.104567
 30
0.0
 10
95673.600000
 20
-87467.704567
 30
0.0
 10
95582.400000
 20
-87444.504567
 30
0.0
 10
95536.800000
 20
-87422.104567
 30
0.0
 10
95513.600000
 20
-87398.904567
 30
0.0
 10
95491.200000
 20
-87353.304567
 30
0.0
 10
95491.200000
 20
-87307.704567
 30
0.0
 10
95513.600000
 20
-87262.104567
 30
0.0
 10
95536.800000
 20
-87238.904567
 30
0.0
 10
95582.400000
 20
-87215.704567
 30
0.0
 10
95696.800000
 20
-87215.704567
 30
0.0
 10
95765.600000
 20
-87238.904567
 30
0.0
  0
LWPOLYLINE
  5
157
100
AcDbEntity
  8
0
 62
7
100
AcDbPolyline
 90
2
 70
0
 10
95971.200000
 20
-87695.704567
 30
0.0
 10
95971.200000
 20
-87375.704567
 30
0.0
  0
LWPOLYLINE
  5
158
100
AcDbEntity
  8
0
 62
7
100
AcDbPolyline
 90
6
 70
0
 10
95971.200000
 20
-87215.704567
 30
0.0
 10
95948.000000
 20
-87238.904567
 30
0.0
 10
95971.200000
 20
-87262.104567
 30
0.0
 10
95993.600000
 20
-87238.904567
 30
0.0
 10
95971.200000
 20
-87215.704567
 30
0.0
 10
95971.200000
 20
-87262.104567
 30
0.0
  0
LWPOLYLINE
  5
159
100
AcDbEntity
  8
0
 62
7
100
AcDbPolyline
 90
4
 70
0
 10
96153.600000
 20
-87375.704567
 30
0.0
 10
96405.600000
 20
-87375.704567
 30
0.0
 10
96153.600000
 20
-87695.704567
 30
0.0
 10
96405.600000
 20
-87695.704567
 30
0.0
  0
LWPOLYLINE
  5
15a
100
AcDbEntity
  8
0
 62
7
100
AcDbPolyline
 90
13
 70
0
 10
96771.200000
 20
-87673.304567
 30
0.0
 10
96725.600000
 20
-87695.704567
 30
0.0
 10
96633.600000
 20
-87695.704567
 30
0.0
 10
96588.000000
 20
-87673.304567
 30
0.0
 10
96565.600000
 20
-87627.704567
 30
0.0
 10
96565.600000
 20
-87444.504567
 30
0.0
 10
96588.000000
 20
-87398.904567
 30
0.0
 10
96633.600000
 20
-87375.704567
 30
0.0
 10
96725.600000
 20
-87375.704567
 30
0.0
 10
96771.200000
 20
-87398.904567
 30
0.0
 10
96793.600000
 20
-87444.504567
 30
0.0
 10
96793.600000
 20
-87490.104567
 30
0.0
 10
96565.600000
 20
-87535.704567
 30
0.0
  0
LWPOLYLINE
  5
15b
100
AcDbEntity
  8
0
 62
7
100
AcDbPolyline
 90
6
 70
0
 10
97000.000000
 20
-87650.104567
 30
0.0
 10
97022.400000
 20
-87673.304567
 30
0.0
 10
97000.000000
 20
-87695.704567
 30
0.0
 10
96976.800000
 20
-87673.304567
 30
0.0
 10
97000.000000
 20
-87650.104567
 30
0.0
 10
97000.000000
 20
-87695.704567
 30
0.0
  0
LWPOLYLINE
  5
15c
100
AcDbEntity
  8
0
 62
7
100
AcDbPolyline
 90
6
 70
0
 10
97000.000000
 20
-87398.904567
 30
0.0
 10
97022.400000
 20
-87422.104567
 30
0.0
 10
97000.000000
 20
-87444.504567
 30
0.0
 10
96976.800000
 20
-87422.104567
 30
0.0
 10
97000.000000
 20
-87398.904567
 30
0.0
 10
97000.000000
 20
-87444.504567
 30
0.0
  0
LWPOLYLINE
  5
15d
100
AcDbEntity
  8
0
 62
7
100
AcDbPolyline
 90
2
 70
0
 10
97571.200000
 20
-87558.904567
 30
0.0
 10
97800.000000
 20
-87558.904567
 30
0.0
  0
LWPOLYLINE
  5
15e
100
AcDbEntity
  8
0
 62
7
100
AcDbPolyline
 90
3
 70
0
 10
97525.600000
 20
-87695.704567
 30
0.0
 10
97685.600000
 20
-87215.704567
 30
0.0
 10
97845.600000
 20
-87695.704567
 30
0.0
  0
LWPOLYLINE
  5
15f
100
AcDbEntity
  8
0
 62
7
100
AcDbPolyline
 90
14
 70
0
 10
97960.000000
 20
-87215.704567
 30
0.0
 10
98256.800000
 20
-87215.704567
 30
0.0
 10
98096.800000
 20
-87398.904567
 30
0.0
 10
98165.600000
 20
-87398.904567
 30
0.0
 10
98211.200000
 20
-87422.104567
 30
0.0
 10
98233.600000
 20
-87444.504567
 30
0.0
 10
98256.800000
 20
-87490.104567
 30
0.0
 10
98256.800000
 20
-87604.504567
 30
0.0
 10
98233.600000
 20
-87650.104567
 30
0.0
 10
98211.200000
 20
-87673.304567
 30
0.0
 10
98165.600000
 20
-87695.704567
 30
0.0
 10
98028.000000
 20
-87695.704567
 30
0.0
 10
97982.400000
 20
-87673.304567
 30
0.0
 10
97960.000000
 20
-87650.104567
 30
0.0
  0
LWPOLYLINE
  5
160
100
AcDbEntity
  8
0
 62
7
100
AcDbPolyline
 90
2
 70
0
 10
122073.600000
 20
-88655.704567
 30
0.0
 10
122073.600000
 20
-88175.704567
 30
0.0
  0
LWPOLYLINE
  5
161
100
AcDbEntity
  8
0
 62
7
100
AcDbPolyline
 90
2
 70
0
 10
122508.000000
 20
-88655.704567
 30
0.0
 10
122508.000000
 20
-88175.704567
 30
0.0
  0
LWPOLYLINE
  5
162
100
AcDbEntity
  8
0
 62
7
100
AcDbPolyline
 90
12
 70
0
 10
122508.000000
 20
-88633.304567
 30
0.0
 10
122462.400000
 20
-88655.704567
 30
0.0
 10
122371.200000
 20
-88655.704567
 30
0.0
 10
122325.600000
 20
-88633.304567
 30
0.0
 10
122302.400000
 20
-88610.104567
 30
0.0
 10
122280.000000
 20
-88564.504567
 30
0.0
 10
122280.000000
 20
-88427.704567
 30
0.0
 10
122302.400000
 20
-88382.104567
 30
0.0
 10
122325.600000
 20
-88358.904567
 30
0.0
 10
122371.200000
 20
-88335.704567
 30
0.0
 10
122462.400000
 20
-88335.704567
 30
0.0
 10
122508.000000
 20
-88358.904567
 30
0.0
  0
LWPOLYLINE
  5
163
100
AcDbEntity
  8
0
 62
7
100
AcDbPolyline
 90
6
 70
0
 10
122736.800000
 20
-88610.104567
 30
0.0
 10
122760.000000
 20
-88633.304567
 30
0.0
 10
122736.800000
 20
-88655.704567
 30
0.0
 10
122713.600000
 20
-88633.304567
 30
0.0
 10
122736.800000
 20
-88610.104567
 30
0.0
 10
122736.800000
 20
-88655.704567
 30
0.0
  0
LWPOLYLINE
  5
164
100
AcDbEntity
  8
0
 62
7
100
AcDbPolyline
 90
6
 70
0
 10
122736.800000
 20
-88358.904567
 30
0.0
 10
122760.000000
 20
-88382.104567
 30
0.0
 10
122736.800000
 20
-88404.504567
 30
0.0
 10
122713.600000
 20
-88382.104567
 30
0.0
 10
122736.800000
 20
-88358.904567
 30
0.0
 10
122736.800000
 20
-88404.504567
 30
0.0
  0
LWPOLYLINE
  5
165
100
AcDbEntity
  8
0
 62
7
100
AcDbPolyline
 90
2
 70
0
 10
123582.400000
 20
-88655.704567
 30
0.0
 10
123308.000000
 20
-88655.704567
 30
0.0
  0
LWPOLYLINE
  5
166
100
AcDbEntity
  8
0
 62
7
100
AcDbPolyline
 90
5
 70
0
 10
123445.600000
 20
-88655.704567
 30
0.0
 10
123445.600000
 20
-88175.704567
 30
0.0
 10
123399.200000
 20
-88244.504567
 30
0.0
 10
123353.600000
 20
-88290.104567
 30
0.0
 10
123308.000000
 20
-88313.304567
 30
0.0
  0
LWPOLYLINE
  5
167
100
AcDbEntity
  8
0
 62
7
100
AcDbPolyline
 90
2
 70
0
 10
124131.200000
 20
-88153.304567
 30
0.0
 10
123720.000000
 20
-88770.104567
 30
0.0
  0
LWPOLYLINE
  5
168
100
AcDbEntity
  8
0
 62
7
100
AcDbPolyline
 90
2
 70
0
 10
124542.400000
 20
-88655.704567
 30
0.0
 10
124268.000000
 20
-88655.704567
 30
0.0
  0
LWPOLYLINE
  5
169
100
AcDbEntity
  8
0
 62
7
100
AcDbPolyline
 90
5
 70
0
 10
124405.600000
 20
-88655.704567
 30
0.0
 10
124405.600000
 20
-88175.704567
 30
0.0
 10
124359.200000
 20
-88244.504567
 30
0.0
 10
124313.600000
 20
-88290.104567
 30
0.0
 10
124268.000000
 20
-88313.304567
 30
0.0
  0
LWPOLYLINE
  5
16a
100
AcDbEntity
  8
0
 62
7
100
AcDbPolyline
 90
2
 70
0
 10
95511.200000
 20
-86255.704567
 30
0.0
 10
95785.600000
 20
-86255.704567
 30
0.0
  0
LWPOLYLINE
  5
16b
100
AcDbEntity
  8
0
 62
7
100
AcDbPolyline
 90
2
 70
0
 10
95588.000000
 20
-86735.704567
 30
0.0
 10
95648.000000
 20
-86255.704567
 30
0.0
  0
LWPOLYLINE
  5
16c
100
AcDbEntity
  8
0
 62
7
100
AcDbPolyline
 90
2
 70
0
 10
95885.600000
 20
-86735.704567
 30
0.0
 10
95925.600000
 20
-86415.704567
 30
0.0
  0
LWPOLYLINE
  5
16d
100
AcDbEntity
  8
0
 62
7
100
AcDbPolyline
 90
6
 70
0
 10
95945.600000
 20
-86255.704567
 30
0.0
 10
95920.000000
 20
-86278.904567
 30
0.0
 10
95940.000000
 20
-86302.104567
 30
0.0
 10
95965.600000
 20
-86278.904567
 30
0.0
 10
95945.600000
 20
-86255.704567
 30
0.0
 10
95940.000000
 20
-86302.104567
 30
0.0
  0
LWPOLYLINE
  5
16e
100
AcDbEntity
  8
0
 62
7
100
AcDbPolyline
 90
2
 70
0
 10
96085.600000
 20
-86415.704567
 30
0.0
 10
96268.000000
 20
-86415.704567
 30
0.0
  0
LWPOLYLINE
  5
16f
100
AcDbEntity
  8
0
 62
7
100
AcDbPolyline
 90
5
 70
0
 10
96173.600000
 20
-86255.704567
 30
0.0
 10
96122.400000
 20
-86667.704567
 30
0.0
 10
96140.000000
 20
-86713.304567
 30
0.0
 10
96182.400000
 20
-86735.704567
 30
0.0
 10
96228.000000
 20
-86735.704567
 30
0.0
  0
LWPOLYLINE
  5
170
100
AcDbEntity
  8
0
 62
7
100
AcDbPolyline
 90
4
 70
0
 10
96456.800000
 20
-86735.704567
 30
0.0
 10
96413.600000
 20
-86713.304567
 30
0.0
 10
96396.800000
 20
-86667.704567
 30
0.0
 10
96448.000000
 20
-86255.704567
 30
0.0
  0
LWPOLYLINE
  5
171
100
AcDbEntity
  8
0
 62
7
100
AcDbPolyline
 90
13
 70
0
 10
96825.600000
 20
-86713.304567
 30
0.0
 10
96776.800000
 20
-86735.704567
 30
0.0
 10
96685.600000
 20
-86735.704567
 30
0.0
 10
96642.400000
 20
-86713.304567
 30
0.0
 10
96625.600000
 20
-86667.704567
 30
0.0
 10
96648.000000
 20
-86484.504567
 30
0.0
 10
96676.800000
 20
-86438.904567
 30
0.0
 10
96725.600000
 20
-86415.704567
 30
0.0
 10
96816.800000
 20
-86415.704567
 30
0.0
 10
96860.000000
 20
-86438.904567
 30
0.0
 10
96876.800000
 20
-86484.504567
 30
0.0
 10
96871.200000
 20
-86530.104567
 30
0.0
 10
96636.800000
 20
-86575.704567
 30
0.0
  0
LWPOLYLINE
  5
172
100
AcDbEntity
  8
0
 62
7
100
AcDbPolyline
 90
6
 70
0
 10
97056.800000
 20
-86690.104567
 30
0.0
 10
97076.800000
 20
-86713.304567
 30
0.0
 10
97051.200000
 20
-86735.704567
 30
0.0
 10
97031.200000
 20
-86713.304567
 30
0.0
 10
97056.800000
 20
-86690.104567
 30
0.0
 10
97051.200000
 20
-86735.704567
 30
0.0
  0
LWPOLYLINE
  5
173
100
AcDbEntity
  8
0
 62
7
100
AcDbPolyline
 90
6
 70
0
 10
97088.000000
 20
-86438.904567
 30
0.0
 10
97108.000000
 20
-86462.104567
 30
0.0
 10
97082.400000
 20
-86484.504567
 30
0.0
 10
97062.400000
 20
-86462.104567
 30
0.0
 10
97088.000000
 20
-86438.904567
 30
0.0
 10
97082.400000
 20
-86484.504567
 30
0.0
  0
LWPOLYLINE
  5
174
100
AcDbEntity
  8
0
 62
7
100
AcDbPolyline
 90
2
 70
0
 10
95673.600000
 20
-84564.504567
 30
0.0
 10
95513.600000
 20
-84564.504567
 30
0.0
  0
LWPOLYLINE
  5
175
100
AcDbEntity
  8
0
 62
7
100
AcDbPolyline
 90
3
 70
0
 10
95513.600000
 20
-84815.704567
 30
0.0
 10
95513.600000
 20
-84335.704567
 30
0.0
 10
95742.400000
 20
-84335.704567
 30
0.0
  0
LWPOLYLINE
  5
176
100
AcDbEntity
  8
0
 62
7
100
AcDbPolyline
 90
2
 70
0
 10
95925.600000
 20
-84815.704567
 30
0.0
 10
95925.600000
 20
-84495.704567
 30
0.0
  0
LWPOLYLINE
  5
177
100
AcDbEntity
  8
0
 62
7
100
AcDbPolyline
 90
6
 70
0
 10
95925.600000
 20
-84335.704567
 30
0.0
 10
95902.400000
 20
-84358.904567
 30
0.0
 10
95925.600000
 20
-84382.104567
 30
0.0
 10
95948.000000
 20
-84358.904567
 30
0.0
 10
95925.600000
 20
-84335.704567
 30
0.0
 10
95925.600000
 20
-84382.104567
 30
0.0
  0
LWPOLYLINE
  5
178
100
AcDbEntity
  8
0
 62
7
100
AcDbPolyline
 90
4
 70
0
 10
96222.400000
 20
-84815.704567
 30
0.0
 10
96176.800000
 20
-84793.304567
 30
0.0
 10
96153.600000
 20
-84747.704567
 30
0.0
 10
96153.600000
 20
-84335.704567
 30
0.0
  0
LWPOLYLINE
  5
179
100
AcDbEntity
  8
0
 62
7
100
AcDbPolyline
 90
13
 70
0
 10
96588.000000
 20
-84793.304567
 30
0.0
 10
96542.400000
 20
-84815.704567
 30
0.0
 10
96451.200000
 20
-84815.704567
 30
0.0
 10
96405.600000
 20
-84793.304567
 30
0.0
 10
96382.400000
 20
-84747.704567
 30
0.0
 10
96382.400000
 20
-84564.504567
 30
0.0
 10
96405.600000
 20
-84518.904567
 30
0.0
 10
96451.200000
 20
-84495.704567
 30
0.0
 10
96542.400000
 20
-84495.704567
 30
0.0
 10
96588.000000
 20
-84518.904567
 30
0.0
 10
96611.200000
 20
-84564.504567
 30
0.0
 10
96611.200000
 20
-84610.104567
 30
0.0
 10
96382.400000
 20
-84655.704567
 30
0.0
  0
LWPOLYLINE
  5
17a
100
AcDbEntity
  8
0
 62
7
100
AcDbPolyline
 90
6
 70
0
 10
96816.800000
 20
-84770.104567
 30
0.0
 10
96840.000000
 20
-84793.304567
 30
0.0
 10
96816.800000
 20
-84815.704567
 30
0.0
 10
96793.600000
 20
-84793.304567
 30
0.0
 10
96816.800000
 20
-84770.104567
 30
0.0
 10
96816.800000
 20
-84815.704567
 30
0.0
  0
LWPOLYLINE
  5
17b
100
AcDbEntity
  8
0
 62
7
100
AcDbPolyline
 90
6
 70
0
 10
96816.800000
 20
-84518.904567
 30
0.0
 10
96840.000000
 20
-84542.104567
 30
0.0
 10
96816.800000
 20
-84564.504567
 30
0.0
 10
96793.600000
 20
-84542.104567
 30
0.0
 10
96816.800000
 20
-84518.904567
 30
0.0
 10
96816.800000
 20
-84564.504567
 30
0.0
  0
LWPOLYLINE
  5
17c
100
AcDbEntity
  8
0
 62
7
100
AcDbPolyline
 90
2
 70
0
 10
97685.600000
 20
-84815.704567
 30
0.0
 10
97525.600000
 20
-84587.704567
 30
0.0
  0
LWPOLYLINE
  5
17d
100
AcDbEntity
  8
0
 62
7
100
AcDbPolyline
 90
11
 70
0
 10
97411.200000
 20
-84815.704567
 30
0.0
 10
97411.200000
 20
-84335.704567
 30
0.0
 10
97593.600000
 20
-84335.704567
 30
0.0
 10
97640.000000
 20
-84358.904567
 30
0.0
 10
97662.400000
 20
-84382.104567
 30
0.0
 10
97685.600000
 20
-84427.704567
 30
0.0
 10
97685.600000
 20
-84495.704567
 30
0.0
 10
97662.400000
 20
-84542.104567
 30
0.0
 10
97640.000000
 20
-84564.504567
 30
0.0
 10
97593.600000
 20
-84587.704567
 30
0.0
 10
97411.200000
 20
-84587.704567
 30
0.0
  0
LWPOLYLINE
  5
17e
100
AcDbEntity
  8
0
 62
7
100
AcDbPolyline
 90
13
 70
0
 10
98073.600000
 20
-84793.304567
 30
0.0
 10
98028.000000
 20
-84815.704567
 30
0.0
 10
97936.800000
 20
-84815.704567
 30
0.0
 10
97891.200000
 20
-84793.304567
 30
0.0
 10
97868.000000
 20
-84747.704567
 30
0.0
 10
97868.000000
 20
-84564.504567
 30
0.0
 10
97891.200000
 20
-84518.904567
 30
0.0
 10
97936.800000
 20
-84495.704567
 30
0.0
 10
98028.000000
 20
-84495.704567
 30
0.0
 10
98073.600000
 20
-84518.904567
 30
0.0
 10
98096.800000
 20
-84564.504567
 30
0.0
 10
98096.800000
 20
-84610.104567
 30
0.0
 10
97868.000000
 20
-84655.704567
 30
0.0
  0
LWPOLYLINE
  5
17f
100
AcDbEntity
  8
0
 62
7
100
AcDbPolyline
 90
2
 70
0
 10
98302.400000
 20
-84495.704567
 30
0.0
 10
98302.400000
 20
-84975.704567
 30
0.0
  0
LWPOLYLINE
  5
180
100
AcDbEntity
  8
0
 62
7
100
AcDbPolyline
 90
12
 70
0
 10
98302.400000
 20
-84518.904567
 30
0.0
 10
98348.000000
 20
-84495.704567
 30
0.0
 10
98440.000000
 20
-84495.704567
 30
0.0
 10
98485.600000
 20
-84518.904567
 30
0.0
 10
98508.000000
 20
-84542.104567
 30
0.0
 10
98531.200000
 20
-84587.704567
 30
0.0
 10
98531.200000
 20
-84724.504567
 30
0.0
 10
98508.000000
 20
-84770.104567
 30
0.0
 10
98485.600000
 20
-84793.304567
 30
0.0
 10
98440.000000
 20
-84815.704567
 30
0.0
 10
98348.000000
 20
-84815.704567
 30
0.0
 10
98302.400000
 20
-84793.304567
 30
0.0
  0
LWPOLYLINE
  5
181
100
AcDbEntity
  8
0
 62
7
100
AcDbPolyline
 90
4
 70
0
 10
98736.800000
 20
-84815.704567
 30
0.0
 10
98736.800000
 20
-84335.704567
 30
0.0
 10
99011.200000
 20
-84815.704567
 30
0.0
 10
99011.200000
 20
-84335.704567
 30
0.0
  0
LWPOLYLINE
  5
182
100
AcDbEntity
  8
0
 62
7
100
AcDbPolyline
 90
13
 70
0
 10
99422.400000
 20
-84793.304567
 30
0.0
 10
99376.800000
 20
-84815.704567
 30
0.0
 10
99285.600000
 20
-84815.704567
 30
0.0
 10
99240.000000
 20
-84793.304567
 30
0.0
 10
99216.800000
 20
-84747.704567
 30
0.0
 10
99216.800000
 20
-84564.504567
 30
0.0
 10
99240.000000
 20
-84518.904567
 30
0.0
 10
99285.600000
 20
-84495.704567
 30
0.0
 10
99376.800000
 20
-84495.704567
 30
0.0
 10
99422.400000
 20
-84518.904567
 30
0.0
 10
99445.600000
 20
-84564.504567
 30
0.0
 10
99445.600000
 20
-84610.104567
 30
0.0
 10
99216.800000
 20
-84655.704567
 30
0.0
  0
LWPOLYLINE
  5
183
100
AcDbEntity
  8
0
 62
7
100
AcDbPolyline
 90
2
 70
0
 10
99582.400000
 20
-84495.704567
 30
0.0
 10
99765.600000
 20
-84495.704567
 30
0.0
  0
LWPOLYLINE
  5
184
100
AcDbEntity
  8
0
 62
7
100
AcDbPolyline
 90
5
 70
0
 10
99651.200000
 20
-84335.704567
 30
0.0
 10
99651.200000
 20
-84747.704567
 30
0.0
 10
99673.600000
 20
-84793.304567
 30
0.0
 10
99720.000000
 20
-84815.704567
 30
0.0
 10
99765.600000
 20
-84815.704567
 30
0.0
  0
LWPOLYLINE
  5
185
100
AcDbEntity
  8
0
 62
7
100
AcDbPolyline
 90
2
 70
0
 10
99925.600000
 20
-84633.304567
 30
0.0
 10
100291.200000
 20
-84633.304567
 30
0.0
  0
LWPOLYLINE
  5
186
100
AcDbEntity
  8
0
 62
7
100
AcDbPolyline
 90
2
 70
0
 10
100451.200000
 20
-84335.704567
 30
0.0
 10
100725.600000
 20
-84335.704567
 30
0.0
  0
LWPOLYLINE
  5
187
100
AcDbEntity
  8
0
 62
7
100
AcDbPolyline
 90
2
 70
0
 10
100588.000000
 20
-84815.704567
 30
0.0
 10
100588.000000
 20
-84335.704567
 30
0.0
  0
LWPOLYLINE
  5
188
100
AcDbEntity
  8
0
 62
7
100
AcDbPolyline
 90
2
 70
0
 10
100885.600000
 20
-84815.704567
 30
0.0
 10
100885.600000
 20
-84335.704567
 30
0.0
  0
LWPOLYLINE
  5
189
100
AcDbEntity
  8
0
 62
7
100
AcDbPolyline
 90
7
 70
0
 10
101091.200000
 20
-84815.704567
 30
0.0
 10
101091.200000
 20
-84564.504567
 30
0.0
 10
101068.000000
 20
-84518.904567
 30
0.0
 10
101022.400000
 20
-84495.704567
 30
0.0
 10
100953.600000
 20
-84495.704567
 30
0.0
 10
100908.000000
 20
-84518.904567
 30
0.0
 10
100885.600000
 20
-84542.104567
 30
0.0
  0
LWPOLYLINE
  5
18a
100
AcDbEntity
  8
0
 62
7
100
AcDbPolyline
 90
2
 70
0
 10
101320.000000
 20
-84815.704567
 30
0.0
 10
101320.000000
 20
-84495.704567
 30
0.0
  0
LWPOLYLINE
  5
18b
100
AcDbEntity
  8
0
 62
7
100
AcDbPolyline
 90
5
 70
0
 10
101320.000000
 20
-84587.704567
 30
0.0
 10
101342.400000
 20
-84542.104567
 30
0.0
 10
101365.600000
 20
-84518.904567
 30
0.0
 10
101411.200000
 20
-84495.704567
 30
0.0
 10
101456.800000
 20
-84495.704567
 30
0.0
  0
LWPOLYLINE
  5
18c
100
AcDbEntity
  8
0
 62
7
100
AcDbPolyline
 90
2
 70
0
 10
101822.400000
 20
-84495.704567
 30
0.0
 10
101822.400000
 20
-84815.704567
 30
0.0
  0
LWPOLYLINE
  5
18d
100
AcDbEntity
  8
0
 62
7
100
AcDbPolyline
 90
7
 70
0
 10
101616.800000
 20
-84495.704567
 30
0.0
 10
101616.800000
 20
-84747.704567
 30
0.0
 10
101640.000000
 20
-84793.304567
 30
0.0
 10
101685.600000
 20
-84815.704567
 30
0.0
 10
101753.600000
 20
-84815.704567
 30
0.0
 10
101800.000000
 20
-84793.304567
 30
0.0
 10
101822.400000
 20
-84770.104567
 30
0.0
  0
LWPOLYLINE
  5
18e
100
AcDbEntity
  8
0
 62
7
100
AcDbPolyline
 90
6
 70
0
 10
102051.200000
 20
-84770.104567
 30
0.0
 10
102073.600000
 20
-84793.304567
 30
0.0
 10
102051.200000
 20
-84815.704567
 30
0.0
 10
102028.000000
 20
-84793.304567
 30
0.0
 10
102051.200000
 20
-84770.104567
 30
0.0
 10
102051.200000
 20
-84815.704567
 30
0.0
  0
LWPOLYLINE
  5
18f
100
AcDbEntity
  8
0
 62
7
100
AcDbPolyline
 90
2
 70
0
 10
102280.000000
 20
-84815.704567
 30
0.0
 10
102280.000000
 20
-84335.704567
 30
0.0
  0
LWPOLYLINE
  5
190
100
AcDbEntity
  8
0
 62
7
100
AcDbPolyline
 90
2
 70
0
 10
102325.600000
 20
-84633.304567
 30
0.0
 10
102462.400000
 20
-84815.704567
 30
0.0
  0
LWPOLYLINE
  5
191
100
AcDbEntity
  8
0
 62
7
100
AcDbPolyline
 90
2
 70
0
 10
102462.400000
 20
-84495.704567
 30
0.0
 10
102280.000000
 20
-84678.904567
 30
0.0
  0
LWPOLYLINE
  5
192
100
AcDbEntity
  8
0
 62
7
100
AcDbPolyline
 90
2
 70
0
 10
102668.000000
 20
-84815.704567
 30
0.0
 10
102668.000000
 20
-84495.704567
 30
0.0
  0
LWPOLYLINE
  5
193
100
AcDbEntity
  8
0
 62
7
100
AcDbPolyline
 90
6
 70
0
 10
102668.000000
 20
-84335.704567
 30
0.0
 10
102645.600000
 20
-84358.904567
 30
0.0
 10
102668.000000
 20
-84382.104567
 30
0.0
 10
102691.200000
 20
-84358.904567
 30
0.0
 10
102668.000000
 20
-84335.704567
 30
0.0
 10
102668.000000
 20
-84382.104567
 30
0.0
  0
LWPOLYLINE
  5
194
100
AcDbEntity
  8
0
 62
7
100
AcDbPolyline
 90
12
 70
0
 10
103102.400000
 20
-84793.304567
 30
0.0
 10
103056.800000
 20
-84815.704567
 30
0.0
 10
102965.600000
 20
-84815.704567
 30
0.0
 10
102920.000000
 20
-84793.304567
 30
0.0
 10
102896.800000
 20
-84770.104567
 30
0.0
 10
102873.600000
 20
-84724.504567
 30
0.0
 10
102873.600000
 20
-84587.704567
 30
0.0
 10
102896.800000
 20
-84542.104567
 30
0.0
 10
102920.000000
 20
-84518.904567
 30
0.0
 10
102965.600000
 20
-84495.704567
 30
0.0
 10
103056.800000
 20
-84495.704567
 30
0.0
 10
103102.400000
 20
-84518.904567
 30
0.0
  0
LWPOLYLINE
  5
195
100
AcDbEntity
  8
0
 62
7
100
AcDbPolyline
 90
6
 70
0
 10
103513.600000
 20
-84815.704567
 30
0.0
 10
103513.600000
 20
-84564.504567
 30
0.0
 10
103491.200000
 20
-84518.904567
 30
0.0
 10
103445.600000
 20
-84495.704567
 30
0.0
 10
103353.600000
 20
-84495.704567
 30
0.0
 10
103308.000000
 20
-84518.904567
 30
0.0
  0
LWPOLYLINE
  5
196
100
AcDbEntity
  8
0
 62
7
100
AcDbPolyline
 90
10
 70
0
 10
103513.600000
 20
-84793.304567
 30
0.0
 10
103468.000000
 20
-84815.704567
 30
0.0
 10
103353.600000
 20
-84815.704567
 30
0.0
 10
103308.000000
 20
-84793.304567
 30
0.0
 10
103285.600000
 20
-84747.704567
 30
0.0
 10
103285.600000
 20
-84702.104567
 30
0.0
 10
103308.000000
 20
-84655.704567
 30
0.0
 10
103353.600000
 20
-84633.304567
 30
0.0
 10
103468.000000
 20
-84633.304567
 30
0.0
 10
103513.600000
 20
-84610.104567
 30
0.0
  0
LWPOLYLINE
  5
197
100
AcDbEntity
  8
0
 62
7
100
AcDbPolyline
 90
2
 70
0
 10
103948.000000
 20
-84815.704567
 30
0.0
 10
103948.000000
 20
-84335.704567
 30
0.0
  0
LWPOLYLINE
  5
198
100
AcDbEntity
  8
0
 62
7
100
AcDbPolyline
 90
12
 70
0
 10
103948.000000
 20
-84793.304567
 30
0.0
 10
103902.400000
 20
-84815.704567
 30
0.0
 10
103811.200000
 20
-84815.704567
 30
0.0
 10
103765.600000
 20
-84793.304567
 30
0.0
 10
103742.400000
 20
-84770.104567
 30
0.0
 10
103720.000000
 20
-84724.504567
 30
0.0
 10
103720.000000
 20
-84587.704567
 30
0.0
 10
103742.400000
 20
-84542.104567
 30
0.0
 10
103765.600000
 20
-84518.904567
 30
0.0
 10
103811.200000
 20
-84495.704567
 30
0.0
 10
103902.400000
 20
-84495.704567
 30
0.0
 10
103948.000000
 20
-84518.904567
 30
0.0
  0
LWPOLYLINE
  5
199
100
AcDbEntity
  8
0
 62
7
100
AcDbPolyline
 90
2
 70
0
 10
104062.400000
 20
-84862.104567
 30
0.0
 10
104428.000000
 20
-84862.104567
 30
0.0
  0
LWPOLYLINE
  5
19a
100
AcDbEntity
  8
0
 62
7
100
AcDbPolyline
 90
2
 70
0
 10
104542.400000
 20
-84495.704567
 30
0.0
 10
104542.400000
 20
-84975.704567
 30
0.0
  0
LWPOLYLINE
  5
19b
100
AcDbEntity
  8
0
 62
7
100
AcDbPolyline
 90
12
 70
0
 10
104542.400000
 20
-84518.904567
 30
0.0
 10
104588.000000
 20
-84495.704567
 30
0.0
 10
104680.000000
 20
-84495.704567
 30
0.0
 10
104725.600000
 20
-84518.904567
 30
0.0
 10
104748.000000
 20
-84542.104567
 30
0.0
 10
104771.200000
 20
-84587.704567
 30
0.0
 10
104771.200000
 20
-84724.504567
 30
0.0
 10
104748.000000
 20
-84770.104567
 30
0.0
 10
104725.600000
 20
-84793.304567
 30
0.0
 10
104680.000000
 20
-84815.704567
 30
0.0
 10
104588.000000
 20
-84815.704567
 30
0.0
 10
104542.400000
 20
-84793.304567
 30
0.0
  0
LWPOLYLINE
  5
19c
100
AcDbEntity
  8
0
 62
7
100
AcDbPolyline
 90
12
 70
0
 10
105182.400000
 20
-84793.304567
 30
0.0
 10
105136.800000
 20
-84815.704567
 30
0.0
 10
105045.600000
 20
-84815.704567
 30
0.0
 10
105000.000000
 20
-84793.304567
 30
0.0
 10
104976.800000
 20
-84770.104567
 30
0.0
 10
104953.600000
 20
-84724.504567
 30
0.0
 10
104953.600000
 20
-84587.704567
 30
0.0
 10
104976.800000
 20
-84542.104567
 30
0.0
 10
105000.000000
 20
-84518.904567
 30
0.0
 10
105045.600000
 20
-84495.704567
 30
0.0
 10
105136.800000
 20
-84495.704567
 30
0.0
 10
105182.400000
 20
-84518.904567
 30
0.0
  0
LWPOLYLINE
  5
19d
100
AcDbEntity
  8
0
 62
7
100
AcDbPolyline
 90
2
 70
0
 10
105388.000000
 20
-84815.704567
 30
0.0
 10
105388.000000
 20
-84335.704567
 30
0.0
  0
LWPOLYLINE
  5
19e
100
AcDbEntity
  8
0
 62
7
100
AcDbPolyline
 90
12
 70
0
 10
105388.000000
 20
-84518.904567
 30
0.0
 10
105433.600000
 20
-84495.704567
 30
0.0
 10
105525.600000
 20
-84495.704567
 30
0.0
 10
105571.200000
 20
-84518.904567
 30
0.0
 10
105593.600000
 20
-84542.104567
 30
0.0
 10
105616.800000
 20
-84587.704567
 30
0.0
 10
105616.800000
 20
-84724.504567
 30
0.0
 10
105593.600000
 20
-84770.104567
 30
0.0
 10
105571.200000
 20
-84793.304567
 30
0.0
 10
105525.600000
 20
-84815.704567
 30
0.0
 10
105433.600000
 20
-84815.704567
 30
0.0
 10
105388.000000
 20
-84793.304567
 30
0.0
  0
LWPOLYLINE
  5
19f
100
AcDbEntity
  8
0
 62
7
100
AcDbPolyline
 90
20
 70
0
 10
95491.200000
 20
-85753.304567
 30
0.0
 10
95560.000000
 20
-85775.704567
 30
0.0
 10
95673.600000
 20
-85775.704567
 30
0.0
 10
95720.000000
 20
-85753.304567
 30
0.0
 10
95742.400000
 20
-85730.104567
 30
0.0
 10
95765.600000
 20
-85684.504567
 30
0.0
 10
95765.600000
 20
-85638.904567
 30
0.0
 10
95742.400000
 20
-85593.304567
 30
0.0
 10
95720.000000
 20
-85570.104567
 30
0.0
 10
95673.600000
 20
-85547.704567
 30
0.0
 10
95582.400000
 20
-85524.504567
 30
0.0
 10
95536.800000
 20
-85502.104567
 30
0.0
 10
95513.600000
 20
-85478.904567
 30
0.0
 10
95491.200000
 20
-85433.304567
 30
0.0
 10
95491.200000
 20
-85387.704567
 30
0.0
 10
95513.600000
 20
-85342.104567
 30
0.0
 10
95536.800000
 20
-85318.904567
 30
0.0
 10
95582.400000
 20
-85295.704567
 30
0.0
 10
95696.800000
 20
-85295.704567
 30
0.0
 10
95765.600000
 20
-85318.904567
 30
0.0
  0
LWPOLYLINE
  5
1a0
100
AcDbEntity
  8
0
 62
7
100
AcDbPolyline
 90
2
 70
0
 10
95971.200000
 20
-85775.704567
 30
0.0
 10
95971.200000
 20
-85295.704567
 30
0.0
  0
LWPOLYLINE
  5
1a1
100
AcDbEntity
  8
0
 62
7
100
AcDbPolyline
 90
7
 70
0
 10
96176.800000
 20
-85775.704567
 30
0.0
 10
96176.800000
 20
-85524.504567
 30
0.0
 10
96153.600000
 20
-85478.904567
 30
0.0
 10
96108.000000
 20
-85455.704567
 30
0.0
 10
96040.000000
 20
-85455.704567
 30
0.0
 10
95993.600000
 20
-85478.904567
 30
0.0
 10
95971.200000
 20
-85502.104567
 30
0.0
  0
LWPOLYLINE
  5
1a2
100
AcDbEntity
  8
0
 62
7
100
AcDbPolyline
 90
13
 70
0
 10
96588.000000
 20
-85753.304567
 30
0.0
 10
96542.400000
 20
-85775.704567
 30
0.0
 10
96451.200000
 20
-85775.704567
 30
0.0
 10
96405.600000
 20
-85753.304567
 30
0.0
 10
96382.400000
 20
-85707.704567
 30
0.0
 10
96382.400000
 20
-85524.504567
 30
0.0
 10
96405.600000
 20
-85478.904567
 30
0.0
 10
96451.200000
 20
-85455.704567
 30
0.0
 10
96542.400000
 20
-85455.704567
 30
0.0
 10
96588.000000
 20
-85478.904567
 30
0.0
 10
96611.200000
 20
-85524.504567
 30
0.0
 10
96611.200000
 20
-85570.104567
 30
0.0
 10
96382.400000
 20
-85615.704567
 30
0.0
  0
LWPOLYLINE
  5
1a3
100
AcDbEntity
  8
0
 62
7
100
AcDbPolyline
 90
13
 70
0
 10
97000.000000
 20
-85753.304567
 30
0.0
 10
96953.600000
 20
-85775.704567
 30
0.0
 10
96862.400000
 20
-85775.704567
 30
0.0
 10
96816.800000
 20
-85753.304567
 30
0.0
 10
96793.600000
 20
-85707.704567
 30
0.0
 10
96793.600000
 20
-85524.504567
 30
0.0
 10
96816.800000
 20
-85478.904567
 30
0.0
 10
96862.400000
 20
-85455.704567
 30
0.0
 10
96953.600000
 20
-85455.704567
 30
0.0
 10
97000.000000
 20
-85478.904567
 30
0.0
 10
97022.400000
 20
-85524.504567
 30
0.0
 10
97022.400000
 20
-85570.104567
 30
0.0
 10
96793.600000
 20
-85615.704567
 30
0.0
  0
LWPOLYLINE
  5
1a4
100
AcDbEntity
  8
0
 62
7
100
AcDbPolyline
 90
2
 70
0
 10
97160.000000
 20
-85455.704567
 30
0.0
 10
97342.400000
 20
-85455.704567
 30
0.0
  0
LWPOLYLINE
  5
1a5
100
AcDbEntity
  8
0
 62
7
100
AcDbPolyline
 90
5
 70
0
 10
97228.000000
 20
-85295.704567
 30
0.0
 10
97228.000000
 20
-85707.704567
 30
0.0
 10
97251.200000
 20
-85753.304567
 30
0.0
 10
97296.800000
 20
-85775.704567
 30
0.0
 10
97342.400000
 20
-85775.704567
 30
0.0
  0
LWPOLYLINE
  5
1a6
100
AcDbEntity
  8
0
 62
7
100
AcDbPolyline
 90
6
 70
0
 10
97502.400000
 20
-85730.104567
 30
0.0
 10
97525.600000
 20
-85753.304567
 30
0.0
 10
97502.400000
 20
-85775.704567
 30
0.0
 10
97480.000000
 20
-85753.304567
 30
0.0
 10
97502.400000
 20
-85730.104567
 30
0.0
 10
97502.400000
 20
-85775.704567
 30
0.0
  0
LWPOLYLINE
  5
1a7
100
AcDbEntity
  8
0
 62
7
100
AcDbPolyline
 90
6
 70
0
 10
97502.400000
 20
-85478.904567
 30
0.0
 10
97525.600000
 20
-85502.104567
 30
0.0
 10
97502.400000
 20
-85524.504567
 30
0.0
 10
97480.000000
 20
-85502.104567
 30
0.0
 10
97502.400000
 20
-85478.904567
 30
0.0
 10
97502.400000
 20
-85524.504567
 30
0.0
  0
LWPOLYLINE
  5
1a8
100
AcDbEntity
  8
0
 62
7
100
AcDbPolyline
 90
2
 70
0
 10
94920.000000
 20
-84142.104567
 30
0.0
 10
94920.000000
 20
-88942.104567
 30
0.0
  0
LWPOLYLINE
  5
1a9
100
AcDbEntity
  8
0
 62
7
100
AcDbPolyline
 90
2
 70
0
 10
94920.000000
 20
-84142.104567
 30
0.0
 10
128520.000000
 20
-84142.104567
 30
0.0
  0
LWPOLYLINE
  5
1aa
100
AcDbEntity
  8
0
 62
7
100
AcDbPolyline
 90
2
 70
0
 10
94920.000000
 20
-84142.104567
 30
0.0
 10
128520.000000
 20
-84142.104567
 30
0.0
  0
LWPOLYLINE
  5
1ab
100
AcDbEntity
  8
0
 62
7
100
AcDbPolyline
 90
2
 70
0
 10
94920.000000
 20
-86062.104567
 30
0.0
 10
128520.000000
 20
-86062.104567
 30
0.0
  0
LWPOLYLINE
  5
1ac
100
AcDbEntity
  8
0
 62
7
100
AcDbPolyline
 90
2
 70
0
 10
121480.000000
 20
-87022.104567
 30
0.0
 10
121480.000000
 20
-88942.104567
 30
0.0
  0
LWPOLYLINE
  5
1ad
100
AcDbEntity
  8
0
 62
7
100
AcDbPolyline
 90
2
 70
0
 10
94920.000000
 20
-87982.104567
 30
0.0
 10
128520.000000
 20
-87982.104567
 30
0.0
  0
LWPOLYLINE
  5
1ae
100
AcDbEntity
  8
0
 62
7
100
AcDbPolyline
 90
2
 70
0
 10
94920.000000
 20
-87022.104567
 30
0.0
 10
128520.000000
 20
-87022.104567
 30
0.0
  0
LWPOLYLINE
  5
1af
100
AcDbEntity
  8
0
 62
7
100
AcDbPolyline
 90
2
 70
0
 10
100200.000000
 20
-87022.104567
 30
0.0
 10
100200.000000
 20
-87982.104567
 30
0.0
  0
LWPOLYLINE
  5
1b0
100
AcDbEntity
  8
0
 62
7
100
AcDbPolyline
 90
2
 70
0
 10
33120.000000
 20
-3478.104567
 30
0.0
 10
4160.000000
 20
-3478.104567
 30
0.0
  0
LWPOLYLINE
  5
1b1
100
AcDbEntity
  8
0
 62
7
100
AcDbPolyline
 90
2
 70
0
 10
4160.000000
 20
-28278.104567
 30
0.0
 10
4160.000000
 20
-3478.104567
 30
0.0
  0
LWPOLYLINE
  5
1b2
100
AcDbEntity
  8
0
 62
7
100
AcDbPolyline
 90
2
 70
0
 10
8000.000000
 20
-28278.104567
 30
0.0
 10
4160.000000
 20
-28278.104567
 30
0.0
  0
LWPOLYLINE
  5
1b3
100
AcDbEntity
  8
0
 62
7
100
AcDbPolyline
 90
2
 70
0
 10
33120.000000
 20
-28278.104567
 30
0.0
 10
33120.000000
 20
-26998.104567
 30
0.0
  0
LWPOLYLINE
  5
1b4
100
AcDbEntity
  8
0
 62
7
100
AcDbPolyline
 90
2
 70
0
 10
21440.000000
 20
-28278.104567
 30
0.0
 10
33120.000000
 20
-28278.104567
 30
0.0
  0
LWPOLYLINE
  5
1b5
100
AcDbEntity
  8
0
 62
7
100
AcDbPolyline
 90
2
 70
0
 10
33120.000000
 20
-18518.104567
 30
0.0
 10
33120.000000
 20
-27318.104567
 30
0.0
  0
LWPOLYLINE
  5
1b6
100
AcDbEntity
  8
0
 62
7
100
AcDbPolyline
 90
2
 70
0
 10
33120.000000
 20
-15478.104567
 30
0.0
 10
33120.000000
 20
-18518.104567
 30
0.0
  0
LWPOLYLINE
  5
1b7
100
AcDbEntity
  8
0
 62
7
100
AcDbPolyline
 90
2
 70
0
 10
33120.000000
 20
-3478.104567
 30
0.0
 10
33120.000000
 20
-15478.104567
 30
0.0
  0
LWPOLYLINE
  5
1b8
100
AcDbEntity
  8
0
 62
7
100
AcDbPolyline
 90
2
 70
0
 10
8000.000000
 20
-28278.104567
 30
0.0
 10
21440.000000
 20
-28278.104567
 30
0.0
  0
LWPOLYLINE
  5
1b9
100
AcDbEntity
  8
0
 62
7
100
AcDbPolyline
 90
3
 70
0
 10
28960.000000
 20
-15318.104567
 30
0.0
 10
27680.000000
 20
-14038.104567
 30
0.0
 10
27680.000000
 20
-13878.104567
 30
0.0
  0
LWPOLYLINE
  5
1ba
100
AcDbEntity
  8
0
 62
7
100
AcDbPolyline
 90
2
 70
0
 10
29120.000000
 20
-18198.104567
 30
0.0
 10
28800.000000
 20
-18518.104567
 30
0.0
  0
LWPOLYLINE
  5
1bb
100
AcDbEntity
  8
0
 62
7
100
AcDbPolyline
 90
2
 70
0
 10
29120.000000
 20
-16598.104567
 30
0.0
 10
29120.000000
 20
-18198.104567
 30
0.0
  0
LWPOLYLINE
  5
1bc
100
AcDbEntity
  8
0
 62
7
100
AcDbPolyline
 90
2
 70
0
 10
28000.000000
 20
-15478.104567
 30
0.0
 10
29120.000000
 20
-16598.104567
 30
0.0
  0
LWPOLYLINE
  5
1bd
100
AcDbEntity
  8
0
 62
7
100
AcDbPolyline
 90
2
 70
0
 10
26720.000000
 20
-15478.104567
 30
0.0
 10
28000.000000
 20
-15478.104567
 30
0.0
  0
LWPOLYLINE
  5
1be
100
AcDbEntity
  8
0
 62
7
100
AcDbPolyline
 90
2
 70
0
 10
26400.000000
 20
-15158.104567
 30
0.0
 10
26720.000000
 20
-15478.104567
 30
0.0
  0
LWPOLYLINE
  5
1bf
100
AcDbEntity
  8
0
 62
7
100
AcDbPolyline
 90
2
 70
0
 10
16480.000000
 20
-20598.104567
 30
0.0
 10
15520.000000
 20
-19638.104567
 30
0.0
  0
LWPOLYLINE
  5
1c0
100
AcDbEntity
  8
0
 62
7
100
AcDbPolyline
 90
2
 70
0
 10
23840.000000
 20
-20598.104567
 30
0.0
 10
16480.000000
 20
-20598.104567
 30
0.0
  0
LWPOLYLINE
  5
1c1
100
AcDbEntity
  8
0
 62
7
100
AcDbPolyline
 90
2
 70
0
 10
24160.000000
 20
-20278.104567
 30
0.0
 10
23840.000000
 20
-20598.104567
 30
0.0
  0
LWPOLYLINE
  5
1c2
100
AcDbEntity
  8
0
 62
7
100
AcDbPolyline
 90
3
 70
0
 10
25760.000000
 20
-7158.104567
 30
0.0
 10
25760.000000
 20
-9484.504567
 30
0.0
 10
26240.000000
 20
-9964.504567
 30
0.0
  0
LWPOLYLINE
  5
1c3
100
AcDbEntity
  8
0
 62
7
100
AcDbPolyline
 90
2
 70
0
 10
23621.600000
 20
-24906.104567
 30
0.0
 10
26456.000000
 20
-24906.104567
 30
0.0
  0
LWPOLYLINE
  5
1c4
100
AcDbEntity
  8
0
 62
7
100
AcDbPolyline
 90
2
 70
0
 10
23543.200000
 20
-24826.904567
 30
0.0
 10
23621.600000
 20
-24906.104567
 30
0.0
  0
LWPOLYLINE
  5
1c5
100
AcDbEntity
  8
0
 62
7
100
AcDbPolyline
 90
2
 70
0
 10
14560.000000
 20
-14838.104567
 30
0.0
 10
17440.000000
 20
-14838.104567
 30
0.0
  0
LWPOLYLINE
  5
1c6
100
AcDbEntity
  8
0
 62
7
100
AcDbPolyline
 90
2
 70
0
 10
27680.000000
 20
-17558.104567
 30
0.0
 10
27680.000000
 20
-18678.104567
 30
0.0
  0
LWPOLYLINE
  5
1c7
100
AcDbEntity
  8
0
 62
7
100
AcDbPolyline
 90
2
 70
0
 10
26400.000000
 20
-16278.104567
 30
0.0
 10
27680.000000
 20
-17558.104567
 30
0.0
  0
LWPOLYLINE
  5
1c8
100
AcDbEntity
  8
0
 62
7
100
AcDbPolyline
 90
3
 70
0
 10
12480.000000
 20
-17878.104567
 30
0.0
 10
11840.000000
 20
-18518.104567
 30
0.0
 10
4960.000000
 20
-18518.104567
 30
0.0
  0
LWPOLYLINE
  5
1c9
100
AcDbEntity
  8
0
 62
7
100
AcDbPolyline
 90
3
 70
0
 10
25120.000000
 20
-7158.104567
 30
0.0
 10
25120.000000
 20
-4918.104567
 30
0.0
 10
25120.000000
 20
-4598.104567
 30
0.0
  0
LWPOLYLINE
  5
1ca
100
AcDbEntity
  8
0
 62
7
100
AcDbPolyline
 90
2
 70
0
 10
26240.000000
 20
-10198.104567
 30
0.0
 10
26240.000000
 20
-9964.504567
 30
0.0
  0
LWPOLYLINE
  5
1cb
100
AcDbEntity
  8
0
 62
7
100
AcDbPolyline
 90
3
 70
0
 10
27200.000000
 20
-12278.104567
 30
0.0
 10
26240.000000
 20
-11318.104567
 30
0.0
 10
26240.000000
 20
-10198.104567
 30
0.0
  0
LWPOLYLINE
  5
1cc
100
AcDbEntity
  8
0
 62
7
100
AcDbPolyline
 90
2
 70
0
 10
24000.000000
 20
-6678.104567
 30
0.0
 10
24000.000000
 20
-6518.104567
 30
0.0
  0
LWPOLYLINE
  5
1cd
100
AcDbEntity
  8
0
 62
7
100
AcDbPolyline
 90
2
 70
0
 10
24480.000000
 20
-7158.104567
 30
0.0
 10
24000.000000
 20
-6678.104567
 30
0.0
  0
LWPOLYLINE
  5
1ce
100
AcDbEntity
  8
0
 62
7
100
AcDbPolyline
 90
2
 70
0
 10
22400.000000
 20
-6358.104567
 30
0.0
 10
24000.000000
 20
-6358.104567
 30
0.0
  0
LWPOLYLINE
  5
1cf
100
AcDbEntity
  8
0
 62
7
100
AcDbPolyline
 90
2
 70
0
 10
21760.000000
 20
-6998.104567
 30
0.0
 10
22400.000000
 20
-6358.104567
 30
0.0
  0
LWPOLYLINE
  5
1d0
100
AcDbEntity
  8
0
 62
7
100
AcDbPolyline
 90
2
 70
0
 10
21400.000000
 20
-6998.104567
 30
0.0
 10
21760.000000
 20
-6998.104567
 30
0.0
  0
LWPOLYLINE
  5
1d1
100
AcDbEntity
  8
0
 62
7
100
AcDbPolyline
 90
2
 70
0
 10
21400.000000
 20
-6998.104567
 30
0.0
 10
21280.000000
 20
-7118.104567
 30
0.0
  0
LWPOLYLINE
  5
1d2
100
AcDbEntity
  8
0
 62
7
100
AcDbPolyline
 90
2
 70
0
 10
30080.000000
 20
-13078.104567
 30
0.0
 10
32000.000000
 20
-13078.104567
 30
0.0
  0
LWPOLYLINE
  5
1d3
100
AcDbEntity
  8
0
 62
7
100
AcDbPolyline
 90
3
 70
0
 10
26456.000000
 20
-7189.304567
 30
0.0
 10
26456.000000
 20
-6007.704567
 30
0.0
 10
27086.400000
 20
-5378.104567
 30
0.0
  0
LWPOLYLINE
  5
1d4
100
AcDbEntity
  8
0
 62
7
100
AcDbPolyline
 90
2
 70
0
 10
27040.000000
 20
-10518.104567
 30
0.0
 10
27040.000000
 20
-10055.704567
 30
0.0
  0
LWPOLYLINE
  5
1d5
100
AcDbEntity
  8
0
 62
7
100
AcDbPolyline
 90
2
 70
0
 10
26299.200000
 20
-7346.904567
 30
0.0
 10
26456.000000
 20
-7189.304567
 30
0.0
  0
LWPOLYLINE
  5
1d6
100
AcDbEntity
  8
0
 62
7
100
AcDbPolyline
 90
2
 70
0
 10
26299.200000
 20
-9314.904567
 30
0.0
 10
26299.200000
 20
-7346.904567
 30
0.0
  0
LWPOLYLINE
  5
1d7
100
AcDbEntity
  8
0
 62
7
100
AcDbPolyline
 90
2
 70
0
 10
27040.000000
 20
-10055.704567
 30
0.0
 10
26299.200000
 20
-9314.904567
 30
0.0
  0
LWPOLYLINE
  5
1d8
100
AcDbEntity
  8
0
 62
7
100
AcDbPolyline
 90
2
 70
0
 10
24640.000000
 20
-10198.104567
 30
0.0
 10
24640.000000
 20
-8598.104567
 30
0.0
  0
LWPOLYLINE
  5
1d9
100
AcDbEntity
  8
0
 62
7
100
AcDbPolyline
 90
3
 70
0
 10
32000.000000
 20
-20918.104567
 30
0.0
 10
31360.000000
 20
-20918.104567
 30
0.0
 10
30880.000000
 20
-21398.104567
 30
0.0
  0
LWPOLYLINE
  5
1da
100
AcDbEntity
  8
0
 62
7
100
AcDbPolyline
 90
2
 70
0
 10
31360.000000
 20
-14358.104567
 30
0.0
 10
31840.000000
 20
-14838.104567
 30
0.0
  0
LWPOLYLINE
  5
1db
100
AcDbEntity
  8
0
 62
7
100
AcDbPolyline
 90
3
 70
0
 10
29920.000000
 20
-13878.104567
 30
0.0
 10
30400.000000
 20
-14358.104567
 30
0.0
 10
31360.000000
 20
-14358.104567
 30
0.0
  0
LWPOLYLINE
  5
1dc
100
AcDbEntity
  8
0
 62
7
100
AcDbPolyline
 90
2
 70
0
 10
32000.000000
 20
-14998.104567
 30
0.0
 10
32000.000000
 20
-20918.104567
 30
0.0
  0
LWPOLYLINE
  5
1dd
100
AcDbEntity
  8
0
 62
7
100
AcDbPolyline
 90
2
 70
0
 10
31840.000000
 20
-14838.104567
 30
0.0
 10
32000.000000
 20
-14998.104567
 30
0.0
  0
LWPOLYLINE
  5
1de
100
AcDbEntity
  8
0
 62
7
100
AcDbPolyline
 90
4
 70
0
 10
14700.000000
 20
-24818.104567
 30
0.0
 10
14700.000000
 20
-23418.104567
 30
0.0
 10
14100.000000
 20
-22818.104567
 30
0.0
 10
14100.000000
 20
-20618.104567
 30
0.0
  0
LWPOLYLINE
  5
1df
100
AcDbEntity
  8
0
 62
7
100
AcDbPolyline
 90
2
 70
0
 10
21280.000000
 20
-8118.104567
 30
0.0
 10
23680.000000
 20
-8118.104567
 30
0.0
  0
LWPOLYLINE
  5
1e0
100
AcDbEntity
  8
0
 62
7
100
AcDbPolyline
 90
2
 70
0
 10
21120.000000
 20
-7958.104567
 30
0.0
 10
21280.000000
 20
-8118.104567
 30
0.0
  0
LWPOLYLINE
  5
1e1
100
AcDbEntity
  8
0
 62
7
100
AcDbPolyline
 90
2
 70
0
 10
28160.000000
 20
-7958.104567
 30
0.0
 10
30240.000000
 20
-7958.104567
 30
0.0
  0
ENDSEC
  0
SECTION
  2
OBJECTS
  0
DICTIONARY
  5
C
330
0
100
AcDbDictionary
  3
ACAD_GROUP
350
D
  3
ACAD_MLINESTYLE
350
17
  0
DICTIONARY
  5
D
330
C
100
AcDbDictionary
  0
DICTIONARY
  5
1A
330
C
100
AcDbDictionary
  0
DICTIONARY
  5
17
330
C
100
AcDbDictionary
  3
STANDARD
350
18
  0
DICTIONARY
  5
19
330
C
100
AcDbDictionary
  0
ENDSEC
  0
EOF
