M48
;DRILL file {Pcbnew (2013-jul-07)-stable} date Thu Nov 12 15:47:05 2015
;FORMAT={-:-/ absolute / inch / decimal}
FMAT,2
INCH,TZ
T1C0.020
T2C0.031
T3C0.032
T4C0.040
T5C0.055
T6C0.120
%
G90
G05
M72
T1
X0.62Y-2.42
X1.56Y-2.34
X1.7625Y-2.6825
X1.82Y-1.96
X1.8375Y-3.2075
X1.94Y-2.56
X2.18Y-1.96
X2.64Y-1.1
X2.66Y-0.995
X2.9429Y-3.2087
X2.96Y-1.12
X3.02Y-2.64
X3.06Y-1.
X3.08Y-1.18
X3.08Y-1.38
X3.14Y-0.68
X3.14Y-1.
X3.22Y-1.
X3.3Y-2.
X3.3Y-2.14
X3.3071Y-3.2185
X3.38Y-1.42
X3.3858Y-0.7776
X3.4Y-1.64
X3.46Y-1.84
X3.46Y-2.44
X3.52Y-1.1
X3.6Y-2.42
X3.62Y-2.02
X3.74Y-1.84
X3.76Y-1.74
X3.78Y-1.1
X3.86Y-2.78
X4.Y-1.74
T2
X2.275Y-2.07
X2.375Y-2.07
X2.475Y-2.07
T3
X0.62Y-1.33
X0.62Y-1.47
X0.62Y-1.61
X0.62Y-1.75
X0.72Y-1.33
X0.72Y-1.47
X0.72Y-1.61
X0.72Y-1.75
X0.86Y-0.85
X0.86Y-0.95
X0.8725Y-1.7875
X0.8725Y-1.8875
X0.8933Y-2.9921
X0.9375Y-2.5575
X0.9375Y-2.8575
X0.98Y-2.145
X0.98Y-2.295
X1.0225Y-1.1875
X1.0225Y-1.2875
X1.0225Y-1.3875
X1.0225Y-1.4875
X1.0225Y-1.5875
X1.0225Y-1.6875
X1.0225Y-1.7875
X1.0225Y-1.8875
X1.06Y-0.85
X1.1933Y-2.9921
X1.22Y-1.
X1.2225Y-2.0875
X1.3225Y-2.0875
X1.36Y-0.85
X1.3625Y-2.7575
X1.3625Y-3.0575
X1.3625Y-3.1575
X1.3625Y-3.2575
X1.52Y-1.
X1.5225Y-1.1875
X1.5225Y-1.2875
X1.5225Y-1.3875
X1.5225Y-1.4875
X1.5225Y-1.5875
X1.5225Y-1.6875
X1.5225Y-1.7875
X1.5225Y-1.8875
X1.6125Y-2.9325
X1.6125Y-3.0825
X1.9169Y-2.8839
X2.19Y-1.24
X2.2Y-1.74
X2.2Y-1.84
X2.2169Y-2.8839
X2.25Y-1.12
X2.35Y-1.845
X2.3625Y-2.7575
X2.3625Y-3.0575
X2.3625Y-3.1575
X2.3625Y-3.2575
X2.45Y-1.845
X2.49Y-1.24
X2.55Y-1.12
X2.59Y-0.9
X2.6125Y-1.2825
X2.6125Y-1.3825
X2.6125Y-1.4825
X2.6125Y-1.5825
X2.6125Y-1.6825
X2.6125Y-1.7825
X2.6125Y-1.8825
X2.6125Y-1.9825
X2.6125Y-2.0825
X2.6125Y-2.1825
X2.6125Y-2.2825
X2.6125Y-2.3825
X2.6125Y-2.4825
X2.6125Y-2.5825
X2.6125Y-2.9325
X2.6125Y-3.0825
X2.69Y-0.9
X2.9125Y-1.2825
X2.9125Y-1.3825
X2.9125Y-1.4825
X2.9125Y-1.5825
X2.9125Y-1.6825
X2.9125Y-1.7825
X2.9125Y-1.8825
X2.9125Y-1.9825
X2.9125Y-2.0825
X2.9125Y-2.1825
X2.9125Y-2.2825
X2.9125Y-2.3825
X2.9125Y-2.4825
X2.9125Y-2.5825
X3.04Y-1.87
X3.04Y-1.97
X3.06Y-2.17
X3.06Y-2.47
X3.09Y-1.76
X3.1125Y-2.9325
X3.1125Y-3.0825
X3.18Y-1.37
X3.18Y-1.67
X3.18Y-1.85
X3.18Y-2.15
X3.19Y-2.48
X3.25Y-2.24
X3.29Y-2.48
X3.31Y-2.86
X3.3858Y-0.972
X3.3858Y-1.272
X3.39Y-1.76
X3.55Y-2.24
X3.6098Y-1.2008
X3.61Y-2.86
X3.74Y-2.25
X3.74Y-2.35
X3.74Y-2.51
X3.74Y-2.61
X3.78Y-1.33
X3.78Y-1.63
X3.9098Y-1.2008
T4
X0.86Y-1.1
X0.86Y-1.2
X0.8725Y-1.3875
X0.8725Y-1.4875
X0.8725Y-1.5875
X0.8725Y-1.6875
X0.9433Y-3.1299
X1.0433Y-3.1299
X1.1433Y-3.1299
X1.213Y-3.5185
X1.313Y-3.5185
X1.413Y-3.5185
X1.513Y-3.5185
X1.87Y-2.35
X1.95Y-0.995
X1.9669Y-3.0315
X1.97Y-2.35
X2.05Y-0.995
X2.0669Y-3.0315
X2.15Y-0.995
X2.1669Y-3.0315
X2.211Y-3.5185
X2.25Y-0.995
X2.311Y-3.5185
X2.35Y-0.995
X2.411Y-3.5185
X2.45Y-0.995
X2.511Y-3.5185
X2.81Y-1.
X2.91Y-1.
X3.51Y-1.32
X3.51Y-1.42
X3.51Y-1.52
X3.51Y-1.62
X3.51Y-1.72
X3.61Y-1.32
X3.61Y-1.42
X3.61Y-1.52
X3.61Y-1.62
X3.61Y-1.72
X3.9125Y-2.5075
X3.9125Y-2.6075
X3.92Y-2.25
X3.92Y-2.35
X3.92Y-2.91
X3.92Y-3.01
T5
X1.0125Y-3.5175
X1.1125Y-3.3175
X1.2125Y-3.5175
X1.5125Y-3.5175
X1.6125Y-3.3175
X1.7125Y-3.5175
X2.0125Y-3.5175
X2.1125Y-3.3175
X2.2125Y-3.5175
X2.5125Y-3.5175
X2.6125Y-3.3175
X2.7125Y-3.5175
X3.0125Y-3.5175
X3.1125Y-3.3175
X3.2125Y-3.5175
X3.5125Y-3.5175
X3.6125Y-3.3175
X3.7125Y-3.5175
T6
X0.6472Y-0.7043
X0.6472Y-3.3027
X3.9937Y-0.7043
X3.9937Y-3.3027
T0
M30
