G04 (created by PCBNEW (2013-jul-07)-stable) date Thu Nov 12 15:47:10 2015*
%MOIN*%
G04 Gerber Fmt 3.4, Leading zero omitted, Abs format*
%FSLAX34Y34*%
G01*
G70*
G90*
G04 APERTURE LIST*
%ADD10C,0.00590551*%
%ADD11C,0.0035*%
G04 APERTURE END LIST*
G54D10*
G54D11*
X8240Y-8002D02*
X8002Y-8002D01*
X8002Y-7502D01*
X8407Y-7740D02*
X8573Y-7740D01*
X8645Y-8002D02*
X8407Y-8002D01*
X8407Y-7502D01*
X8645Y-7502D01*
X8859Y-8002D02*
X8859Y-7502D01*
X8978Y-7502D01*
X9050Y-7526D01*
X9097Y-7573D01*
X9121Y-7621D01*
X9145Y-7716D01*
X9145Y-7788D01*
X9121Y-7883D01*
X9097Y-7930D01*
X9050Y-7978D01*
X8978Y-8002D01*
X8859Y-8002D01*
X9621Y-8002D02*
X9335Y-8002D01*
X9478Y-8002D02*
X9478Y-7502D01*
X9430Y-7573D01*
X9383Y-7621D01*
X9335Y-7645D01*
X7540Y-12359D02*
X7540Y-12192D01*
X7802Y-12121D02*
X7802Y-12359D01*
X7302Y-12359D01*
X7302Y-12121D01*
X7802Y-11907D02*
X7302Y-11907D01*
X7802Y-11621D01*
X7302Y-11621D01*
X7802Y-11383D02*
X7302Y-11383D01*
X7302Y-11264D01*
X7326Y-11192D01*
X7373Y-11145D01*
X7421Y-11121D01*
X7516Y-11097D01*
X7588Y-11097D01*
X7683Y-11121D01*
X7730Y-11145D01*
X7778Y-11192D01*
X7802Y-11264D01*
X7802Y-11383D01*
X7778Y-10907D02*
X7802Y-10835D01*
X7802Y-10716D01*
X7778Y-10669D01*
X7754Y-10645D01*
X7707Y-10621D01*
X7659Y-10621D01*
X7611Y-10645D01*
X7588Y-10669D01*
X7564Y-10716D01*
X7540Y-10811D01*
X7516Y-10859D01*
X7492Y-10883D01*
X7445Y-10907D01*
X7397Y-10907D01*
X7350Y-10883D01*
X7326Y-10859D01*
X7302Y-10811D01*
X7302Y-10692D01*
X7326Y-10621D01*
X7302Y-10478D02*
X7302Y-10192D01*
X7802Y-10335D02*
X7302Y-10335D01*
X7302Y-9930D02*
X7302Y-9835D01*
X7326Y-9788D01*
X7373Y-9740D01*
X7469Y-9716D01*
X7635Y-9716D01*
X7730Y-9740D01*
X7778Y-9788D01*
X7802Y-9835D01*
X7802Y-9930D01*
X7778Y-9978D01*
X7730Y-10026D01*
X7635Y-10049D01*
X7469Y-10049D01*
X7373Y-10026D01*
X7326Y-9978D01*
X7302Y-9930D01*
X7802Y-9502D02*
X7302Y-9502D01*
X7302Y-9311D01*
X7326Y-9264D01*
X7350Y-9240D01*
X7397Y-9216D01*
X7469Y-9216D01*
X7516Y-9240D01*
X7540Y-9264D01*
X7564Y-9311D01*
X7564Y-9502D01*
X32240Y-23802D02*
X32002Y-23802D01*
X32002Y-23302D01*
X32407Y-23540D02*
X32573Y-23540D01*
X32645Y-23802D02*
X32407Y-23802D01*
X32407Y-23302D01*
X32645Y-23302D01*
X32859Y-23802D02*
X32859Y-23302D01*
X32978Y-23302D01*
X33050Y-23326D01*
X33097Y-23373D01*
X33121Y-23421D01*
X33145Y-23516D01*
X33145Y-23588D01*
X33121Y-23683D01*
X33097Y-23730D01*
X33050Y-23778D01*
X32978Y-23802D01*
X32859Y-23802D01*
X33335Y-23350D02*
X33359Y-23326D01*
X33407Y-23302D01*
X33526Y-23302D01*
X33573Y-23326D01*
X33597Y-23350D01*
X33621Y-23397D01*
X33621Y-23445D01*
X33597Y-23516D01*
X33311Y-23802D01*
X33621Y-23802D01*
X31292Y-26178D02*
X31364Y-26202D01*
X31483Y-26202D01*
X31530Y-26178D01*
X31554Y-26154D01*
X31578Y-26107D01*
X31578Y-26059D01*
X31554Y-26011D01*
X31530Y-25988D01*
X31483Y-25964D01*
X31388Y-25940D01*
X31340Y-25916D01*
X31316Y-25892D01*
X31292Y-25845D01*
X31292Y-25797D01*
X31316Y-25750D01*
X31340Y-25726D01*
X31388Y-25702D01*
X31507Y-25702D01*
X31578Y-25726D01*
X31792Y-26202D02*
X31792Y-25702D01*
X32292Y-25726D02*
X32245Y-25702D01*
X32173Y-25702D01*
X32102Y-25726D01*
X32054Y-25773D01*
X32030Y-25821D01*
X32007Y-25916D01*
X32007Y-25988D01*
X32030Y-26083D01*
X32054Y-26130D01*
X32102Y-26178D01*
X32173Y-26202D01*
X32221Y-26202D01*
X32292Y-26178D01*
X32316Y-26154D01*
X32316Y-25988D01*
X32221Y-25988D01*
X32530Y-26202D02*
X32530Y-25702D01*
X32816Y-26202D01*
X32816Y-25702D01*
X33030Y-26059D02*
X33269Y-26059D01*
X32983Y-26202D02*
X33150Y-25702D01*
X33316Y-26202D01*
X33721Y-26202D02*
X33483Y-26202D01*
X33483Y-25702D01*
X33769Y-26250D02*
X34150Y-26250D01*
X34269Y-26202D02*
X34269Y-25702D01*
X34388Y-25702D01*
X34459Y-25726D01*
X34507Y-25773D01*
X34530Y-25821D01*
X34554Y-25916D01*
X34554Y-25988D01*
X34530Y-26083D01*
X34507Y-26130D01*
X34459Y-26178D01*
X34388Y-26202D01*
X34269Y-26202D01*
X35030Y-26202D02*
X34745Y-26202D01*
X34888Y-26202D02*
X34888Y-25702D01*
X34840Y-25773D01*
X34792Y-25821D01*
X34745Y-25845D01*
X35197Y-25702D02*
X35507Y-25702D01*
X35340Y-25892D01*
X35411Y-25892D01*
X35459Y-25916D01*
X35483Y-25940D01*
X35507Y-25988D01*
X35507Y-26107D01*
X35483Y-26154D01*
X35459Y-26178D01*
X35411Y-26202D01*
X35269Y-26202D01*
X35221Y-26178D01*
X35197Y-26154D01*
X25002Y-32359D02*
X25002Y-32597D01*
X24502Y-32597D01*
X24740Y-32192D02*
X24740Y-32026D01*
X25002Y-31954D02*
X25002Y-32192D01*
X24502Y-32192D01*
X24502Y-31954D01*
X25002Y-31740D02*
X24502Y-31740D01*
X24502Y-31621D01*
X24526Y-31550D01*
X24573Y-31502D01*
X24621Y-31478D01*
X24716Y-31454D01*
X24788Y-31454D01*
X24883Y-31478D01*
X24930Y-31502D01*
X24978Y-31550D01*
X25002Y-31621D01*
X25002Y-31740D01*
X24502Y-31288D02*
X24502Y-30978D01*
X24692Y-31145D01*
X24692Y-31073D01*
X24716Y-31026D01*
X24740Y-31002D01*
X24788Y-30978D01*
X24907Y-30978D01*
X24954Y-31002D01*
X24978Y-31026D01*
X25002Y-31073D01*
X25002Y-31216D01*
X24978Y-31264D01*
X24954Y-31288D01*
X22992Y-33402D02*
X22992Y-32902D01*
X23111Y-32902D01*
X23183Y-32926D01*
X23230Y-32973D01*
X23254Y-33021D01*
X23278Y-33116D01*
X23278Y-33188D01*
X23254Y-33283D01*
X23230Y-33330D01*
X23183Y-33378D01*
X23111Y-33402D01*
X22992Y-33402D01*
X23754Y-33402D02*
X23469Y-33402D01*
X23611Y-33402D02*
X23611Y-32902D01*
X23564Y-32973D01*
X23516Y-33021D01*
X23469Y-33045D01*
X24064Y-32902D02*
X24111Y-32902D01*
X24159Y-32926D01*
X24183Y-32950D01*
X24207Y-32997D01*
X24230Y-33092D01*
X24230Y-33211D01*
X24207Y-33307D01*
X24183Y-33354D01*
X24159Y-33378D01*
X24111Y-33402D01*
X24064Y-33402D01*
X24016Y-33378D01*
X23992Y-33354D01*
X23969Y-33307D01*
X23945Y-33211D01*
X23945Y-33092D01*
X23969Y-32997D01*
X23992Y-32950D01*
X24016Y-32926D01*
X24064Y-32902D01*
X15002Y-32359D02*
X15002Y-32597D01*
X14502Y-32597D01*
X14740Y-32192D02*
X14740Y-32026D01*
X15002Y-31954D02*
X15002Y-32192D01*
X14502Y-32192D01*
X14502Y-31954D01*
X15002Y-31740D02*
X14502Y-31740D01*
X14502Y-31621D01*
X14526Y-31550D01*
X14573Y-31502D01*
X14621Y-31478D01*
X14716Y-31454D01*
X14788Y-31454D01*
X14883Y-31478D01*
X14930Y-31502D01*
X14978Y-31550D01*
X15002Y-31621D01*
X15002Y-31740D01*
X14669Y-31026D02*
X15002Y-31026D01*
X14478Y-31145D02*
X14835Y-31264D01*
X14835Y-30954D01*
X13230Y-33402D02*
X13230Y-32902D01*
X13350Y-32902D01*
X13421Y-32926D01*
X13469Y-32973D01*
X13492Y-33021D01*
X13516Y-33116D01*
X13516Y-33188D01*
X13492Y-33283D01*
X13469Y-33330D01*
X13421Y-33378D01*
X13350Y-33402D01*
X13230Y-33402D01*
X13754Y-33402D02*
X13850Y-33402D01*
X13897Y-33378D01*
X13921Y-33354D01*
X13969Y-33283D01*
X13992Y-33188D01*
X13992Y-32997D01*
X13969Y-32950D01*
X13945Y-32926D01*
X13897Y-32902D01*
X13802Y-32902D01*
X13754Y-32926D01*
X13730Y-32950D01*
X13707Y-32997D01*
X13707Y-33116D01*
X13730Y-33164D01*
X13754Y-33188D01*
X13802Y-33211D01*
X13897Y-33211D01*
X13945Y-33188D01*
X13969Y-33164D01*
X13992Y-33116D01*
M02*
