<?xml version="1.0" standalone="no"?>
 <!DOCTYPE svg PUBLIC "-//W3C//DTD SVG 1.1//EN" 
 "http://www.w3.org/Graphics/SVG/1.1/DTD/svg11.dtd"> 
<svg xmlns="http://www.w3.org/2000/svg" version="1.1" 
    width="41.9989cm" height="29.7002cm" viewBox="0 0 165350 116930 ">
<title>SVG Picture created as RepNet-Thru-F_Cu.svg date 2015/11/16 14:32:35 </title>
  <desc>Picture generated by PCBNEW </desc>
<g style="fill:#000000; fill-opacity:1;stroke:#000000; stroke-opacity:1;
stroke-linecap:round; stroke-linejoin:round; "
 transform="translate(0 0) scale(1 1)">
</g>
<g style="fill:#000000; fill-opacity:0.0; 
stroke:#000000; stroke-width:39.3701; stroke-opacity:1; 
stroke-linecap:round; stroke-linejoin:round;">
<path d="M4000 4000
L161350 4000
L161350 112930
L4000 112930
L4000 4000
" />
<path d="M4700 4700
L160650 4700
L160650 112230
L4700 112230
L4700 4700
" />
<path d="M26470 4000
L26470 4700
" />
<path d="M15382 4552
L15097 4552
" />
<path d="M15240 4552
L15240 4052
L15192 4123
L15144 4171
L15097 4195
" />
<path d="M26470 112930
L26470 112230
" />
<path d="M15382 112782
L15097 112782
" />
<path d="M15240 112782
L15240 112282
L15192 112353
L15144 112401
L15097 112425
" />
<path d="M48940 4000
L48940 4700
" />
<path d="M37567 4100
L37590 4076
L37638 4052
L37757 4052
L37805 4076
L37829 4100
L37852 4147
L37852 4195
L37829 4266
L37543 4552
L37852 4552
" />
<path d="M48940 112930
L48940 112230
" />
<path d="M37567 112330
L37590 112306
L37638 112282
L37757 112282
L37805 112306
L37829 112330
L37852 112377
L37852 112425
L37829 112496
L37543 112782
L37852 112782
" />
<path d="M71410 4000
L71410 4700
" />
<path d="M60013 4052
L60322 4052
L60156 4242
L60227 4242
L60275 4266
L60299 4290
L60322 4338
L60322 4457
L60299 4504
L60275 4528
L60227 4552
L60084 4552
L60037 4528
L60013 4504
" />
<path d="M71410 112930
L71410 112230
" />
<path d="M60013 112282
L60322 112282
L60156 112472
L60227 112472
L60275 112496
L60299 112520
L60322 112568
L60322 112687
L60299 112734
L60275 112758
L60227 112782
L60084 112782
L60037 112758
L60013 112734
" />
<path d="M93880 4000
L93880 4700
" />
<path d="M82745 4219
L82745 4552
" />
<path d="M82626 4028
L82507 4385
L82816 4385
" />
<path d="M93880 112930
L93880 112230
" />
<path d="M82745 112449
L82745 112782
" />
<path d="M82626 112258
L82507 112615
L82816 112615
" />
<path d="M116350 4000
L116350 4700
" />
<path d="M105239 4052
L105000 4052
L104977 4290
L105000 4266
L105048 4242
L105167 4242
L105215 4266
L105239 4290
L105262 4338
L105262 4457
L105239 4504
L105215 4528
L105167 4552
L105048 4552
L105000 4528
L104977 4504
" />
<path d="M116350 112930
L116350 112230
" />
<path d="M105239 112282
L105000 112282
L104977 112520
L105000 112496
L105048 112472
L105167 112472
L105215 112496
L105239 112520
L105262 112568
L105262 112687
L105239 112734
L105215 112758
L105167 112782
L105048 112782
L105000 112758
L104977 112734
" />
<path d="M138820 4000
L138820 4700
" />
<path d="M127685 4052
L127590 4052
L127542 4076
L127518 4100
L127470 4171
L127447 4266
L127447 4457
L127470 4504
L127494 4528
L127542 4552
L127637 4552
L127685 4528
L127709 4504
L127732 4457
L127732 4338
L127709 4290
L127685 4266
L127637 4242
L127542 4242
L127494 4266
L127470 4290
L127447 4338
" />
<path d="M138820 112930
L138820 112230
" />
<path d="M127685 112282
L127590 112282
L127542 112306
L127518 112330
L127470 112401
L127447 112496
L127447 112687
L127470 112734
L127494 112758
L127542 112782
L127637 112782
L127685 112758
L127709 112734
L127732 112687
L127732 112568
L127709 112520
L127685 112496
L127637 112472
L127542 112472
L127494 112496
L127470 112520
L127447 112568
" />
<path d="M149893 4052
L150226 4052
L150012 4552
" />
<path d="M149893 112282
L150226 112282
L150012 112782
" />
<path d="M4000 25780
L4700 25780
" />
<path d="M4230 14949
L4469 14949
" />
<path d="M4183 15092
L4350 14592
L4516 15092
" />
<path d="M161350 25780
L160650 25780
" />
<path d="M160880 14949
L161119 14949
" />
<path d="M160833 15092
L161000 14592
L161166 15092
" />
<path d="M4000 47560
L4700 47560
" />
<path d="M4385 36610
L4457 36634
L4480 36658
L4504 36705
L4504 36777
L4480 36824
L4457 36848
L4409 36872
L4219 36872
L4219 36372
L4385 36372
L4433 36396
L4457 36420
L4480 36467
L4480 36515
L4457 36562
L4433 36586
L4385 36610
L4219 36610
" />
<path d="M161350 47560
L160650 47560
" />
<path d="M161035 36610
L161107 36634
L161130 36658
L161154 36705
L161154 36777
L161130 36824
L161107 36848
L161059 36872
L160869 36872
L160869 36372
L161035 36372
L161083 36396
L161107 36420
L161130 36467
L161130 36515
L161107 36562
L161083 36586
L161035 36610
L160869 36610
" />
<path d="M4000 69340
L4700 69340
" />
<path d="M4504 58604
L4480 58628
L4409 58652
L4361 58652
L4290 58628
L4242 58580
L4219 58533
L4195 58438
L4195 58366
L4219 58271
L4242 58223
L4290 58176
L4361 58152
L4409 58152
L4480 58176
L4504 58200
" />
<path d="M161350 69340
L160650 69340
" />
<path d="M161154 58604
L161130 58628
L161059 58652
L161011 58652
L160940 58628
L160892 58580
L160869 58533
L160845 58438
L160845 58366
L160869 58271
L160892 58223
L160940 58176
L161011 58152
L161059 58152
L161130 58176
L161154 58200
" />
<path d="M4000 91120
L4700 91120
" />
<path d="M4219 80432
L4219 79932
L4338 79932
L4409 79956
L4457 80003
L4480 80051
L4504 80146
L4504 80218
L4480 80313
L4457 80360
L4409 80408
L4338 80432
L4219 80432
" />
<path d="M161350 91120
L160650 91120
" />
<path d="M160869 80432
L160869 79932
L160988 79932
L161059 79956
L161107 80003
L161130 80051
L161154 80146
L161154 80218
L161130 80313
L161107 80360
L161059 80408
L160988 80432
L160869 80432
" />
<path d="M4242 101950
L4409 101950
" />
<path d="M4480 102212
L4242 102212
L4242 101712
L4480 101712
" />
<path d="M160892 101950
L161059 101950
" />
<path d="M161130 102212
L160892 102212
L160892 101712
L161130 101712
" />
<path d="M127800 110672
L127875 110072
L128017 110072
L128100 110101
L128150 110158
L128171 110215
L128185 110330
L128175 110415
L128132 110530
L128096 110587
L128032 110644
L127942 110672
L127800 110672
" />
<path d="M128657 110672
L128696 110358
L128675 110301
L128621 110272
L128507 110272
L128446 110301
" />
<path d="M128660 110644
L128600 110672
L128457 110672
L128403 110644
L128382 110587
L128389 110530
L128425 110472
L128485 110444
L128628 110444
L128689 110415
" />
<path d="M128907 110272
L129135 110272
" />
<path d="M129017 110072
L128953 110587
L128975 110644
L129028 110672
L129085 110672
" />
<path d="M129517 110644
L129457 110672
L129342 110672
L129289 110644
L129267 110587
L129296 110358
L129332 110301
L129392 110272
L129507 110272
L129560 110301
L129582 110358
L129575 110415
L129282 110472
" />
<path d="M129807 110615
L129832 110644
L129800 110672
L129775 110644
L129807 110615
L129800 110672
" />
<path d="M129846 110301
L129871 110330
L129839 110358
L129814 110330
L129846 110301
L129839 110358
" />
<path d="M119392 111872
L119392 111272
" />
<path d="M119735 111872
L119478 111530
" />
<path d="M119735 111272
L119392 111615
" />
<path d="M119992 111872
L119992 111472
" />
<path d="M119992 111272
L119964 111301
L119992 111330
L120021 111301
L119992 111272
L119992 111330
" />
<path d="M120621 111815
L120592 111844
L120507 111872
L120450 111872
L120364 111844
L120307 111787
L120278 111730
L120250 111615
L120250 111530
L120278 111415
L120307 111358
L120364 111301
L120450 111272
L120507 111272
L120592 111301
L120621 111330
" />
<path d="M121135 111872
L121135 111558
L121107 111501
L121050 111472
L120935 111472
L120878 111501
" />
<path d="M121135 111844
L121078 111872
L120935 111872
L120878 111844
L120850 111787
L120850 111730
L120878 111672
L120935 111644
L121078 111644
L121135 111615
" />
<path d="M121678 111872
L121678 111272
" />
<path d="M121678 111844
L121621 111872
L121507 111872
L121450 111844
L121421 111815
L121392 111758
L121392 111587
L121421 111530
L121450 111501
L121507 111472
L121621 111472
L121678 111501
" />
<path d="M122421 111558
L122621 111558
" />
<path d="M122707 111872
L122421 111872
L122421 111272
L122707 111272
" />
<path d="M122964 111815
L122992 111844
L122964 111872
L122935 111844
L122964 111815
L122964 111872
" />
<path d="M123249 111872
L123249 111272
L123392 111272
L123478 111301
L123535 111358
L123564 111415
L123592 111530
L123592 111615
L123564 111730
L123535 111787
L123478 111844
L123392 111872
L123249 111872
" />
<path d="M123849 111815
L123878 111844
L123849 111872
L123821 111844
L123849 111815
L123849 111872
" />
<path d="M124107 111701
L124392 111701
" />
<path d="M124049 111872
L124249 111272
L124449 111872
" />
<path d="M124649 111815
L124678 111844
L124649 111872
L124621 111844
L124649 111815
L124649 111872
" />
<path d="M152942 110672
L152778 110387
" />
<path d="M152600 110672
L152675 110072
L152903 110072
L152957 110101
L152982 110130
L153003 110187
L152992 110272
L152957 110330
L152925 110358
L152864 110387
L152635 110387
" />
<path d="M153432 110644
L153371 110672
L153257 110672
L153203 110644
L153182 110587
L153210 110358
L153246 110301
L153307 110272
L153421 110272
L153475 110301
L153496 110358
L153489 110415
L153196 110472
" />
<path d="M153707 110272
L153800 110672
L153992 110272
" />
<path d="M154178 110615
L154203 110644
L154171 110672
L154146 110644
L154178 110615
L154171 110672
" />
<path d="M154217 110301
L154242 110330
L154210 110358
L154185 110330
L154217 110301
L154210 110358
" />
<path d="M119364 110644
L119450 110672
L119592 110672
L119650 110644
L119678 110615
L119707 110558
L119707 110501
L119678 110444
L119650 110415
L119592 110387
L119478 110358
L119421 110330
L119392 110301
L119364 110244
L119364 110187
L119392 110130
L119421 110101
L119478 110072
L119621 110072
L119707 110101
" />
<path d="M119964 110672
L119964 110272
" />
<path d="M119964 110072
L119935 110101
L119964 110130
L119992 110101
L119964 110072
L119964 110130
" />
<path d="M120192 110272
L120507 110272
L120192 110672
L120507 110672
" />
<path d="M120964 110644
L120907 110672
L120792 110672
L120735 110644
L120707 110587
L120707 110358
L120735 110301
L120792 110272
L120907 110272
L120964 110301
L120992 110358
L120992 110415
L120707 110472
" />
<path d="M121250 110615
L121278 110644
L121250 110672
L121221 110644
L121250 110615
L121250 110672
" />
<path d="M121250 110301
L121278 110330
L121250 110358
L121221 110330
L121250 110301
L121250 110358
" />
<path d="M121964 110501
L122250 110501
" />
<path d="M121907 110672
L122107 110072
L122307 110672
" />
<path d="M122450 110072
L122821 110072
L122621 110301
L122707 110301
L122764 110330
L122792 110358
L122821 110415
L122821 110558
L122792 110615
L122764 110644
L122707 110672
L122535 110672
L122478 110644
L122450 110615
" />
<path d="M152592 111872
L152592 111272
" />
<path d="M153135 111872
L153135 111272
" />
<path d="M153135 111844
L153078 111872
L152964 111872
L152907 111844
L152878 111815
L152850 111758
L152850 111587
L152878 111530
L152907 111501
L152964 111472
L153078 111472
L153135 111501
" />
<path d="M153421 111815
L153450 111844
L153421 111872
L153392 111844
L153421 111815
L153421 111872
" />
<path d="M153421 111501
L153450 111530
L153421 111558
L153392 111530
L153421 111501
L153421 111558
" />
<path d="M154478 111872
L154135 111872
" />
<path d="M154307 111872
L154307 111272
L154249 111358
L154192 111415
L154135 111444
" />
<path d="M155164 111244
L154650 112015
" />
<path d="M155678 111872
L155335 111872
" />
<path d="M155507 111872
L155507 111272
L155449 111358
L155392 111415
L155335 111444
" />
<path d="M119389 108872
L119732 108872
" />
<path d="M119485 109472
L119560 108872
" />
<path d="M119857 109472
L119907 109072
" />
<path d="M119932 108872
L119900 108901
L119925 108930
L119957 108901
L119932 108872
L119925 108930
" />
<path d="M120107 109072
L120335 109072
" />
<path d="M120217 108872
L120153 109387
L120175 109444
L120228 109472
L120285 109472
" />
<path d="M120571 109472
L120517 109444
L120496 109387
L120560 108872
" />
<path d="M121032 109444
L120971 109472
L120857 109472
L120803 109444
L120782 109387
L120810 109158
L120846 109101
L120907 109072
L121021 109072
L121075 109101
L121096 109158
L121089 109215
L120796 109272
" />
<path d="M121321 109415
L121346 109444
L121314 109472
L121289 109444
L121321 109415
L121314 109472
" />
<path d="M121360 109101
L121385 109130
L121353 109158
L121328 109130
L121360 109101
L121353 109158
" />
<path d="M119592 106758
L119392 106758
" />
<path d="M119392 107072
L119392 106472
L119678 106472
" />
<path d="M119907 107072
L119907 106672
" />
<path d="M119907 106472
L119878 106501
L119907 106530
L119935 106501
L119907 106472
L119907 106530
" />
<path d="M120278 107072
L120221 107044
L120192 106987
L120192 106472
" />
<path d="M120735 107044
L120678 107072
L120564 107072
L120507 107044
L120478 106987
L120478 106758
L120507 106701
L120564 106672
L120678 106672
L120735 106701
L120764 106758
L120764 106815
L120478 106872
" />
<path d="M121021 107015
L121050 107044
L121021 107072
L120992 107044
L121021 107015
L121021 107072
" />
<path d="M121021 106701
L121050 106730
L121021 106758
L120992 106730
L121021 106701
L121021 106758
" />
<path d="M122107 107072
L121907 106787
" />
<path d="M121764 107072
L121764 106472
L121992 106472
L122050 106501
L122078 106530
L122107 106587
L122107 106672
L122078 106730
L122050 106758
L121992 106787
L121764 106787
" />
<path d="M122592 107044
L122535 107072
L122421 107072
L122364 107044
L122335 106987
L122335 106758
L122364 106701
L122421 106672
L122535 106672
L122592 106701
L122621 106758
L122621 106815
L122335 106872
" />
<path d="M122878 106672
L122878 107272
" />
<path d="M122878 106701
L122935 106672
L123050 106672
L123107 106701
L123135 106730
L123164 106787
L123164 106958
L123135 107015
L123107 107044
L123050 107072
L122935 107072
L122878 107044
" />
<path d="M123421 107072
L123421 106472
L123764 107072
L123764 106472
" />
<path d="M124278 107044
L124221 107072
L124107 107072
L124050 107044
L124021 106987
L124021 106758
L124050 106701
L124107 106672
L124221 106672
L124278 106701
L124307 106758
L124307 106815
L124021 106872
" />
<path d="M124478 106672
L124707 106672
" />
<path d="M124564 106472
L124564 106987
L124592 107044
L124650 107072
L124707 107072
" />
<path d="M124907 106844
L125364 106844
" />
<path d="M125564 106472
L125907 106472
" />
<path d="M125735 107072
L125735 106472
" />
<path d="M126107 107072
L126107 106472
" />
<path d="M126364 107072
L126364 106758
L126335 106701
L126278 106672
L126192 106672
L126135 106701
L126107 106730
" />
<path d="M126650 107072
L126650 106672
" />
<path d="M126650 106787
L126678 106730
L126707 106701
L126764 106672
L126821 106672
" />
<path d="M127278 106672
L127278 107072
" />
<path d="M127021 106672
L127021 106987
L127050 107044
L127107 107072
L127192 107072
L127250 107044
L127278 107015
" />
<path d="M127564 107015
L127592 107044
L127564 107072
L127535 107044
L127564 107015
L127564 107072
" />
<path d="M127850 107072
L127850 106472
" />
<path d="M127907 106844
L128078 107072
" />
<path d="M128078 106672
L127850 106901
" />
<path d="M128335 107072
L128335 106672
" />
<path d="M128335 106472
L128307 106501
L128335 106530
L128364 106501
L128335 106472
L128335 106530
" />
<path d="M128878 107044
L128821 107072
L128707 107072
L128650 107044
L128621 107015
L128592 106958
L128592 106787
L128621 106730
L128650 106701
L128707 106672
L128821 106672
L128878 106701
" />
<path d="M129392 107072
L129392 106758
L129364 106701
L129307 106672
L129192 106672
L129135 106701
" />
<path d="M129392 107044
L129335 107072
L129192 107072
L129135 107044
L129107 106987
L129107 106930
L129135 106872
L129192 106844
L129335 106844
L129392 106815
" />
<path d="M129935 107072
L129935 106472
" />
<path d="M129935 107044
L129878 107072
L129764 107072
L129707 107044
L129678 107015
L129650 106958
L129650 106787
L129678 106730
L129707 106701
L129764 106672
L129878 106672
L129935 106701
" />
<path d="M130078 107130
L130535 107130
" />
<path d="M130678 106672
L130678 107272
" />
<path d="M130678 106701
L130735 106672
L130850 106672
L130907 106701
L130935 106730
L130964 106787
L130964 106958
L130935 107015
L130907 107044
L130850 107072
L130735 107072
L130678 107044
" />
<path d="M131478 107044
L131421 107072
L131307 107072
L131250 107044
L131221 107015
L131192 106958
L131192 106787
L131221 106730
L131250 106701
L131307 106672
L131421 106672
L131478 106701
" />
<path d="M131735 107072
L131735 106472
" />
<path d="M131735 106701
L131792 106672
L131907 106672
L131964 106701
L131992 106730
L132021 106787
L132021 106958
L131992 107015
L131964 107044
L131907 107072
L131792 107072
L131735 107044
" />
<path d="M119364 108244
L119450 108272
L119592 108272
L119650 108244
L119678 108215
L119707 108158
L119707 108101
L119678 108044
L119650 108015
L119592 107987
L119478 107958
L119421 107930
L119392 107901
L119364 107844
L119364 107787
L119392 107730
L119421 107701
L119478 107672
L119621 107672
L119707 107701
" />
<path d="M119964 108272
L119964 107672
" />
<path d="M120221 108272
L120221 107958
L120192 107901
L120135 107872
L120050 107872
L119992 107901
L119964 107930
" />
<path d="M120735 108244
L120678 108272
L120564 108272
L120507 108244
L120478 108187
L120478 107958
L120507 107901
L120564 107872
L120678 107872
L120735 107901
L120764 107958
L120764 108015
L120478 108072
" />
<path d="M121250 108244
L121192 108272
L121078 108272
L121021 108244
L120992 108187
L120992 107958
L121021 107901
L121078 107872
L121192 107872
L121250 107901
L121278 107958
L121278 108015
L120992 108072
" />
<path d="M121450 107872
L121678 107872
" />
<path d="M121535 107672
L121535 108187
L121564 108244
L121621 108272
L121678 108272
" />
<path d="M121878 108215
L121907 108244
L121878 108272
L121850 108244
L121878 108215
L121878 108272
" />
<path d="M121878 107901
L121907 107930
L121878 107958
L121850 107930
L121878 107901
L121878 107958
" />
<path d="M118650 106230
L118650 112230
" />
<path d="M118650 106230
L160650 106230
" />
<path d="M118650 106230
L160650 106230
" />
<path d="M118650 108630
L160650 108630
" />
<path d="M151850 109830
L151850 112230
" />
<path d="M118650 111030
L160650 111030
" />
<path d="M118650 109830
L160650 109830
" />
<path d="M125250 109830
L125250 111030
" />
</g>
<g style="fill:#FFFF00; fill-opacity:0.0; 
stroke:#FFFF00; stroke-width:39.3701; stroke-opacity:1; 
stroke-linecap:round; stroke-linejoin:round;">
<path d="M41400 5400
L5200 5400
" />
<path d="M5200 36400
L5200 5400
" />
<path d="M10000 36400
L5200 36400
" />
<path d="M41400 36400
L41400 34800
" />
<path d="M26800 36400
L41400 36400
" />
<path d="M41400 24200
L41400 35200
" />
<path d="M41400 20400
L41400 24200
" />
<path d="M41400 5400
L41400 20400
" />
<path d="M10000 36400
L26800 36400
" />
</g>
<g style="fill:#808000; fill-opacity:0.0; 
stroke:#808000; stroke-width:39.3701; stroke-opacity:1; 
stroke-linecap:round; stroke-linejoin:round;">
</g>
<g style="fill:#808000; fill-opacity:1.0; 
stroke:#808000; stroke-width:39.3701; stroke-opacity:1; 
stroke-linecap:round; stroke-linejoin:round;">
<polyline style="fill-rule:evenodd;"
points="25554,13450
26695,13450
26695,14199
25554,14199
25554,13450
" /> 
<polyline style="fill-rule:evenodd;"
points="25554,14450
26695,14450
26695,15199
25554,15199
25554,14450
" /> 
<polyline style="fill-rule:evenodd;"
points="25554,15450
26695,15450
26695,16199
25554,16199
25554,15450
" /> 
<polyline style="fill-rule:evenodd;"
points="25554,16450
26695,16450
26695,17199
25554,17199
25554,16450
" /> 
<polyline style="fill-rule:evenodd;"
points="25554,17450
26695,17450
26695,18199
25554,18199
25554,17450
" /> 
<polyline style="fill-rule:evenodd;"
points="25554,18450
26695,18450
26695,19199
25554,19199
25554,18450
" /> 
<polyline style="fill-rule:evenodd;"
points="25554,19450
26695,19450
26695,20199
25554,20199
25554,19450
" /> 
<polyline style="fill-rule:evenodd;"
points="25554,20450
26695,20450
26695,21199
25554,21199
25554,20450
" /> 
<polyline style="fill-rule:evenodd;"
points="25554,21450
26695,21450
26695,22199
25554,22199
25554,21450
" /> 
<polyline style="fill-rule:evenodd;"
points="25554,22450
26695,22450
26695,23199
25554,23199
25554,22450
" /> 
<polyline style="fill-rule:evenodd;"
points="25554,23450
26695,23450
26695,24199
25554,24199
25554,23450
" /> 
<polyline style="fill-rule:evenodd;"
points="25554,24450
26695,24450
26695,25199
25554,25199
25554,24450
" /> 
<polyline style="fill-rule:evenodd;"
points="25554,25450
26695,25450
26695,26199
25554,26199
25554,25450
" /> 
<polyline style="fill-rule:evenodd;"
points="25554,12450
26695,12450
26695,13199
25554,13199
25554,12450
" /> 
<polyline style="fill-rule:evenodd;"
points="28554,25450
29695,25450
29695,26199
28554,26199
28554,25450
" /> 
<polyline style="fill-rule:evenodd;"
points="28554,24450
29695,24450
29695,25199
28554,25199
28554,24450
" /> 
<polyline style="fill-rule:evenodd;"
points="28554,23450
29695,23450
29695,24199
28554,24199
28554,23450
" /> 
<polyline style="fill-rule:evenodd;"
points="28554,22450
29695,22450
29695,23199
28554,23199
28554,22450
" /> 
<polyline style="fill-rule:evenodd;"
points="28554,21450
29695,21450
29695,22199
28554,22199
28554,21450
" /> 
<polyline style="fill-rule:evenodd;"
points="28554,20450
29695,20450
29695,21199
28554,21199
28554,20450
" /> 
<polyline style="fill-rule:evenodd;"
points="28554,19450
29695,19450
29695,20199
28554,20199
28554,19450
" /> 
<polyline style="fill-rule:evenodd;"
points="28554,18450
29695,18450
29695,19199
28554,19199
28554,18450
" /> 
<polyline style="fill-rule:evenodd;"
points="28554,17450
29695,17450
29695,18199
28554,18199
28554,17450
" /> 
<polyline style="fill-rule:evenodd;"
points="28554,16450
29695,16450
29695,17199
28554,17199
28554,16450
" /> 
<polyline style="fill-rule:evenodd;"
points="28554,15450
29695,15450
29695,16199
28554,16199
28554,15450
" /> 
<polyline style="fill-rule:evenodd;"
points="28554,14450
29695,14450
29695,15199
28554,15199
28554,14450
" /> 
<polyline style="fill-rule:evenodd;"
points="28554,13450
29695,13450
29695,14199
28554,14199
28554,13450
" /> 
<polyline style="fill-rule:evenodd;"
points="28554,12450
29695,12450
29695,13199
28554,13199
28554,12450
" /> 
<polyline style="fill-rule:evenodd;"
points="9850,11500
10599,11500
10599,12249
9850,12249
9850,11500
" /> 
<polyline style="fill-rule:evenodd;"
points="9850,12500
10599,12500
10599,13249
9850,13249
9850,12500
" /> 
<polyline style="fill-rule:evenodd;"
points="9850,13500
10599,13500
10599,14249
9850,14249
9850,13500
" /> 
<polyline style="fill-rule:evenodd;"
points="9850,14500
10599,14500
10599,15249
9850,15249
9850,14500
" /> 
<polyline style="fill-rule:evenodd;"
points="9850,15500
10599,15500
10599,16249
9850,16249
9850,15500
" /> 
<polyline style="fill-rule:evenodd;"
points="9850,16500
10599,16500
10599,17249
9850,17249
9850,16500
" /> 
<polyline style="fill-rule:evenodd;"
points="9850,17500
10599,17500
10599,18249
9850,18249
9850,17500
" /> 
<polyline style="fill-rule:evenodd;"
points="9850,18500
10599,18500
10599,19249
9850,19249
9850,18500
" /> 
<polyline style="fill-rule:evenodd;"
points="14850,18500
15599,18500
15599,19249
14850,19249
14850,18500
" /> 
<polyline style="fill-rule:evenodd;"
points="14850,17500
15599,17500
15599,18249
14850,18249
14850,17500
" /> 
<polyline style="fill-rule:evenodd;"
points="14850,16500
15599,16500
15599,17249
14850,17249
14850,16500
" /> 
<polyline style="fill-rule:evenodd;"
points="14850,15500
15599,15500
15599,16249
14850,16249
14850,15500
" /> 
<polyline style="fill-rule:evenodd;"
points="14850,14500
15599,14500
15599,15249
14850,15249
14850,14500
" /> 
<polyline style="fill-rule:evenodd;"
points="14850,13500
15599,13500
15599,14249
14850,14249
14850,13500
" /> 
<polyline style="fill-rule:evenodd;"
points="14850,12500
15599,12500
15599,13249
14850,13249
14850,12500
" /> 
<polyline style="fill-rule:evenodd;"
points="14850,11500
15599,11500
15599,12249
14850,12249
14850,11500
" /> 
<circle cx="6472.44" cy="7042.52" r="1161.42" /> 
<circle cx="39937" cy="7042.52" r="1161.42" /> 
<circle cx="39937" cy="33026.8" r="1161.42" /> 
<circle cx="6472.44" cy="33026.8" r="1161.42" /> 
<circle cx="22750" cy="20700" r="350.315" /> 
<circle cx="23750" cy="20700" r="350.315" /> 
<circle cx="24750" cy="20700" r="350.315" /> 
<circle cx="8600" cy="8500" r="350.315" /> 
<circle cx="8600" cy="9500" r="350.315" /> 
<circle cx="31900" cy="24800" r="350.315" /> 
<circle cx="32900" cy="24800" r="350.315" /> 
<circle cx="36125" cy="33175" r="413.315" /> 
<circle cx="35125" cy="35175" r="413.315" /> 
<circle cx="37125" cy="35175" r="413.315" /> 
<circle cx="26125" cy="33175" r="413.315" /> 
<circle cx="25125" cy="35175" r="413.315" /> 
<circle cx="27125" cy="35175" r="413.315" /> 
<circle cx="21125" cy="33175" r="413.315" /> 
<circle cx="20125" cy="35175" r="413.315" /> 
<circle cx="22125" cy="35175" r="413.315" /> 
<circle cx="16125" cy="33175" r="413.315" /> 
<circle cx="15125" cy="35175" r="413.315" /> 
<circle cx="17125" cy="35175" r="413.315" /> 
<circle cx="11125" cy="33175" r="413.315" /> 
<circle cx="10125" cy="35175" r="413.315" /> 
<circle cx="12125" cy="35175" r="413.315" /> 
<circle cx="31125" cy="33175" r="413.315" /> 
<circle cx="30125" cy="35175" r="413.315" /> 
<circle cx="32125" cy="35175" r="413.315" /> 
<circle cx="30600" cy="21700" r="374.016" /> 
<circle cx="30600" cy="24700" r="374.016" /> 
<circle cx="13600" cy="8500" r="374.016" /> 
<circle cx="10600" cy="8500" r="374.016" /> 
<circle cx="9375" cy="25575" r="374.016" /> 
<circle cx="9375" cy="28575" r="374.016" /> 
<circle cx="36100" cy="28600" r="374.016" /> 
<circle cx="33100" cy="28600" r="374.016" /> 
<circle cx="35500" cy="22400" r="374.016" /> 
<circle cx="32500" cy="22400" r="374.016" /> 
<circle cx="31800" cy="18500" r="374.016" /> 
<circle cx="31800" cy="21500" r="374.016" /> 
<circle cx="21900" cy="12400" r="374.016" /> 
<circle cx="24900" cy="12400" r="374.016" /> 
<circle cx="15200" cy="10000" r="374.016" /> 
<circle cx="12200" cy="10000" r="374.016" /> 
<polyline style="fill-rule:evenodd;"
points="36474,17574
35725,17574
35725,16825
36474,16825
36474,17574
" /> 
<polyline style="fill-rule:evenodd;"
points="35474,17574
34725,17574
34725,16825
35474,16825
35474,17574
" /> 
<polyline style="fill-rule:evenodd;"
points="36474,16574
35725,16574
35725,15825
36474,15825
36474,16574
" /> 
<polyline style="fill-rule:evenodd;"
points="35474,16574
34725,16574
34725,15825
35474,15825
35474,16574
" /> 
<polyline style="fill-rule:evenodd;"
points="36474,15574
35725,15574
35725,14825
36474,14825
36474,15574
" /> 
<polyline style="fill-rule:evenodd;"
points="35474,15574
34725,15574
34725,14825
35474,14825
35474,15574
" /> 
<polyline style="fill-rule:evenodd;"
points="36474,14574
35725,14574
35725,13825
36474,13825
36474,14574
" /> 
<polyline style="fill-rule:evenodd;"
points="35474,14574
34725,14574
34725,13825
35474,13825
35474,14574
" /> 
<polyline style="fill-rule:evenodd;"
points="36474,13574
35725,13574
35725,12825
36474,12825
36474,13574
" /> 
<polyline style="fill-rule:evenodd;"
points="35474,13574
34725,13574
34725,12825
35474,12825
35474,13574
" /> 
<polyline style="fill-rule:evenodd;"
points="15508,34806
15508,35563
14751,35563
14751,34806
15508,34806
" /> 
<circle cx="14130" cy="35185" r="378.815" /> 
<circle cx="13130" cy="35185" r="378.815" /> 
<circle cx="12130" cy="35185" r="378.815" /> 
<polyline style="fill-rule:evenodd;"
points="9103,17253
8346,17253
8346,16496
9103,16496
9103,17253
" /> 
<circle cx="8725" cy="15875" r="378.815" /> 
<circle cx="8725" cy="14875" r="378.815" /> 
<circle cx="8725" cy="13875" r="378.815" /> 
<polyline style="fill-rule:evenodd;"
points="25488,34806
25488,35563
24731,35563
24731,34806
25488,34806
" /> 
<circle cx="24110" cy="35185" r="378.815" /> 
<circle cx="23110" cy="35185" r="378.815" /> 
<circle cx="22110" cy="35185" r="378.815" /> 
<circle cx="39200" cy="29100" r="374.016" /> 
<circle cx="39200" cy="30100" r="374.016" /> 
<circle cx="39125" cy="26075" r="374.016" /> 
<circle cx="39125" cy="25075" r="374.016" /> 
<circle cx="39200" cy="23500" r="374.016" /> 
<circle cx="39200" cy="22500" r="374.016" /> 
<circle cx="29100" cy="10000" r="374.016" /> 
<circle cx="28100" cy="10000" r="374.016" /> 
<circle cx="19700" cy="23500" r="374.016" /> 
<circle cx="18700" cy="23500" r="374.016" /> 
<circle cx="8600" cy="11000" r="374.016" /> 
<circle cx="8600" cy="12000" r="374.016" /> 
<polyline style="fill-rule:evenodd;"
points="24874,9575
24874,10324
24125,10324
24125,9575
24874,9575
" /> 
<polyline style="fill-rule:evenodd;"
points="23874,9575
23874,10324
23125,10324
23125,9575
23874,9575
" /> 
<polyline style="fill-rule:evenodd;"
points="22874,9575
22874,10324
22125,10324
22125,9575
22874,9575
" /> 
<polyline style="fill-rule:evenodd;"
points="21874,9575
21874,10324
21125,10324
21125,9575
21874,9575
" /> 
<polyline style="fill-rule:evenodd;"
points="20874,9575
20874,10324
20125,10324
20125,9575
20874,9575
" /> 
<polyline style="fill-rule:evenodd;"
points="19874,9575
19874,10324
19125,10324
19125,9575
19874,9575
" /> 
<polyline style="fill-rule:evenodd;"
points="38055,13555
37544,13555
37544,13044
38055,13044
38055,13555
" /> 
<circle cx="37800" cy="16300" r="255.315" /> 
<polyline style="fill-rule:evenodd;"
points="25244,11455
25244,10944
25755,10944
25755,11455
25244,11455
" /> 
<circle cx="22500" cy="11200" r="255.315" /> 
<polyline style="fill-rule:evenodd;"
points="37144,22244
37655,22244
37655,22755
37144,22755
37144,22244
" /> 
<circle cx="37400" cy="23500" r="255.315" /> 
<polyline style="fill-rule:evenodd;"
points="37144,24844
37655,24844
37655,25355
37144,25355
37144,24844
" /> 
<circle cx="37400" cy="26100" r="255.315" /> 
<circle cx="16125" cy="30825" r="374.016" /> 
<circle cx="16125" cy="29325" r="374.016" /> 
<circle cx="26125" cy="30825" r="374.016" /> 
<circle cx="26125" cy="29325" r="374.016" /> 
<circle cx="31125" cy="30825" r="374.016" /> 
<circle cx="31125" cy="29325" r="374.016" /> 
<circle cx="9800" cy="22950" r="374.016" /> 
<circle cx="9800" cy="21450" r="374.016" /> 
<circle cx="8725" cy="18875" r="374.016" /> 
<circle cx="8725" cy="17875" r="374.016" /> 
<circle cx="30400" cy="19700" r="374.016" /> 
<circle cx="30400" cy="18700" r="374.016" /> 
<circle cx="24500" cy="18450" r="374.016" /> 
<circle cx="23500" cy="18450" r="374.016" /> 
<circle cx="13225" cy="20875" r="374.016" /> 
<circle cx="12225" cy="20875" r="374.016" /> 
<circle cx="22000" cy="17400" r="374.016" /> 
<circle cx="22000" cy="18400" r="374.016" /> 
<circle cx="25900" cy="9000" r="374.016" /> 
<circle cx="26900" cy="9000" r="374.016" /> 
<circle cx="23625" cy="31575" r="350.315" /> 
<circle cx="23625" cy="32575" r="350.315" /> 
<circle cx="13625" cy="31575" r="350.315" /> 
<circle cx="13625" cy="32575" r="350.315" /> 
<circle cx="23625" cy="27575" r="374.016" /> 
<circle cx="23625" cy="30575" r="374.016" /> 
<circle cx="13625" cy="27575" r="374.016" /> 
<circle cx="13625" cy="30575" r="374.016" /> 
<circle cx="30900" cy="17600" r="374.016" /> 
<circle cx="33900" cy="17600" r="374.016" /> 
<circle cx="31800" cy="16700" r="374.016" /> 
<circle cx="31800" cy="13700" r="374.016" /> 
<circle cx="6200" cy="13300" r="374.016" /> 
<circle cx="7200" cy="13300" r="374.016" /> 
<circle cx="6200" cy="14700" r="374.016" /> 
<circle cx="7200" cy="14700" r="374.016" /> 
<circle cx="7200" cy="16100" r="374.016" /> 
<circle cx="6200" cy="16100" r="374.016" /> 
<circle cx="7200" cy="17500" r="374.016" /> 
<circle cx="6200" cy="17500" r="374.016" /> 
<circle cx="19169.3" cy="28838.6" r="374.016" /> 
<circle cx="22169.3" cy="28838.6" r="374.016" /> 
<circle cx="8933.07" cy="29921.3" r="374.016" /> 
<circle cx="11933.1" cy="29921.3" r="374.016" /> 
<circle cx="33858.3" cy="9720.47" r="374.016" /> 
<circle cx="33858.3" cy="12720.5" r="374.016" /> 
<circle cx="39098.4" cy="12007.9" r="374.016" /> 
<circle cx="36098.4" cy="12007.9" r="374.016" /> 
<circle cx="11433.1" cy="31299.2" r="330.315" /> 
<circle cx="10433.1" cy="31299.2" r="330.315" /> 
<polyline style="fill-rule:evenodd;"
points="9102,30968
9763,30968
9763,31629
9102,31629
9102,30968
" /> 
<circle cx="21669.3" cy="30315" r="330.315" /> 
<circle cx="20669.3" cy="30315" r="330.315" /> 
<polyline style="fill-rule:evenodd;"
points="19338,29984
19999,29984
19999,30645
19338,30645
19338,29984
" /> 
</g>
<g style="fill:#C0C0C0; fill-opacity:1.0; 
stroke:#C0C0C0; stroke-width:39.3701; stroke-opacity:1; 
stroke-linecap:round; stroke-linejoin:round;">
<circle cx="34600" cy="18400" r="374.016" /> 
<circle cx="36200" cy="20200" r="374.016" /> 
<circle cx="36000" cy="24200" r="374.016" /> 
<circle cx="33000" cy="20000" r="374.016" /> 
<circle cx="19400" cy="25600" r="374.016" /> 
<circle cx="30200" cy="26400" r="374.016" /> 
<circle cx="33070.9" cy="32185" r="374.016" /> 
<circle cx="29429.1" cy="32086.6" r="374.016" /> 
<circle cx="18200" cy="19600" r="374.016" /> 
<circle cx="34600" cy="24400" r="374.016" /> 
<circle cx="33000" cy="21400" r="374.016" /> 
<circle cx="15600" cy="23400" r="374.016" /> 
<circle cx="6200" cy="24200" r="374.016" /> 
<circle cx="31400" cy="6800" r="374.016" /> 
<circle cx="31400" cy="10000" r="374.016" /> 
<circle cx="32200" cy="10000" r="374.016" /> 
<circle cx="34000" cy="16400" r="374.016" /> 
<circle cx="30600" cy="10000" r="374.016" /> 
<circle cx="26600" cy="9950" r="374.016" /> 
<circle cx="40000" cy="17400" r="374.016" /> 
<circle cx="37600" cy="17400" r="374.016" /> 
<circle cx="21800" cy="19600" r="374.016" /> 
<circle cx="33858.3" cy="7775.59" r="374.016" /> 
<circle cx="33800" cy="14200" r="374.016" /> 
<circle cx="30800" cy="13800" r="374.016" /> 
<circle cx="30800" cy="11800" r="374.016" /> 
<circle cx="38600" cy="27800" r="374.016" /> 
<circle cx="37400" cy="18400" r="374.016" /> 
<circle cx="18375" cy="32075" r="374.016" /> 
<circle cx="17625" cy="26825" r="374.016" /> 
<circle cx="26400" cy="11000" r="374.016" /> 
<circle cx="35200" cy="11000" r="374.016" /> 
<circle cx="37800" cy="11000" r="374.016" /> 
<circle cx="29600" cy="11200" r="374.016" /> 
</g>
<g style="fill:#A00000; fill-opacity:1.0; 
stroke:#A00000; stroke-width:393.701; stroke-opacity:1; 
stroke-linecap:round; stroke-linejoin:round;">
<path d="M36200 20200
L34600 18600
" />
<path d="M34600 18600
L34600 18400
" />
<path d="M36400 23800
L36000 24200
" />
<path d="M36400 21800
L36400 23800
" />
<path d="M35000 20400
L36400 21800
" />
<path d="M33400 20400
L35000 20400
" />
<path d="M33000 20000
L33400 20400
" />
<path d="M20600 26800
L19400 25600
" />
<path d="M29800 26800
L20600 26800
" />
<path d="M30200 26400
L29800 26800
" />
<path d="M32200 10000
L32200 12908
" />
<path d="M32200 12908
L32800 13508
" />
<path d="M29527 32185
L33070 32185
" />
<path d="M29429 32086
L29527 32185
" />
<path d="M18200 19600
L21800 19600
" />
<path d="M34600 23000
L34600 24400
" />
<path d="M33000 21400
L34600 23000
" />
<path d="M15600 23400
L14800 24200
" />
<path d="M14800 24200
L6200 24200
" />
<path d="M31400 10000
L31400 7200
" />
<path d="M31400 7200
L31400 6800
" />
<path d="M32800 13800
L32800 13508
" />
<path d="M34000 16400
L32800 15200
" />
<path d="M32800 15200
L32800 13800
" />
<path d="M30000 9400
L30000 9200
" />
<path d="M30600 10000
L30000 9400
" />
<path d="M28000 9000
L30000 9000
" />
<path d="M27200 9800
L28000 9000
" />
<path d="M26750 9800
L27200 9800
" />
<path d="M26750 9800
L26600 9950
" />
<path d="M37600 17400
L40000 17400
" />
<path d="M33070 10039
L33070 8562
" />
<path d="M33070 8562
L33858 7775
" />
<path d="M33800 14200
L33800 13622
" />
<path d="M32874 10236
L33070 10039
" />
<path d="M32874 12696
L32874 10236
" />
<path d="M33800 13622
L32874 12696
" />
<path d="M30800 13800
L30800 11800
" />
<path d="M40000 27200
L39200 27200
" />
<path d="M39200 27200
L38600 27800
" />
<path d="M39200 19000
L39800 19600
" />
<path d="M37400 18400
L38000 19000
" />
<path d="M38000 19000
L39200 19000
" />
<path d="M40000 19800
L40000 27200
" />
<path d="M39800 19600
L40000 19800
" />
</g>
<g style="fill:#A00000; fill-opacity:1.0; 
stroke:#A00000; stroke-width:1181.1; stroke-opacity:1; 
stroke-linecap:round; stroke-linejoin:round;">
<path d="M18375 32075
L18375 30325
" />
<path d="M18375 30325
L17625 29575
" />
<path d="M17625 29575
L17625 26825
" />
</g>
<g style="fill:#A00000; fill-opacity:1.0; 
stroke:#A00000; stroke-width:393.701; stroke-opacity:1; 
stroke-linecap:round; stroke-linejoin:round;">
<path d="M26600 11200
L29600 11200
" />
<path d="M26400 11000
L26600 11200
" />
<path d="M35200 11000
L37800 11000
" />
</g>
<g style="fill:#FFFFFF; fill-opacity:1.0; 
stroke:#FFFFFF; stroke-width:39.3701; stroke-opacity:1; 
stroke-linecap:round; stroke-linejoin:round;">
<circle cx="34600" cy="18400" r="78.7402" /> 
<circle cx="36200" cy="20200" r="78.7402" /> 
<circle cx="36000" cy="24200" r="78.7402" /> 
<circle cx="33000" cy="20000" r="78.7402" /> 
<circle cx="19400" cy="25600" r="78.7402" /> 
<circle cx="30200" cy="26400" r="78.7402" /> 
<circle cx="33070.9" cy="32185" r="78.7402" /> 
<circle cx="29429.1" cy="32086.6" r="78.7402" /> 
<circle cx="18200" cy="19600" r="78.7402" /> 
<circle cx="34600" cy="24400" r="78.7402" /> 
<circle cx="33000" cy="21400" r="78.7402" /> 
<circle cx="15600" cy="23400" r="78.7402" /> 
<circle cx="6200" cy="24200" r="78.7402" /> 
<circle cx="31400" cy="6800" r="78.7402" /> 
<circle cx="31400" cy="10000" r="78.7402" /> 
<circle cx="32200" cy="10000" r="78.7402" /> 
<circle cx="34000" cy="16400" r="78.7402" /> 
<circle cx="30600" cy="10000" r="78.7402" /> 
<circle cx="26600" cy="9950" r="78.7402" /> 
<circle cx="40000" cy="17400" r="78.7402" /> 
<circle cx="37600" cy="17400" r="78.7402" /> 
<circle cx="21800" cy="19600" r="78.7402" /> 
<circle cx="33858.3" cy="7775.59" r="78.7402" /> 
<circle cx="33800" cy="14200" r="78.7402" /> 
<circle cx="30800" cy="13800" r="78.7402" /> 
<circle cx="30800" cy="11800" r="78.7402" /> 
<circle cx="38600" cy="27800" r="78.7402" /> 
<circle cx="37400" cy="18400" r="78.7402" /> 
<circle cx="18375" cy="32075" r="78.7402" /> 
<circle cx="17625" cy="26825" r="78.7402" /> 
<circle cx="26400" cy="11000" r="78.7402" /> 
<circle cx="35200" cy="11000" r="78.7402" /> 
<circle cx="37800" cy="11000" r="78.7402" /> 
<circle cx="29600" cy="11200" r="78.7402" /> 
<circle cx="26125" cy="13825" r="140.315" /> 
<circle cx="26125" cy="14825" r="140.315" /> 
<circle cx="26125" cy="15825" r="140.315" /> 
<circle cx="26125" cy="16825" r="140.315" /> 
<circle cx="26125" cy="17825" r="140.315" /> 
<circle cx="26125" cy="18825" r="140.315" /> 
<circle cx="26125" cy="19825" r="140.315" /> 
<circle cx="26125" cy="20825" r="140.315" /> 
<circle cx="26125" cy="21825" r="140.315" /> 
<circle cx="26125" cy="22825" r="140.315" /> 
<circle cx="26125" cy="23825" r="140.315" /> 
<circle cx="26125" cy="24825" r="140.315" /> 
<circle cx="26125" cy="25825" r="140.315" /> 
<circle cx="26125" cy="12825" r="140.315" /> 
<circle cx="29125" cy="25825" r="140.315" /> 
<circle cx="29125" cy="24825" r="140.315" /> 
<circle cx="29125" cy="23825" r="140.315" /> 
<circle cx="29125" cy="22825" r="140.315" /> 
<circle cx="29125" cy="21825" r="140.315" /> 
<circle cx="29125" cy="20825" r="140.315" /> 
<circle cx="29125" cy="19825" r="140.315" /> 
<circle cx="29125" cy="18825" r="140.315" /> 
<circle cx="29125" cy="17825" r="140.315" /> 
<circle cx="29125" cy="16825" r="140.315" /> 
<circle cx="29125" cy="15825" r="140.315" /> 
<circle cx="29125" cy="14825" r="140.315" /> 
<circle cx="29125" cy="13825" r="140.315" /> 
<circle cx="29125" cy="12825" r="140.315" /> 
<circle cx="10225" cy="11875" r="140.315" /> 
<circle cx="10225" cy="12875" r="140.315" /> 
<circle cx="10225" cy="13875" r="140.315" /> 
<circle cx="10225" cy="14875" r="140.315" /> 
<circle cx="10225" cy="15875" r="140.315" /> 
<circle cx="10225" cy="16875" r="140.315" /> 
<circle cx="10225" cy="17875" r="140.315" /> 
<circle cx="10225" cy="18875" r="140.315" /> 
<circle cx="15225" cy="18875" r="140.315" /> 
<circle cx="15225" cy="17875" r="140.315" /> 
<circle cx="15225" cy="16875" r="140.315" /> 
<circle cx="15225" cy="15875" r="140.315" /> 
<circle cx="15225" cy="14875" r="140.315" /> 
<circle cx="15225" cy="13875" r="140.315" /> 
<circle cx="15225" cy="12875" r="140.315" /> 
<circle cx="15225" cy="11875" r="140.315" /> 
<circle cx="6472.44" cy="7042.52" r="580.315" /> 
<circle cx="39937" cy="7042.52" r="580.315" /> 
<circle cx="39937" cy="33026.8" r="580.315" /> 
<circle cx="6472.44" cy="33026.8" r="580.315" /> 
<circle cx="22750" cy="20700" r="137.315" /> 
<circle cx="23750" cy="20700" r="137.315" /> 
<circle cx="24750" cy="20700" r="137.315" /> 
<circle cx="8600" cy="8500" r="140.315" /> 
<circle cx="8600" cy="9500" r="140.315" /> 
<circle cx="31900" cy="24800" r="140.315" /> 
<circle cx="32900" cy="24800" r="140.315" /> 
<circle cx="36125" cy="33175" r="255.906" /> 
<circle cx="35125" cy="35175" r="255.906" /> 
<circle cx="37125" cy="35175" r="255.906" /> 
<circle cx="26125" cy="33175" r="255.906" /> 
<circle cx="25125" cy="35175" r="255.906" /> 
<circle cx="27125" cy="35175" r="255.906" /> 
<circle cx="21125" cy="33175" r="255.906" /> 
<circle cx="20125" cy="35175" r="255.906" /> 
<circle cx="22125" cy="35175" r="255.906" /> 
<circle cx="16125" cy="33175" r="255.906" /> 
<circle cx="15125" cy="35175" r="255.906" /> 
<circle cx="17125" cy="35175" r="255.906" /> 
<circle cx="11125" cy="33175" r="255.906" /> 
<circle cx="10125" cy="35175" r="255.906" /> 
<circle cx="12125" cy="35175" r="255.906" /> 
<circle cx="31125" cy="33175" r="255.906" /> 
<circle cx="30125" cy="35175" r="255.906" /> 
<circle cx="32125" cy="35175" r="255.906" /> 
<circle cx="30600" cy="21700" r="140.315" /> 
<circle cx="30600" cy="24700" r="140.315" /> 
<circle cx="13600" cy="8500" r="140.315" /> 
<circle cx="10600" cy="8500" r="140.315" /> 
<circle cx="9375" cy="25575" r="140.315" /> 
<circle cx="9375" cy="28575" r="140.315" /> 
<circle cx="36100" cy="28600" r="140.315" /> 
<circle cx="33100" cy="28600" r="140.315" /> 
<circle cx="35500" cy="22400" r="140.315" /> 
<circle cx="32500" cy="22400" r="140.315" /> 
<circle cx="31800" cy="18500" r="140.315" /> 
<circle cx="31800" cy="21500" r="140.315" /> 
<circle cx="21900" cy="12400" r="140.315" /> 
<circle cx="24900" cy="12400" r="140.315" /> 
<circle cx="15200" cy="10000" r="140.315" /> 
<circle cx="12200" cy="10000" r="140.315" /> 
<circle cx="36100" cy="17200" r="180.315" /> 
<circle cx="35100" cy="17200" r="180.315" /> 
<circle cx="36100" cy="16200" r="180.315" /> 
<circle cx="35100" cy="16200" r="180.315" /> 
<circle cx="36100" cy="15200" r="180.315" /> 
<circle cx="35100" cy="15200" r="180.315" /> 
<circle cx="36100" cy="14200" r="180.315" /> 
<circle cx="35100" cy="14200" r="180.315" /> 
<circle cx="36100" cy="13200" r="180.315" /> 
<circle cx="35100" cy="13200" r="180.315" /> 
<circle cx="15130" cy="35185" r="180.315" /> 
<circle cx="14130" cy="35185" r="180.315" /> 
<circle cx="13130" cy="35185" r="180.315" /> 
<circle cx="12130" cy="35185" r="180.315" /> 
<circle cx="8725" cy="16875" r="180.315" /> 
<circle cx="8725" cy="15875" r="180.315" /> 
<circle cx="8725" cy="14875" r="180.315" /> 
<circle cx="8725" cy="13875" r="180.315" /> 
<circle cx="25110" cy="35185" r="180.315" /> 
<circle cx="24110" cy="35185" r="180.315" /> 
<circle cx="23110" cy="35185" r="180.315" /> 
<circle cx="22110" cy="35185" r="180.315" /> 
<circle cx="39200" cy="29100" r="180.315" /> 
<circle cx="39200" cy="30100" r="180.315" /> 
<circle cx="39125" cy="26075" r="180.315" /> 
<circle cx="39125" cy="25075" r="180.315" /> 
<circle cx="39200" cy="23500" r="180.315" /> 
<circle cx="39200" cy="22500" r="180.315" /> 
<circle cx="29100" cy="10000" r="180.315" /> 
<circle cx="28100" cy="10000" r="180.315" /> 
<circle cx="19700" cy="23500" r="180.315" /> 
<circle cx="18700" cy="23500" r="180.315" /> 
<circle cx="8600" cy="11000" r="180.315" /> 
<circle cx="8600" cy="12000" r="180.315" /> 
<circle cx="24500" cy="9950" r="180.315" /> 
<circle cx="23500" cy="9950" r="180.315" /> 
<circle cx="22500" cy="9950" r="180.315" /> 
<circle cx="21500" cy="9950" r="180.315" /> 
<circle cx="20500" cy="9950" r="180.315" /> 
<circle cx="19500" cy="9950" r="180.315" /> 
<circle cx="37800" cy="13300" r="140.315" /> 
<circle cx="37800" cy="16300" r="140.315" /> 
<circle cx="25500" cy="11200" r="140.315" /> 
<circle cx="22500" cy="11200" r="140.315" /> 
<circle cx="37400" cy="22500" r="140.315" /> 
<circle cx="37400" cy="23500" r="140.315" /> 
<circle cx="37400" cy="25100" r="140.315" /> 
<circle cx="37400" cy="26100" r="140.315" /> 
<circle cx="16125" cy="30825" r="140.315" /> 
<circle cx="16125" cy="29325" r="140.315" /> 
<circle cx="26125" cy="30825" r="140.315" /> 
<circle cx="26125" cy="29325" r="140.315" /> 
<circle cx="31125" cy="30825" r="140.315" /> 
<circle cx="31125" cy="29325" r="140.315" /> 
<circle cx="9800" cy="22950" r="140.315" /> 
<circle cx="9800" cy="21450" r="140.315" /> 
<circle cx="8725" cy="18875" r="140.315" /> 
<circle cx="8725" cy="17875" r="140.315" /> 
<circle cx="30400" cy="19700" r="140.315" /> 
<circle cx="30400" cy="18700" r="140.315" /> 
<circle cx="24500" cy="18450" r="140.315" /> 
<circle cx="23500" cy="18450" r="140.315" /> 
<circle cx="13225" cy="20875" r="140.315" /> 
<circle cx="12225" cy="20875" r="140.315" /> 
<circle cx="22000" cy="17400" r="140.315" /> 
<circle cx="22000" cy="18400" r="140.315" /> 
<circle cx="25900" cy="9000" r="140.315" /> 
<circle cx="26900" cy="9000" r="140.315" /> 
<circle cx="23625" cy="31575" r="140.315" /> 
<circle cx="23625" cy="32575" r="140.315" /> 
<circle cx="13625" cy="31575" r="140.315" /> 
<circle cx="13625" cy="32575" r="140.315" /> 
<circle cx="23625" cy="27575" r="140.315" /> 
<circle cx="23625" cy="30575" r="140.315" /> 
<circle cx="13625" cy="27575" r="140.315" /> 
<circle cx="13625" cy="30575" r="140.315" /> 
<circle cx="30900" cy="17600" r="140.315" /> 
<circle cx="33900" cy="17600" r="140.315" /> 
<circle cx="31800" cy="16700" r="140.315" /> 
<circle cx="31800" cy="13700" r="140.315" /> 
<circle cx="6200" cy="13300" r="140.315" /> 
<circle cx="7200" cy="13300" r="140.315" /> 
<circle cx="6200" cy="14700" r="140.315" /> 
<circle cx="7200" cy="14700" r="140.315" /> 
<circle cx="7200" cy="16100" r="140.315" /> 
<circle cx="6200" cy="16100" r="140.315" /> 
<circle cx="7200" cy="17500" r="140.315" /> 
<circle cx="6200" cy="17500" r="140.315" /> 
<circle cx="19169.3" cy="28838.6" r="140.315" /> 
<circle cx="22169.3" cy="28838.6" r="140.315" /> 
<circle cx="8933.07" cy="29921.3" r="140.315" /> 
<circle cx="11933.1" cy="29921.3" r="140.315" /> 
<circle cx="33858.3" cy="9720.47" r="140.315" /> 
<circle cx="33858.3" cy="12720.5" r="140.315" /> 
<circle cx="39098.4" cy="12007.9" r="140.315" /> 
<circle cx="36098.4" cy="12007.9" r="140.315" /> 
<circle cx="11433.1" cy="31299.2" r="180.315" /> 
<circle cx="10433.1" cy="31299.2" r="180.315" /> 
<circle cx="9433.07" cy="31299.2" r="180.315" /> 
<circle cx="21669.3" cy="30315" r="180.315" /> 
<circle cx="20669.3" cy="30315" r="180.315" /> 
<circle cx="19669.3" cy="30315" r="180.315" /> 
</g> 
</svg>
