G04 (created by PCBNEW (2013-jul-07)-stable) date Thu Nov 12 15:47:10 2015*
%MOIN*%
G04 Gerber Fmt 3.4, Leading zero omitted, Abs format*
%FSLAX34Y34*%
G01*
G70*
G90*
G04 APERTURE LIST*
%ADD10C,0.00590551*%
%ADD11R,0.11811X0.0787402*%
%ADD12R,0.0787402X0.0787402*%
%ADD13C,0.23622*%
%ADD14C,0.074*%
%ADD15C,0.0866*%
%ADD16C,0.0787402*%
%ADD17R,0.0797X0.0797*%
%ADD18C,0.0797*%
%ADD19R,0.055X0.055*%
%ADD20C,0.055*%
%ADD21C,0.07*%
%ADD22R,0.07X0.07*%
%ADD23C,0.0393701*%
%ADD24C,0.019685*%
%ADD25C,0.0787402*%
%ADD26C,0.11811*%
%ADD27C,0.01*%
G04 APERTURE END LIST*
G54D10*
G54D11*
X26125Y-13825D03*
X26125Y-14825D03*
X26125Y-15825D03*
X26125Y-16825D03*
X26125Y-17825D03*
X26125Y-18825D03*
X26125Y-19825D03*
X26125Y-20825D03*
X26125Y-21825D03*
X26125Y-22825D03*
X26125Y-23825D03*
X26125Y-24825D03*
X26125Y-25825D03*
X26125Y-12825D03*
X29125Y-25825D03*
X29125Y-24825D03*
X29125Y-23825D03*
X29125Y-22825D03*
X29125Y-21825D03*
X29125Y-20825D03*
X29125Y-19825D03*
X29125Y-18825D03*
X29125Y-17825D03*
X29125Y-16825D03*
X29125Y-15825D03*
X29125Y-14825D03*
X29125Y-13825D03*
X29125Y-12825D03*
G54D12*
X10225Y-11875D03*
X10225Y-12875D03*
X10225Y-13875D03*
X10225Y-14875D03*
X10225Y-15875D03*
X10225Y-16875D03*
X10225Y-17875D03*
X10225Y-18875D03*
X15225Y-18875D03*
X15225Y-17875D03*
X15225Y-16875D03*
X15225Y-15875D03*
X15225Y-14875D03*
X15225Y-13875D03*
X15225Y-12875D03*
X15225Y-11875D03*
G54D13*
X6472Y-7042D03*
X39937Y-7042D03*
X39937Y-33026D03*
X6472Y-33026D03*
G54D14*
X22750Y-20700D03*
X23750Y-20700D03*
X24750Y-20700D03*
X8600Y-8500D03*
X8600Y-9500D03*
X31900Y-24800D03*
X32900Y-24800D03*
G54D15*
X36125Y-33175D03*
X35125Y-35175D03*
X37125Y-35175D03*
X26125Y-33175D03*
X25125Y-35175D03*
X27125Y-35175D03*
X21125Y-33175D03*
X20125Y-35175D03*
X22125Y-35175D03*
X16125Y-33175D03*
X15125Y-35175D03*
X17125Y-35175D03*
X11125Y-33175D03*
X10125Y-35175D03*
X12125Y-35175D03*
X31125Y-33175D03*
X30125Y-35175D03*
X32125Y-35175D03*
G54D16*
X30600Y-21700D03*
X30600Y-24700D03*
X13600Y-8500D03*
X10600Y-8500D03*
X9375Y-25575D03*
X9375Y-28575D03*
X36100Y-28600D03*
X33100Y-28600D03*
X35500Y-22400D03*
X32500Y-22400D03*
X31800Y-18500D03*
X31800Y-21500D03*
X21900Y-12400D03*
X24900Y-12400D03*
X15200Y-10000D03*
X12200Y-10000D03*
G54D12*
X36100Y-17200D03*
X35100Y-17200D03*
X36100Y-16200D03*
X35100Y-16200D03*
X36100Y-15200D03*
X35100Y-15200D03*
X36100Y-14200D03*
X35100Y-14200D03*
X36100Y-13200D03*
X35100Y-13200D03*
G54D17*
X15130Y-35185D03*
G54D18*
X14130Y-35185D03*
X13130Y-35185D03*
X12130Y-35185D03*
G54D17*
X8725Y-16875D03*
G54D18*
X8725Y-15875D03*
X8725Y-14875D03*
X8725Y-13875D03*
G54D17*
X25110Y-35185D03*
G54D18*
X24110Y-35185D03*
X23110Y-35185D03*
X22110Y-35185D03*
G54D16*
X39200Y-29100D03*
X39200Y-30100D03*
X39125Y-26075D03*
X39125Y-25075D03*
X39200Y-23500D03*
X39200Y-22500D03*
X29100Y-10000D03*
X28100Y-10000D03*
X19700Y-23500D03*
X18700Y-23500D03*
X8600Y-11000D03*
X8600Y-12000D03*
G54D12*
X24500Y-9950D03*
X23500Y-9950D03*
X22500Y-9950D03*
X21500Y-9950D03*
X20500Y-9950D03*
X19500Y-9950D03*
G54D19*
X37800Y-13300D03*
G54D20*
X37800Y-16300D03*
G54D19*
X25500Y-11200D03*
G54D20*
X22500Y-11200D03*
G54D19*
X37400Y-22500D03*
G54D20*
X37400Y-23500D03*
G54D19*
X37400Y-25100D03*
G54D20*
X37400Y-26100D03*
G54D16*
X16125Y-30825D03*
X16125Y-29325D03*
X26125Y-30825D03*
X26125Y-29325D03*
X31125Y-30825D03*
X31125Y-29325D03*
X9800Y-22950D03*
X9800Y-21450D03*
X8725Y-18875D03*
X8725Y-17875D03*
X30400Y-19700D03*
X30400Y-18700D03*
X24500Y-18450D03*
X23500Y-18450D03*
X13225Y-20875D03*
X12225Y-20875D03*
X22000Y-17400D03*
X22000Y-18400D03*
X25900Y-9000D03*
X26900Y-9000D03*
G54D14*
X23625Y-31575D03*
X23625Y-32575D03*
X13625Y-31575D03*
X13625Y-32575D03*
G54D16*
X23625Y-27575D03*
X23625Y-30575D03*
X13625Y-27575D03*
X13625Y-30575D03*
X30900Y-17600D03*
X33900Y-17600D03*
X31800Y-16700D03*
X31800Y-13700D03*
X6200Y-13300D03*
X7200Y-13300D03*
X6200Y-14700D03*
X7200Y-14700D03*
X7200Y-16100D03*
X6200Y-16100D03*
X7200Y-17500D03*
X6200Y-17500D03*
X19169Y-28838D03*
X22169Y-28838D03*
X8933Y-29921D03*
X11933Y-29921D03*
X33858Y-9720D03*
X33858Y-12720D03*
X39098Y-12007D03*
X36098Y-12007D03*
G54D21*
X11433Y-31299D03*
X10433Y-31299D03*
G54D22*
X9433Y-31299D03*
G54D21*
X21669Y-30314D03*
X20669Y-30314D03*
G54D22*
X19669Y-30314D03*
G54D16*
X34600Y-18400D03*
X36200Y-20200D03*
X36000Y-24200D03*
X33000Y-20000D03*
X19400Y-25600D03*
X30200Y-26400D03*
X33070Y-32185D03*
X29429Y-32086D03*
X18200Y-19600D03*
X34600Y-24400D03*
X33000Y-21400D03*
X15600Y-23400D03*
X6200Y-24200D03*
X31400Y-6800D03*
X31400Y-10000D03*
X32200Y-10000D03*
X34000Y-16400D03*
X30600Y-10000D03*
X26600Y-9950D03*
X40000Y-17400D03*
X37600Y-17400D03*
X21800Y-19600D03*
X33858Y-7775D03*
X33800Y-14200D03*
X30800Y-13800D03*
X30800Y-11800D03*
X38600Y-27800D03*
X37400Y-18400D03*
X18375Y-32075D03*
X17625Y-26825D03*
X26400Y-11000D03*
X35200Y-11000D03*
X37800Y-11000D03*
X29600Y-11200D03*
G54D23*
X37400Y-22500D02*
X37400Y-21000D01*
X37400Y-21000D02*
X37000Y-20600D01*
X37000Y-20600D02*
X36600Y-20600D01*
X33900Y-17700D02*
X33900Y-17600D01*
X33900Y-17700D02*
X34600Y-18400D01*
X36600Y-20600D02*
X36200Y-20200D01*
X35500Y-22400D02*
X37300Y-22400D01*
X37300Y-22400D02*
X37400Y-22500D01*
X37400Y-22500D02*
X39200Y-22500D01*
X31800Y-18500D02*
X31800Y-18800D01*
X36900Y-25100D02*
X37400Y-25100D01*
X36000Y-24200D02*
X36900Y-25100D01*
X31800Y-18800D02*
X33000Y-20000D01*
X37400Y-25100D02*
X39100Y-25100D01*
X39100Y-25100D02*
X39125Y-25075D01*
X31800Y-13700D02*
X31800Y-15200D01*
X31800Y-15200D02*
X32600Y-16000D01*
X32600Y-16000D02*
X32600Y-17700D01*
X32600Y-17700D02*
X31800Y-18500D01*
X32223Y-8623D02*
X34804Y-8623D01*
X34804Y-8623D02*
X36800Y-10618D01*
X31800Y-8200D02*
X29200Y-8200D01*
X32223Y-8623D02*
X31800Y-8200D01*
X36800Y-11600D02*
X36800Y-10618D01*
X36100Y-14200D02*
X36600Y-14200D01*
X36800Y-14000D02*
X36800Y-11600D01*
X36600Y-14200D02*
X36800Y-14000D01*
X24425Y-15825D02*
X26125Y-15825D01*
X29200Y-8200D02*
X19200Y-8200D01*
X19200Y-8200D02*
X18600Y-8800D01*
X18600Y-8800D02*
X18600Y-10600D01*
X18600Y-10600D02*
X19000Y-11000D01*
X19000Y-11000D02*
X19000Y-12800D01*
X19000Y-12800D02*
X21200Y-15000D01*
X21200Y-15000D02*
X23600Y-15000D01*
X23600Y-15000D02*
X24425Y-15825D01*
X29125Y-24825D02*
X29625Y-24825D01*
X36100Y-26900D02*
X36100Y-28600D01*
X36000Y-26800D02*
X36100Y-26900D01*
X34200Y-26800D02*
X36000Y-26800D01*
X33800Y-26400D02*
X34200Y-26800D01*
X32200Y-26400D02*
X33800Y-26400D01*
X31400Y-25600D02*
X32200Y-26400D01*
X30400Y-25600D02*
X31400Y-25600D01*
X29625Y-24825D02*
X30400Y-25600D01*
X32400Y-23825D02*
X33225Y-23825D01*
X34800Y-22250D02*
X34800Y-19200D01*
X33225Y-23825D02*
X34800Y-22250D01*
X29125Y-23825D02*
X32400Y-23825D01*
X38600Y-15200D02*
X36100Y-15200D01*
X34800Y-19200D02*
X37800Y-19200D01*
X37800Y-19200D02*
X39000Y-18000D01*
X39000Y-18000D02*
X39000Y-15600D01*
X39000Y-15600D02*
X38600Y-15200D01*
X31600Y-22825D02*
X31600Y-23000D01*
X33575Y-22775D02*
X33575Y-22624D01*
X33020Y-23331D02*
X33575Y-22775D01*
X31931Y-23331D02*
X33020Y-23331D01*
X31600Y-23000D02*
X31931Y-23331D01*
X34000Y-19200D02*
X33200Y-18400D01*
X34000Y-22200D02*
X34000Y-19200D01*
X33575Y-22624D02*
X34000Y-22200D01*
X35100Y-15200D02*
X34000Y-15200D01*
X33200Y-16000D02*
X33200Y-18400D01*
X34000Y-15200D02*
X33200Y-16000D01*
X31600Y-22825D02*
X29125Y-22825D01*
X29125Y-25825D02*
X29625Y-25825D01*
X19375Y-25575D02*
X9375Y-25575D01*
X19400Y-25600D02*
X19375Y-25575D01*
X29625Y-25825D02*
X30200Y-26400D01*
X16000Y-11875D02*
X16275Y-11875D01*
X17000Y-12600D02*
X17000Y-14000D01*
X16275Y-11875D02*
X17000Y-12600D01*
X20800Y-20400D02*
X20800Y-17800D01*
X20800Y-17800D02*
X17000Y-14000D01*
X22900Y-22450D02*
X22850Y-22450D01*
X22850Y-22450D02*
X20800Y-20400D01*
X26125Y-22825D02*
X24625Y-22825D01*
X24625Y-22825D02*
X24250Y-22450D01*
X24250Y-22450D02*
X22900Y-22450D01*
X16000Y-11875D02*
X15225Y-11875D01*
X16200Y-18875D02*
X16725Y-18875D01*
X16725Y-18875D02*
X18100Y-17500D01*
X18700Y-18100D02*
X19200Y-18600D01*
X19200Y-18600D02*
X19200Y-20200D01*
X18100Y-17500D02*
X18700Y-18100D01*
X15225Y-18875D02*
X16200Y-18875D01*
X24375Y-24825D02*
X23500Y-23950D01*
X23500Y-23950D02*
X21800Y-23950D01*
X24375Y-24825D02*
X26125Y-24825D01*
X21750Y-23950D02*
X19875Y-22075D01*
X21800Y-23950D02*
X21750Y-23950D01*
X19200Y-21400D02*
X19875Y-22075D01*
X19200Y-20200D02*
X19200Y-21400D01*
X28543Y-29325D02*
X28543Y-31200D01*
X34060Y-33175D02*
X36125Y-33175D01*
X33070Y-32185D02*
X34060Y-33175D01*
X28543Y-31200D02*
X29429Y-32086D01*
X19169Y-28838D02*
X16611Y-28838D01*
X16611Y-28838D02*
X16125Y-29325D01*
X19669Y-30314D02*
X19669Y-29338D01*
X19669Y-29338D02*
X19169Y-28838D01*
X9433Y-31299D02*
X8200Y-31299D01*
X8200Y-31299D02*
X6472Y-33026D01*
X8933Y-29921D02*
X8933Y-30799D01*
X8933Y-30799D02*
X9433Y-31299D01*
G54D24*
X6750Y-29575D02*
X7025Y-29575D01*
X12175Y-29325D02*
X16125Y-29325D01*
X7025Y-29575D02*
X8600Y-28000D01*
X8600Y-28000D02*
X10850Y-28000D01*
X10850Y-28000D02*
X12175Y-29325D01*
G54D23*
X18200Y-21200D02*
X18200Y-19600D01*
X39937Y-7042D02*
X39042Y-7042D01*
X39042Y-7042D02*
X38800Y-6800D01*
X40000Y-8400D02*
X40000Y-7105D01*
X40000Y-7105D02*
X39937Y-7042D01*
X40000Y-31200D02*
X40000Y-32963D01*
X40000Y-32963D02*
X39937Y-33026D01*
X39200Y-29100D02*
X40000Y-29100D01*
X40000Y-29100D02*
X40000Y-29200D01*
X36125Y-33175D02*
X39788Y-33175D01*
X39788Y-33175D02*
X39937Y-33026D01*
X6200Y-29575D02*
X6200Y-32754D01*
X6200Y-32754D02*
X6472Y-33026D01*
X6472Y-7042D02*
X6472Y-7927D01*
X6472Y-7927D02*
X6200Y-8200D01*
X6472Y-7042D02*
X7357Y-7042D01*
X7600Y-6800D02*
X6472Y-7042D01*
X7357Y-7042D02*
X7600Y-6800D01*
X36125Y-33175D02*
X39375Y-33175D01*
X39375Y-33175D02*
X39400Y-33200D01*
X40000Y-26075D02*
X40000Y-29200D01*
X40000Y-29200D02*
X40000Y-31075D01*
X40000Y-31075D02*
X40000Y-31200D01*
X40000Y-31200D02*
X40000Y-31075D01*
X40000Y-23500D02*
X40000Y-26075D01*
X40000Y-26075D02*
X40000Y-26000D01*
X40000Y-26000D02*
X40000Y-26075D01*
X40000Y-17400D02*
X40000Y-23500D01*
X40000Y-23500D02*
X40000Y-23600D01*
X40000Y-23600D02*
X40000Y-23500D01*
X40000Y-17400D02*
X40000Y-8400D01*
X40000Y-8400D02*
X40000Y-8200D01*
X31400Y-6800D02*
X38800Y-6800D01*
X31400Y-6800D02*
X7400Y-6800D01*
X6200Y-24200D02*
X6200Y-29575D01*
X6200Y-29575D02*
X6200Y-29600D01*
X6200Y-29600D02*
X6200Y-29575D01*
X6200Y-18600D02*
X6200Y-24200D01*
X6200Y-17500D02*
X6200Y-18600D01*
X6200Y-12000D02*
X6200Y-8200D01*
X6200Y-8200D02*
X6200Y-8000D01*
X6200Y-13300D02*
X6200Y-12000D01*
X24500Y-9950D02*
X23500Y-9950D01*
X32200Y-20400D02*
X32200Y-20600D01*
X30500Y-18700D02*
X32200Y-20400D01*
X30400Y-18700D02*
X30500Y-18700D01*
X34000Y-25000D02*
X34000Y-25600D01*
X34600Y-24400D02*
X34000Y-25000D01*
X32200Y-20600D02*
X33000Y-21400D01*
X39200Y-23500D02*
X40000Y-23500D01*
X37400Y-23500D02*
X39200Y-23500D01*
X39125Y-26075D02*
X40000Y-26075D01*
X37400Y-26100D02*
X39100Y-26100D01*
X39100Y-26100D02*
X39125Y-26075D01*
X32900Y-24800D02*
X33200Y-24800D01*
X33200Y-24800D02*
X34000Y-25600D01*
X34500Y-26100D02*
X37400Y-26100D01*
X34000Y-25600D02*
X34500Y-26100D01*
X18700Y-23500D02*
X15700Y-23500D01*
X15700Y-23500D02*
X15600Y-23400D01*
X31400Y-10000D02*
X30600Y-10000D01*
X32200Y-10000D02*
X31400Y-10000D01*
X35100Y-16200D02*
X34200Y-16200D01*
X34200Y-16200D02*
X34000Y-16400D01*
X36100Y-17200D02*
X37400Y-17200D01*
X37400Y-17200D02*
X37600Y-17400D01*
X24225Y-19825D02*
X22025Y-19825D01*
X18500Y-23500D02*
X18700Y-23500D01*
X18200Y-23200D02*
X18500Y-23500D01*
X18200Y-21200D02*
X18200Y-23200D01*
X22025Y-19825D02*
X21800Y-19600D01*
X24500Y-9950D02*
X26600Y-9950D01*
X26600Y-9950D02*
X28050Y-9950D01*
X28050Y-9950D02*
X28100Y-10000D01*
X12225Y-20875D02*
X10375Y-20875D01*
X10375Y-20875D02*
X9800Y-21450D01*
X29125Y-18825D02*
X30275Y-18825D01*
X30275Y-18825D02*
X30400Y-18700D01*
X7600Y-18600D02*
X6200Y-18600D01*
X8325Y-17875D02*
X7600Y-18600D01*
X8725Y-17875D02*
X8325Y-17875D01*
X22000Y-18400D02*
X23450Y-18400D01*
X23450Y-18400D02*
X23500Y-18450D01*
X23500Y-18450D02*
X23500Y-19100D01*
X23500Y-19100D02*
X24225Y-19825D01*
X8600Y-12000D02*
X6200Y-12000D01*
X6200Y-16100D02*
X6200Y-17500D01*
X6200Y-14700D02*
X6200Y-16100D01*
X6200Y-13300D02*
X6200Y-14700D01*
X10225Y-11875D02*
X8725Y-11875D01*
X8725Y-11875D02*
X8600Y-12000D01*
X6750Y-29575D02*
X6200Y-29575D01*
X23750Y-20700D02*
X23750Y-20200D01*
X24125Y-19825D02*
X24225Y-19825D01*
X24225Y-19825D02*
X26125Y-19825D01*
X23750Y-20200D02*
X24125Y-19825D01*
X12225Y-20875D02*
X12225Y-18875D01*
X11225Y-17875D02*
X10225Y-17875D01*
X12225Y-18875D02*
X11225Y-17875D01*
X37125Y-35175D02*
X37125Y-34175D01*
X37125Y-34175D02*
X36125Y-33175D01*
X6750Y-29575D02*
X6625Y-29575D01*
X31125Y-29325D02*
X28543Y-29325D01*
X28543Y-29325D02*
X26125Y-29325D01*
X10225Y-17875D02*
X8725Y-17875D01*
X37125Y-35175D02*
X35125Y-35175D01*
X32480Y-7600D02*
X33682Y-7600D01*
X33682Y-7600D02*
X33858Y-7775D01*
X33800Y-14200D02*
X35100Y-14200D01*
X29600Y-7600D02*
X32480Y-7600D01*
X17800Y-9400D02*
X17800Y-8600D01*
X24025Y-16825D02*
X23000Y-15800D01*
X23000Y-15800D02*
X21000Y-15800D01*
X21000Y-15800D02*
X18400Y-13200D01*
X18400Y-13200D02*
X18400Y-11400D01*
X18400Y-11400D02*
X17800Y-10800D01*
X17800Y-10800D02*
X17800Y-9400D01*
X26125Y-16825D02*
X24025Y-16825D01*
X18800Y-7600D02*
X29600Y-7600D01*
X17800Y-8600D02*
X18800Y-7600D01*
X22750Y-20700D02*
X22750Y-21200D01*
X23375Y-21825D02*
X26125Y-21825D01*
X22750Y-21200D02*
X23375Y-21825D01*
X26125Y-25825D02*
X24225Y-25825D01*
X20100Y-23500D02*
X19700Y-23500D01*
X21300Y-24700D02*
X20100Y-23500D01*
X23100Y-24700D02*
X21300Y-24700D01*
X24225Y-25825D02*
X23100Y-24700D01*
X28750Y-10850D02*
X28350Y-10850D01*
X28350Y-10850D02*
X27500Y-11700D01*
X29100Y-10000D02*
X29100Y-10500D01*
X29100Y-10500D02*
X28750Y-10850D01*
X26375Y-12825D02*
X26125Y-12825D01*
X27500Y-11700D02*
X26375Y-12825D01*
X26900Y-9000D02*
X28800Y-9000D01*
X29100Y-9300D02*
X29100Y-10000D01*
X28800Y-9000D02*
X29100Y-9300D01*
X26125Y-12825D02*
X25325Y-12825D01*
X25325Y-12825D02*
X24900Y-12400D01*
X25900Y-9000D02*
X20000Y-9000D01*
X19500Y-9500D02*
X19500Y-9950D01*
X20000Y-9000D02*
X19500Y-9500D01*
X15225Y-14875D02*
X15225Y-13875D01*
X30400Y-19700D02*
X29250Y-19700D01*
X29250Y-19700D02*
X29125Y-19825D01*
X24750Y-20700D02*
X25250Y-20700D01*
X25375Y-20825D02*
X26125Y-20825D01*
X25250Y-20700D02*
X25375Y-20825D01*
X36100Y-16200D02*
X37700Y-16200D01*
X37700Y-16200D02*
X37800Y-16300D01*
X30600Y-24700D02*
X31800Y-24700D01*
X31800Y-24700D02*
X31900Y-24800D01*
X29125Y-21825D02*
X30475Y-21825D01*
X30475Y-21825D02*
X30600Y-21700D01*
X10600Y-8500D02*
X8600Y-8500D01*
X8725Y-16875D02*
X8325Y-16875D01*
X7900Y-17500D02*
X7200Y-17500D01*
X8000Y-17400D02*
X7900Y-17500D01*
X8000Y-17200D02*
X8000Y-17400D01*
X8325Y-16875D02*
X8000Y-17200D01*
G54D25*
X8725Y-16875D02*
X10225Y-16875D01*
G54D23*
X7200Y-13300D02*
X8150Y-13300D01*
X8150Y-13300D02*
X8725Y-13875D01*
G54D25*
X10225Y-13875D02*
X8725Y-13875D01*
G54D23*
X13625Y-31575D02*
X13625Y-30575D01*
X23625Y-31575D02*
X23625Y-30575D01*
X33100Y-28600D02*
X22407Y-28600D01*
X22407Y-28600D02*
X22169Y-28838D01*
X21669Y-30314D02*
X21669Y-29314D01*
X22342Y-28641D02*
X22169Y-28838D01*
X21669Y-29314D02*
X22342Y-28641D01*
X9375Y-28575D02*
X9874Y-28575D01*
X11220Y-29921D02*
X11933Y-29921D01*
X9874Y-28575D02*
X11220Y-29921D01*
X11433Y-31299D02*
X11614Y-31299D01*
X11933Y-30980D02*
X11933Y-29921D01*
X11614Y-31299D02*
X11933Y-30980D01*
X30900Y-17600D02*
X29350Y-17600D01*
X29350Y-17600D02*
X29125Y-17825D01*
X31800Y-16700D02*
X29250Y-16700D01*
X29250Y-16700D02*
X29125Y-16825D01*
X12200Y-10000D02*
X9100Y-10000D01*
X9100Y-10000D02*
X8600Y-9500D01*
X8600Y-11000D02*
X8600Y-9500D01*
X7200Y-14700D02*
X7800Y-14700D01*
X7975Y-14875D02*
X8725Y-14875D01*
X7800Y-14700D02*
X7975Y-14875D01*
G54D25*
X8725Y-14875D02*
X10225Y-14875D01*
G54D23*
X7200Y-16100D02*
X7800Y-16100D01*
X8025Y-15875D02*
X8725Y-15875D01*
X7800Y-16100D02*
X8025Y-15875D01*
G54D25*
X10225Y-15875D02*
X8725Y-15875D01*
X20669Y-30314D02*
X20669Y-31594D01*
G54D26*
X21125Y-32050D02*
X20669Y-31594D01*
X21125Y-32050D02*
X21125Y-33175D01*
G54D23*
X21125Y-33175D02*
X23025Y-33175D01*
X23025Y-33175D02*
X23625Y-32575D01*
G54D26*
X20125Y-35175D02*
X20125Y-34175D01*
X20125Y-34175D02*
X21125Y-33175D01*
X22125Y-35175D02*
X22125Y-34175D01*
X22125Y-34175D02*
X21125Y-33175D01*
X22125Y-35175D02*
X20125Y-35175D01*
G54D25*
X23110Y-35185D02*
X22135Y-35185D01*
X22135Y-35185D02*
X22125Y-35175D01*
G54D26*
X11125Y-33175D02*
X10433Y-32483D01*
G54D25*
X10433Y-31299D02*
X10433Y-32483D01*
G54D23*
X11125Y-33175D02*
X13025Y-33175D01*
X13025Y-33175D02*
X13625Y-32575D01*
G54D25*
X12125Y-35175D02*
X13120Y-35175D01*
X13120Y-35175D02*
X13130Y-35185D01*
G54D26*
X12125Y-35175D02*
X12125Y-34175D01*
X12125Y-34175D02*
X11125Y-33175D01*
X10125Y-35175D02*
X10125Y-34175D01*
X10125Y-34175D02*
X11125Y-33175D01*
X12125Y-35175D02*
X10125Y-35175D01*
G54D23*
X20900Y-13900D02*
X21300Y-14300D01*
X23900Y-14300D02*
X23900Y-14350D01*
X23850Y-14300D02*
X23900Y-14300D01*
X21300Y-14300D02*
X23850Y-14300D01*
X19750Y-12200D02*
X19750Y-12750D01*
X19750Y-12750D02*
X20900Y-13900D01*
X20500Y-10700D02*
X19750Y-11450D01*
X19750Y-11450D02*
X19750Y-12200D01*
X26125Y-14825D02*
X25000Y-14825D01*
X25000Y-14825D02*
X24375Y-14825D01*
X24375Y-14825D02*
X23900Y-14350D01*
X20500Y-10700D02*
X20500Y-9950D01*
X21500Y-9950D02*
X21500Y-10950D01*
X24375Y-13825D02*
X26125Y-13825D01*
X24000Y-13450D02*
X24375Y-13825D01*
X21500Y-13450D02*
X24000Y-13450D01*
X20750Y-12700D02*
X21500Y-13450D01*
X20750Y-11700D02*
X20750Y-12700D01*
X21500Y-10950D02*
X20750Y-11700D01*
X22500Y-9950D02*
X22500Y-11200D01*
X29125Y-12825D02*
X33753Y-12825D01*
X33753Y-12825D02*
X33858Y-12720D01*
X33858Y-12720D02*
X34620Y-12720D01*
X34620Y-12720D02*
X34725Y-12825D01*
X34725Y-12825D02*
X35100Y-13200D01*
X34725Y-12825D02*
X35100Y-13200D01*
X36098Y-12007D02*
X36098Y-11898D01*
X36098Y-11898D02*
X36000Y-11800D01*
X36098Y-12007D02*
X36098Y-13198D01*
X36098Y-13198D02*
X36100Y-13200D01*
X30775Y-13825D02*
X29125Y-13825D01*
X30800Y-13800D02*
X30775Y-13825D01*
X36000Y-11800D02*
X30800Y-11800D01*
X15225Y-12875D02*
X15875Y-12875D01*
X22500Y-23200D02*
X23750Y-23200D01*
X23750Y-23200D02*
X24375Y-23825D01*
X24375Y-23825D02*
X26125Y-23825D01*
X22400Y-23200D02*
X20300Y-21100D01*
X22500Y-23200D02*
X22400Y-23200D01*
X20000Y-20800D02*
X20300Y-21100D01*
X20000Y-18200D02*
X20000Y-20800D01*
X16200Y-14400D02*
X20000Y-18200D01*
X16200Y-13200D02*
X16200Y-14400D01*
X15875Y-12875D02*
X16200Y-13200D01*
X17100Y-11600D02*
X17200Y-11600D01*
X17800Y-12200D02*
X17800Y-13700D01*
X17200Y-11600D02*
X17800Y-12200D01*
X22000Y-17400D02*
X25000Y-17400D01*
X25425Y-17825D02*
X26125Y-17825D01*
X25000Y-17400D02*
X25425Y-17825D01*
X19200Y-15100D02*
X19200Y-15200D01*
X16700Y-10000D02*
X17100Y-10400D01*
X17100Y-10400D02*
X17100Y-11600D01*
X17800Y-13700D02*
X19200Y-15100D01*
X15200Y-10000D02*
X16700Y-10000D01*
X21400Y-17400D02*
X22000Y-17400D01*
X19200Y-15200D02*
X21400Y-17400D01*
G54D26*
X34400Y-28400D02*
X34400Y-30825D01*
X32625Y-27575D02*
X32800Y-27400D01*
X32800Y-27400D02*
X33400Y-27400D01*
X33400Y-27400D02*
X34400Y-28400D01*
X23625Y-27575D02*
X32625Y-27575D01*
X34400Y-30825D02*
X34375Y-30825D01*
G54D25*
X39200Y-30100D02*
X37900Y-30100D01*
X37900Y-30100D02*
X37875Y-30075D01*
G54D23*
X37875Y-28525D02*
X37875Y-30075D01*
X38600Y-27800D02*
X37875Y-28525D01*
X35100Y-17700D02*
X35800Y-18400D01*
X35800Y-18400D02*
X37400Y-18400D01*
X35100Y-17200D02*
X35100Y-17700D01*
G54D26*
X13625Y-27575D02*
X12975Y-27575D01*
G54D25*
X8000Y-19600D02*
X8725Y-18875D01*
G54D26*
X8000Y-26800D02*
X8000Y-19600D01*
X8200Y-27000D02*
X8000Y-26800D01*
X12400Y-27000D02*
X8200Y-27000D01*
X12975Y-27575D02*
X12400Y-27000D01*
X34375Y-30825D02*
X37125Y-30825D01*
X37125Y-30825D02*
X37875Y-30075D01*
X34375Y-30825D02*
X33125Y-30825D01*
X32200Y-30825D02*
X31125Y-30825D01*
X33125Y-30825D02*
X32200Y-30825D01*
G54D25*
X37875Y-30075D02*
X37750Y-30200D01*
G54D26*
X16125Y-32075D02*
X18375Y-32075D01*
X23625Y-27575D02*
X22875Y-26825D01*
X22875Y-26825D02*
X17625Y-26825D01*
X17625Y-26825D02*
X14375Y-26825D01*
X14375Y-26825D02*
X13625Y-27575D01*
G54D25*
X10225Y-18875D02*
X8725Y-18875D01*
G54D26*
X16125Y-33175D02*
X16125Y-32075D01*
X16125Y-32075D02*
X16125Y-30825D01*
X26125Y-33175D02*
X26125Y-30825D01*
X31125Y-33175D02*
X31125Y-30825D01*
G54D25*
X14130Y-35185D02*
X15115Y-35185D01*
X15115Y-35185D02*
X15125Y-35175D01*
G54D26*
X15125Y-35175D02*
X15125Y-34175D01*
X15125Y-34175D02*
X16125Y-33175D01*
X17125Y-35175D02*
X17125Y-34175D01*
X17125Y-34175D02*
X16125Y-33175D01*
X17125Y-35175D02*
X15125Y-35175D01*
G54D25*
X24110Y-35185D02*
X25115Y-35185D01*
X25115Y-35185D02*
X25125Y-35175D01*
G54D26*
X25125Y-35175D02*
X25125Y-34175D01*
X25125Y-34175D02*
X26125Y-33175D01*
X27125Y-35175D02*
X27125Y-34175D01*
X27125Y-34175D02*
X26125Y-33175D01*
X27125Y-35175D02*
X25125Y-35175D01*
X30125Y-35175D02*
X27125Y-35175D01*
X32125Y-35175D02*
X32125Y-34175D01*
X32125Y-34175D02*
X31125Y-33175D01*
X32125Y-35175D02*
X30125Y-35175D01*
X30125Y-35175D02*
X30125Y-34075D01*
X31025Y-33175D02*
X31125Y-33175D01*
X30125Y-34075D02*
X31025Y-33175D01*
G54D23*
X33858Y-9720D02*
X33858Y-11000D01*
X33858Y-11000D02*
X33858Y-10925D01*
X33858Y-10925D02*
X33858Y-11000D01*
X39098Y-12007D02*
X37800Y-12007D01*
X37800Y-12007D02*
X37795Y-12007D01*
X37795Y-12007D02*
X37800Y-12007D01*
X29600Y-11200D02*
X29600Y-11600D01*
X29400Y-11800D02*
X28500Y-11800D01*
X29600Y-11600D02*
X29400Y-11800D01*
X27500Y-12800D02*
X27500Y-13500D01*
X28500Y-11800D02*
X27500Y-12800D01*
X31800Y-21500D02*
X31800Y-21700D01*
X31800Y-21700D02*
X32500Y-22400D01*
X29125Y-20825D02*
X31125Y-20825D01*
X31125Y-20825D02*
X31800Y-21500D01*
X25500Y-11200D02*
X26200Y-11200D01*
X26200Y-11200D02*
X26400Y-11000D01*
X9800Y-22950D02*
X12700Y-22950D01*
X12700Y-22950D02*
X13225Y-22425D01*
X29600Y-11200D02*
X29800Y-11200D01*
X29800Y-11200D02*
X30000Y-11000D01*
X30000Y-11000D02*
X33858Y-11000D01*
X33858Y-11000D02*
X35200Y-11000D01*
X37800Y-11000D02*
X37800Y-12007D01*
X37800Y-12007D02*
X37800Y-13300D01*
X20200Y-24800D02*
X15600Y-24800D01*
X27500Y-26300D02*
X27300Y-26500D01*
X27300Y-26500D02*
X24000Y-26500D01*
X24000Y-26500D02*
X22900Y-25400D01*
X22900Y-25400D02*
X20800Y-25400D01*
X20800Y-25400D02*
X20200Y-24800D01*
X27500Y-20200D02*
X27500Y-26300D01*
X13225Y-22425D02*
X13225Y-20875D01*
X15600Y-24800D02*
X13225Y-22425D01*
X13600Y-8500D02*
X13600Y-12000D01*
X13600Y-12000D02*
X12725Y-12875D01*
X25500Y-11200D02*
X24400Y-11200D01*
X23200Y-12400D02*
X21900Y-12400D01*
X24400Y-11200D02*
X23200Y-12400D01*
X24500Y-18450D02*
X25000Y-18450D01*
X25375Y-18825D02*
X26125Y-18825D01*
X25000Y-18450D02*
X25375Y-18825D01*
X27500Y-13500D02*
X27500Y-19700D01*
X29125Y-20825D02*
X28125Y-20825D01*
X28125Y-20825D02*
X27500Y-20200D01*
X27500Y-20200D02*
X27500Y-19700D01*
X26875Y-18825D02*
X26125Y-18825D01*
X27500Y-19700D02*
X27500Y-19450D01*
X27500Y-19450D02*
X26875Y-18825D01*
X15225Y-15875D02*
X12725Y-15875D01*
X12725Y-12875D02*
X10225Y-12875D01*
X12725Y-15875D02*
X12725Y-12875D01*
X15225Y-16875D02*
X15225Y-15875D01*
X15225Y-17875D02*
X15225Y-16875D01*
X13225Y-20875D02*
X13225Y-18875D01*
X14225Y-17875D02*
X15225Y-17875D01*
X13225Y-18875D02*
X14225Y-17875D01*
G54D10*
G36*
X15302Y-25128D02*
X9838Y-25128D01*
X9740Y-25029D01*
X9503Y-24931D01*
X9247Y-24931D01*
X9010Y-25028D01*
X8840Y-25198D01*
X8840Y-19669D01*
X8991Y-19518D01*
X9831Y-19518D01*
X9880Y-19518D01*
X10668Y-19518D01*
X10760Y-19480D01*
X10830Y-19410D01*
X10868Y-19318D01*
X10868Y-19219D01*
X10868Y-18431D01*
X10845Y-18375D01*
X10868Y-18318D01*
X10868Y-17987D01*
X10806Y-17925D01*
X10275Y-17925D01*
X10275Y-17932D01*
X10175Y-17932D01*
X10175Y-17925D01*
X9643Y-17925D01*
X9581Y-17987D01*
X9581Y-18231D01*
X9251Y-18231D01*
X9283Y-18219D01*
X9372Y-17979D01*
X9363Y-17723D01*
X9283Y-17530D01*
X9251Y-17518D01*
X9581Y-17518D01*
X9581Y-17762D01*
X9643Y-17825D01*
X10175Y-17825D01*
X10175Y-17817D01*
X10275Y-17817D01*
X10275Y-17825D01*
X10806Y-17825D01*
X10868Y-17762D01*
X10868Y-17431D01*
X10845Y-17374D01*
X10868Y-17318D01*
X10868Y-17219D01*
X10868Y-16431D01*
X10845Y-16374D01*
X10868Y-16318D01*
X10868Y-16219D01*
X10868Y-15431D01*
X10845Y-15374D01*
X10868Y-15318D01*
X10868Y-15219D01*
X10868Y-14431D01*
X10845Y-14374D01*
X10868Y-14318D01*
X10868Y-14219D01*
X10868Y-13431D01*
X10845Y-13374D01*
X10867Y-13321D01*
X12278Y-13321D01*
X12278Y-15875D01*
X12312Y-16046D01*
X12409Y-16190D01*
X12553Y-16287D01*
X12725Y-16321D01*
X14582Y-16321D01*
X14604Y-16375D01*
X14581Y-16431D01*
X14581Y-16530D01*
X14581Y-17318D01*
X14604Y-17375D01*
X14582Y-17428D01*
X14225Y-17428D01*
X14053Y-17462D01*
X13909Y-17559D01*
X12909Y-18559D01*
X12812Y-18703D01*
X12778Y-18875D01*
X12778Y-20411D01*
X12692Y-20497D01*
X12678Y-20491D01*
X12608Y-20562D01*
X12608Y-20421D01*
X12569Y-20316D01*
X12329Y-20227D01*
X12073Y-20236D01*
X11880Y-20316D01*
X11841Y-20421D01*
X12225Y-20804D01*
X12608Y-20421D01*
X12608Y-20562D01*
X12295Y-20875D01*
X12678Y-21258D01*
X12692Y-21252D01*
X12778Y-21338D01*
X12778Y-22239D01*
X12608Y-22410D01*
X12608Y-21328D01*
X12225Y-20945D01*
X12154Y-21016D01*
X12154Y-20875D01*
X11771Y-20491D01*
X11666Y-20530D01*
X11577Y-20770D01*
X11586Y-21026D01*
X11666Y-21219D01*
X11771Y-21258D01*
X12154Y-20875D01*
X12154Y-21016D01*
X11841Y-21328D01*
X11880Y-21433D01*
X12120Y-21522D01*
X12376Y-21513D01*
X12569Y-21433D01*
X12608Y-21328D01*
X12608Y-22410D01*
X12514Y-22503D01*
X10447Y-22503D01*
X10447Y-21554D01*
X10438Y-21298D01*
X10358Y-21105D01*
X10253Y-21066D01*
X10183Y-21137D01*
X10183Y-20996D01*
X10144Y-20891D01*
X9904Y-20802D01*
X9648Y-20811D01*
X9455Y-20891D01*
X9416Y-20996D01*
X9800Y-21379D01*
X10183Y-20996D01*
X10183Y-21137D01*
X9870Y-21450D01*
X10253Y-21833D01*
X10358Y-21794D01*
X10447Y-21554D01*
X10447Y-22503D01*
X10263Y-22503D01*
X10183Y-22422D01*
X10183Y-21903D01*
X9800Y-21520D01*
X9729Y-21591D01*
X9729Y-21450D01*
X9346Y-21066D01*
X9241Y-21105D01*
X9152Y-21345D01*
X9161Y-21601D01*
X9241Y-21794D01*
X9346Y-21833D01*
X9729Y-21450D01*
X9729Y-21591D01*
X9416Y-21903D01*
X9455Y-22008D01*
X9695Y-22097D01*
X9951Y-22088D01*
X10144Y-22008D01*
X10183Y-21903D01*
X10183Y-22422D01*
X10165Y-22404D01*
X9928Y-22306D01*
X9672Y-22306D01*
X9435Y-22403D01*
X9254Y-22584D01*
X9156Y-22821D01*
X9156Y-23077D01*
X9253Y-23314D01*
X9434Y-23495D01*
X9671Y-23593D01*
X9927Y-23593D01*
X10164Y-23496D01*
X10263Y-23396D01*
X12700Y-23396D01*
X12871Y-23362D01*
X12871Y-23362D01*
X13015Y-23265D01*
X13225Y-23056D01*
X15284Y-25115D01*
X15302Y-25128D01*
X15302Y-25128D01*
G37*
G54D27*
X15302Y-25128D02*
X9838Y-25128D01*
X9740Y-25029D01*
X9503Y-24931D01*
X9247Y-24931D01*
X9010Y-25028D01*
X8840Y-25198D01*
X8840Y-19669D01*
X8991Y-19518D01*
X9831Y-19518D01*
X9880Y-19518D01*
X10668Y-19518D01*
X10760Y-19480D01*
X10830Y-19410D01*
X10868Y-19318D01*
X10868Y-19219D01*
X10868Y-18431D01*
X10845Y-18375D01*
X10868Y-18318D01*
X10868Y-17987D01*
X10806Y-17925D01*
X10275Y-17925D01*
X10275Y-17932D01*
X10175Y-17932D01*
X10175Y-17925D01*
X9643Y-17925D01*
X9581Y-17987D01*
X9581Y-18231D01*
X9251Y-18231D01*
X9283Y-18219D01*
X9372Y-17979D01*
X9363Y-17723D01*
X9283Y-17530D01*
X9251Y-17518D01*
X9581Y-17518D01*
X9581Y-17762D01*
X9643Y-17825D01*
X10175Y-17825D01*
X10175Y-17817D01*
X10275Y-17817D01*
X10275Y-17825D01*
X10806Y-17825D01*
X10868Y-17762D01*
X10868Y-17431D01*
X10845Y-17374D01*
X10868Y-17318D01*
X10868Y-17219D01*
X10868Y-16431D01*
X10845Y-16374D01*
X10868Y-16318D01*
X10868Y-16219D01*
X10868Y-15431D01*
X10845Y-15374D01*
X10868Y-15318D01*
X10868Y-15219D01*
X10868Y-14431D01*
X10845Y-14374D01*
X10868Y-14318D01*
X10868Y-14219D01*
X10868Y-13431D01*
X10845Y-13374D01*
X10867Y-13321D01*
X12278Y-13321D01*
X12278Y-15875D01*
X12312Y-16046D01*
X12409Y-16190D01*
X12553Y-16287D01*
X12725Y-16321D01*
X14582Y-16321D01*
X14604Y-16375D01*
X14581Y-16431D01*
X14581Y-16530D01*
X14581Y-17318D01*
X14604Y-17375D01*
X14582Y-17428D01*
X14225Y-17428D01*
X14053Y-17462D01*
X13909Y-17559D01*
X12909Y-18559D01*
X12812Y-18703D01*
X12778Y-18875D01*
X12778Y-20411D01*
X12692Y-20497D01*
X12678Y-20491D01*
X12608Y-20562D01*
X12608Y-20421D01*
X12569Y-20316D01*
X12329Y-20227D01*
X12073Y-20236D01*
X11880Y-20316D01*
X11841Y-20421D01*
X12225Y-20804D01*
X12608Y-20421D01*
X12608Y-20562D01*
X12295Y-20875D01*
X12678Y-21258D01*
X12692Y-21252D01*
X12778Y-21338D01*
X12778Y-22239D01*
X12608Y-22410D01*
X12608Y-21328D01*
X12225Y-20945D01*
X12154Y-21016D01*
X12154Y-20875D01*
X11771Y-20491D01*
X11666Y-20530D01*
X11577Y-20770D01*
X11586Y-21026D01*
X11666Y-21219D01*
X11771Y-21258D01*
X12154Y-20875D01*
X12154Y-21016D01*
X11841Y-21328D01*
X11880Y-21433D01*
X12120Y-21522D01*
X12376Y-21513D01*
X12569Y-21433D01*
X12608Y-21328D01*
X12608Y-22410D01*
X12514Y-22503D01*
X10447Y-22503D01*
X10447Y-21554D01*
X10438Y-21298D01*
X10358Y-21105D01*
X10253Y-21066D01*
X10183Y-21137D01*
X10183Y-20996D01*
X10144Y-20891D01*
X9904Y-20802D01*
X9648Y-20811D01*
X9455Y-20891D01*
X9416Y-20996D01*
X9800Y-21379D01*
X10183Y-20996D01*
X10183Y-21137D01*
X9870Y-21450D01*
X10253Y-21833D01*
X10358Y-21794D01*
X10447Y-21554D01*
X10447Y-22503D01*
X10263Y-22503D01*
X10183Y-22422D01*
X10183Y-21903D01*
X9800Y-21520D01*
X9729Y-21591D01*
X9729Y-21450D01*
X9346Y-21066D01*
X9241Y-21105D01*
X9152Y-21345D01*
X9161Y-21601D01*
X9241Y-21794D01*
X9346Y-21833D01*
X9729Y-21450D01*
X9729Y-21591D01*
X9416Y-21903D01*
X9455Y-22008D01*
X9695Y-22097D01*
X9951Y-22088D01*
X10144Y-22008D01*
X10183Y-21903D01*
X10183Y-22422D01*
X10165Y-22404D01*
X9928Y-22306D01*
X9672Y-22306D01*
X9435Y-22403D01*
X9254Y-22584D01*
X9156Y-22821D01*
X9156Y-23077D01*
X9253Y-23314D01*
X9434Y-23495D01*
X9671Y-23593D01*
X9927Y-23593D01*
X10164Y-23496D01*
X10263Y-23396D01*
X12700Y-23396D01*
X12871Y-23362D01*
X12871Y-23362D01*
X13015Y-23265D01*
X13225Y-23056D01*
X15284Y-25115D01*
X15302Y-25128D01*
G54D10*
G36*
X20351Y-24383D02*
X20200Y-24353D01*
X19083Y-24353D01*
X19083Y-23953D01*
X18700Y-23570D01*
X18629Y-23641D01*
X18629Y-23500D01*
X18246Y-23116D01*
X18141Y-23155D01*
X18052Y-23395D01*
X18061Y-23651D01*
X18141Y-23844D01*
X18246Y-23883D01*
X18629Y-23500D01*
X18629Y-23641D01*
X18316Y-23953D01*
X18355Y-24058D01*
X18595Y-24147D01*
X18851Y-24138D01*
X19044Y-24058D01*
X19083Y-23953D01*
X19083Y-24353D01*
X15785Y-24353D01*
X13671Y-22239D01*
X13671Y-21338D01*
X13770Y-21240D01*
X13868Y-21003D01*
X13868Y-20747D01*
X13771Y-20510D01*
X13671Y-20411D01*
X13671Y-19060D01*
X14410Y-18321D01*
X14582Y-18321D01*
X14604Y-18375D01*
X14581Y-18431D01*
X14581Y-18530D01*
X14581Y-19318D01*
X14619Y-19410D01*
X14689Y-19480D01*
X14781Y-19518D01*
X14880Y-19518D01*
X15668Y-19518D01*
X15760Y-19480D01*
X15830Y-19410D01*
X15867Y-19321D01*
X16200Y-19321D01*
X16725Y-19321D01*
X16896Y-19287D01*
X16896Y-19287D01*
X17040Y-19190D01*
X18100Y-18131D01*
X18384Y-18415D01*
X18384Y-18415D01*
X18384Y-18415D01*
X18753Y-18785D01*
X18753Y-20200D01*
X18753Y-21400D01*
X18787Y-21571D01*
X18884Y-21715D01*
X19559Y-22390D01*
X20251Y-23083D01*
X20179Y-23068D01*
X20065Y-22954D01*
X19828Y-22856D01*
X19572Y-22856D01*
X19335Y-22953D01*
X19167Y-23122D01*
X19153Y-23116D01*
X19083Y-23187D01*
X19083Y-23046D01*
X19044Y-22941D01*
X18804Y-22852D01*
X18548Y-22861D01*
X18355Y-22941D01*
X18316Y-23046D01*
X18700Y-23429D01*
X19083Y-23046D01*
X19083Y-23187D01*
X18770Y-23500D01*
X19153Y-23883D01*
X19167Y-23877D01*
X19334Y-24045D01*
X19571Y-24143D01*
X19827Y-24143D01*
X20028Y-24060D01*
X20351Y-24383D01*
X20351Y-24383D01*
G37*
G54D27*
X20351Y-24383D02*
X20200Y-24353D01*
X19083Y-24353D01*
X19083Y-23953D01*
X18700Y-23570D01*
X18629Y-23641D01*
X18629Y-23500D01*
X18246Y-23116D01*
X18141Y-23155D01*
X18052Y-23395D01*
X18061Y-23651D01*
X18141Y-23844D01*
X18246Y-23883D01*
X18629Y-23500D01*
X18629Y-23641D01*
X18316Y-23953D01*
X18355Y-24058D01*
X18595Y-24147D01*
X18851Y-24138D01*
X19044Y-24058D01*
X19083Y-23953D01*
X19083Y-24353D01*
X15785Y-24353D01*
X13671Y-22239D01*
X13671Y-21338D01*
X13770Y-21240D01*
X13868Y-21003D01*
X13868Y-20747D01*
X13771Y-20510D01*
X13671Y-20411D01*
X13671Y-19060D01*
X14410Y-18321D01*
X14582Y-18321D01*
X14604Y-18375D01*
X14581Y-18431D01*
X14581Y-18530D01*
X14581Y-19318D01*
X14619Y-19410D01*
X14689Y-19480D01*
X14781Y-19518D01*
X14880Y-19518D01*
X15668Y-19518D01*
X15760Y-19480D01*
X15830Y-19410D01*
X15867Y-19321D01*
X16200Y-19321D01*
X16725Y-19321D01*
X16896Y-19287D01*
X16896Y-19287D01*
X17040Y-19190D01*
X18100Y-18131D01*
X18384Y-18415D01*
X18384Y-18415D01*
X18384Y-18415D01*
X18753Y-18785D01*
X18753Y-20200D01*
X18753Y-21400D01*
X18787Y-21571D01*
X18884Y-21715D01*
X19559Y-22390D01*
X20251Y-23083D01*
X20179Y-23068D01*
X20065Y-22954D01*
X19828Y-22856D01*
X19572Y-22856D01*
X19335Y-22953D01*
X19167Y-23122D01*
X19153Y-23116D01*
X19083Y-23187D01*
X19083Y-23046D01*
X19044Y-22941D01*
X18804Y-22852D01*
X18548Y-22861D01*
X18355Y-22941D01*
X18316Y-23046D01*
X18700Y-23429D01*
X19083Y-23046D01*
X19083Y-23187D01*
X18770Y-23500D01*
X19153Y-23883D01*
X19167Y-23877D01*
X19334Y-24045D01*
X19571Y-24143D01*
X19827Y-24143D01*
X20028Y-24060D01*
X20351Y-24383D01*
G54D10*
G36*
X27053Y-26053D02*
X26965Y-26053D01*
X26965Y-25381D01*
X26942Y-25324D01*
X26965Y-25268D01*
X26965Y-25169D01*
X26965Y-24381D01*
X26942Y-24324D01*
X26965Y-24268D01*
X26965Y-24169D01*
X26965Y-23381D01*
X26942Y-23324D01*
X26965Y-23268D01*
X26965Y-23169D01*
X26965Y-22381D01*
X26942Y-22324D01*
X26965Y-22268D01*
X26965Y-22169D01*
X26965Y-21381D01*
X26942Y-21324D01*
X26965Y-21268D01*
X26965Y-21169D01*
X26965Y-20381D01*
X26942Y-20325D01*
X26965Y-20268D01*
X26965Y-19937D01*
X26903Y-19875D01*
X26175Y-19875D01*
X26175Y-19882D01*
X26075Y-19882D01*
X26075Y-19875D01*
X25346Y-19875D01*
X25284Y-19937D01*
X25284Y-20259D01*
X25250Y-20253D01*
X25179Y-20253D01*
X25101Y-20174D01*
X24873Y-20080D01*
X24627Y-20079D01*
X24399Y-20174D01*
X24225Y-20347D01*
X24186Y-20334D01*
X24115Y-20404D01*
X24115Y-20263D01*
X24079Y-20160D01*
X23883Y-20088D01*
X23883Y-18903D01*
X23500Y-18520D01*
X23429Y-18591D01*
X23429Y-18450D01*
X23046Y-18066D01*
X22941Y-18105D01*
X22852Y-18345D01*
X22861Y-18601D01*
X22941Y-18794D01*
X23046Y-18833D01*
X23429Y-18450D01*
X23429Y-18591D01*
X23116Y-18903D01*
X23155Y-19008D01*
X23395Y-19097D01*
X23651Y-19088D01*
X23844Y-19008D01*
X23883Y-18903D01*
X23883Y-20088D01*
X23848Y-20075D01*
X23602Y-20085D01*
X23420Y-20160D01*
X23384Y-20263D01*
X23750Y-20629D01*
X24115Y-20263D01*
X24115Y-20404D01*
X23820Y-20700D01*
X24186Y-21065D01*
X24225Y-21052D01*
X24398Y-21225D01*
X24626Y-21319D01*
X24872Y-21320D01*
X25100Y-21225D01*
X25134Y-21191D01*
X25203Y-21237D01*
X25284Y-21253D01*
X25284Y-21268D01*
X25307Y-21325D01*
X25285Y-21378D01*
X23560Y-21378D01*
X23421Y-21239D01*
X23651Y-21324D01*
X23897Y-21314D01*
X24079Y-21239D01*
X24115Y-21136D01*
X23750Y-20770D01*
X23744Y-20776D01*
X23673Y-20705D01*
X23679Y-20700D01*
X23313Y-20334D01*
X23274Y-20347D01*
X23101Y-20174D01*
X22873Y-20080D01*
X22647Y-20079D01*
X22647Y-18504D01*
X22638Y-18248D01*
X22558Y-18055D01*
X22453Y-18016D01*
X22070Y-18400D01*
X22453Y-18783D01*
X22558Y-18744D01*
X22647Y-18504D01*
X22647Y-20079D01*
X22627Y-20079D01*
X22399Y-20174D01*
X22383Y-20190D01*
X22383Y-18853D01*
X22000Y-18470D01*
X21929Y-18541D01*
X21929Y-18400D01*
X21546Y-18016D01*
X21441Y-18055D01*
X21352Y-18295D01*
X21361Y-18551D01*
X21441Y-18744D01*
X21546Y-18783D01*
X21929Y-18400D01*
X21929Y-18541D01*
X21616Y-18853D01*
X21655Y-18958D01*
X21895Y-19047D01*
X22151Y-19038D01*
X22344Y-18958D01*
X22383Y-18853D01*
X22383Y-20190D01*
X22224Y-20348D01*
X22130Y-20576D01*
X22129Y-20822D01*
X22224Y-21050D01*
X22303Y-21129D01*
X22303Y-21200D01*
X22320Y-21288D01*
X21246Y-20214D01*
X21246Y-17816D01*
X21400Y-17846D01*
X21536Y-17846D01*
X21622Y-17932D01*
X21616Y-17946D01*
X22000Y-18329D01*
X22383Y-17946D01*
X22377Y-17932D01*
X22463Y-17846D01*
X23262Y-17846D01*
X23155Y-17891D01*
X23116Y-17996D01*
X23500Y-18379D01*
X23883Y-17996D01*
X23844Y-17891D01*
X23724Y-17846D01*
X24274Y-17846D01*
X24135Y-17903D01*
X23967Y-18072D01*
X23953Y-18066D01*
X23570Y-18450D01*
X23953Y-18833D01*
X23967Y-18827D01*
X24134Y-18995D01*
X24371Y-19093D01*
X24627Y-19093D01*
X24864Y-18996D01*
X24889Y-18971D01*
X25059Y-19140D01*
X25203Y-19237D01*
X25284Y-19253D01*
X25284Y-19268D01*
X25307Y-19325D01*
X25284Y-19381D01*
X25284Y-19712D01*
X25346Y-19775D01*
X26075Y-19775D01*
X26075Y-19767D01*
X26175Y-19767D01*
X26175Y-19775D01*
X26903Y-19775D01*
X26965Y-19712D01*
X26965Y-19547D01*
X27053Y-19635D01*
X27053Y-19700D01*
X27053Y-20200D01*
X27053Y-26053D01*
X27053Y-26053D01*
G37*
G54D27*
X27053Y-26053D02*
X26965Y-26053D01*
X26965Y-25381D01*
X26942Y-25324D01*
X26965Y-25268D01*
X26965Y-25169D01*
X26965Y-24381D01*
X26942Y-24324D01*
X26965Y-24268D01*
X26965Y-24169D01*
X26965Y-23381D01*
X26942Y-23324D01*
X26965Y-23268D01*
X26965Y-23169D01*
X26965Y-22381D01*
X26942Y-22324D01*
X26965Y-22268D01*
X26965Y-22169D01*
X26965Y-21381D01*
X26942Y-21324D01*
X26965Y-21268D01*
X26965Y-21169D01*
X26965Y-20381D01*
X26942Y-20325D01*
X26965Y-20268D01*
X26965Y-19937D01*
X26903Y-19875D01*
X26175Y-19875D01*
X26175Y-19882D01*
X26075Y-19882D01*
X26075Y-19875D01*
X25346Y-19875D01*
X25284Y-19937D01*
X25284Y-20259D01*
X25250Y-20253D01*
X25179Y-20253D01*
X25101Y-20174D01*
X24873Y-20080D01*
X24627Y-20079D01*
X24399Y-20174D01*
X24225Y-20347D01*
X24186Y-20334D01*
X24115Y-20404D01*
X24115Y-20263D01*
X24079Y-20160D01*
X23883Y-20088D01*
X23883Y-18903D01*
X23500Y-18520D01*
X23429Y-18591D01*
X23429Y-18450D01*
X23046Y-18066D01*
X22941Y-18105D01*
X22852Y-18345D01*
X22861Y-18601D01*
X22941Y-18794D01*
X23046Y-18833D01*
X23429Y-18450D01*
X23429Y-18591D01*
X23116Y-18903D01*
X23155Y-19008D01*
X23395Y-19097D01*
X23651Y-19088D01*
X23844Y-19008D01*
X23883Y-18903D01*
X23883Y-20088D01*
X23848Y-20075D01*
X23602Y-20085D01*
X23420Y-20160D01*
X23384Y-20263D01*
X23750Y-20629D01*
X24115Y-20263D01*
X24115Y-20404D01*
X23820Y-20700D01*
X24186Y-21065D01*
X24225Y-21052D01*
X24398Y-21225D01*
X24626Y-21319D01*
X24872Y-21320D01*
X25100Y-21225D01*
X25134Y-21191D01*
X25203Y-21237D01*
X25284Y-21253D01*
X25284Y-21268D01*
X25307Y-21325D01*
X25285Y-21378D01*
X23560Y-21378D01*
X23421Y-21239D01*
X23651Y-21324D01*
X23897Y-21314D01*
X24079Y-21239D01*
X24115Y-21136D01*
X23750Y-20770D01*
X23744Y-20776D01*
X23673Y-20705D01*
X23679Y-20700D01*
X23313Y-20334D01*
X23274Y-20347D01*
X23101Y-20174D01*
X22873Y-20080D01*
X22647Y-20079D01*
X22647Y-18504D01*
X22638Y-18248D01*
X22558Y-18055D01*
X22453Y-18016D01*
X22070Y-18400D01*
X22453Y-18783D01*
X22558Y-18744D01*
X22647Y-18504D01*
X22647Y-20079D01*
X22627Y-20079D01*
X22399Y-20174D01*
X22383Y-20190D01*
X22383Y-18853D01*
X22000Y-18470D01*
X21929Y-18541D01*
X21929Y-18400D01*
X21546Y-18016D01*
X21441Y-18055D01*
X21352Y-18295D01*
X21361Y-18551D01*
X21441Y-18744D01*
X21546Y-18783D01*
X21929Y-18400D01*
X21929Y-18541D01*
X21616Y-18853D01*
X21655Y-18958D01*
X21895Y-19047D01*
X22151Y-19038D01*
X22344Y-18958D01*
X22383Y-18853D01*
X22383Y-20190D01*
X22224Y-20348D01*
X22130Y-20576D01*
X22129Y-20822D01*
X22224Y-21050D01*
X22303Y-21129D01*
X22303Y-21200D01*
X22320Y-21288D01*
X21246Y-20214D01*
X21246Y-17816D01*
X21400Y-17846D01*
X21536Y-17846D01*
X21622Y-17932D01*
X21616Y-17946D01*
X22000Y-18329D01*
X22383Y-17946D01*
X22377Y-17932D01*
X22463Y-17846D01*
X23262Y-17846D01*
X23155Y-17891D01*
X23116Y-17996D01*
X23500Y-18379D01*
X23883Y-17996D01*
X23844Y-17891D01*
X23724Y-17846D01*
X24274Y-17846D01*
X24135Y-17903D01*
X23967Y-18072D01*
X23953Y-18066D01*
X23570Y-18450D01*
X23953Y-18833D01*
X23967Y-18827D01*
X24134Y-18995D01*
X24371Y-19093D01*
X24627Y-19093D01*
X24864Y-18996D01*
X24889Y-18971D01*
X25059Y-19140D01*
X25203Y-19237D01*
X25284Y-19253D01*
X25284Y-19268D01*
X25307Y-19325D01*
X25284Y-19381D01*
X25284Y-19712D01*
X25346Y-19775D01*
X26075Y-19775D01*
X26075Y-19767D01*
X26175Y-19767D01*
X26175Y-19775D01*
X26903Y-19775D01*
X26965Y-19712D01*
X26965Y-19547D01*
X27053Y-19635D01*
X27053Y-19700D01*
X27053Y-20200D01*
X27053Y-26053D01*
G54D10*
G36*
X28653Y-9536D02*
X28567Y-9622D01*
X28553Y-9616D01*
X28170Y-10000D01*
X28176Y-10005D01*
X28105Y-10076D01*
X28100Y-10070D01*
X28029Y-10141D01*
X28029Y-10000D01*
X27646Y-9616D01*
X27541Y-9655D01*
X27452Y-9895D01*
X27461Y-10151D01*
X27541Y-10344D01*
X27646Y-10383D01*
X28029Y-10000D01*
X28029Y-10141D01*
X27716Y-10453D01*
X27755Y-10558D01*
X27940Y-10627D01*
X27184Y-11384D01*
X26386Y-12181D01*
X25506Y-12181D01*
X25446Y-12035D01*
X25265Y-11854D01*
X25028Y-11756D01*
X24772Y-11756D01*
X24535Y-11853D01*
X24354Y-12034D01*
X24256Y-12271D01*
X24256Y-12527D01*
X24353Y-12764D01*
X24534Y-12945D01*
X24771Y-13043D01*
X24911Y-13043D01*
X25009Y-13140D01*
X25009Y-13140D01*
X25153Y-13237D01*
X25284Y-13263D01*
X25284Y-13268D01*
X25307Y-13325D01*
X25285Y-13378D01*
X24560Y-13378D01*
X24315Y-13134D01*
X24171Y-13037D01*
X24000Y-13003D01*
X22125Y-13003D01*
X22264Y-12946D01*
X22363Y-12846D01*
X23200Y-12846D01*
X23371Y-12812D01*
X23371Y-12812D01*
X23515Y-12715D01*
X24585Y-11646D01*
X25043Y-11646D01*
X25083Y-11686D01*
X25175Y-11724D01*
X25274Y-11725D01*
X25824Y-11725D01*
X25916Y-11687D01*
X25956Y-11646D01*
X26200Y-11646D01*
X26253Y-11636D01*
X26271Y-11643D01*
X26527Y-11643D01*
X26764Y-11546D01*
X26945Y-11365D01*
X27043Y-11128D01*
X27043Y-10872D01*
X26946Y-10635D01*
X26765Y-10454D01*
X26528Y-10356D01*
X26272Y-10356D01*
X26035Y-10453D01*
X25854Y-10634D01*
X25836Y-10679D01*
X25824Y-10675D01*
X25725Y-10674D01*
X25175Y-10674D01*
X25143Y-10688D01*
X25143Y-10294D01*
X25143Y-10062D01*
X25081Y-10000D01*
X24550Y-10000D01*
X24550Y-10531D01*
X24612Y-10593D01*
X24943Y-10593D01*
X25035Y-10555D01*
X25105Y-10485D01*
X25143Y-10393D01*
X25143Y-10294D01*
X25143Y-10688D01*
X25083Y-10712D01*
X25043Y-10753D01*
X24450Y-10753D01*
X24450Y-10531D01*
X24450Y-10000D01*
X24081Y-10000D01*
X23918Y-10000D01*
X23550Y-10000D01*
X23550Y-10531D01*
X23612Y-10593D01*
X23943Y-10593D01*
X24000Y-10570D01*
X24056Y-10593D01*
X24387Y-10593D01*
X24450Y-10531D01*
X24450Y-10753D01*
X24400Y-10753D01*
X24228Y-10787D01*
X24084Y-10884D01*
X23014Y-11953D01*
X22363Y-11953D01*
X22265Y-11854D01*
X22028Y-11756D01*
X21772Y-11756D01*
X21535Y-11853D01*
X21354Y-12034D01*
X21256Y-12271D01*
X21256Y-12527D01*
X21289Y-12607D01*
X21196Y-12514D01*
X21196Y-11885D01*
X21815Y-11265D01*
X21815Y-11265D01*
X21912Y-11121D01*
X21946Y-10950D01*
X21946Y-10950D01*
X21946Y-10592D01*
X22000Y-10570D01*
X22053Y-10592D01*
X22053Y-10907D01*
X21975Y-11095D01*
X21974Y-11303D01*
X22054Y-11497D01*
X22202Y-11644D01*
X22395Y-11724D01*
X22603Y-11725D01*
X22797Y-11645D01*
X22944Y-11497D01*
X23024Y-11304D01*
X23025Y-11096D01*
X22946Y-10906D01*
X22946Y-10592D01*
X23000Y-10570D01*
X23056Y-10593D01*
X23387Y-10593D01*
X23450Y-10531D01*
X23450Y-10000D01*
X23442Y-10000D01*
X23442Y-9900D01*
X23450Y-9900D01*
X23450Y-9892D01*
X23550Y-9892D01*
X23550Y-9900D01*
X23918Y-9900D01*
X24081Y-9900D01*
X24450Y-9900D01*
X24450Y-9892D01*
X24550Y-9892D01*
X24550Y-9900D01*
X25081Y-9900D01*
X25143Y-9837D01*
X25143Y-9605D01*
X25143Y-9506D01*
X25118Y-9446D01*
X25436Y-9446D01*
X25534Y-9545D01*
X25771Y-9643D01*
X26027Y-9643D01*
X26264Y-9546D01*
X26400Y-9410D01*
X26534Y-9545D01*
X26771Y-9643D01*
X27027Y-9643D01*
X27264Y-9546D01*
X27363Y-9446D01*
X27753Y-9446D01*
X27716Y-9546D01*
X28100Y-9929D01*
X28483Y-9546D01*
X28446Y-9446D01*
X28614Y-9446D01*
X28653Y-9485D01*
X28653Y-9536D01*
X28653Y-9536D01*
G37*
G54D27*
X28653Y-9536D02*
X28567Y-9622D01*
X28553Y-9616D01*
X28170Y-10000D01*
X28176Y-10005D01*
X28105Y-10076D01*
X28100Y-10070D01*
X28029Y-10141D01*
X28029Y-10000D01*
X27646Y-9616D01*
X27541Y-9655D01*
X27452Y-9895D01*
X27461Y-10151D01*
X27541Y-10344D01*
X27646Y-10383D01*
X28029Y-10000D01*
X28029Y-10141D01*
X27716Y-10453D01*
X27755Y-10558D01*
X27940Y-10627D01*
X27184Y-11384D01*
X26386Y-12181D01*
X25506Y-12181D01*
X25446Y-12035D01*
X25265Y-11854D01*
X25028Y-11756D01*
X24772Y-11756D01*
X24535Y-11853D01*
X24354Y-12034D01*
X24256Y-12271D01*
X24256Y-12527D01*
X24353Y-12764D01*
X24534Y-12945D01*
X24771Y-13043D01*
X24911Y-13043D01*
X25009Y-13140D01*
X25009Y-13140D01*
X25153Y-13237D01*
X25284Y-13263D01*
X25284Y-13268D01*
X25307Y-13325D01*
X25285Y-13378D01*
X24560Y-13378D01*
X24315Y-13134D01*
X24171Y-13037D01*
X24000Y-13003D01*
X22125Y-13003D01*
X22264Y-12946D01*
X22363Y-12846D01*
X23200Y-12846D01*
X23371Y-12812D01*
X23371Y-12812D01*
X23515Y-12715D01*
X24585Y-11646D01*
X25043Y-11646D01*
X25083Y-11686D01*
X25175Y-11724D01*
X25274Y-11725D01*
X25824Y-11725D01*
X25916Y-11687D01*
X25956Y-11646D01*
X26200Y-11646D01*
X26253Y-11636D01*
X26271Y-11643D01*
X26527Y-11643D01*
X26764Y-11546D01*
X26945Y-11365D01*
X27043Y-11128D01*
X27043Y-10872D01*
X26946Y-10635D01*
X26765Y-10454D01*
X26528Y-10356D01*
X26272Y-10356D01*
X26035Y-10453D01*
X25854Y-10634D01*
X25836Y-10679D01*
X25824Y-10675D01*
X25725Y-10674D01*
X25175Y-10674D01*
X25143Y-10688D01*
X25143Y-10294D01*
X25143Y-10062D01*
X25081Y-10000D01*
X24550Y-10000D01*
X24550Y-10531D01*
X24612Y-10593D01*
X24943Y-10593D01*
X25035Y-10555D01*
X25105Y-10485D01*
X25143Y-10393D01*
X25143Y-10294D01*
X25143Y-10688D01*
X25083Y-10712D01*
X25043Y-10753D01*
X24450Y-10753D01*
X24450Y-10531D01*
X24450Y-10000D01*
X24081Y-10000D01*
X23918Y-10000D01*
X23550Y-10000D01*
X23550Y-10531D01*
X23612Y-10593D01*
X23943Y-10593D01*
X24000Y-10570D01*
X24056Y-10593D01*
X24387Y-10593D01*
X24450Y-10531D01*
X24450Y-10753D01*
X24400Y-10753D01*
X24228Y-10787D01*
X24084Y-10884D01*
X23014Y-11953D01*
X22363Y-11953D01*
X22265Y-11854D01*
X22028Y-11756D01*
X21772Y-11756D01*
X21535Y-11853D01*
X21354Y-12034D01*
X21256Y-12271D01*
X21256Y-12527D01*
X21289Y-12607D01*
X21196Y-12514D01*
X21196Y-11885D01*
X21815Y-11265D01*
X21815Y-11265D01*
X21912Y-11121D01*
X21946Y-10950D01*
X21946Y-10950D01*
X21946Y-10592D01*
X22000Y-10570D01*
X22053Y-10592D01*
X22053Y-10907D01*
X21975Y-11095D01*
X21974Y-11303D01*
X22054Y-11497D01*
X22202Y-11644D01*
X22395Y-11724D01*
X22603Y-11725D01*
X22797Y-11645D01*
X22944Y-11497D01*
X23024Y-11304D01*
X23025Y-11096D01*
X22946Y-10906D01*
X22946Y-10592D01*
X23000Y-10570D01*
X23056Y-10593D01*
X23387Y-10593D01*
X23450Y-10531D01*
X23450Y-10000D01*
X23442Y-10000D01*
X23442Y-9900D01*
X23450Y-9900D01*
X23450Y-9892D01*
X23550Y-9892D01*
X23550Y-9900D01*
X23918Y-9900D01*
X24081Y-9900D01*
X24450Y-9900D01*
X24450Y-9892D01*
X24550Y-9892D01*
X24550Y-9900D01*
X25081Y-9900D01*
X25143Y-9837D01*
X25143Y-9605D01*
X25143Y-9506D01*
X25118Y-9446D01*
X25436Y-9446D01*
X25534Y-9545D01*
X25771Y-9643D01*
X26027Y-9643D01*
X26264Y-9546D01*
X26400Y-9410D01*
X26534Y-9545D01*
X26771Y-9643D01*
X27027Y-9643D01*
X27264Y-9546D01*
X27363Y-9446D01*
X27753Y-9446D01*
X27716Y-9546D01*
X28100Y-9929D01*
X28483Y-9546D01*
X28446Y-9446D01*
X28614Y-9446D01*
X28653Y-9485D01*
X28653Y-9536D01*
G54D10*
G36*
X29182Y-18875D02*
X29175Y-18875D01*
X29175Y-18882D01*
X29075Y-18882D01*
X29075Y-18875D01*
X28346Y-18875D01*
X28284Y-18937D01*
X28284Y-19268D01*
X28307Y-19325D01*
X28284Y-19381D01*
X28284Y-19480D01*
X28284Y-20268D01*
X28307Y-20325D01*
X28292Y-20361D01*
X27946Y-20014D01*
X27946Y-19700D01*
X27946Y-19450D01*
X27946Y-13500D01*
X27946Y-12985D01*
X28284Y-12647D01*
X28284Y-13268D01*
X28307Y-13325D01*
X28284Y-13381D01*
X28284Y-13480D01*
X28284Y-14268D01*
X28307Y-14325D01*
X28284Y-14381D01*
X28284Y-14480D01*
X28284Y-15268D01*
X28307Y-15325D01*
X28284Y-15381D01*
X28284Y-15480D01*
X28284Y-16268D01*
X28307Y-16325D01*
X28284Y-16381D01*
X28284Y-16480D01*
X28284Y-17268D01*
X28307Y-17325D01*
X28284Y-17381D01*
X28284Y-17480D01*
X28284Y-18268D01*
X28307Y-18325D01*
X28284Y-18381D01*
X28284Y-18712D01*
X28346Y-18775D01*
X29075Y-18775D01*
X29075Y-18767D01*
X29175Y-18767D01*
X29175Y-18775D01*
X29182Y-18775D01*
X29182Y-18875D01*
X29182Y-18875D01*
G37*
G54D27*
X29182Y-18875D02*
X29175Y-18875D01*
X29175Y-18882D01*
X29075Y-18882D01*
X29075Y-18875D01*
X28346Y-18875D01*
X28284Y-18937D01*
X28284Y-19268D01*
X28307Y-19325D01*
X28284Y-19381D01*
X28284Y-19480D01*
X28284Y-20268D01*
X28307Y-20325D01*
X28292Y-20361D01*
X27946Y-20014D01*
X27946Y-19700D01*
X27946Y-19450D01*
X27946Y-13500D01*
X27946Y-12985D01*
X28284Y-12647D01*
X28284Y-13268D01*
X28307Y-13325D01*
X28284Y-13381D01*
X28284Y-13480D01*
X28284Y-14268D01*
X28307Y-14325D01*
X28284Y-14381D01*
X28284Y-14480D01*
X28284Y-15268D01*
X28307Y-15325D01*
X28284Y-15381D01*
X28284Y-15480D01*
X28284Y-16268D01*
X28307Y-16325D01*
X28284Y-16381D01*
X28284Y-16480D01*
X28284Y-17268D01*
X28307Y-17325D01*
X28284Y-17381D01*
X28284Y-17480D01*
X28284Y-18268D01*
X28307Y-18325D01*
X28284Y-18381D01*
X28284Y-18712D01*
X28346Y-18775D01*
X29075Y-18775D01*
X29075Y-18767D01*
X29175Y-18767D01*
X29175Y-18775D01*
X29182Y-18775D01*
X29182Y-18875D01*
G54D10*
G36*
X33553Y-22014D02*
X33259Y-22308D01*
X33163Y-22453D01*
X33137Y-22582D01*
X33109Y-22610D01*
X33143Y-22528D01*
X33143Y-22272D01*
X33046Y-22035D01*
X32865Y-21854D01*
X32628Y-21756D01*
X32488Y-21756D01*
X32419Y-21687D01*
X32443Y-21628D01*
X32443Y-21372D01*
X32346Y-21135D01*
X32165Y-20954D01*
X31928Y-20856D01*
X31788Y-20856D01*
X31440Y-20509D01*
X31296Y-20412D01*
X31125Y-20378D01*
X31047Y-20378D01*
X29964Y-20378D01*
X29942Y-20324D01*
X29965Y-20268D01*
X29965Y-20175D01*
X30034Y-20245D01*
X30271Y-20343D01*
X30527Y-20343D01*
X30764Y-20246D01*
X30945Y-20065D01*
X31043Y-19828D01*
X31043Y-19572D01*
X30946Y-19335D01*
X30777Y-19167D01*
X30783Y-19153D01*
X30400Y-18770D01*
X30394Y-18776D01*
X30323Y-18705D01*
X30329Y-18700D01*
X30323Y-18694D01*
X30394Y-18623D01*
X30400Y-18629D01*
X30405Y-18623D01*
X30476Y-18694D01*
X30470Y-18700D01*
X30853Y-19083D01*
X30958Y-19044D01*
X31047Y-18804D01*
X31038Y-18548D01*
X30958Y-18355D01*
X30853Y-18316D01*
X30898Y-18271D01*
X30870Y-18243D01*
X31027Y-18243D01*
X31247Y-18153D01*
X31156Y-18371D01*
X31156Y-18627D01*
X31253Y-18864D01*
X31434Y-19045D01*
X31437Y-19046D01*
X31484Y-19115D01*
X32356Y-19988D01*
X32356Y-20127D01*
X32453Y-20364D01*
X32634Y-20545D01*
X32871Y-20643D01*
X33127Y-20643D01*
X33364Y-20546D01*
X33545Y-20365D01*
X33553Y-20346D01*
X33553Y-22014D01*
X33553Y-22014D01*
G37*
G54D27*
X33553Y-22014D02*
X33259Y-22308D01*
X33163Y-22453D01*
X33137Y-22582D01*
X33109Y-22610D01*
X33143Y-22528D01*
X33143Y-22272D01*
X33046Y-22035D01*
X32865Y-21854D01*
X32628Y-21756D01*
X32488Y-21756D01*
X32419Y-21687D01*
X32443Y-21628D01*
X32443Y-21372D01*
X32346Y-21135D01*
X32165Y-20954D01*
X31928Y-20856D01*
X31788Y-20856D01*
X31440Y-20509D01*
X31296Y-20412D01*
X31125Y-20378D01*
X31047Y-20378D01*
X29964Y-20378D01*
X29942Y-20324D01*
X29965Y-20268D01*
X29965Y-20175D01*
X30034Y-20245D01*
X30271Y-20343D01*
X30527Y-20343D01*
X30764Y-20246D01*
X30945Y-20065D01*
X31043Y-19828D01*
X31043Y-19572D01*
X30946Y-19335D01*
X30777Y-19167D01*
X30783Y-19153D01*
X30400Y-18770D01*
X30394Y-18776D01*
X30323Y-18705D01*
X30329Y-18700D01*
X30323Y-18694D01*
X30394Y-18623D01*
X30400Y-18629D01*
X30405Y-18623D01*
X30476Y-18694D01*
X30470Y-18700D01*
X30853Y-19083D01*
X30958Y-19044D01*
X31047Y-18804D01*
X31038Y-18548D01*
X30958Y-18355D01*
X30853Y-18316D01*
X30898Y-18271D01*
X30870Y-18243D01*
X31027Y-18243D01*
X31247Y-18153D01*
X31156Y-18371D01*
X31156Y-18627D01*
X31253Y-18864D01*
X31434Y-19045D01*
X31437Y-19046D01*
X31484Y-19115D01*
X32356Y-19988D01*
X32356Y-20127D01*
X32453Y-20364D01*
X32634Y-20545D01*
X32871Y-20643D01*
X33127Y-20643D01*
X33364Y-20546D01*
X33545Y-20365D01*
X33553Y-20346D01*
X33553Y-22014D01*
G54D10*
G36*
X33559Y-29984D02*
X33125Y-29984D01*
X32200Y-29984D01*
X31508Y-29984D01*
X31508Y-29778D01*
X31125Y-29395D01*
X30741Y-29778D01*
X30780Y-29883D01*
X31020Y-29972D01*
X31276Y-29963D01*
X31469Y-29883D01*
X31508Y-29778D01*
X31508Y-29984D01*
X31125Y-29984D01*
X30803Y-30048D01*
X30530Y-30230D01*
X30348Y-30503D01*
X30284Y-30825D01*
X30284Y-32726D01*
X29530Y-33480D01*
X29348Y-33753D01*
X29284Y-34075D01*
X29284Y-34334D01*
X27965Y-34334D01*
X27965Y-34175D01*
X27901Y-33853D01*
X27901Y-33853D01*
X27719Y-33580D01*
X26965Y-32826D01*
X26965Y-30825D01*
X26901Y-30503D01*
X26719Y-30230D01*
X26508Y-30089D01*
X26508Y-29778D01*
X26125Y-29395D01*
X25741Y-29778D01*
X25780Y-29883D01*
X26020Y-29972D01*
X26276Y-29963D01*
X26469Y-29883D01*
X26508Y-29778D01*
X26508Y-30089D01*
X26446Y-30048D01*
X26125Y-29984D01*
X25803Y-30048D01*
X25530Y-30230D01*
X25348Y-30503D01*
X25284Y-30825D01*
X25284Y-32826D01*
X24530Y-33580D01*
X24348Y-33853D01*
X24284Y-34175D01*
X24284Y-34541D01*
X24250Y-34541D01*
X24239Y-34536D01*
X23981Y-34536D01*
X23743Y-34634D01*
X23609Y-34767D01*
X23477Y-34635D01*
X23239Y-34536D01*
X22981Y-34536D01*
X22969Y-34541D01*
X22965Y-34541D01*
X22965Y-34175D01*
X22901Y-33853D01*
X22901Y-33853D01*
X22746Y-33621D01*
X23025Y-33621D01*
X23196Y-33587D01*
X23196Y-33587D01*
X23340Y-33490D01*
X23636Y-33195D01*
X23747Y-33195D01*
X23975Y-33100D01*
X24150Y-32926D01*
X24244Y-32698D01*
X24245Y-32452D01*
X24150Y-32224D01*
X24001Y-32074D01*
X24150Y-31926D01*
X24244Y-31698D01*
X24245Y-31452D01*
X24150Y-31224D01*
X24071Y-31145D01*
X24071Y-31038D01*
X24170Y-30940D01*
X24268Y-30703D01*
X24268Y-30447D01*
X24171Y-30210D01*
X23990Y-30029D01*
X23753Y-29931D01*
X23497Y-29931D01*
X23260Y-30028D01*
X23079Y-30209D01*
X22981Y-30446D01*
X22981Y-30702D01*
X23078Y-30939D01*
X23178Y-31038D01*
X23178Y-31145D01*
X23099Y-31223D01*
X23005Y-31451D01*
X23004Y-31697D01*
X23099Y-31925D01*
X23248Y-32075D01*
X23099Y-32223D01*
X23005Y-32451D01*
X23005Y-32563D01*
X22839Y-32728D01*
X21965Y-32728D01*
X21965Y-32050D01*
X21901Y-31728D01*
X21719Y-31455D01*
X21312Y-31049D01*
X21312Y-30807D01*
X21328Y-30823D01*
X21549Y-30914D01*
X21788Y-30915D01*
X22008Y-30823D01*
X22177Y-30655D01*
X22269Y-30434D01*
X22269Y-30196D01*
X22178Y-29975D01*
X22116Y-29913D01*
X22116Y-29500D01*
X22133Y-29482D01*
X22296Y-29482D01*
X22533Y-29384D01*
X22714Y-29203D01*
X22779Y-29046D01*
X25541Y-29046D01*
X25477Y-29220D01*
X25486Y-29476D01*
X25566Y-29669D01*
X25671Y-29708D01*
X26054Y-29325D01*
X26048Y-29319D01*
X26119Y-29248D01*
X26125Y-29254D01*
X26130Y-29248D01*
X26201Y-29319D01*
X26195Y-29325D01*
X26578Y-29708D01*
X26683Y-29669D01*
X26772Y-29429D01*
X26763Y-29173D01*
X26711Y-29046D01*
X30541Y-29046D01*
X30477Y-29220D01*
X30486Y-29476D01*
X30566Y-29669D01*
X30671Y-29708D01*
X31054Y-29325D01*
X31048Y-29319D01*
X31119Y-29248D01*
X31125Y-29254D01*
X31130Y-29248D01*
X31201Y-29319D01*
X31195Y-29325D01*
X31578Y-29708D01*
X31683Y-29669D01*
X31772Y-29429D01*
X31763Y-29173D01*
X31711Y-29046D01*
X32636Y-29046D01*
X32734Y-29145D01*
X32971Y-29243D01*
X33227Y-29243D01*
X33464Y-29146D01*
X33559Y-29050D01*
X33559Y-29984D01*
X33559Y-29984D01*
G37*
G54D27*
X33559Y-29984D02*
X33125Y-29984D01*
X32200Y-29984D01*
X31508Y-29984D01*
X31508Y-29778D01*
X31125Y-29395D01*
X30741Y-29778D01*
X30780Y-29883D01*
X31020Y-29972D01*
X31276Y-29963D01*
X31469Y-29883D01*
X31508Y-29778D01*
X31508Y-29984D01*
X31125Y-29984D01*
X30803Y-30048D01*
X30530Y-30230D01*
X30348Y-30503D01*
X30284Y-30825D01*
X30284Y-32726D01*
X29530Y-33480D01*
X29348Y-33753D01*
X29284Y-34075D01*
X29284Y-34334D01*
X27965Y-34334D01*
X27965Y-34175D01*
X27901Y-33853D01*
X27901Y-33853D01*
X27719Y-33580D01*
X26965Y-32826D01*
X26965Y-30825D01*
X26901Y-30503D01*
X26719Y-30230D01*
X26508Y-30089D01*
X26508Y-29778D01*
X26125Y-29395D01*
X25741Y-29778D01*
X25780Y-29883D01*
X26020Y-29972D01*
X26276Y-29963D01*
X26469Y-29883D01*
X26508Y-29778D01*
X26508Y-30089D01*
X26446Y-30048D01*
X26125Y-29984D01*
X25803Y-30048D01*
X25530Y-30230D01*
X25348Y-30503D01*
X25284Y-30825D01*
X25284Y-32826D01*
X24530Y-33580D01*
X24348Y-33853D01*
X24284Y-34175D01*
X24284Y-34541D01*
X24250Y-34541D01*
X24239Y-34536D01*
X23981Y-34536D01*
X23743Y-34634D01*
X23609Y-34767D01*
X23477Y-34635D01*
X23239Y-34536D01*
X22981Y-34536D01*
X22969Y-34541D01*
X22965Y-34541D01*
X22965Y-34175D01*
X22901Y-33853D01*
X22901Y-33853D01*
X22746Y-33621D01*
X23025Y-33621D01*
X23196Y-33587D01*
X23196Y-33587D01*
X23340Y-33490D01*
X23636Y-33195D01*
X23747Y-33195D01*
X23975Y-33100D01*
X24150Y-32926D01*
X24244Y-32698D01*
X24245Y-32452D01*
X24150Y-32224D01*
X24001Y-32074D01*
X24150Y-31926D01*
X24244Y-31698D01*
X24245Y-31452D01*
X24150Y-31224D01*
X24071Y-31145D01*
X24071Y-31038D01*
X24170Y-30940D01*
X24268Y-30703D01*
X24268Y-30447D01*
X24171Y-30210D01*
X23990Y-30029D01*
X23753Y-29931D01*
X23497Y-29931D01*
X23260Y-30028D01*
X23079Y-30209D01*
X22981Y-30446D01*
X22981Y-30702D01*
X23078Y-30939D01*
X23178Y-31038D01*
X23178Y-31145D01*
X23099Y-31223D01*
X23005Y-31451D01*
X23004Y-31697D01*
X23099Y-31925D01*
X23248Y-32075D01*
X23099Y-32223D01*
X23005Y-32451D01*
X23005Y-32563D01*
X22839Y-32728D01*
X21965Y-32728D01*
X21965Y-32050D01*
X21901Y-31728D01*
X21719Y-31455D01*
X21312Y-31049D01*
X21312Y-30807D01*
X21328Y-30823D01*
X21549Y-30914D01*
X21788Y-30915D01*
X22008Y-30823D01*
X22177Y-30655D01*
X22269Y-30434D01*
X22269Y-30196D01*
X22178Y-29975D01*
X22116Y-29913D01*
X22116Y-29500D01*
X22133Y-29482D01*
X22296Y-29482D01*
X22533Y-29384D01*
X22714Y-29203D01*
X22779Y-29046D01*
X25541Y-29046D01*
X25477Y-29220D01*
X25486Y-29476D01*
X25566Y-29669D01*
X25671Y-29708D01*
X26054Y-29325D01*
X26048Y-29319D01*
X26119Y-29248D01*
X26125Y-29254D01*
X26130Y-29248D01*
X26201Y-29319D01*
X26195Y-29325D01*
X26578Y-29708D01*
X26683Y-29669D01*
X26772Y-29429D01*
X26763Y-29173D01*
X26711Y-29046D01*
X30541Y-29046D01*
X30477Y-29220D01*
X30486Y-29476D01*
X30566Y-29669D01*
X30671Y-29708D01*
X31054Y-29325D01*
X31048Y-29319D01*
X31119Y-29248D01*
X31125Y-29254D01*
X31130Y-29248D01*
X31201Y-29319D01*
X31195Y-29325D01*
X31578Y-29708D01*
X31683Y-29669D01*
X31772Y-29429D01*
X31763Y-29173D01*
X31711Y-29046D01*
X32636Y-29046D01*
X32734Y-29145D01*
X32971Y-29243D01*
X33227Y-29243D01*
X33464Y-29146D01*
X33559Y-29050D01*
X33559Y-29984D01*
G54D10*
G36*
X35157Y-16250D02*
X35150Y-16250D01*
X35150Y-16257D01*
X35050Y-16257D01*
X35050Y-16250D01*
X34518Y-16250D01*
X34456Y-16312D01*
X34456Y-16643D01*
X34479Y-16700D01*
X34456Y-16756D01*
X34456Y-16855D01*
X34456Y-17260D01*
X34446Y-17235D01*
X34265Y-17054D01*
X34028Y-16956D01*
X33772Y-16956D01*
X33646Y-17008D01*
X33646Y-16185D01*
X34185Y-15646D01*
X34457Y-15646D01*
X34479Y-15700D01*
X34456Y-15756D01*
X34456Y-16087D01*
X34518Y-16150D01*
X35050Y-16150D01*
X35050Y-16142D01*
X35150Y-16142D01*
X35150Y-16150D01*
X35157Y-16150D01*
X35157Y-16250D01*
X35157Y-16250D01*
G37*
G54D27*
X35157Y-16250D02*
X35150Y-16250D01*
X35150Y-16257D01*
X35050Y-16257D01*
X35050Y-16250D01*
X34518Y-16250D01*
X34456Y-16312D01*
X34456Y-16643D01*
X34479Y-16700D01*
X34456Y-16756D01*
X34456Y-16855D01*
X34456Y-17260D01*
X34446Y-17235D01*
X34265Y-17054D01*
X34028Y-16956D01*
X33772Y-16956D01*
X33646Y-17008D01*
X33646Y-16185D01*
X34185Y-15646D01*
X34457Y-15646D01*
X34479Y-15700D01*
X34456Y-15756D01*
X34456Y-16087D01*
X34518Y-16150D01*
X35050Y-16150D01*
X35050Y-16142D01*
X35150Y-16142D01*
X35150Y-16150D01*
X35157Y-16150D01*
X35157Y-16250D01*
G54D10*
G36*
X36353Y-11416D02*
X36227Y-11364D01*
X36055Y-11364D01*
X36055Y-11364D01*
X36000Y-11353D01*
X35750Y-11353D01*
X35843Y-11128D01*
X35843Y-10872D01*
X35746Y-10635D01*
X35565Y-10454D01*
X35328Y-10356D01*
X35072Y-10356D01*
X34835Y-10453D01*
X34736Y-10553D01*
X34305Y-10553D01*
X34305Y-10183D01*
X34403Y-10085D01*
X34501Y-9849D01*
X34502Y-9592D01*
X34404Y-9356D01*
X34223Y-9175D01*
X33986Y-9076D01*
X33730Y-9076D01*
X33494Y-9174D01*
X33312Y-9355D01*
X33214Y-9591D01*
X33214Y-9847D01*
X33312Y-10084D01*
X33411Y-10183D01*
X33411Y-10553D01*
X30000Y-10553D01*
X29828Y-10587D01*
X29818Y-10593D01*
X29728Y-10556D01*
X29535Y-10556D01*
X29546Y-10500D01*
X29546Y-10500D01*
X29546Y-10463D01*
X29645Y-10365D01*
X29743Y-10128D01*
X29743Y-9872D01*
X29646Y-9635D01*
X29546Y-9536D01*
X29546Y-9300D01*
X29546Y-9299D01*
X29512Y-9128D01*
X29415Y-8984D01*
X29415Y-8984D01*
X29115Y-8684D01*
X29060Y-8646D01*
X29200Y-8646D01*
X31614Y-8646D01*
X31907Y-8939D01*
X31907Y-8939D01*
X32052Y-9036D01*
X32223Y-9070D01*
X34619Y-9070D01*
X36353Y-10803D01*
X36353Y-11416D01*
X36353Y-11416D01*
G37*
G54D27*
X36353Y-11416D02*
X36227Y-11364D01*
X36055Y-11364D01*
X36055Y-11364D01*
X36000Y-11353D01*
X35750Y-11353D01*
X35843Y-11128D01*
X35843Y-10872D01*
X35746Y-10635D01*
X35565Y-10454D01*
X35328Y-10356D01*
X35072Y-10356D01*
X34835Y-10453D01*
X34736Y-10553D01*
X34305Y-10553D01*
X34305Y-10183D01*
X34403Y-10085D01*
X34501Y-9849D01*
X34502Y-9592D01*
X34404Y-9356D01*
X34223Y-9175D01*
X33986Y-9076D01*
X33730Y-9076D01*
X33494Y-9174D01*
X33312Y-9355D01*
X33214Y-9591D01*
X33214Y-9847D01*
X33312Y-10084D01*
X33411Y-10183D01*
X33411Y-10553D01*
X30000Y-10553D01*
X29828Y-10587D01*
X29818Y-10593D01*
X29728Y-10556D01*
X29535Y-10556D01*
X29546Y-10500D01*
X29546Y-10500D01*
X29546Y-10463D01*
X29645Y-10365D01*
X29743Y-10128D01*
X29743Y-9872D01*
X29646Y-9635D01*
X29546Y-9536D01*
X29546Y-9300D01*
X29546Y-9299D01*
X29512Y-9128D01*
X29415Y-8984D01*
X29415Y-8984D01*
X29115Y-8684D01*
X29060Y-8646D01*
X29200Y-8646D01*
X31614Y-8646D01*
X31907Y-8939D01*
X31907Y-8939D01*
X32052Y-9036D01*
X32223Y-9070D01*
X34619Y-9070D01*
X36353Y-10803D01*
X36353Y-11416D01*
G54D10*
G36*
X38553Y-17814D02*
X38043Y-18324D01*
X38043Y-18272D01*
X37946Y-18035D01*
X37765Y-17854D01*
X37528Y-17756D01*
X37272Y-17756D01*
X37035Y-17853D01*
X36936Y-17953D01*
X36743Y-17953D01*
X36743Y-17643D01*
X36743Y-17312D01*
X36681Y-17250D01*
X36150Y-17250D01*
X36150Y-17781D01*
X36212Y-17843D01*
X36444Y-17843D01*
X36543Y-17843D01*
X36635Y-17805D01*
X36705Y-17735D01*
X36743Y-17643D01*
X36743Y-17953D01*
X35985Y-17953D01*
X35875Y-17843D01*
X35987Y-17843D01*
X36050Y-17781D01*
X36050Y-17250D01*
X36042Y-17250D01*
X36042Y-17150D01*
X36050Y-17150D01*
X36050Y-17142D01*
X36150Y-17142D01*
X36150Y-17150D01*
X36681Y-17150D01*
X36743Y-17087D01*
X36743Y-16756D01*
X36720Y-16699D01*
X36742Y-16646D01*
X37404Y-16646D01*
X37502Y-16744D01*
X37695Y-16824D01*
X37903Y-16825D01*
X38097Y-16745D01*
X38244Y-16597D01*
X38324Y-16404D01*
X38325Y-16196D01*
X38245Y-16003D01*
X38097Y-15855D01*
X37904Y-15775D01*
X37809Y-15775D01*
X37809Y-15775D01*
X37700Y-15753D01*
X36742Y-15753D01*
X36720Y-15699D01*
X36742Y-15646D01*
X38414Y-15646D01*
X38553Y-15785D01*
X38553Y-17814D01*
X38553Y-17814D01*
G37*
G54D27*
X38553Y-17814D02*
X38043Y-18324D01*
X38043Y-18272D01*
X37946Y-18035D01*
X37765Y-17854D01*
X37528Y-17756D01*
X37272Y-17756D01*
X37035Y-17853D01*
X36936Y-17953D01*
X36743Y-17953D01*
X36743Y-17643D01*
X36743Y-17312D01*
X36681Y-17250D01*
X36150Y-17250D01*
X36150Y-17781D01*
X36212Y-17843D01*
X36444Y-17843D01*
X36543Y-17843D01*
X36635Y-17805D01*
X36705Y-17735D01*
X36743Y-17643D01*
X36743Y-17953D01*
X35985Y-17953D01*
X35875Y-17843D01*
X35987Y-17843D01*
X36050Y-17781D01*
X36050Y-17250D01*
X36042Y-17250D01*
X36042Y-17150D01*
X36050Y-17150D01*
X36050Y-17142D01*
X36150Y-17142D01*
X36150Y-17150D01*
X36681Y-17150D01*
X36743Y-17087D01*
X36743Y-16756D01*
X36720Y-16699D01*
X36742Y-16646D01*
X37404Y-16646D01*
X37502Y-16744D01*
X37695Y-16824D01*
X37903Y-16825D01*
X38097Y-16745D01*
X38244Y-16597D01*
X38324Y-16404D01*
X38325Y-16196D01*
X38245Y-16003D01*
X38097Y-15855D01*
X37904Y-15775D01*
X37809Y-15775D01*
X37809Y-15775D01*
X37700Y-15753D01*
X36742Y-15753D01*
X36720Y-15699D01*
X36742Y-15646D01*
X38414Y-15646D01*
X38553Y-15785D01*
X38553Y-17814D01*
G54D10*
G36*
X41130Y-36130D02*
X40888Y-36130D01*
X40888Y-34049D01*
X39937Y-33097D01*
X39866Y-33168D01*
X39866Y-33026D01*
X38914Y-32075D01*
X38727Y-32210D01*
X38507Y-32734D01*
X38504Y-33304D01*
X38719Y-33831D01*
X38727Y-33843D01*
X38914Y-33978D01*
X39866Y-33026D01*
X39866Y-33168D01*
X38985Y-34049D01*
X39120Y-34235D01*
X39645Y-34456D01*
X40214Y-34459D01*
X40741Y-34244D01*
X40753Y-34235D01*
X40888Y-34049D01*
X40888Y-36130D01*
X37812Y-36130D01*
X37812Y-35288D01*
X37803Y-35016D01*
X37716Y-34807D01*
X37607Y-34763D01*
X37536Y-34834D01*
X37536Y-34692D01*
X37492Y-34583D01*
X37238Y-34487D01*
X36966Y-34496D01*
X36812Y-34560D01*
X36812Y-33288D01*
X36803Y-33016D01*
X36716Y-32807D01*
X36607Y-32763D01*
X36536Y-32834D01*
X36536Y-32692D01*
X36492Y-32583D01*
X36238Y-32487D01*
X35966Y-32496D01*
X35757Y-32583D01*
X35713Y-32692D01*
X36125Y-33104D01*
X36536Y-32692D01*
X36536Y-32834D01*
X36195Y-33175D01*
X36607Y-33586D01*
X36716Y-33542D01*
X36812Y-33288D01*
X36812Y-34560D01*
X36757Y-34583D01*
X36713Y-34692D01*
X37125Y-35104D01*
X37536Y-34692D01*
X37536Y-34834D01*
X37195Y-35175D01*
X37607Y-35586D01*
X37716Y-35542D01*
X37812Y-35288D01*
X37812Y-36130D01*
X37536Y-36130D01*
X37536Y-35657D01*
X37125Y-35245D01*
X37054Y-35316D01*
X37054Y-35175D01*
X36642Y-34763D01*
X36536Y-34806D01*
X36536Y-33657D01*
X36125Y-33245D01*
X36054Y-33316D01*
X36054Y-33175D01*
X35642Y-32763D01*
X35533Y-32807D01*
X35437Y-33061D01*
X35446Y-33333D01*
X35533Y-33542D01*
X35642Y-33586D01*
X36054Y-33175D01*
X36054Y-33316D01*
X35713Y-33657D01*
X35757Y-33766D01*
X36011Y-33862D01*
X36283Y-33853D01*
X36492Y-33766D01*
X36536Y-33657D01*
X36536Y-34806D01*
X36533Y-34807D01*
X36437Y-35061D01*
X36446Y-35333D01*
X36533Y-35542D01*
X36642Y-35586D01*
X37054Y-35175D01*
X37054Y-35316D01*
X36713Y-35657D01*
X36757Y-35766D01*
X37011Y-35862D01*
X37283Y-35853D01*
X37492Y-35766D01*
X37536Y-35657D01*
X37536Y-36130D01*
X35812Y-36130D01*
X35812Y-35288D01*
X35803Y-35016D01*
X35716Y-34807D01*
X35607Y-34763D01*
X35536Y-34834D01*
X35536Y-34692D01*
X35492Y-34583D01*
X35238Y-34487D01*
X34966Y-34496D01*
X34757Y-34583D01*
X34713Y-34692D01*
X35125Y-35104D01*
X35536Y-34692D01*
X35536Y-34834D01*
X35195Y-35175D01*
X35607Y-35586D01*
X35716Y-35542D01*
X35812Y-35288D01*
X35812Y-36130D01*
X35536Y-36130D01*
X35536Y-35657D01*
X35125Y-35245D01*
X35054Y-35316D01*
X35054Y-35175D01*
X34642Y-34763D01*
X34533Y-34807D01*
X34437Y-35061D01*
X34446Y-35333D01*
X34533Y-35542D01*
X34642Y-35586D01*
X35054Y-35175D01*
X35054Y-35316D01*
X34713Y-35657D01*
X34757Y-35766D01*
X35011Y-35862D01*
X35283Y-35853D01*
X35492Y-35766D01*
X35536Y-35657D01*
X35536Y-36130D01*
X26800Y-36130D01*
X19215Y-36130D01*
X19215Y-32075D01*
X19151Y-31753D01*
X18969Y-31480D01*
X18696Y-31298D01*
X18375Y-31234D01*
X16965Y-31234D01*
X16965Y-30825D01*
X16901Y-30503D01*
X16772Y-30310D01*
X16772Y-29429D01*
X16763Y-29173D01*
X16683Y-28980D01*
X16578Y-28941D01*
X16508Y-29012D01*
X16508Y-28871D01*
X16469Y-28766D01*
X16229Y-28677D01*
X15973Y-28686D01*
X15780Y-28766D01*
X15741Y-28871D01*
X16125Y-29254D01*
X16508Y-28871D01*
X16508Y-29012D01*
X16195Y-29325D01*
X16578Y-29708D01*
X16683Y-29669D01*
X16772Y-29429D01*
X16772Y-30310D01*
X16719Y-30230D01*
X16508Y-30089D01*
X16508Y-29778D01*
X16125Y-29395D01*
X16054Y-29466D01*
X16054Y-29325D01*
X15671Y-28941D01*
X15566Y-28980D01*
X15477Y-29220D01*
X15486Y-29476D01*
X15566Y-29669D01*
X15671Y-29708D01*
X16054Y-29325D01*
X16054Y-29466D01*
X15741Y-29778D01*
X15780Y-29883D01*
X16020Y-29972D01*
X16276Y-29963D01*
X16469Y-29883D01*
X16508Y-29778D01*
X16508Y-30089D01*
X16446Y-30048D01*
X16125Y-29984D01*
X15803Y-30048D01*
X15530Y-30230D01*
X15348Y-30503D01*
X15284Y-30825D01*
X15284Y-32075D01*
X15284Y-32826D01*
X14530Y-33580D01*
X14348Y-33853D01*
X14284Y-34175D01*
X14284Y-34541D01*
X14270Y-34541D01*
X14259Y-34536D01*
X14001Y-34536D01*
X13763Y-34634D01*
X13629Y-34767D01*
X13497Y-34635D01*
X13368Y-34582D01*
X13368Y-34582D01*
X13366Y-34580D01*
X13363Y-34579D01*
X13363Y-34579D01*
X13259Y-34536D01*
X13146Y-34536D01*
X13120Y-34531D01*
X13119Y-34531D01*
X12965Y-34531D01*
X12965Y-34175D01*
X12901Y-33853D01*
X12901Y-33853D01*
X12746Y-33621D01*
X13025Y-33621D01*
X13196Y-33587D01*
X13196Y-33587D01*
X13340Y-33490D01*
X13636Y-33195D01*
X13747Y-33195D01*
X13975Y-33100D01*
X14150Y-32926D01*
X14244Y-32698D01*
X14245Y-32452D01*
X14150Y-32224D01*
X14001Y-32074D01*
X14150Y-31926D01*
X14244Y-31698D01*
X14245Y-31452D01*
X14150Y-31224D01*
X14071Y-31145D01*
X14071Y-31038D01*
X14170Y-30940D01*
X14268Y-30703D01*
X14268Y-30447D01*
X14171Y-30210D01*
X13990Y-30029D01*
X13753Y-29931D01*
X13497Y-29931D01*
X13260Y-30028D01*
X13079Y-30209D01*
X12981Y-30446D01*
X12981Y-30702D01*
X13078Y-30939D01*
X13178Y-31038D01*
X13178Y-31145D01*
X13099Y-31223D01*
X13005Y-31451D01*
X13004Y-31697D01*
X13099Y-31925D01*
X13248Y-32075D01*
X13099Y-32223D01*
X13005Y-32451D01*
X13005Y-32563D01*
X12839Y-32728D01*
X11866Y-32728D01*
X11719Y-32580D01*
X11076Y-31938D01*
X11076Y-31791D01*
X11092Y-31807D01*
X11313Y-31899D01*
X11551Y-31899D01*
X11772Y-31808D01*
X11941Y-31639D01*
X11966Y-31578D01*
X12249Y-31296D01*
X12249Y-31296D01*
X12249Y-31296D01*
X12345Y-31151D01*
X12379Y-30980D01*
X12379Y-30980D01*
X12379Y-30384D01*
X12478Y-30286D01*
X12576Y-30049D01*
X12576Y-29793D01*
X12479Y-29557D01*
X12298Y-29375D01*
X12061Y-29277D01*
X11805Y-29277D01*
X11568Y-29375D01*
X11469Y-29474D01*
X11405Y-29474D01*
X10190Y-28259D01*
X10045Y-28162D01*
X9874Y-28128D01*
X9838Y-28128D01*
X9740Y-28029D01*
X9503Y-27931D01*
X9247Y-27931D01*
X9010Y-28028D01*
X8829Y-28209D01*
X8731Y-28446D01*
X8731Y-28702D01*
X8828Y-28939D01*
X9009Y-29120D01*
X9246Y-29218D01*
X9502Y-29218D01*
X9739Y-29121D01*
X9763Y-29096D01*
X10904Y-30237D01*
X11049Y-30334D01*
X11049Y-30334D01*
X11220Y-30368D01*
X11469Y-30368D01*
X11486Y-30384D01*
X11486Y-30699D01*
X11314Y-30699D01*
X11093Y-30790D01*
X10948Y-30934D01*
X10888Y-30844D01*
X10679Y-30704D01*
X10433Y-30655D01*
X10186Y-30704D01*
X10003Y-30827D01*
X9995Y-30807D01*
X9924Y-30737D01*
X9833Y-30699D01*
X9733Y-30699D01*
X9581Y-30699D01*
X9581Y-30025D01*
X9571Y-29769D01*
X9491Y-29577D01*
X9386Y-29538D01*
X9316Y-29608D01*
X9316Y-29467D01*
X9277Y-29362D01*
X9037Y-29273D01*
X8781Y-29282D01*
X8588Y-29362D01*
X8550Y-29467D01*
X8933Y-29850D01*
X9316Y-29467D01*
X9316Y-29608D01*
X9003Y-29921D01*
X9386Y-30304D01*
X9491Y-30265D01*
X9581Y-30025D01*
X9581Y-30699D01*
X9545Y-30699D01*
X9483Y-30761D01*
X9483Y-31249D01*
X9490Y-31249D01*
X9490Y-31349D01*
X9483Y-31349D01*
X9483Y-31836D01*
X9545Y-31899D01*
X9733Y-31899D01*
X9789Y-31899D01*
X9789Y-31962D01*
X9656Y-32161D01*
X9592Y-32483D01*
X9656Y-32804D01*
X9838Y-33077D01*
X9936Y-33175D01*
X9530Y-33580D01*
X9383Y-33801D01*
X9383Y-31836D01*
X9383Y-31349D01*
X9383Y-31249D01*
X9383Y-30761D01*
X9320Y-30699D01*
X9316Y-30699D01*
X9316Y-30375D01*
X8933Y-29991D01*
X8862Y-30062D01*
X8862Y-29921D01*
X8479Y-29538D01*
X8374Y-29577D01*
X8285Y-29817D01*
X8294Y-30073D01*
X8374Y-30265D01*
X8479Y-30304D01*
X8862Y-29921D01*
X8862Y-30062D01*
X8550Y-30375D01*
X8588Y-30480D01*
X8828Y-30569D01*
X9084Y-30559D01*
X9277Y-30480D01*
X9316Y-30375D01*
X9316Y-30699D01*
X9132Y-30699D01*
X9033Y-30699D01*
X8941Y-30737D01*
X8871Y-30807D01*
X8833Y-30899D01*
X8833Y-31186D01*
X8895Y-31249D01*
X9383Y-31249D01*
X9383Y-31349D01*
X8895Y-31349D01*
X8833Y-31411D01*
X8833Y-31698D01*
X8871Y-31790D01*
X8941Y-31861D01*
X9033Y-31899D01*
X9132Y-31899D01*
X9320Y-31899D01*
X9383Y-31836D01*
X9383Y-33801D01*
X9348Y-33853D01*
X9284Y-34175D01*
X9284Y-35175D01*
X9348Y-35496D01*
X9530Y-35769D01*
X9803Y-35951D01*
X10125Y-36015D01*
X12125Y-36015D01*
X12446Y-35951D01*
X12645Y-35818D01*
X12965Y-35818D01*
X13000Y-35833D01*
X13258Y-35833D01*
X13496Y-35735D01*
X13630Y-35602D01*
X13762Y-35734D01*
X14000Y-35833D01*
X14258Y-35833D01*
X14270Y-35828D01*
X14619Y-35828D01*
X14803Y-35951D01*
X15125Y-36015D01*
X17125Y-36015D01*
X17446Y-35951D01*
X17719Y-35769D01*
X17901Y-35496D01*
X17965Y-35175D01*
X17965Y-34175D01*
X17901Y-33853D01*
X17901Y-33853D01*
X17719Y-33580D01*
X17054Y-32915D01*
X18375Y-32915D01*
X18696Y-32851D01*
X18969Y-32669D01*
X19151Y-32396D01*
X19215Y-32075D01*
X19215Y-36130D01*
X10000Y-36130D01*
X7904Y-36130D01*
X7904Y-32749D01*
X7689Y-32222D01*
X7681Y-32210D01*
X7494Y-32075D01*
X7424Y-32145D01*
X6543Y-33026D01*
X7494Y-33978D01*
X7681Y-33843D01*
X7902Y-33318D01*
X7904Y-32749D01*
X7904Y-36130D01*
X7424Y-36130D01*
X5469Y-36130D01*
X5469Y-34086D01*
X5476Y-34093D01*
X5520Y-34049D01*
X5655Y-34235D01*
X6180Y-34456D01*
X6749Y-34459D01*
X7277Y-34244D01*
X7289Y-34235D01*
X7424Y-34049D01*
X6472Y-33097D01*
X6466Y-33103D01*
X6396Y-33032D01*
X6401Y-33026D01*
X6396Y-33021D01*
X6466Y-32950D01*
X6472Y-32956D01*
X7424Y-32004D01*
X7289Y-31817D01*
X6764Y-31597D01*
X6583Y-31596D01*
X6583Y-17953D01*
X6200Y-17570D01*
X6129Y-17641D01*
X6129Y-17500D01*
X5746Y-17116D01*
X5641Y-17155D01*
X5552Y-17395D01*
X5561Y-17651D01*
X5641Y-17844D01*
X5746Y-17883D01*
X6129Y-17500D01*
X6129Y-17641D01*
X5816Y-17953D01*
X5855Y-18058D01*
X6095Y-18147D01*
X6351Y-18138D01*
X6544Y-18058D01*
X6583Y-17953D01*
X6583Y-31596D01*
X6194Y-31594D01*
X5667Y-31809D01*
X5655Y-31817D01*
X5520Y-32004D01*
X5476Y-31960D01*
X5469Y-31967D01*
X5469Y-8101D01*
X5476Y-8108D01*
X5520Y-8064D01*
X5655Y-8251D01*
X6180Y-8472D01*
X6749Y-8475D01*
X7277Y-8259D01*
X7289Y-8251D01*
X7424Y-8064D01*
X6472Y-7113D01*
X6466Y-7118D01*
X6396Y-7048D01*
X6401Y-7042D01*
X6396Y-7036D01*
X6466Y-6966D01*
X6472Y-6971D01*
X7424Y-6020D01*
X7289Y-5833D01*
X6899Y-5669D01*
X39513Y-5669D01*
X39132Y-5825D01*
X39120Y-5833D01*
X38985Y-6020D01*
X39937Y-6971D01*
X40888Y-6020D01*
X40753Y-5833D01*
X40364Y-5669D01*
X41130Y-5669D01*
X41130Y-6214D01*
X40959Y-6090D01*
X40007Y-7042D01*
X40959Y-7994D01*
X41130Y-7870D01*
X41130Y-20400D01*
X41130Y-24200D01*
X41130Y-32198D01*
X40959Y-32075D01*
X40888Y-32145D01*
X40888Y-32004D01*
X40888Y-8064D01*
X39937Y-7113D01*
X39866Y-7183D01*
X39866Y-7042D01*
X38914Y-6090D01*
X38727Y-6225D01*
X38507Y-6750D01*
X38504Y-7320D01*
X38719Y-7847D01*
X38727Y-7859D01*
X38914Y-7994D01*
X39866Y-7042D01*
X39866Y-7183D01*
X38985Y-8064D01*
X39120Y-8251D01*
X39645Y-8472D01*
X40214Y-8475D01*
X40741Y-8259D01*
X40753Y-8251D01*
X40888Y-8064D01*
X40888Y-32004D01*
X40753Y-31817D01*
X40228Y-31597D01*
X39847Y-31595D01*
X39847Y-29204D01*
X39847Y-23604D01*
X39838Y-23348D01*
X39758Y-23155D01*
X39653Y-23116D01*
X39270Y-23500D01*
X39653Y-23883D01*
X39758Y-23844D01*
X39847Y-23604D01*
X39847Y-29204D01*
X39838Y-28948D01*
X39772Y-28790D01*
X39772Y-26179D01*
X39768Y-26066D01*
X39768Y-24947D01*
X39671Y-24710D01*
X39583Y-24622D01*
X39583Y-23953D01*
X39200Y-23570D01*
X39129Y-23641D01*
X39129Y-23500D01*
X38746Y-23116D01*
X38641Y-23155D01*
X38552Y-23395D01*
X38561Y-23651D01*
X38641Y-23844D01*
X38746Y-23883D01*
X39129Y-23500D01*
X39129Y-23641D01*
X38816Y-23953D01*
X38855Y-24058D01*
X39095Y-24147D01*
X39351Y-24138D01*
X39544Y-24058D01*
X39583Y-23953D01*
X39583Y-24622D01*
X39490Y-24529D01*
X39253Y-24431D01*
X38997Y-24431D01*
X38760Y-24528D01*
X38636Y-24653D01*
X37929Y-24653D01*
X37929Y-23575D01*
X37918Y-23367D01*
X37860Y-23227D01*
X37767Y-23202D01*
X37470Y-23500D01*
X37767Y-23797D01*
X37860Y-23772D01*
X37929Y-23575D01*
X37929Y-24653D01*
X37856Y-24653D01*
X37816Y-24613D01*
X37724Y-24575D01*
X37697Y-24575D01*
X37697Y-23867D01*
X37400Y-23570D01*
X37329Y-23641D01*
X37329Y-23500D01*
X37032Y-23202D01*
X36939Y-23227D01*
X36870Y-23424D01*
X36881Y-23632D01*
X36939Y-23772D01*
X37032Y-23797D01*
X37329Y-23500D01*
X37329Y-23641D01*
X37102Y-23867D01*
X37127Y-23960D01*
X37324Y-24029D01*
X37532Y-24018D01*
X37672Y-23960D01*
X37697Y-23867D01*
X37697Y-24575D01*
X37625Y-24574D01*
X37075Y-24574D01*
X37026Y-24595D01*
X36643Y-24211D01*
X36643Y-24072D01*
X36546Y-23835D01*
X36365Y-23654D01*
X36128Y-23556D01*
X35872Y-23556D01*
X35635Y-23653D01*
X35454Y-23834D01*
X35356Y-24071D01*
X35356Y-24327D01*
X35453Y-24564D01*
X35634Y-24745D01*
X35871Y-24843D01*
X36011Y-24843D01*
X36584Y-25415D01*
X36728Y-25512D01*
X36728Y-25512D01*
X36900Y-25546D01*
X36943Y-25546D01*
X36983Y-25586D01*
X37075Y-25624D01*
X37162Y-25625D01*
X37127Y-25639D01*
X37102Y-25732D01*
X37400Y-26029D01*
X37697Y-25732D01*
X37672Y-25639D01*
X37631Y-25625D01*
X37724Y-25625D01*
X37816Y-25587D01*
X37856Y-25546D01*
X38686Y-25546D01*
X38747Y-25607D01*
X38741Y-25621D01*
X39125Y-26004D01*
X39508Y-25621D01*
X39502Y-25607D01*
X39670Y-25440D01*
X39768Y-25203D01*
X39768Y-24947D01*
X39768Y-26066D01*
X39763Y-25923D01*
X39683Y-25730D01*
X39578Y-25691D01*
X39195Y-26075D01*
X39578Y-26458D01*
X39683Y-26419D01*
X39772Y-26179D01*
X39772Y-28790D01*
X39758Y-28755D01*
X39653Y-28716D01*
X39583Y-28787D01*
X39583Y-28646D01*
X39544Y-28541D01*
X39508Y-28527D01*
X39508Y-26528D01*
X39125Y-26145D01*
X39054Y-26216D01*
X39054Y-26075D01*
X38671Y-25691D01*
X38566Y-25730D01*
X38477Y-25970D01*
X38486Y-26226D01*
X38566Y-26419D01*
X38671Y-26458D01*
X39054Y-26075D01*
X39054Y-26216D01*
X38741Y-26528D01*
X38780Y-26633D01*
X39020Y-26722D01*
X39276Y-26713D01*
X39469Y-26633D01*
X39508Y-26528D01*
X39508Y-28527D01*
X39304Y-28452D01*
X39048Y-28461D01*
X38855Y-28541D01*
X38816Y-28646D01*
X39200Y-29029D01*
X39583Y-28646D01*
X39583Y-28787D01*
X39270Y-29100D01*
X39653Y-29483D01*
X39758Y-29444D01*
X39847Y-29204D01*
X39847Y-31595D01*
X39843Y-31595D01*
X39843Y-29972D01*
X39794Y-29853D01*
X39746Y-29735D01*
X39655Y-29644D01*
X39655Y-29644D01*
X39655Y-29644D01*
X39577Y-29567D01*
X39583Y-29553D01*
X39200Y-29170D01*
X39194Y-29176D01*
X39123Y-29105D01*
X39129Y-29100D01*
X38746Y-28716D01*
X38641Y-28755D01*
X38552Y-28995D01*
X38561Y-29251D01*
X38641Y-29444D01*
X38673Y-29456D01*
X38432Y-29456D01*
X38321Y-29382D01*
X38321Y-28710D01*
X38588Y-28443D01*
X38727Y-28443D01*
X38964Y-28346D01*
X39145Y-28165D01*
X39243Y-27928D01*
X39243Y-27672D01*
X39146Y-27435D01*
X38965Y-27254D01*
X38728Y-27156D01*
X38472Y-27156D01*
X38235Y-27253D01*
X38054Y-27434D01*
X37956Y-27671D01*
X37956Y-27811D01*
X37929Y-27838D01*
X37929Y-26175D01*
X37918Y-25967D01*
X37860Y-25827D01*
X37767Y-25802D01*
X37470Y-26100D01*
X37767Y-26397D01*
X37860Y-26372D01*
X37929Y-26175D01*
X37929Y-27838D01*
X37697Y-28070D01*
X37697Y-26467D01*
X37400Y-26170D01*
X37329Y-26241D01*
X37329Y-26100D01*
X37032Y-25802D01*
X36939Y-25827D01*
X36870Y-26024D01*
X36881Y-26232D01*
X36939Y-26372D01*
X37032Y-26397D01*
X37329Y-26100D01*
X37329Y-26241D01*
X37102Y-26467D01*
X37127Y-26560D01*
X37324Y-26629D01*
X37532Y-26618D01*
X37672Y-26560D01*
X37697Y-26467D01*
X37697Y-28070D01*
X37559Y-28209D01*
X37462Y-28353D01*
X37428Y-28525D01*
X37428Y-29382D01*
X37280Y-29480D01*
X36776Y-29984D01*
X35240Y-29984D01*
X35240Y-28400D01*
X35176Y-28078D01*
X35176Y-28078D01*
X34994Y-27805D01*
X34435Y-27246D01*
X35653Y-27246D01*
X35653Y-28136D01*
X35554Y-28234D01*
X35456Y-28471D01*
X35456Y-28727D01*
X35553Y-28964D01*
X35734Y-29145D01*
X35971Y-29243D01*
X36227Y-29243D01*
X36464Y-29146D01*
X36645Y-28965D01*
X36743Y-28728D01*
X36743Y-28472D01*
X36646Y-28235D01*
X36546Y-28136D01*
X36546Y-26900D01*
X36512Y-26728D01*
X36512Y-26728D01*
X36415Y-26584D01*
X36315Y-26484D01*
X36171Y-26387D01*
X36000Y-26353D01*
X34385Y-26353D01*
X34115Y-26084D01*
X33971Y-25987D01*
X33800Y-25953D01*
X33524Y-25953D01*
X33524Y-24898D01*
X33514Y-24652D01*
X33439Y-24470D01*
X33336Y-24434D01*
X32970Y-24800D01*
X33336Y-25165D01*
X33439Y-25129D01*
X33524Y-24898D01*
X33524Y-25953D01*
X33265Y-25953D01*
X33265Y-25236D01*
X32900Y-24870D01*
X32534Y-25236D01*
X32570Y-25339D01*
X32801Y-25424D01*
X33047Y-25414D01*
X33229Y-25339D01*
X33265Y-25236D01*
X33265Y-25953D01*
X32385Y-25953D01*
X31851Y-25419D01*
X32022Y-25420D01*
X32250Y-25325D01*
X32424Y-25152D01*
X32463Y-25165D01*
X32829Y-24800D01*
X32463Y-24434D01*
X32424Y-24447D01*
X32251Y-24274D01*
X32244Y-24271D01*
X32400Y-24271D01*
X32566Y-24271D01*
X32534Y-24363D01*
X32900Y-24729D01*
X33265Y-24363D01*
X33233Y-24270D01*
X33396Y-24237D01*
X33396Y-24237D01*
X33540Y-24140D01*
X34943Y-22738D01*
X34953Y-22764D01*
X35134Y-22945D01*
X35371Y-23043D01*
X35627Y-23043D01*
X35864Y-22946D01*
X35963Y-22846D01*
X36884Y-22846D01*
X36912Y-22916D01*
X36983Y-22986D01*
X37075Y-23024D01*
X37162Y-23025D01*
X37127Y-23039D01*
X37102Y-23132D01*
X37400Y-23429D01*
X37697Y-23132D01*
X37672Y-23039D01*
X37631Y-23025D01*
X37724Y-23025D01*
X37816Y-22987D01*
X37856Y-22946D01*
X38736Y-22946D01*
X38822Y-23032D01*
X38816Y-23046D01*
X39200Y-23429D01*
X39583Y-23046D01*
X39577Y-23032D01*
X39745Y-22865D01*
X39843Y-22628D01*
X39843Y-22372D01*
X39746Y-22135D01*
X39565Y-21954D01*
X39328Y-21856D01*
X39072Y-21856D01*
X38835Y-21953D01*
X38736Y-22053D01*
X37856Y-22053D01*
X37846Y-22043D01*
X37846Y-21000D01*
X37846Y-20999D01*
X37812Y-20828D01*
X37715Y-20684D01*
X37715Y-20684D01*
X37315Y-20284D01*
X37171Y-20187D01*
X37000Y-20153D01*
X36843Y-20153D01*
X36843Y-20072D01*
X36746Y-19835D01*
X36565Y-19654D01*
X36546Y-19646D01*
X37800Y-19646D01*
X37971Y-19612D01*
X37971Y-19612D01*
X38115Y-19515D01*
X39315Y-18315D01*
X39315Y-18315D01*
X39412Y-18171D01*
X39446Y-18000D01*
X39446Y-18000D01*
X39446Y-15600D01*
X39446Y-15599D01*
X39412Y-15428D01*
X39315Y-15284D01*
X39315Y-15284D01*
X38915Y-14884D01*
X38771Y-14787D01*
X38600Y-14753D01*
X36742Y-14753D01*
X36720Y-14699D01*
X36743Y-14643D01*
X36743Y-14618D01*
X36771Y-14612D01*
X36771Y-14612D01*
X36915Y-14515D01*
X37115Y-14315D01*
X37115Y-14315D01*
X37212Y-14171D01*
X37246Y-14000D01*
X37246Y-14000D01*
X37246Y-11600D01*
X37246Y-11346D01*
X37253Y-11364D01*
X37353Y-11463D01*
X37353Y-11984D01*
X37348Y-12007D01*
X37353Y-12031D01*
X37353Y-12843D01*
X37313Y-12883D01*
X37275Y-12975D01*
X37274Y-13074D01*
X37274Y-13624D01*
X37312Y-13716D01*
X37383Y-13786D01*
X37475Y-13824D01*
X37574Y-13825D01*
X38124Y-13825D01*
X38216Y-13787D01*
X38286Y-13716D01*
X38324Y-13624D01*
X38325Y-13525D01*
X38325Y-12975D01*
X38287Y-12883D01*
X38246Y-12843D01*
X38246Y-12454D01*
X38634Y-12454D01*
X38733Y-12553D01*
X38969Y-12651D01*
X39225Y-12651D01*
X39462Y-12553D01*
X39643Y-12372D01*
X39742Y-12136D01*
X39742Y-11880D01*
X39644Y-11643D01*
X39463Y-11462D01*
X39227Y-11364D01*
X38970Y-11364D01*
X38734Y-11461D01*
X38634Y-11561D01*
X38246Y-11561D01*
X38246Y-11463D01*
X38345Y-11365D01*
X38443Y-11128D01*
X38443Y-10872D01*
X38346Y-10635D01*
X38165Y-10454D01*
X37928Y-10356D01*
X37672Y-10356D01*
X37435Y-10453D01*
X37254Y-10634D01*
X37246Y-10653D01*
X37246Y-10618D01*
X37212Y-10447D01*
X37115Y-10302D01*
X37115Y-10302D01*
X35120Y-8307D01*
X34975Y-8210D01*
X34804Y-8176D01*
X34367Y-8176D01*
X34403Y-8140D01*
X34501Y-7904D01*
X34502Y-7648D01*
X34404Y-7411D01*
X34223Y-7230D01*
X33986Y-7132D01*
X33730Y-7131D01*
X33679Y-7153D01*
X32480Y-7153D01*
X29600Y-7153D01*
X18800Y-7153D01*
X18628Y-7187D01*
X18484Y-7284D01*
X17484Y-8284D01*
X17387Y-8428D01*
X17353Y-8600D01*
X17353Y-9400D01*
X17353Y-10021D01*
X17015Y-9684D01*
X16871Y-9587D01*
X16700Y-9553D01*
X15663Y-9553D01*
X15565Y-9454D01*
X15328Y-9356D01*
X15072Y-9356D01*
X14835Y-9453D01*
X14654Y-9634D01*
X14556Y-9871D01*
X14556Y-10127D01*
X14653Y-10364D01*
X14834Y-10545D01*
X15071Y-10643D01*
X15327Y-10643D01*
X15564Y-10546D01*
X15663Y-10446D01*
X16514Y-10446D01*
X16653Y-10585D01*
X16653Y-11600D01*
X16658Y-11626D01*
X16590Y-11559D01*
X16446Y-11462D01*
X16275Y-11428D01*
X16000Y-11428D01*
X15867Y-11428D01*
X15830Y-11339D01*
X15760Y-11269D01*
X15668Y-11231D01*
X15569Y-11231D01*
X14781Y-11231D01*
X14689Y-11269D01*
X14619Y-11339D01*
X14581Y-11431D01*
X14581Y-11530D01*
X14581Y-12318D01*
X14604Y-12375D01*
X14581Y-12431D01*
X14581Y-12530D01*
X14581Y-13318D01*
X14604Y-13375D01*
X14581Y-13431D01*
X14581Y-13530D01*
X14581Y-14318D01*
X14604Y-14375D01*
X14581Y-14431D01*
X14581Y-14530D01*
X14581Y-15318D01*
X14604Y-15375D01*
X14582Y-15428D01*
X13171Y-15428D01*
X13171Y-13060D01*
X13915Y-12315D01*
X13915Y-12315D01*
X14012Y-12171D01*
X14046Y-12000D01*
X14046Y-12000D01*
X14046Y-8963D01*
X14145Y-8865D01*
X14243Y-8628D01*
X14243Y-8372D01*
X14146Y-8135D01*
X13965Y-7954D01*
X13728Y-7856D01*
X13472Y-7856D01*
X13235Y-7953D01*
X13054Y-8134D01*
X12956Y-8371D01*
X12956Y-8627D01*
X13053Y-8864D01*
X13153Y-8963D01*
X13153Y-11814D01*
X12843Y-12124D01*
X12843Y-9872D01*
X12746Y-9635D01*
X12565Y-9454D01*
X12328Y-9356D01*
X12072Y-9356D01*
X11835Y-9453D01*
X11736Y-9553D01*
X9285Y-9553D01*
X9220Y-9488D01*
X9220Y-9377D01*
X9125Y-9149D01*
X8976Y-8999D01*
X9029Y-8946D01*
X10136Y-8946D01*
X10234Y-9045D01*
X10471Y-9143D01*
X10727Y-9143D01*
X10964Y-9046D01*
X11145Y-8865D01*
X11243Y-8628D01*
X11243Y-8372D01*
X11146Y-8135D01*
X10965Y-7954D01*
X10728Y-7856D01*
X10472Y-7856D01*
X10235Y-7953D01*
X10136Y-8053D01*
X9029Y-8053D01*
X8951Y-7974D01*
X8723Y-7880D01*
X8477Y-7879D01*
X8249Y-7974D01*
X8074Y-8148D01*
X7980Y-8376D01*
X7979Y-8622D01*
X8074Y-8850D01*
X8223Y-9000D01*
X8074Y-9148D01*
X7980Y-9376D01*
X7979Y-9622D01*
X8074Y-9850D01*
X8153Y-9929D01*
X8153Y-10536D01*
X8054Y-10634D01*
X7956Y-10871D01*
X7956Y-11127D01*
X8053Y-11364D01*
X8222Y-11532D01*
X8216Y-11546D01*
X8600Y-11929D01*
X8983Y-11546D01*
X8977Y-11532D01*
X9145Y-11365D01*
X9243Y-11128D01*
X9243Y-10872D01*
X9146Y-10635D01*
X9046Y-10536D01*
X9046Y-10436D01*
X9100Y-10446D01*
X11736Y-10446D01*
X11834Y-10545D01*
X12071Y-10643D01*
X12327Y-10643D01*
X12564Y-10546D01*
X12745Y-10365D01*
X12843Y-10128D01*
X12843Y-9872D01*
X12843Y-12124D01*
X12539Y-12428D01*
X10867Y-12428D01*
X10845Y-12375D01*
X10868Y-12318D01*
X10868Y-11431D01*
X10830Y-11339D01*
X10760Y-11269D01*
X10668Y-11231D01*
X10569Y-11231D01*
X10337Y-11231D01*
X10275Y-11293D01*
X10275Y-11825D01*
X10806Y-11825D01*
X10868Y-11762D01*
X10868Y-11431D01*
X10868Y-12318D01*
X10868Y-11987D01*
X10806Y-11925D01*
X10275Y-11925D01*
X10275Y-11932D01*
X10175Y-11932D01*
X10175Y-11925D01*
X10175Y-11825D01*
X10175Y-11293D01*
X10112Y-11231D01*
X9880Y-11231D01*
X9781Y-11231D01*
X9689Y-11269D01*
X9619Y-11339D01*
X9581Y-11431D01*
X9581Y-11762D01*
X9643Y-11825D01*
X10175Y-11825D01*
X10175Y-11925D01*
X9643Y-11925D01*
X9581Y-11987D01*
X9581Y-12318D01*
X9604Y-12375D01*
X9581Y-12431D01*
X9581Y-12530D01*
X9581Y-13231D01*
X9247Y-13231D01*
X9247Y-12104D01*
X9238Y-11848D01*
X9158Y-11655D01*
X9053Y-11616D01*
X8670Y-12000D01*
X9053Y-12383D01*
X9158Y-12344D01*
X9247Y-12104D01*
X9247Y-13231D01*
X8983Y-13231D01*
X8983Y-12453D01*
X8600Y-12070D01*
X8529Y-12141D01*
X8529Y-12000D01*
X8146Y-11616D01*
X8041Y-11655D01*
X7952Y-11895D01*
X7961Y-12151D01*
X8041Y-12344D01*
X8146Y-12383D01*
X8529Y-12000D01*
X8529Y-12141D01*
X8216Y-12453D01*
X8255Y-12558D01*
X8495Y-12647D01*
X8751Y-12638D01*
X8944Y-12558D01*
X8983Y-12453D01*
X8983Y-13231D01*
X8865Y-13231D01*
X8854Y-13226D01*
X8708Y-13226D01*
X8465Y-12984D01*
X8321Y-12887D01*
X8150Y-12853D01*
X7904Y-12853D01*
X7904Y-6765D01*
X7689Y-6237D01*
X7681Y-6225D01*
X7494Y-6090D01*
X6543Y-7042D01*
X7494Y-7994D01*
X7681Y-7859D01*
X7902Y-7334D01*
X7904Y-6765D01*
X7904Y-12853D01*
X7663Y-12853D01*
X7565Y-12754D01*
X7424Y-12696D01*
X7328Y-12656D01*
X7072Y-12656D01*
X6835Y-12753D01*
X6667Y-12922D01*
X6653Y-12916D01*
X6583Y-12987D01*
X6583Y-12846D01*
X6544Y-12741D01*
X6304Y-12652D01*
X6048Y-12661D01*
X5855Y-12741D01*
X5816Y-12846D01*
X6200Y-13229D01*
X6583Y-12846D01*
X6583Y-12987D01*
X6270Y-13300D01*
X6653Y-13683D01*
X6667Y-13677D01*
X6834Y-13845D01*
X7071Y-13943D01*
X7327Y-13943D01*
X7564Y-13846D01*
X7663Y-13746D01*
X7964Y-13746D01*
X8076Y-13858D01*
X8076Y-14003D01*
X8174Y-14241D01*
X8307Y-14375D01*
X8254Y-14428D01*
X8160Y-14428D01*
X8115Y-14384D01*
X7971Y-14287D01*
X7800Y-14253D01*
X7663Y-14253D01*
X7565Y-14154D01*
X7328Y-14056D01*
X7072Y-14056D01*
X6835Y-14153D01*
X6667Y-14322D01*
X6653Y-14316D01*
X6583Y-14387D01*
X6583Y-14246D01*
X6583Y-13753D01*
X6200Y-13370D01*
X6129Y-13441D01*
X6129Y-13300D01*
X5746Y-12916D01*
X5641Y-12955D01*
X5552Y-13195D01*
X5561Y-13451D01*
X5641Y-13644D01*
X5746Y-13683D01*
X6129Y-13300D01*
X6129Y-13441D01*
X5816Y-13753D01*
X5855Y-13858D01*
X6095Y-13947D01*
X6351Y-13938D01*
X6544Y-13858D01*
X6583Y-13753D01*
X6583Y-14246D01*
X6544Y-14141D01*
X6304Y-14052D01*
X6048Y-14061D01*
X5855Y-14141D01*
X5816Y-14246D01*
X6200Y-14629D01*
X6583Y-14246D01*
X6583Y-14387D01*
X6270Y-14700D01*
X6653Y-15083D01*
X6667Y-15077D01*
X6834Y-15245D01*
X7071Y-15343D01*
X7327Y-15343D01*
X7564Y-15246D01*
X7639Y-15171D01*
X7659Y-15190D01*
X7659Y-15190D01*
X7803Y-15287D01*
X7974Y-15321D01*
X7975Y-15321D01*
X8254Y-15321D01*
X8307Y-15375D01*
X8254Y-15428D01*
X8025Y-15428D01*
X7853Y-15462D01*
X7709Y-15559D01*
X7639Y-15628D01*
X7565Y-15554D01*
X7328Y-15456D01*
X7072Y-15456D01*
X6835Y-15553D01*
X6667Y-15722D01*
X6653Y-15716D01*
X6583Y-15787D01*
X6583Y-15646D01*
X6583Y-15153D01*
X6200Y-14770D01*
X6129Y-14841D01*
X6129Y-14700D01*
X5746Y-14316D01*
X5641Y-14355D01*
X5552Y-14595D01*
X5561Y-14851D01*
X5641Y-15044D01*
X5746Y-15083D01*
X6129Y-14700D01*
X6129Y-14841D01*
X5816Y-15153D01*
X5855Y-15258D01*
X6095Y-15347D01*
X6351Y-15338D01*
X6544Y-15258D01*
X6583Y-15153D01*
X6583Y-15646D01*
X6544Y-15541D01*
X6304Y-15452D01*
X6048Y-15461D01*
X5855Y-15541D01*
X5816Y-15646D01*
X6200Y-16029D01*
X6583Y-15646D01*
X6583Y-15787D01*
X6270Y-16100D01*
X6653Y-16483D01*
X6667Y-16477D01*
X6834Y-16645D01*
X7071Y-16743D01*
X7327Y-16743D01*
X7564Y-16646D01*
X7663Y-16546D01*
X7800Y-16546D01*
X7971Y-16512D01*
X7971Y-16512D01*
X8076Y-16442D01*
X8076Y-16513D01*
X8076Y-16513D01*
X8009Y-16559D01*
X7684Y-16884D01*
X7608Y-16997D01*
X7565Y-16954D01*
X7328Y-16856D01*
X7072Y-16856D01*
X6835Y-16953D01*
X6667Y-17122D01*
X6653Y-17116D01*
X6583Y-17187D01*
X6583Y-17046D01*
X6583Y-16553D01*
X6200Y-16170D01*
X6129Y-16241D01*
X6129Y-16100D01*
X5746Y-15716D01*
X5641Y-15755D01*
X5552Y-15995D01*
X5561Y-16251D01*
X5641Y-16444D01*
X5746Y-16483D01*
X6129Y-16100D01*
X6129Y-16241D01*
X5816Y-16553D01*
X5855Y-16658D01*
X6095Y-16747D01*
X6351Y-16738D01*
X6544Y-16658D01*
X6583Y-16553D01*
X6583Y-17046D01*
X6544Y-16941D01*
X6304Y-16852D01*
X6048Y-16861D01*
X5855Y-16941D01*
X5816Y-17046D01*
X6200Y-17429D01*
X6583Y-17046D01*
X6583Y-17187D01*
X6270Y-17500D01*
X6653Y-17883D01*
X6667Y-17877D01*
X6834Y-18045D01*
X7071Y-18143D01*
X7327Y-18143D01*
X7564Y-18046D01*
X7663Y-17946D01*
X7900Y-17946D01*
X8071Y-17912D01*
X8071Y-17912D01*
X8081Y-17905D01*
X8086Y-18026D01*
X8166Y-18219D01*
X8271Y-18258D01*
X8654Y-17875D01*
X8648Y-17869D01*
X8719Y-17798D01*
X8725Y-17804D01*
X8730Y-17798D01*
X8801Y-17869D01*
X8795Y-17875D01*
X8801Y-17880D01*
X8730Y-17951D01*
X8725Y-17945D01*
X8341Y-18328D01*
X8347Y-18342D01*
X8269Y-18419D01*
X8269Y-18419D01*
X8269Y-18419D01*
X8269Y-18419D01*
X8179Y-18509D01*
X8179Y-18510D01*
X7912Y-18776D01*
X7678Y-18823D01*
X7405Y-19005D01*
X7223Y-19278D01*
X7159Y-19600D01*
X7159Y-26800D01*
X7223Y-27121D01*
X7405Y-27394D01*
X7605Y-27594D01*
X7878Y-27776D01*
X7878Y-27776D01*
X8200Y-27840D01*
X12051Y-27840D01*
X12380Y-28169D01*
X12380Y-28169D01*
X12653Y-28351D01*
X12653Y-28351D01*
X12974Y-28415D01*
X12975Y-28415D01*
X13625Y-28415D01*
X13946Y-28351D01*
X14219Y-28169D01*
X14723Y-27665D01*
X17625Y-27665D01*
X22526Y-27665D01*
X23014Y-28153D01*
X22407Y-28153D01*
X22236Y-28187D01*
X22225Y-28194D01*
X22041Y-28194D01*
X21805Y-28292D01*
X21623Y-28473D01*
X21525Y-28709D01*
X21525Y-28826D01*
X21353Y-28998D01*
X21256Y-29143D01*
X21222Y-29314D01*
X21222Y-29913D01*
X21185Y-29950D01*
X21124Y-29859D01*
X20915Y-29720D01*
X20669Y-29671D01*
X20422Y-29720D01*
X20239Y-29842D01*
X20231Y-29823D01*
X20161Y-29753D01*
X20069Y-29715D01*
X19969Y-29714D01*
X19817Y-29714D01*
X19817Y-28942D01*
X19807Y-28686D01*
X19728Y-28494D01*
X19623Y-28455D01*
X19552Y-28526D01*
X19552Y-28384D01*
X19513Y-28279D01*
X19273Y-28190D01*
X19017Y-28200D01*
X18825Y-28279D01*
X18786Y-28384D01*
X19169Y-28767D01*
X19552Y-28384D01*
X19552Y-28526D01*
X19240Y-28838D01*
X19623Y-29221D01*
X19728Y-29182D01*
X19817Y-28942D01*
X19817Y-29714D01*
X19781Y-29714D01*
X19719Y-29777D01*
X19719Y-30264D01*
X19727Y-30264D01*
X19727Y-30364D01*
X19719Y-30364D01*
X19719Y-30852D01*
X19781Y-30914D01*
X19969Y-30915D01*
X20025Y-30914D01*
X20025Y-31073D01*
X19892Y-31272D01*
X19828Y-31594D01*
X19892Y-31916D01*
X20074Y-32188D01*
X20284Y-32398D01*
X20284Y-32826D01*
X19619Y-33491D01*
X19619Y-30852D01*
X19619Y-30364D01*
X19619Y-30264D01*
X19619Y-29777D01*
X19556Y-29714D01*
X19552Y-29714D01*
X19552Y-29292D01*
X19169Y-28909D01*
X19098Y-28980D01*
X19098Y-28838D01*
X18715Y-28455D01*
X18610Y-28494D01*
X18521Y-28734D01*
X18530Y-28990D01*
X18610Y-29182D01*
X18715Y-29221D01*
X19098Y-28838D01*
X19098Y-28980D01*
X18786Y-29292D01*
X18825Y-29397D01*
X19065Y-29486D01*
X19321Y-29477D01*
X19513Y-29397D01*
X19552Y-29292D01*
X19552Y-29714D01*
X19368Y-29714D01*
X19269Y-29715D01*
X19177Y-29753D01*
X19107Y-29823D01*
X19069Y-29915D01*
X19069Y-30202D01*
X19131Y-30264D01*
X19619Y-30264D01*
X19619Y-30364D01*
X19131Y-30364D01*
X19069Y-30427D01*
X19069Y-30714D01*
X19107Y-30806D01*
X19177Y-30876D01*
X19269Y-30914D01*
X19368Y-30915D01*
X19556Y-30914D01*
X19619Y-30852D01*
X19619Y-33491D01*
X19530Y-33580D01*
X19348Y-33853D01*
X19284Y-34175D01*
X19284Y-35175D01*
X19348Y-35496D01*
X19530Y-35769D01*
X19803Y-35951D01*
X20125Y-36015D01*
X22125Y-36015D01*
X22446Y-35951D01*
X22630Y-35828D01*
X22969Y-35828D01*
X22980Y-35833D01*
X23238Y-35833D01*
X23476Y-35735D01*
X23610Y-35602D01*
X23742Y-35734D01*
X23980Y-35833D01*
X24238Y-35833D01*
X24250Y-35828D01*
X24619Y-35828D01*
X24803Y-35951D01*
X25125Y-36015D01*
X27125Y-36015D01*
X30125Y-36015D01*
X32125Y-36015D01*
X32446Y-35951D01*
X32719Y-35769D01*
X32901Y-35496D01*
X32965Y-35175D01*
X32965Y-34175D01*
X32901Y-33853D01*
X32901Y-33853D01*
X32719Y-33580D01*
X31965Y-32826D01*
X31965Y-31665D01*
X32200Y-31665D01*
X33125Y-31665D01*
X34375Y-31665D01*
X34400Y-31665D01*
X37125Y-31665D01*
X37446Y-31601D01*
X37719Y-31419D01*
X38395Y-30743D01*
X39199Y-30743D01*
X39200Y-30743D01*
X39327Y-30743D01*
X39446Y-30694D01*
X39564Y-30646D01*
X39655Y-30555D01*
X39655Y-30555D01*
X39655Y-30555D01*
X39745Y-30465D01*
X39794Y-30346D01*
X39843Y-30228D01*
X39843Y-30100D01*
X39843Y-29972D01*
X39843Y-31595D01*
X39659Y-31594D01*
X39132Y-31809D01*
X39120Y-31817D01*
X38985Y-32004D01*
X39937Y-32956D01*
X40888Y-32004D01*
X40888Y-32145D01*
X40007Y-33026D01*
X40959Y-33978D01*
X41130Y-33854D01*
X41130Y-34800D01*
X41130Y-35200D01*
X41130Y-36130D01*
X41130Y-36130D01*
G37*
G54D27*
X41130Y-36130D02*
X40888Y-36130D01*
X40888Y-34049D01*
X39937Y-33097D01*
X39866Y-33168D01*
X39866Y-33026D01*
X38914Y-32075D01*
X38727Y-32210D01*
X38507Y-32734D01*
X38504Y-33304D01*
X38719Y-33831D01*
X38727Y-33843D01*
X38914Y-33978D01*
X39866Y-33026D01*
X39866Y-33168D01*
X38985Y-34049D01*
X39120Y-34235D01*
X39645Y-34456D01*
X40214Y-34459D01*
X40741Y-34244D01*
X40753Y-34235D01*
X40888Y-34049D01*
X40888Y-36130D01*
X37812Y-36130D01*
X37812Y-35288D01*
X37803Y-35016D01*
X37716Y-34807D01*
X37607Y-34763D01*
X37536Y-34834D01*
X37536Y-34692D01*
X37492Y-34583D01*
X37238Y-34487D01*
X36966Y-34496D01*
X36812Y-34560D01*
X36812Y-33288D01*
X36803Y-33016D01*
X36716Y-32807D01*
X36607Y-32763D01*
X36536Y-32834D01*
X36536Y-32692D01*
X36492Y-32583D01*
X36238Y-32487D01*
X35966Y-32496D01*
X35757Y-32583D01*
X35713Y-32692D01*
X36125Y-33104D01*
X36536Y-32692D01*
X36536Y-32834D01*
X36195Y-33175D01*
X36607Y-33586D01*
X36716Y-33542D01*
X36812Y-33288D01*
X36812Y-34560D01*
X36757Y-34583D01*
X36713Y-34692D01*
X37125Y-35104D01*
X37536Y-34692D01*
X37536Y-34834D01*
X37195Y-35175D01*
X37607Y-35586D01*
X37716Y-35542D01*
X37812Y-35288D01*
X37812Y-36130D01*
X37536Y-36130D01*
X37536Y-35657D01*
X37125Y-35245D01*
X37054Y-35316D01*
X37054Y-35175D01*
X36642Y-34763D01*
X36536Y-34806D01*
X36536Y-33657D01*
X36125Y-33245D01*
X36054Y-33316D01*
X36054Y-33175D01*
X35642Y-32763D01*
X35533Y-32807D01*
X35437Y-33061D01*
X35446Y-33333D01*
X35533Y-33542D01*
X35642Y-33586D01*
X36054Y-33175D01*
X36054Y-33316D01*
X35713Y-33657D01*
X35757Y-33766D01*
X36011Y-33862D01*
X36283Y-33853D01*
X36492Y-33766D01*
X36536Y-33657D01*
X36536Y-34806D01*
X36533Y-34807D01*
X36437Y-35061D01*
X36446Y-35333D01*
X36533Y-35542D01*
X36642Y-35586D01*
X37054Y-35175D01*
X37054Y-35316D01*
X36713Y-35657D01*
X36757Y-35766D01*
X37011Y-35862D01*
X37283Y-35853D01*
X37492Y-35766D01*
X37536Y-35657D01*
X37536Y-36130D01*
X35812Y-36130D01*
X35812Y-35288D01*
X35803Y-35016D01*
X35716Y-34807D01*
X35607Y-34763D01*
X35536Y-34834D01*
X35536Y-34692D01*
X35492Y-34583D01*
X35238Y-34487D01*
X34966Y-34496D01*
X34757Y-34583D01*
X34713Y-34692D01*
X35125Y-35104D01*
X35536Y-34692D01*
X35536Y-34834D01*
X35195Y-35175D01*
X35607Y-35586D01*
X35716Y-35542D01*
X35812Y-35288D01*
X35812Y-36130D01*
X35536Y-36130D01*
X35536Y-35657D01*
X35125Y-35245D01*
X35054Y-35316D01*
X35054Y-35175D01*
X34642Y-34763D01*
X34533Y-34807D01*
X34437Y-35061D01*
X34446Y-35333D01*
X34533Y-35542D01*
X34642Y-35586D01*
X35054Y-35175D01*
X35054Y-35316D01*
X34713Y-35657D01*
X34757Y-35766D01*
X35011Y-35862D01*
X35283Y-35853D01*
X35492Y-35766D01*
X35536Y-35657D01*
X35536Y-36130D01*
X26800Y-36130D01*
X19215Y-36130D01*
X19215Y-32075D01*
X19151Y-31753D01*
X18969Y-31480D01*
X18696Y-31298D01*
X18375Y-31234D01*
X16965Y-31234D01*
X16965Y-30825D01*
X16901Y-30503D01*
X16772Y-30310D01*
X16772Y-29429D01*
X16763Y-29173D01*
X16683Y-28980D01*
X16578Y-28941D01*
X16508Y-29012D01*
X16508Y-28871D01*
X16469Y-28766D01*
X16229Y-28677D01*
X15973Y-28686D01*
X15780Y-28766D01*
X15741Y-28871D01*
X16125Y-29254D01*
X16508Y-28871D01*
X16508Y-29012D01*
X16195Y-29325D01*
X16578Y-29708D01*
X16683Y-29669D01*
X16772Y-29429D01*
X16772Y-30310D01*
X16719Y-30230D01*
X16508Y-30089D01*
X16508Y-29778D01*
X16125Y-29395D01*
X16054Y-29466D01*
X16054Y-29325D01*
X15671Y-28941D01*
X15566Y-28980D01*
X15477Y-29220D01*
X15486Y-29476D01*
X15566Y-29669D01*
X15671Y-29708D01*
X16054Y-29325D01*
X16054Y-29466D01*
X15741Y-29778D01*
X15780Y-29883D01*
X16020Y-29972D01*
X16276Y-29963D01*
X16469Y-29883D01*
X16508Y-29778D01*
X16508Y-30089D01*
X16446Y-30048D01*
X16125Y-29984D01*
X15803Y-30048D01*
X15530Y-30230D01*
X15348Y-30503D01*
X15284Y-30825D01*
X15284Y-32075D01*
X15284Y-32826D01*
X14530Y-33580D01*
X14348Y-33853D01*
X14284Y-34175D01*
X14284Y-34541D01*
X14270Y-34541D01*
X14259Y-34536D01*
X14001Y-34536D01*
X13763Y-34634D01*
X13629Y-34767D01*
X13497Y-34635D01*
X13368Y-34582D01*
X13368Y-34582D01*
X13366Y-34580D01*
X13363Y-34579D01*
X13363Y-34579D01*
X13259Y-34536D01*
X13146Y-34536D01*
X13120Y-34531D01*
X13119Y-34531D01*
X12965Y-34531D01*
X12965Y-34175D01*
X12901Y-33853D01*
X12901Y-33853D01*
X12746Y-33621D01*
X13025Y-33621D01*
X13196Y-33587D01*
X13196Y-33587D01*
X13340Y-33490D01*
X13636Y-33195D01*
X13747Y-33195D01*
X13975Y-33100D01*
X14150Y-32926D01*
X14244Y-32698D01*
X14245Y-32452D01*
X14150Y-32224D01*
X14001Y-32074D01*
X14150Y-31926D01*
X14244Y-31698D01*
X14245Y-31452D01*
X14150Y-31224D01*
X14071Y-31145D01*
X14071Y-31038D01*
X14170Y-30940D01*
X14268Y-30703D01*
X14268Y-30447D01*
X14171Y-30210D01*
X13990Y-30029D01*
X13753Y-29931D01*
X13497Y-29931D01*
X13260Y-30028D01*
X13079Y-30209D01*
X12981Y-30446D01*
X12981Y-30702D01*
X13078Y-30939D01*
X13178Y-31038D01*
X13178Y-31145D01*
X13099Y-31223D01*
X13005Y-31451D01*
X13004Y-31697D01*
X13099Y-31925D01*
X13248Y-32075D01*
X13099Y-32223D01*
X13005Y-32451D01*
X13005Y-32563D01*
X12839Y-32728D01*
X11866Y-32728D01*
X11719Y-32580D01*
X11076Y-31938D01*
X11076Y-31791D01*
X11092Y-31807D01*
X11313Y-31899D01*
X11551Y-31899D01*
X11772Y-31808D01*
X11941Y-31639D01*
X11966Y-31578D01*
X12249Y-31296D01*
X12249Y-31296D01*
X12249Y-31296D01*
X12345Y-31151D01*
X12379Y-30980D01*
X12379Y-30980D01*
X12379Y-30384D01*
X12478Y-30286D01*
X12576Y-30049D01*
X12576Y-29793D01*
X12479Y-29557D01*
X12298Y-29375D01*
X12061Y-29277D01*
X11805Y-29277D01*
X11568Y-29375D01*
X11469Y-29474D01*
X11405Y-29474D01*
X10190Y-28259D01*
X10045Y-28162D01*
X9874Y-28128D01*
X9838Y-28128D01*
X9740Y-28029D01*
X9503Y-27931D01*
X9247Y-27931D01*
X9010Y-28028D01*
X8829Y-28209D01*
X8731Y-28446D01*
X8731Y-28702D01*
X8828Y-28939D01*
X9009Y-29120D01*
X9246Y-29218D01*
X9502Y-29218D01*
X9739Y-29121D01*
X9763Y-29096D01*
X10904Y-30237D01*
X11049Y-30334D01*
X11049Y-30334D01*
X11220Y-30368D01*
X11469Y-30368D01*
X11486Y-30384D01*
X11486Y-30699D01*
X11314Y-30699D01*
X11093Y-30790D01*
X10948Y-30934D01*
X10888Y-30844D01*
X10679Y-30704D01*
X10433Y-30655D01*
X10186Y-30704D01*
X10003Y-30827D01*
X9995Y-30807D01*
X9924Y-30737D01*
X9833Y-30699D01*
X9733Y-30699D01*
X9581Y-30699D01*
X9581Y-30025D01*
X9571Y-29769D01*
X9491Y-29577D01*
X9386Y-29538D01*
X9316Y-29608D01*
X9316Y-29467D01*
X9277Y-29362D01*
X9037Y-29273D01*
X8781Y-29282D01*
X8588Y-29362D01*
X8550Y-29467D01*
X8933Y-29850D01*
X9316Y-29467D01*
X9316Y-29608D01*
X9003Y-29921D01*
X9386Y-30304D01*
X9491Y-30265D01*
X9581Y-30025D01*
X9581Y-30699D01*
X9545Y-30699D01*
X9483Y-30761D01*
X9483Y-31249D01*
X9490Y-31249D01*
X9490Y-31349D01*
X9483Y-31349D01*
X9483Y-31836D01*
X9545Y-31899D01*
X9733Y-31899D01*
X9789Y-31899D01*
X9789Y-31962D01*
X9656Y-32161D01*
X9592Y-32483D01*
X9656Y-32804D01*
X9838Y-33077D01*
X9936Y-33175D01*
X9530Y-33580D01*
X9383Y-33801D01*
X9383Y-31836D01*
X9383Y-31349D01*
X9383Y-31249D01*
X9383Y-30761D01*
X9320Y-30699D01*
X9316Y-30699D01*
X9316Y-30375D01*
X8933Y-29991D01*
X8862Y-30062D01*
X8862Y-29921D01*
X8479Y-29538D01*
X8374Y-29577D01*
X8285Y-29817D01*
X8294Y-30073D01*
X8374Y-30265D01*
X8479Y-30304D01*
X8862Y-29921D01*
X8862Y-30062D01*
X8550Y-30375D01*
X8588Y-30480D01*
X8828Y-30569D01*
X9084Y-30559D01*
X9277Y-30480D01*
X9316Y-30375D01*
X9316Y-30699D01*
X9132Y-30699D01*
X9033Y-30699D01*
X8941Y-30737D01*
X8871Y-30807D01*
X8833Y-30899D01*
X8833Y-31186D01*
X8895Y-31249D01*
X9383Y-31249D01*
X9383Y-31349D01*
X8895Y-31349D01*
X8833Y-31411D01*
X8833Y-31698D01*
X8871Y-31790D01*
X8941Y-31861D01*
X9033Y-31899D01*
X9132Y-31899D01*
X9320Y-31899D01*
X9383Y-31836D01*
X9383Y-33801D01*
X9348Y-33853D01*
X9284Y-34175D01*
X9284Y-35175D01*
X9348Y-35496D01*
X9530Y-35769D01*
X9803Y-35951D01*
X10125Y-36015D01*
X12125Y-36015D01*
X12446Y-35951D01*
X12645Y-35818D01*
X12965Y-35818D01*
X13000Y-35833D01*
X13258Y-35833D01*
X13496Y-35735D01*
X13630Y-35602D01*
X13762Y-35734D01*
X14000Y-35833D01*
X14258Y-35833D01*
X14270Y-35828D01*
X14619Y-35828D01*
X14803Y-35951D01*
X15125Y-36015D01*
X17125Y-36015D01*
X17446Y-35951D01*
X17719Y-35769D01*
X17901Y-35496D01*
X17965Y-35175D01*
X17965Y-34175D01*
X17901Y-33853D01*
X17901Y-33853D01*
X17719Y-33580D01*
X17054Y-32915D01*
X18375Y-32915D01*
X18696Y-32851D01*
X18969Y-32669D01*
X19151Y-32396D01*
X19215Y-32075D01*
X19215Y-36130D01*
X10000Y-36130D01*
X7904Y-36130D01*
X7904Y-32749D01*
X7689Y-32222D01*
X7681Y-32210D01*
X7494Y-32075D01*
X7424Y-32145D01*
X6543Y-33026D01*
X7494Y-33978D01*
X7681Y-33843D01*
X7902Y-33318D01*
X7904Y-32749D01*
X7904Y-36130D01*
X7424Y-36130D01*
X5469Y-36130D01*
X5469Y-34086D01*
X5476Y-34093D01*
X5520Y-34049D01*
X5655Y-34235D01*
X6180Y-34456D01*
X6749Y-34459D01*
X7277Y-34244D01*
X7289Y-34235D01*
X7424Y-34049D01*
X6472Y-33097D01*
X6466Y-33103D01*
X6396Y-33032D01*
X6401Y-33026D01*
X6396Y-33021D01*
X6466Y-32950D01*
X6472Y-32956D01*
X7424Y-32004D01*
X7289Y-31817D01*
X6764Y-31597D01*
X6583Y-31596D01*
X6583Y-17953D01*
X6200Y-17570D01*
X6129Y-17641D01*
X6129Y-17500D01*
X5746Y-17116D01*
X5641Y-17155D01*
X5552Y-17395D01*
X5561Y-17651D01*
X5641Y-17844D01*
X5746Y-17883D01*
X6129Y-17500D01*
X6129Y-17641D01*
X5816Y-17953D01*
X5855Y-18058D01*
X6095Y-18147D01*
X6351Y-18138D01*
X6544Y-18058D01*
X6583Y-17953D01*
X6583Y-31596D01*
X6194Y-31594D01*
X5667Y-31809D01*
X5655Y-31817D01*
X5520Y-32004D01*
X5476Y-31960D01*
X5469Y-31967D01*
X5469Y-8101D01*
X5476Y-8108D01*
X5520Y-8064D01*
X5655Y-8251D01*
X6180Y-8472D01*
X6749Y-8475D01*
X7277Y-8259D01*
X7289Y-8251D01*
X7424Y-8064D01*
X6472Y-7113D01*
X6466Y-7118D01*
X6396Y-7048D01*
X6401Y-7042D01*
X6396Y-7036D01*
X6466Y-6966D01*
X6472Y-6971D01*
X7424Y-6020D01*
X7289Y-5833D01*
X6899Y-5669D01*
X39513Y-5669D01*
X39132Y-5825D01*
X39120Y-5833D01*
X38985Y-6020D01*
X39937Y-6971D01*
X40888Y-6020D01*
X40753Y-5833D01*
X40364Y-5669D01*
X41130Y-5669D01*
X41130Y-6214D01*
X40959Y-6090D01*
X40007Y-7042D01*
X40959Y-7994D01*
X41130Y-7870D01*
X41130Y-20400D01*
X41130Y-24200D01*
X41130Y-32198D01*
X40959Y-32075D01*
X40888Y-32145D01*
X40888Y-32004D01*
X40888Y-8064D01*
X39937Y-7113D01*
X39866Y-7183D01*
X39866Y-7042D01*
X38914Y-6090D01*
X38727Y-6225D01*
X38507Y-6750D01*
X38504Y-7320D01*
X38719Y-7847D01*
X38727Y-7859D01*
X38914Y-7994D01*
X39866Y-7042D01*
X39866Y-7183D01*
X38985Y-8064D01*
X39120Y-8251D01*
X39645Y-8472D01*
X40214Y-8475D01*
X40741Y-8259D01*
X40753Y-8251D01*
X40888Y-8064D01*
X40888Y-32004D01*
X40753Y-31817D01*
X40228Y-31597D01*
X39847Y-31595D01*
X39847Y-29204D01*
X39847Y-23604D01*
X39838Y-23348D01*
X39758Y-23155D01*
X39653Y-23116D01*
X39270Y-23500D01*
X39653Y-23883D01*
X39758Y-23844D01*
X39847Y-23604D01*
X39847Y-29204D01*
X39838Y-28948D01*
X39772Y-28790D01*
X39772Y-26179D01*
X39768Y-26066D01*
X39768Y-24947D01*
X39671Y-24710D01*
X39583Y-24622D01*
X39583Y-23953D01*
X39200Y-23570D01*
X39129Y-23641D01*
X39129Y-23500D01*
X38746Y-23116D01*
X38641Y-23155D01*
X38552Y-23395D01*
X38561Y-23651D01*
X38641Y-23844D01*
X38746Y-23883D01*
X39129Y-23500D01*
X39129Y-23641D01*
X38816Y-23953D01*
X38855Y-24058D01*
X39095Y-24147D01*
X39351Y-24138D01*
X39544Y-24058D01*
X39583Y-23953D01*
X39583Y-24622D01*
X39490Y-24529D01*
X39253Y-24431D01*
X38997Y-24431D01*
X38760Y-24528D01*
X38636Y-24653D01*
X37929Y-24653D01*
X37929Y-23575D01*
X37918Y-23367D01*
X37860Y-23227D01*
X37767Y-23202D01*
X37470Y-23500D01*
X37767Y-23797D01*
X37860Y-23772D01*
X37929Y-23575D01*
X37929Y-24653D01*
X37856Y-24653D01*
X37816Y-24613D01*
X37724Y-24575D01*
X37697Y-24575D01*
X37697Y-23867D01*
X37400Y-23570D01*
X37329Y-23641D01*
X37329Y-23500D01*
X37032Y-23202D01*
X36939Y-23227D01*
X36870Y-23424D01*
X36881Y-23632D01*
X36939Y-23772D01*
X37032Y-23797D01*
X37329Y-23500D01*
X37329Y-23641D01*
X37102Y-23867D01*
X37127Y-23960D01*
X37324Y-24029D01*
X37532Y-24018D01*
X37672Y-23960D01*
X37697Y-23867D01*
X37697Y-24575D01*
X37625Y-24574D01*
X37075Y-24574D01*
X37026Y-24595D01*
X36643Y-24211D01*
X36643Y-24072D01*
X36546Y-23835D01*
X36365Y-23654D01*
X36128Y-23556D01*
X35872Y-23556D01*
X35635Y-23653D01*
X35454Y-23834D01*
X35356Y-24071D01*
X35356Y-24327D01*
X35453Y-24564D01*
X35634Y-24745D01*
X35871Y-24843D01*
X36011Y-24843D01*
X36584Y-25415D01*
X36728Y-25512D01*
X36728Y-25512D01*
X36900Y-25546D01*
X36943Y-25546D01*
X36983Y-25586D01*
X37075Y-25624D01*
X37162Y-25625D01*
X37127Y-25639D01*
X37102Y-25732D01*
X37400Y-26029D01*
X37697Y-25732D01*
X37672Y-25639D01*
X37631Y-25625D01*
X37724Y-25625D01*
X37816Y-25587D01*
X37856Y-25546D01*
X38686Y-25546D01*
X38747Y-25607D01*
X38741Y-25621D01*
X39125Y-26004D01*
X39508Y-25621D01*
X39502Y-25607D01*
X39670Y-25440D01*
X39768Y-25203D01*
X39768Y-24947D01*
X39768Y-26066D01*
X39763Y-25923D01*
X39683Y-25730D01*
X39578Y-25691D01*
X39195Y-26075D01*
X39578Y-26458D01*
X39683Y-26419D01*
X39772Y-26179D01*
X39772Y-28790D01*
X39758Y-28755D01*
X39653Y-28716D01*
X39583Y-28787D01*
X39583Y-28646D01*
X39544Y-28541D01*
X39508Y-28527D01*
X39508Y-26528D01*
X39125Y-26145D01*
X39054Y-26216D01*
X39054Y-26075D01*
X38671Y-25691D01*
X38566Y-25730D01*
X38477Y-25970D01*
X38486Y-26226D01*
X38566Y-26419D01*
X38671Y-26458D01*
X39054Y-26075D01*
X39054Y-26216D01*
X38741Y-26528D01*
X38780Y-26633D01*
X39020Y-26722D01*
X39276Y-26713D01*
X39469Y-26633D01*
X39508Y-26528D01*
X39508Y-28527D01*
X39304Y-28452D01*
X39048Y-28461D01*
X38855Y-28541D01*
X38816Y-28646D01*
X39200Y-29029D01*
X39583Y-28646D01*
X39583Y-28787D01*
X39270Y-29100D01*
X39653Y-29483D01*
X39758Y-29444D01*
X39847Y-29204D01*
X39847Y-31595D01*
X39843Y-31595D01*
X39843Y-29972D01*
X39794Y-29853D01*
X39746Y-29735D01*
X39655Y-29644D01*
X39655Y-29644D01*
X39655Y-29644D01*
X39577Y-29567D01*
X39583Y-29553D01*
X39200Y-29170D01*
X39194Y-29176D01*
X39123Y-29105D01*
X39129Y-29100D01*
X38746Y-28716D01*
X38641Y-28755D01*
X38552Y-28995D01*
X38561Y-29251D01*
X38641Y-29444D01*
X38673Y-29456D01*
X38432Y-29456D01*
X38321Y-29382D01*
X38321Y-28710D01*
X38588Y-28443D01*
X38727Y-28443D01*
X38964Y-28346D01*
X39145Y-28165D01*
X39243Y-27928D01*
X39243Y-27672D01*
X39146Y-27435D01*
X38965Y-27254D01*
X38728Y-27156D01*
X38472Y-27156D01*
X38235Y-27253D01*
X38054Y-27434D01*
X37956Y-27671D01*
X37956Y-27811D01*
X37929Y-27838D01*
X37929Y-26175D01*
X37918Y-25967D01*
X37860Y-25827D01*
X37767Y-25802D01*
X37470Y-26100D01*
X37767Y-26397D01*
X37860Y-26372D01*
X37929Y-26175D01*
X37929Y-27838D01*
X37697Y-28070D01*
X37697Y-26467D01*
X37400Y-26170D01*
X37329Y-26241D01*
X37329Y-26100D01*
X37032Y-25802D01*
X36939Y-25827D01*
X36870Y-26024D01*
X36881Y-26232D01*
X36939Y-26372D01*
X37032Y-26397D01*
X37329Y-26100D01*
X37329Y-26241D01*
X37102Y-26467D01*
X37127Y-26560D01*
X37324Y-26629D01*
X37532Y-26618D01*
X37672Y-26560D01*
X37697Y-26467D01*
X37697Y-28070D01*
X37559Y-28209D01*
X37462Y-28353D01*
X37428Y-28525D01*
X37428Y-29382D01*
X37280Y-29480D01*
X36776Y-29984D01*
X35240Y-29984D01*
X35240Y-28400D01*
X35176Y-28078D01*
X35176Y-28078D01*
X34994Y-27805D01*
X34435Y-27246D01*
X35653Y-27246D01*
X35653Y-28136D01*
X35554Y-28234D01*
X35456Y-28471D01*
X35456Y-28727D01*
X35553Y-28964D01*
X35734Y-29145D01*
X35971Y-29243D01*
X36227Y-29243D01*
X36464Y-29146D01*
X36645Y-28965D01*
X36743Y-28728D01*
X36743Y-28472D01*
X36646Y-28235D01*
X36546Y-28136D01*
X36546Y-26900D01*
X36512Y-26728D01*
X36512Y-26728D01*
X36415Y-26584D01*
X36315Y-26484D01*
X36171Y-26387D01*
X36000Y-26353D01*
X34385Y-26353D01*
X34115Y-26084D01*
X33971Y-25987D01*
X33800Y-25953D01*
X33524Y-25953D01*
X33524Y-24898D01*
X33514Y-24652D01*
X33439Y-24470D01*
X33336Y-24434D01*
X32970Y-24800D01*
X33336Y-25165D01*
X33439Y-25129D01*
X33524Y-24898D01*
X33524Y-25953D01*
X33265Y-25953D01*
X33265Y-25236D01*
X32900Y-24870D01*
X32534Y-25236D01*
X32570Y-25339D01*
X32801Y-25424D01*
X33047Y-25414D01*
X33229Y-25339D01*
X33265Y-25236D01*
X33265Y-25953D01*
X32385Y-25953D01*
X31851Y-25419D01*
X32022Y-25420D01*
X32250Y-25325D01*
X32424Y-25152D01*
X32463Y-25165D01*
X32829Y-24800D01*
X32463Y-24434D01*
X32424Y-24447D01*
X32251Y-24274D01*
X32244Y-24271D01*
X32400Y-24271D01*
X32566Y-24271D01*
X32534Y-24363D01*
X32900Y-24729D01*
X33265Y-24363D01*
X33233Y-24270D01*
X33396Y-24237D01*
X33396Y-24237D01*
X33540Y-24140D01*
X34943Y-22738D01*
X34953Y-22764D01*
X35134Y-22945D01*
X35371Y-23043D01*
X35627Y-23043D01*
X35864Y-22946D01*
X35963Y-22846D01*
X36884Y-22846D01*
X36912Y-22916D01*
X36983Y-22986D01*
X37075Y-23024D01*
X37162Y-23025D01*
X37127Y-23039D01*
X37102Y-23132D01*
X37400Y-23429D01*
X37697Y-23132D01*
X37672Y-23039D01*
X37631Y-23025D01*
X37724Y-23025D01*
X37816Y-22987D01*
X37856Y-22946D01*
X38736Y-22946D01*
X38822Y-23032D01*
X38816Y-23046D01*
X39200Y-23429D01*
X39583Y-23046D01*
X39577Y-23032D01*
X39745Y-22865D01*
X39843Y-22628D01*
X39843Y-22372D01*
X39746Y-22135D01*
X39565Y-21954D01*
X39328Y-21856D01*
X39072Y-21856D01*
X38835Y-21953D01*
X38736Y-22053D01*
X37856Y-22053D01*
X37846Y-22043D01*
X37846Y-21000D01*
X37846Y-20999D01*
X37812Y-20828D01*
X37715Y-20684D01*
X37715Y-20684D01*
X37315Y-20284D01*
X37171Y-20187D01*
X37000Y-20153D01*
X36843Y-20153D01*
X36843Y-20072D01*
X36746Y-19835D01*
X36565Y-19654D01*
X36546Y-19646D01*
X37800Y-19646D01*
X37971Y-19612D01*
X37971Y-19612D01*
X38115Y-19515D01*
X39315Y-18315D01*
X39315Y-18315D01*
X39412Y-18171D01*
X39446Y-18000D01*
X39446Y-18000D01*
X39446Y-15600D01*
X39446Y-15599D01*
X39412Y-15428D01*
X39315Y-15284D01*
X39315Y-15284D01*
X38915Y-14884D01*
X38771Y-14787D01*
X38600Y-14753D01*
X36742Y-14753D01*
X36720Y-14699D01*
X36743Y-14643D01*
X36743Y-14618D01*
X36771Y-14612D01*
X36771Y-14612D01*
X36915Y-14515D01*
X37115Y-14315D01*
X37115Y-14315D01*
X37212Y-14171D01*
X37246Y-14000D01*
X37246Y-14000D01*
X37246Y-11600D01*
X37246Y-11346D01*
X37253Y-11364D01*
X37353Y-11463D01*
X37353Y-11984D01*
X37348Y-12007D01*
X37353Y-12031D01*
X37353Y-12843D01*
X37313Y-12883D01*
X37275Y-12975D01*
X37274Y-13074D01*
X37274Y-13624D01*
X37312Y-13716D01*
X37383Y-13786D01*
X37475Y-13824D01*
X37574Y-13825D01*
X38124Y-13825D01*
X38216Y-13787D01*
X38286Y-13716D01*
X38324Y-13624D01*
X38325Y-13525D01*
X38325Y-12975D01*
X38287Y-12883D01*
X38246Y-12843D01*
X38246Y-12454D01*
X38634Y-12454D01*
X38733Y-12553D01*
X38969Y-12651D01*
X39225Y-12651D01*
X39462Y-12553D01*
X39643Y-12372D01*
X39742Y-12136D01*
X39742Y-11880D01*
X39644Y-11643D01*
X39463Y-11462D01*
X39227Y-11364D01*
X38970Y-11364D01*
X38734Y-11461D01*
X38634Y-11561D01*
X38246Y-11561D01*
X38246Y-11463D01*
X38345Y-11365D01*
X38443Y-11128D01*
X38443Y-10872D01*
X38346Y-10635D01*
X38165Y-10454D01*
X37928Y-10356D01*
X37672Y-10356D01*
X37435Y-10453D01*
X37254Y-10634D01*
X37246Y-10653D01*
X37246Y-10618D01*
X37212Y-10447D01*
X37115Y-10302D01*
X37115Y-10302D01*
X35120Y-8307D01*
X34975Y-8210D01*
X34804Y-8176D01*
X34367Y-8176D01*
X34403Y-8140D01*
X34501Y-7904D01*
X34502Y-7648D01*
X34404Y-7411D01*
X34223Y-7230D01*
X33986Y-7132D01*
X33730Y-7131D01*
X33679Y-7153D01*
X32480Y-7153D01*
X29600Y-7153D01*
X18800Y-7153D01*
X18628Y-7187D01*
X18484Y-7284D01*
X17484Y-8284D01*
X17387Y-8428D01*
X17353Y-8600D01*
X17353Y-9400D01*
X17353Y-10021D01*
X17015Y-9684D01*
X16871Y-9587D01*
X16700Y-9553D01*
X15663Y-9553D01*
X15565Y-9454D01*
X15328Y-9356D01*
X15072Y-9356D01*
X14835Y-9453D01*
X14654Y-9634D01*
X14556Y-9871D01*
X14556Y-10127D01*
X14653Y-10364D01*
X14834Y-10545D01*
X15071Y-10643D01*
X15327Y-10643D01*
X15564Y-10546D01*
X15663Y-10446D01*
X16514Y-10446D01*
X16653Y-10585D01*
X16653Y-11600D01*
X16658Y-11626D01*
X16590Y-11559D01*
X16446Y-11462D01*
X16275Y-11428D01*
X16000Y-11428D01*
X15867Y-11428D01*
X15830Y-11339D01*
X15760Y-11269D01*
X15668Y-11231D01*
X15569Y-11231D01*
X14781Y-11231D01*
X14689Y-11269D01*
X14619Y-11339D01*
X14581Y-11431D01*
X14581Y-11530D01*
X14581Y-12318D01*
X14604Y-12375D01*
X14581Y-12431D01*
X14581Y-12530D01*
X14581Y-13318D01*
X14604Y-13375D01*
X14581Y-13431D01*
X14581Y-13530D01*
X14581Y-14318D01*
X14604Y-14375D01*
X14581Y-14431D01*
X14581Y-14530D01*
X14581Y-15318D01*
X14604Y-15375D01*
X14582Y-15428D01*
X13171Y-15428D01*
X13171Y-13060D01*
X13915Y-12315D01*
X13915Y-12315D01*
X14012Y-12171D01*
X14046Y-12000D01*
X14046Y-12000D01*
X14046Y-8963D01*
X14145Y-8865D01*
X14243Y-8628D01*
X14243Y-8372D01*
X14146Y-8135D01*
X13965Y-7954D01*
X13728Y-7856D01*
X13472Y-7856D01*
X13235Y-7953D01*
X13054Y-8134D01*
X12956Y-8371D01*
X12956Y-8627D01*
X13053Y-8864D01*
X13153Y-8963D01*
X13153Y-11814D01*
X12843Y-12124D01*
X12843Y-9872D01*
X12746Y-9635D01*
X12565Y-9454D01*
X12328Y-9356D01*
X12072Y-9356D01*
X11835Y-9453D01*
X11736Y-9553D01*
X9285Y-9553D01*
X9220Y-9488D01*
X9220Y-9377D01*
X9125Y-9149D01*
X8976Y-8999D01*
X9029Y-8946D01*
X10136Y-8946D01*
X10234Y-9045D01*
X10471Y-9143D01*
X10727Y-9143D01*
X10964Y-9046D01*
X11145Y-8865D01*
X11243Y-8628D01*
X11243Y-8372D01*
X11146Y-8135D01*
X10965Y-7954D01*
X10728Y-7856D01*
X10472Y-7856D01*
X10235Y-7953D01*
X10136Y-8053D01*
X9029Y-8053D01*
X8951Y-7974D01*
X8723Y-7880D01*
X8477Y-7879D01*
X8249Y-7974D01*
X8074Y-8148D01*
X7980Y-8376D01*
X7979Y-8622D01*
X8074Y-8850D01*
X8223Y-9000D01*
X8074Y-9148D01*
X7980Y-9376D01*
X7979Y-9622D01*
X8074Y-9850D01*
X8153Y-9929D01*
X8153Y-10536D01*
X8054Y-10634D01*
X7956Y-10871D01*
X7956Y-11127D01*
X8053Y-11364D01*
X8222Y-11532D01*
X8216Y-11546D01*
X8600Y-11929D01*
X8983Y-11546D01*
X8977Y-11532D01*
X9145Y-11365D01*
X9243Y-11128D01*
X9243Y-10872D01*
X9146Y-10635D01*
X9046Y-10536D01*
X9046Y-10436D01*
X9100Y-10446D01*
X11736Y-10446D01*
X11834Y-10545D01*
X12071Y-10643D01*
X12327Y-10643D01*
X12564Y-10546D01*
X12745Y-10365D01*
X12843Y-10128D01*
X12843Y-9872D01*
X12843Y-12124D01*
X12539Y-12428D01*
X10867Y-12428D01*
X10845Y-12375D01*
X10868Y-12318D01*
X10868Y-11431D01*
X10830Y-11339D01*
X10760Y-11269D01*
X10668Y-11231D01*
X10569Y-11231D01*
X10337Y-11231D01*
X10275Y-11293D01*
X10275Y-11825D01*
X10806Y-11825D01*
X10868Y-11762D01*
X10868Y-11431D01*
X10868Y-12318D01*
X10868Y-11987D01*
X10806Y-11925D01*
X10275Y-11925D01*
X10275Y-11932D01*
X10175Y-11932D01*
X10175Y-11925D01*
X10175Y-11825D01*
X10175Y-11293D01*
X10112Y-11231D01*
X9880Y-11231D01*
X9781Y-11231D01*
X9689Y-11269D01*
X9619Y-11339D01*
X9581Y-11431D01*
X9581Y-11762D01*
X9643Y-11825D01*
X10175Y-11825D01*
X10175Y-11925D01*
X9643Y-11925D01*
X9581Y-11987D01*
X9581Y-12318D01*
X9604Y-12375D01*
X9581Y-12431D01*
X9581Y-12530D01*
X9581Y-13231D01*
X9247Y-13231D01*
X9247Y-12104D01*
X9238Y-11848D01*
X9158Y-11655D01*
X9053Y-11616D01*
X8670Y-12000D01*
X9053Y-12383D01*
X9158Y-12344D01*
X9247Y-12104D01*
X9247Y-13231D01*
X8983Y-13231D01*
X8983Y-12453D01*
X8600Y-12070D01*
X8529Y-12141D01*
X8529Y-12000D01*
X8146Y-11616D01*
X8041Y-11655D01*
X7952Y-11895D01*
X7961Y-12151D01*
X8041Y-12344D01*
X8146Y-12383D01*
X8529Y-12000D01*
X8529Y-12141D01*
X8216Y-12453D01*
X8255Y-12558D01*
X8495Y-12647D01*
X8751Y-12638D01*
X8944Y-12558D01*
X8983Y-12453D01*
X8983Y-13231D01*
X8865Y-13231D01*
X8854Y-13226D01*
X8708Y-13226D01*
X8465Y-12984D01*
X8321Y-12887D01*
X8150Y-12853D01*
X7904Y-12853D01*
X7904Y-6765D01*
X7689Y-6237D01*
X7681Y-6225D01*
X7494Y-6090D01*
X6543Y-7042D01*
X7494Y-7994D01*
X7681Y-7859D01*
X7902Y-7334D01*
X7904Y-6765D01*
X7904Y-12853D01*
X7663Y-12853D01*
X7565Y-12754D01*
X7424Y-12696D01*
X7328Y-12656D01*
X7072Y-12656D01*
X6835Y-12753D01*
X6667Y-12922D01*
X6653Y-12916D01*
X6583Y-12987D01*
X6583Y-12846D01*
X6544Y-12741D01*
X6304Y-12652D01*
X6048Y-12661D01*
X5855Y-12741D01*
X5816Y-12846D01*
X6200Y-13229D01*
X6583Y-12846D01*
X6583Y-12987D01*
X6270Y-13300D01*
X6653Y-13683D01*
X6667Y-13677D01*
X6834Y-13845D01*
X7071Y-13943D01*
X7327Y-13943D01*
X7564Y-13846D01*
X7663Y-13746D01*
X7964Y-13746D01*
X8076Y-13858D01*
X8076Y-14003D01*
X8174Y-14241D01*
X8307Y-14375D01*
X8254Y-14428D01*
X8160Y-14428D01*
X8115Y-14384D01*
X7971Y-14287D01*
X7800Y-14253D01*
X7663Y-14253D01*
X7565Y-14154D01*
X7328Y-14056D01*
X7072Y-14056D01*
X6835Y-14153D01*
X6667Y-14322D01*
X6653Y-14316D01*
X6583Y-14387D01*
X6583Y-14246D01*
X6583Y-13753D01*
X6200Y-13370D01*
X6129Y-13441D01*
X6129Y-13300D01*
X5746Y-12916D01*
X5641Y-12955D01*
X5552Y-13195D01*
X5561Y-13451D01*
X5641Y-13644D01*
X5746Y-13683D01*
X6129Y-13300D01*
X6129Y-13441D01*
X5816Y-13753D01*
X5855Y-13858D01*
X6095Y-13947D01*
X6351Y-13938D01*
X6544Y-13858D01*
X6583Y-13753D01*
X6583Y-14246D01*
X6544Y-14141D01*
X6304Y-14052D01*
X6048Y-14061D01*
X5855Y-14141D01*
X5816Y-14246D01*
X6200Y-14629D01*
X6583Y-14246D01*
X6583Y-14387D01*
X6270Y-14700D01*
X6653Y-15083D01*
X6667Y-15077D01*
X6834Y-15245D01*
X7071Y-15343D01*
X7327Y-15343D01*
X7564Y-15246D01*
X7639Y-15171D01*
X7659Y-15190D01*
X7659Y-15190D01*
X7803Y-15287D01*
X7974Y-15321D01*
X7975Y-15321D01*
X8254Y-15321D01*
X8307Y-15375D01*
X8254Y-15428D01*
X8025Y-15428D01*
X7853Y-15462D01*
X7709Y-15559D01*
X7639Y-15628D01*
X7565Y-15554D01*
X7328Y-15456D01*
X7072Y-15456D01*
X6835Y-15553D01*
X6667Y-15722D01*
X6653Y-15716D01*
X6583Y-15787D01*
X6583Y-15646D01*
X6583Y-15153D01*
X6200Y-14770D01*
X6129Y-14841D01*
X6129Y-14700D01*
X5746Y-14316D01*
X5641Y-14355D01*
X5552Y-14595D01*
X5561Y-14851D01*
X5641Y-15044D01*
X5746Y-15083D01*
X6129Y-14700D01*
X6129Y-14841D01*
X5816Y-15153D01*
X5855Y-15258D01*
X6095Y-15347D01*
X6351Y-15338D01*
X6544Y-15258D01*
X6583Y-15153D01*
X6583Y-15646D01*
X6544Y-15541D01*
X6304Y-15452D01*
X6048Y-15461D01*
X5855Y-15541D01*
X5816Y-15646D01*
X6200Y-16029D01*
X6583Y-15646D01*
X6583Y-15787D01*
X6270Y-16100D01*
X6653Y-16483D01*
X6667Y-16477D01*
X6834Y-16645D01*
X7071Y-16743D01*
X7327Y-16743D01*
X7564Y-16646D01*
X7663Y-16546D01*
X7800Y-16546D01*
X7971Y-16512D01*
X7971Y-16512D01*
X8076Y-16442D01*
X8076Y-16513D01*
X8076Y-16513D01*
X8009Y-16559D01*
X7684Y-16884D01*
X7608Y-16997D01*
X7565Y-16954D01*
X7328Y-16856D01*
X7072Y-16856D01*
X6835Y-16953D01*
X6667Y-17122D01*
X6653Y-17116D01*
X6583Y-17187D01*
X6583Y-17046D01*
X6583Y-16553D01*
X6200Y-16170D01*
X6129Y-16241D01*
X6129Y-16100D01*
X5746Y-15716D01*
X5641Y-15755D01*
X5552Y-15995D01*
X5561Y-16251D01*
X5641Y-16444D01*
X5746Y-16483D01*
X6129Y-16100D01*
X6129Y-16241D01*
X5816Y-16553D01*
X5855Y-16658D01*
X6095Y-16747D01*
X6351Y-16738D01*
X6544Y-16658D01*
X6583Y-16553D01*
X6583Y-17046D01*
X6544Y-16941D01*
X6304Y-16852D01*
X6048Y-16861D01*
X5855Y-16941D01*
X5816Y-17046D01*
X6200Y-17429D01*
X6583Y-17046D01*
X6583Y-17187D01*
X6270Y-17500D01*
X6653Y-17883D01*
X6667Y-17877D01*
X6834Y-18045D01*
X7071Y-18143D01*
X7327Y-18143D01*
X7564Y-18046D01*
X7663Y-17946D01*
X7900Y-17946D01*
X8071Y-17912D01*
X8071Y-17912D01*
X8081Y-17905D01*
X8086Y-18026D01*
X8166Y-18219D01*
X8271Y-18258D01*
X8654Y-17875D01*
X8648Y-17869D01*
X8719Y-17798D01*
X8725Y-17804D01*
X8730Y-17798D01*
X8801Y-17869D01*
X8795Y-17875D01*
X8801Y-17880D01*
X8730Y-17951D01*
X8725Y-17945D01*
X8341Y-18328D01*
X8347Y-18342D01*
X8269Y-18419D01*
X8269Y-18419D01*
X8269Y-18419D01*
X8269Y-18419D01*
X8179Y-18509D01*
X8179Y-18510D01*
X7912Y-18776D01*
X7678Y-18823D01*
X7405Y-19005D01*
X7223Y-19278D01*
X7159Y-19600D01*
X7159Y-26800D01*
X7223Y-27121D01*
X7405Y-27394D01*
X7605Y-27594D01*
X7878Y-27776D01*
X7878Y-27776D01*
X8200Y-27840D01*
X12051Y-27840D01*
X12380Y-28169D01*
X12380Y-28169D01*
X12653Y-28351D01*
X12653Y-28351D01*
X12974Y-28415D01*
X12975Y-28415D01*
X13625Y-28415D01*
X13946Y-28351D01*
X14219Y-28169D01*
X14723Y-27665D01*
X17625Y-27665D01*
X22526Y-27665D01*
X23014Y-28153D01*
X22407Y-28153D01*
X22236Y-28187D01*
X22225Y-28194D01*
X22041Y-28194D01*
X21805Y-28292D01*
X21623Y-28473D01*
X21525Y-28709D01*
X21525Y-28826D01*
X21353Y-28998D01*
X21256Y-29143D01*
X21222Y-29314D01*
X21222Y-29913D01*
X21185Y-29950D01*
X21124Y-29859D01*
X20915Y-29720D01*
X20669Y-29671D01*
X20422Y-29720D01*
X20239Y-29842D01*
X20231Y-29823D01*
X20161Y-29753D01*
X20069Y-29715D01*
X19969Y-29714D01*
X19817Y-29714D01*
X19817Y-28942D01*
X19807Y-28686D01*
X19728Y-28494D01*
X19623Y-28455D01*
X19552Y-28526D01*
X19552Y-28384D01*
X19513Y-28279D01*
X19273Y-28190D01*
X19017Y-28200D01*
X18825Y-28279D01*
X18786Y-28384D01*
X19169Y-28767D01*
X19552Y-28384D01*
X19552Y-28526D01*
X19240Y-28838D01*
X19623Y-29221D01*
X19728Y-29182D01*
X19817Y-28942D01*
X19817Y-29714D01*
X19781Y-29714D01*
X19719Y-29777D01*
X19719Y-30264D01*
X19727Y-30264D01*
X19727Y-30364D01*
X19719Y-30364D01*
X19719Y-30852D01*
X19781Y-30914D01*
X19969Y-30915D01*
X20025Y-30914D01*
X20025Y-31073D01*
X19892Y-31272D01*
X19828Y-31594D01*
X19892Y-31916D01*
X20074Y-32188D01*
X20284Y-32398D01*
X20284Y-32826D01*
X19619Y-33491D01*
X19619Y-30852D01*
X19619Y-30364D01*
X19619Y-30264D01*
X19619Y-29777D01*
X19556Y-29714D01*
X19552Y-29714D01*
X19552Y-29292D01*
X19169Y-28909D01*
X19098Y-28980D01*
X19098Y-28838D01*
X18715Y-28455D01*
X18610Y-28494D01*
X18521Y-28734D01*
X18530Y-28990D01*
X18610Y-29182D01*
X18715Y-29221D01*
X19098Y-28838D01*
X19098Y-28980D01*
X18786Y-29292D01*
X18825Y-29397D01*
X19065Y-29486D01*
X19321Y-29477D01*
X19513Y-29397D01*
X19552Y-29292D01*
X19552Y-29714D01*
X19368Y-29714D01*
X19269Y-29715D01*
X19177Y-29753D01*
X19107Y-29823D01*
X19069Y-29915D01*
X19069Y-30202D01*
X19131Y-30264D01*
X19619Y-30264D01*
X19619Y-30364D01*
X19131Y-30364D01*
X19069Y-30427D01*
X19069Y-30714D01*
X19107Y-30806D01*
X19177Y-30876D01*
X19269Y-30914D01*
X19368Y-30915D01*
X19556Y-30914D01*
X19619Y-30852D01*
X19619Y-33491D01*
X19530Y-33580D01*
X19348Y-33853D01*
X19284Y-34175D01*
X19284Y-35175D01*
X19348Y-35496D01*
X19530Y-35769D01*
X19803Y-35951D01*
X20125Y-36015D01*
X22125Y-36015D01*
X22446Y-35951D01*
X22630Y-35828D01*
X22969Y-35828D01*
X22980Y-35833D01*
X23238Y-35833D01*
X23476Y-35735D01*
X23610Y-35602D01*
X23742Y-35734D01*
X23980Y-35833D01*
X24238Y-35833D01*
X24250Y-35828D01*
X24619Y-35828D01*
X24803Y-35951D01*
X25125Y-36015D01*
X27125Y-36015D01*
X30125Y-36015D01*
X32125Y-36015D01*
X32446Y-35951D01*
X32719Y-35769D01*
X32901Y-35496D01*
X32965Y-35175D01*
X32965Y-34175D01*
X32901Y-33853D01*
X32901Y-33853D01*
X32719Y-33580D01*
X31965Y-32826D01*
X31965Y-31665D01*
X32200Y-31665D01*
X33125Y-31665D01*
X34375Y-31665D01*
X34400Y-31665D01*
X37125Y-31665D01*
X37446Y-31601D01*
X37719Y-31419D01*
X38395Y-30743D01*
X39199Y-30743D01*
X39200Y-30743D01*
X39327Y-30743D01*
X39446Y-30694D01*
X39564Y-30646D01*
X39655Y-30555D01*
X39655Y-30555D01*
X39655Y-30555D01*
X39745Y-30465D01*
X39794Y-30346D01*
X39843Y-30228D01*
X39843Y-30100D01*
X39843Y-29972D01*
X39843Y-31595D01*
X39659Y-31594D01*
X39132Y-31809D01*
X39120Y-31817D01*
X38985Y-32004D01*
X39937Y-32956D01*
X40888Y-32004D01*
X40888Y-32145D01*
X40007Y-33026D01*
X40959Y-33978D01*
X41130Y-33854D01*
X41130Y-34800D01*
X41130Y-35200D01*
X41130Y-36130D01*
M02*
